%TF.GenerationSoftware,KiCad,Pcbnew,9.0.6-9.0.6~ubuntu22.04.1*%
%TF.CreationDate,2026-03-21T15:17:46-07:00*%
%TF.ProjectId,pico-2v,7069636f-2d32-4762-9e6b-696361645f70,rev?*%
%TF.SameCoordinates,Original*%
%TF.FileFunction,Soldermask,Bot*%
%TF.FilePolarity,Negative*%
%FSLAX46Y46*%
G04 Gerber Fmt 4.6, Leading zero omitted, Abs format (unit mm)*
G04 Created by KiCad (PCBNEW 9.0.6-9.0.6~ubuntu22.04.1) date 2026-03-21 15:17:46*
%MOMM*%
%LPD*%
G01*
G04 APERTURE LIST*
%ADD10C,0.650000*%
%ADD11O,2.100000X1.000000*%
%ADD12O,1.600000X1.000000*%
%ADD13R,1.700000X1.700000*%
%ADD14C,1.700000*%
G04 APERTURE END LIST*
D10*
%TO.C,J1*%
X130100000Y-96110000D03*
X130100000Y-101890000D03*
D11*
X130630000Y-94680000D03*
D12*
X126450000Y-94680000D03*
D11*
X130630000Y-103320000D03*
D12*
X126450000Y-103320000D03*
%TD*%
D13*
%TO.C,J6*%
X138420000Y-95000000D03*
D14*
X140960000Y-95000000D03*
X143500000Y-95000000D03*
X146040000Y-95000000D03*
%TD*%
D13*
%TO.C,J5*%
X138420000Y-102620000D03*
D14*
X140960000Y-102620000D03*
X143500000Y-102620000D03*
X146040000Y-102620000D03*
%TD*%
D13*
%TO.C,J2*%
X165210000Y-105250000D03*
D14*
X167750000Y-105250000D03*
X170290000Y-105250000D03*
%TD*%
D13*
%TO.C,J4*%
X125000000Y-90000000D03*
D14*
X127540000Y-90000000D03*
X130080000Y-90000000D03*
X132620000Y-90000000D03*
X135160000Y-90000000D03*
X137700000Y-90000000D03*
X140240000Y-90000000D03*
X142780000Y-90000000D03*
X145320000Y-90000000D03*
X147860000Y-90000000D03*
X150400000Y-90000000D03*
X152940000Y-90000000D03*
X155480000Y-90000000D03*
X158020000Y-90000000D03*
X160560000Y-90000000D03*
X163100000Y-90000000D03*
X165640000Y-90000000D03*
X168180000Y-90000000D03*
X170720000Y-90000000D03*
X173260000Y-90000000D03*
%TD*%
D13*
%TO.C,J3*%
X125000000Y-107780000D03*
D14*
X127540000Y-107780000D03*
X130080000Y-107780000D03*
X132620000Y-107780000D03*
X135160000Y-107780000D03*
X137700000Y-107780000D03*
X140240000Y-107780000D03*
X142780000Y-107780000D03*
X145320000Y-107780000D03*
X147860000Y-107780000D03*
X150400000Y-107780000D03*
X152940000Y-107780000D03*
X155480000Y-107780000D03*
X158020000Y-107780000D03*
X160560000Y-107780000D03*
X163100000Y-107780000D03*
X165640000Y-107780000D03*
X168180000Y-107780000D03*
X170720000Y-107780000D03*
X173260000Y-107780000D03*
%TD*%
M02*
