%TF.GenerationSoftware,KiCad,Pcbnew,9.0.6-9.0.6~ubuntu22.04.1*%
%TF.CreationDate,2026-03-21T15:17:45-07:00*%
%TF.ProjectId,pico-2v,7069636f-2d32-4762-9e6b-696361645f70,rev?*%
%TF.SameCoordinates,Original*%
%TF.FileFunction,Legend,Bot*%
%TF.FilePolarity,Positive*%
%FSLAX46Y46*%
G04 Gerber Fmt 4.6, Leading zero omitted, Abs format (unit mm)*
G04 Created by KiCad (PCBNEW 9.0.6-9.0.6~ubuntu22.04.1) date 2026-03-21 15:17:45*
%MOMM*%
%LPD*%
G01*
G04 APERTURE LIST*
%ADD10C,0.175000*%
%ADD11C,0.000000*%
%ADD12C,0.120000*%
G04 APERTURE END LIST*
D10*
X137018202Y-105005233D02*
X137018202Y-104305233D01*
X137018202Y-104305233D02*
X136751535Y-104305233D01*
X136751535Y-104305233D02*
X136684869Y-104338566D01*
X136684869Y-104338566D02*
X136651535Y-104371900D01*
X136651535Y-104371900D02*
X136618202Y-104438566D01*
X136618202Y-104438566D02*
X136618202Y-104538566D01*
X136618202Y-104538566D02*
X136651535Y-104605233D01*
X136651535Y-104605233D02*
X136684869Y-104638566D01*
X136684869Y-104638566D02*
X136751535Y-104671900D01*
X136751535Y-104671900D02*
X137018202Y-104671900D01*
X136318202Y-105005233D02*
X136318202Y-104538566D01*
X136318202Y-104305233D02*
X136351535Y-104338566D01*
X136351535Y-104338566D02*
X136318202Y-104371900D01*
X136318202Y-104371900D02*
X136284869Y-104338566D01*
X136284869Y-104338566D02*
X136318202Y-104305233D01*
X136318202Y-104305233D02*
X136318202Y-104371900D01*
X135684869Y-104971900D02*
X135751536Y-105005233D01*
X135751536Y-105005233D02*
X135884869Y-105005233D01*
X135884869Y-105005233D02*
X135951536Y-104971900D01*
X135951536Y-104971900D02*
X135984869Y-104938566D01*
X135984869Y-104938566D02*
X136018202Y-104871900D01*
X136018202Y-104871900D02*
X136018202Y-104671900D01*
X136018202Y-104671900D02*
X135984869Y-104605233D01*
X135984869Y-104605233D02*
X135951536Y-104571900D01*
X135951536Y-104571900D02*
X135884869Y-104538566D01*
X135884869Y-104538566D02*
X135751536Y-104538566D01*
X135751536Y-104538566D02*
X135684869Y-104571900D01*
X135284869Y-105005233D02*
X135351536Y-104971900D01*
X135351536Y-104971900D02*
X135384869Y-104938566D01*
X135384869Y-104938566D02*
X135418202Y-104871900D01*
X135418202Y-104871900D02*
X135418202Y-104671900D01*
X135418202Y-104671900D02*
X135384869Y-104605233D01*
X135384869Y-104605233D02*
X135351536Y-104571900D01*
X135351536Y-104571900D02*
X135284869Y-104538566D01*
X135284869Y-104538566D02*
X135184869Y-104538566D01*
X135184869Y-104538566D02*
X135118202Y-104571900D01*
X135118202Y-104571900D02*
X135084869Y-104605233D01*
X135084869Y-104605233D02*
X135051536Y-104671900D01*
X135051536Y-104671900D02*
X135051536Y-104871900D01*
X135051536Y-104871900D02*
X135084869Y-104938566D01*
X135084869Y-104938566D02*
X135118202Y-104971900D01*
X135118202Y-104971900D02*
X135184869Y-105005233D01*
X135184869Y-105005233D02*
X135284869Y-105005233D01*
X134251536Y-104371900D02*
X134218203Y-104338566D01*
X134218203Y-104338566D02*
X134151536Y-104305233D01*
X134151536Y-104305233D02*
X133984870Y-104305233D01*
X133984870Y-104305233D02*
X133918203Y-104338566D01*
X133918203Y-104338566D02*
X133884870Y-104371900D01*
X133884870Y-104371900D02*
X133851536Y-104438566D01*
X133851536Y-104438566D02*
X133851536Y-104505233D01*
X133851536Y-104505233D02*
X133884870Y-104605233D01*
X133884870Y-104605233D02*
X134284870Y-105005233D01*
X134284870Y-105005233D02*
X133851536Y-105005233D01*
X133651536Y-104305233D02*
X133418203Y-105005233D01*
X133418203Y-105005233D02*
X133184869Y-104305233D01*
X132418203Y-105005233D02*
X132418203Y-104305233D01*
X132418203Y-104571900D02*
X132351536Y-104538566D01*
X132351536Y-104538566D02*
X132218203Y-104538566D01*
X132218203Y-104538566D02*
X132151536Y-104571900D01*
X132151536Y-104571900D02*
X132118203Y-104605233D01*
X132118203Y-104605233D02*
X132084870Y-104671900D01*
X132084870Y-104671900D02*
X132084870Y-104871900D01*
X132084870Y-104871900D02*
X132118203Y-104938566D01*
X132118203Y-104938566D02*
X132151536Y-104971900D01*
X132151536Y-104971900D02*
X132218203Y-105005233D01*
X132218203Y-105005233D02*
X132351536Y-105005233D01*
X132351536Y-105005233D02*
X132418203Y-104971900D01*
X131851537Y-104538566D02*
X131684870Y-105005233D01*
X131518203Y-104538566D02*
X131684870Y-105005233D01*
X131684870Y-105005233D02*
X131751537Y-105171900D01*
X131751537Y-105171900D02*
X131784870Y-105205233D01*
X131784870Y-105205233D02*
X131851537Y-105238566D01*
X130384871Y-105005233D02*
X130718204Y-105005233D01*
X130718204Y-105005233D02*
X130718204Y-104305233D01*
X129851537Y-104538566D02*
X129851537Y-105005233D01*
X130151537Y-104538566D02*
X130151537Y-104905233D01*
X130151537Y-104905233D02*
X130118204Y-104971900D01*
X130118204Y-104971900D02*
X130051537Y-105005233D01*
X130051537Y-105005233D02*
X129951537Y-105005233D01*
X129951537Y-105005233D02*
X129884870Y-104971900D01*
X129884870Y-104971900D02*
X129851537Y-104938566D01*
X129218204Y-104971900D02*
X129284871Y-105005233D01*
X129284871Y-105005233D02*
X129418204Y-105005233D01*
X129418204Y-105005233D02*
X129484871Y-104971900D01*
X129484871Y-104971900D02*
X129518204Y-104938566D01*
X129518204Y-104938566D02*
X129551537Y-104871900D01*
X129551537Y-104871900D02*
X129551537Y-104671900D01*
X129551537Y-104671900D02*
X129518204Y-104605233D01*
X129518204Y-104605233D02*
X129484871Y-104571900D01*
X129484871Y-104571900D02*
X129418204Y-104538566D01*
X129418204Y-104538566D02*
X129284871Y-104538566D01*
X129284871Y-104538566D02*
X129218204Y-104571900D01*
X128618204Y-105005233D02*
X128618204Y-104638566D01*
X128618204Y-104638566D02*
X128651537Y-104571900D01*
X128651537Y-104571900D02*
X128718204Y-104538566D01*
X128718204Y-104538566D02*
X128851537Y-104538566D01*
X128851537Y-104538566D02*
X128918204Y-104571900D01*
X128618204Y-104971900D02*
X128684871Y-105005233D01*
X128684871Y-105005233D02*
X128851537Y-105005233D01*
X128851537Y-105005233D02*
X128918204Y-104971900D01*
X128918204Y-104971900D02*
X128951537Y-104905233D01*
X128951537Y-104905233D02*
X128951537Y-104838566D01*
X128951537Y-104838566D02*
X128918204Y-104771900D01*
X128918204Y-104771900D02*
X128851537Y-104738566D01*
X128851537Y-104738566D02*
X128684871Y-104738566D01*
X128684871Y-104738566D02*
X128618204Y-104705233D01*
X128318204Y-104971900D02*
X128251538Y-105005233D01*
X128251538Y-105005233D02*
X128118204Y-105005233D01*
X128118204Y-105005233D02*
X128051538Y-104971900D01*
X128051538Y-104971900D02*
X128018204Y-104905233D01*
X128018204Y-104905233D02*
X128018204Y-104871900D01*
X128018204Y-104871900D02*
X128051538Y-104805233D01*
X128051538Y-104805233D02*
X128118204Y-104771900D01*
X128118204Y-104771900D02*
X128218204Y-104771900D01*
X128218204Y-104771900D02*
X128284871Y-104738566D01*
X128284871Y-104738566D02*
X128318204Y-104671900D01*
X128318204Y-104671900D02*
X128318204Y-104638566D01*
X128318204Y-104638566D02*
X128284871Y-104571900D01*
X128284871Y-104571900D02*
X128218204Y-104538566D01*
X128218204Y-104538566D02*
X128118204Y-104538566D01*
X128118204Y-104538566D02*
X128051538Y-104571900D01*
X126951538Y-104638566D02*
X126851538Y-104671900D01*
X126851538Y-104671900D02*
X126818204Y-104705233D01*
X126818204Y-104705233D02*
X126784871Y-104771900D01*
X126784871Y-104771900D02*
X126784871Y-104871900D01*
X126784871Y-104871900D02*
X126818204Y-104938566D01*
X126818204Y-104938566D02*
X126851538Y-104971900D01*
X126851538Y-104971900D02*
X126918204Y-105005233D01*
X126918204Y-105005233D02*
X127184871Y-105005233D01*
X127184871Y-105005233D02*
X127184871Y-104305233D01*
X127184871Y-104305233D02*
X126951538Y-104305233D01*
X126951538Y-104305233D02*
X126884871Y-104338566D01*
X126884871Y-104338566D02*
X126851538Y-104371900D01*
X126851538Y-104371900D02*
X126818204Y-104438566D01*
X126818204Y-104438566D02*
X126818204Y-104505233D01*
X126818204Y-104505233D02*
X126851538Y-104571900D01*
X126851538Y-104571900D02*
X126884871Y-104605233D01*
X126884871Y-104605233D02*
X126951538Y-104638566D01*
X126951538Y-104638566D02*
X127184871Y-104638566D01*
X126184871Y-105005233D02*
X126184871Y-104638566D01*
X126184871Y-104638566D02*
X126218204Y-104571900D01*
X126218204Y-104571900D02*
X126284871Y-104538566D01*
X126284871Y-104538566D02*
X126418204Y-104538566D01*
X126418204Y-104538566D02*
X126484871Y-104571900D01*
X126184871Y-104971900D02*
X126251538Y-105005233D01*
X126251538Y-105005233D02*
X126418204Y-105005233D01*
X126418204Y-105005233D02*
X126484871Y-104971900D01*
X126484871Y-104971900D02*
X126518204Y-104905233D01*
X126518204Y-104905233D02*
X126518204Y-104838566D01*
X126518204Y-104838566D02*
X126484871Y-104771900D01*
X126484871Y-104771900D02*
X126418204Y-104738566D01*
X126418204Y-104738566D02*
X126251538Y-104738566D01*
X126251538Y-104738566D02*
X126184871Y-104705233D01*
X125851538Y-105005233D02*
X125851538Y-104538566D01*
X125851538Y-104305233D02*
X125884871Y-104338566D01*
X125884871Y-104338566D02*
X125851538Y-104371900D01*
X125851538Y-104371900D02*
X125818205Y-104338566D01*
X125818205Y-104338566D02*
X125851538Y-104305233D01*
X125851538Y-104305233D02*
X125851538Y-104371900D01*
X125584872Y-104538566D02*
X125218205Y-104538566D01*
X125218205Y-104538566D02*
X125584872Y-105005233D01*
X125584872Y-105005233D02*
X125218205Y-105005233D01*
X124684871Y-104971900D02*
X124751538Y-105005233D01*
X124751538Y-105005233D02*
X124884871Y-105005233D01*
X124884871Y-105005233D02*
X124951538Y-104971900D01*
X124951538Y-104971900D02*
X124984871Y-104905233D01*
X124984871Y-104905233D02*
X124984871Y-104638566D01*
X124984871Y-104638566D02*
X124951538Y-104571900D01*
X124951538Y-104571900D02*
X124884871Y-104538566D01*
X124884871Y-104538566D02*
X124751538Y-104538566D01*
X124751538Y-104538566D02*
X124684871Y-104571900D01*
X124684871Y-104571900D02*
X124651538Y-104638566D01*
X124651538Y-104638566D02*
X124651538Y-104705233D01*
X124651538Y-104705233D02*
X124984871Y-104771900D01*
X124351538Y-105005233D02*
X124351538Y-104538566D01*
X124351538Y-104671900D02*
X124318205Y-104605233D01*
X124318205Y-104605233D02*
X124284871Y-104571900D01*
X124284871Y-104571900D02*
X124218205Y-104538566D01*
X124218205Y-104538566D02*
X124151538Y-104538566D01*
X126918202Y-106105233D02*
X126918202Y-105638566D01*
X126918202Y-105771900D02*
X126884869Y-105705233D01*
X126884869Y-105705233D02*
X126851535Y-105671900D01*
X126851535Y-105671900D02*
X126784869Y-105638566D01*
X126784869Y-105638566D02*
X126718202Y-105638566D01*
X126218202Y-106071900D02*
X126284869Y-106105233D01*
X126284869Y-106105233D02*
X126418202Y-106105233D01*
X126418202Y-106105233D02*
X126484869Y-106071900D01*
X126484869Y-106071900D02*
X126518202Y-106005233D01*
X126518202Y-106005233D02*
X126518202Y-105738566D01*
X126518202Y-105738566D02*
X126484869Y-105671900D01*
X126484869Y-105671900D02*
X126418202Y-105638566D01*
X126418202Y-105638566D02*
X126284869Y-105638566D01*
X126284869Y-105638566D02*
X126218202Y-105671900D01*
X126218202Y-105671900D02*
X126184869Y-105738566D01*
X126184869Y-105738566D02*
X126184869Y-105805233D01*
X126184869Y-105805233D02*
X126518202Y-105871900D01*
X125951536Y-105638566D02*
X125784869Y-106105233D01*
X125784869Y-106105233D02*
X125618202Y-105638566D01*
X125351536Y-106038566D02*
X125318203Y-106071900D01*
X125318203Y-106071900D02*
X125351536Y-106105233D01*
X125351536Y-106105233D02*
X125384869Y-106071900D01*
X125384869Y-106071900D02*
X125351536Y-106038566D01*
X125351536Y-106038566D02*
X125351536Y-106105233D01*
X124351537Y-105405233D02*
X124284870Y-105405233D01*
X124284870Y-105405233D02*
X124218203Y-105438566D01*
X124218203Y-105438566D02*
X124184870Y-105471900D01*
X124184870Y-105471900D02*
X124151537Y-105538566D01*
X124151537Y-105538566D02*
X124118203Y-105671900D01*
X124118203Y-105671900D02*
X124118203Y-105838566D01*
X124118203Y-105838566D02*
X124151537Y-105971900D01*
X124151537Y-105971900D02*
X124184870Y-106038566D01*
X124184870Y-106038566D02*
X124218203Y-106071900D01*
X124218203Y-106071900D02*
X124284870Y-106105233D01*
X124284870Y-106105233D02*
X124351537Y-106105233D01*
X124351537Y-106105233D02*
X124418203Y-106071900D01*
X124418203Y-106071900D02*
X124451537Y-106038566D01*
X124451537Y-106038566D02*
X124484870Y-105971900D01*
X124484870Y-105971900D02*
X124518203Y-105838566D01*
X124518203Y-105838566D02*
X124518203Y-105671900D01*
X124518203Y-105671900D02*
X124484870Y-105538566D01*
X124484870Y-105538566D02*
X124451537Y-105471900D01*
X124451537Y-105471900D02*
X124418203Y-105438566D01*
X124418203Y-105438566D02*
X124351537Y-105405233D01*
D11*
%TO.C,REF\u002A\u002A*%
G36*
X128303900Y-96650485D02*
G01*
X128377842Y-96653958D01*
X128450761Y-96660830D01*
X128522706Y-96671171D01*
X128593726Y-96685054D01*
X128663871Y-96702549D01*
X128733191Y-96723725D01*
X128801734Y-96748656D01*
X128869550Y-96777410D01*
X128936688Y-96810059D01*
X129003198Y-96846673D01*
X129069129Y-96887325D01*
X129134531Y-96932083D01*
X129199452Y-96981020D01*
X129263944Y-97034205D01*
X129328053Y-97091711D01*
X129391831Y-97153606D01*
X129455326Y-97219964D01*
X129518589Y-97290853D01*
X129581667Y-97366345D01*
X129644611Y-97446512D01*
X129770294Y-97621149D01*
X129896032Y-97815331D01*
X130022221Y-98029624D01*
X129879294Y-97965726D01*
X129743749Y-97914627D01*
X129615135Y-97875610D01*
X129492999Y-97847962D01*
X129376891Y-97830968D01*
X129266358Y-97823915D01*
X129160949Y-97826086D01*
X129060213Y-97836769D01*
X128963698Y-97855249D01*
X128870952Y-97880810D01*
X128781523Y-97912740D01*
X128694961Y-97950323D01*
X128610813Y-97992844D01*
X128528629Y-98039590D01*
X128447956Y-98089846D01*
X128368342Y-98142898D01*
X128281735Y-98199547D01*
X128195902Y-98250914D01*
X128111507Y-98297221D01*
X128029215Y-98338694D01*
X127949689Y-98375558D01*
X127873594Y-98408037D01*
X127801594Y-98436356D01*
X127734353Y-98460740D01*
X127616805Y-98498602D01*
X127526264Y-98523420D01*
X127447455Y-98541117D01*
X127462346Y-98551617D01*
X127480651Y-98563430D01*
X127505919Y-98578451D01*
X127537944Y-98595806D01*
X127576519Y-98614619D01*
X127621438Y-98634015D01*
X127646212Y-98643659D01*
X127672495Y-98653120D01*
X127700260Y-98662289D01*
X127729481Y-98671058D01*
X127760134Y-98679316D01*
X127792192Y-98686954D01*
X127825629Y-98693863D01*
X127860419Y-98699933D01*
X127896537Y-98705055D01*
X127933957Y-98709120D01*
X127972653Y-98712018D01*
X128012599Y-98713640D01*
X128053769Y-98713876D01*
X128096138Y-98712618D01*
X128139680Y-98709755D01*
X128184368Y-98705179D01*
X128230177Y-98698779D01*
X128277082Y-98690447D01*
X128230366Y-98730632D01*
X128182090Y-98768764D01*
X128081422Y-98839024D01*
X127976209Y-98901530D01*
X127867581Y-98956587D01*
X127756668Y-99004498D01*
X127644600Y-99045566D01*
X127532508Y-99080096D01*
X127421521Y-99108391D01*
X127312771Y-99130755D01*
X127207386Y-99147492D01*
X127106499Y-99158905D01*
X127011238Y-99165298D01*
X126922734Y-99166976D01*
X126842117Y-99164240D01*
X126770517Y-99157397D01*
X126709066Y-99146748D01*
X126776518Y-99238248D01*
X126848493Y-99326334D01*
X126924771Y-99410929D01*
X127005133Y-99491955D01*
X127089360Y-99569331D01*
X127177232Y-99642981D01*
X127268529Y-99712826D01*
X127363033Y-99778787D01*
X127460523Y-99840787D01*
X127560779Y-99898746D01*
X127663584Y-99952586D01*
X127768716Y-100002230D01*
X127875957Y-100047597D01*
X127985087Y-100088611D01*
X128095886Y-100125193D01*
X128208136Y-100157264D01*
X128321615Y-100184746D01*
X128436106Y-100207561D01*
X128551389Y-100225630D01*
X128667244Y-100238875D01*
X128783451Y-100247217D01*
X128899791Y-100250578D01*
X129016045Y-100248880D01*
X129131992Y-100242044D01*
X129247415Y-100229992D01*
X129362092Y-100212645D01*
X129475805Y-100189926D01*
X129588334Y-100161755D01*
X129699460Y-100128054D01*
X129808962Y-100088746D01*
X129916623Y-100043751D01*
X130022221Y-99992991D01*
X129858308Y-100263037D01*
X129689960Y-100503162D01*
X129517753Y-100714689D01*
X129342263Y-100898939D01*
X129164065Y-101057235D01*
X128983733Y-101190899D01*
X128801845Y-101301253D01*
X128618974Y-101389620D01*
X128435696Y-101457322D01*
X128252587Y-101505681D01*
X128070223Y-101536020D01*
X127889177Y-101549660D01*
X127710027Y-101547924D01*
X127533346Y-101532135D01*
X127359711Y-101503614D01*
X127189698Y-101463684D01*
X127023880Y-101413667D01*
X126862834Y-101354885D01*
X126557359Y-101216317D01*
X126277876Y-101058558D01*
X126028987Y-100892185D01*
X125815295Y-100727777D01*
X125641404Y-100575913D01*
X125511917Y-100447170D01*
X125431436Y-100352126D01*
X125488124Y-100375710D01*
X125548862Y-100396501D01*
X125612985Y-100414226D01*
X125679827Y-100428614D01*
X125748724Y-100439392D01*
X125819009Y-100446289D01*
X125890018Y-100449031D01*
X125961085Y-100447348D01*
X126031545Y-100440966D01*
X126100733Y-100429615D01*
X126167983Y-100413021D01*
X126200673Y-100402672D01*
X126232629Y-100390912D01*
X126263769Y-100377705D01*
X126294008Y-100363017D01*
X126323264Y-100346814D01*
X126351453Y-100329062D01*
X126378492Y-100309728D01*
X126404299Y-100288778D01*
X126428789Y-100266176D01*
X126451880Y-100241890D01*
X126294485Y-100197429D01*
X126144922Y-100149380D01*
X126003005Y-100098070D01*
X125868550Y-100043827D01*
X125741370Y-99986978D01*
X125621278Y-99927853D01*
X125508090Y-99866779D01*
X125401618Y-99804083D01*
X125301677Y-99740094D01*
X125208081Y-99675140D01*
X125039180Y-99543646D01*
X124893427Y-99412225D01*
X124769333Y-99283500D01*
X124665411Y-99160095D01*
X124580173Y-99044633D01*
X124512131Y-98939738D01*
X124459797Y-98848031D01*
X124396300Y-98714680D01*
X124377780Y-98665566D01*
X124461235Y-98675847D01*
X124545116Y-98681893D01*
X124629363Y-98683846D01*
X124713916Y-98681847D01*
X124883699Y-98666551D01*
X125053984Y-98637134D01*
X125224291Y-98594719D01*
X125394137Y-98540434D01*
X125563043Y-98475403D01*
X125730527Y-98400754D01*
X125896108Y-98317611D01*
X126059305Y-98227101D01*
X126219637Y-98130349D01*
X126376623Y-98028482D01*
X126529783Y-97922625D01*
X126678634Y-97813904D01*
X126822697Y-97703445D01*
X126961489Y-97592374D01*
X126833494Y-97584196D01*
X126713393Y-97573990D01*
X126655554Y-97567529D01*
X126598792Y-97559847D01*
X126542806Y-97550703D01*
X126487298Y-97539860D01*
X126431968Y-97527080D01*
X126376518Y-97512124D01*
X126320648Y-97494753D01*
X126264060Y-97474729D01*
X126206453Y-97451815D01*
X126147530Y-97425770D01*
X126086991Y-97396358D01*
X126024536Y-97363340D01*
X126084478Y-97358130D01*
X126143768Y-97350434D01*
X126260564Y-97328173D01*
X126375275Y-97297741D01*
X126488250Y-97260321D01*
X126599839Y-97217097D01*
X126710393Y-97169253D01*
X126929795Y-97064437D01*
X127149254Y-96955342D01*
X127259882Y-96902149D01*
X127371573Y-96851437D01*
X127484680Y-96804388D01*
X127599552Y-96762188D01*
X127716538Y-96726020D01*
X127835990Y-96697066D01*
X127996909Y-96669170D01*
X128152748Y-96653454D01*
X128228885Y-96650341D01*
X128303900Y-96650485D01*
G37*
D12*
%TO.C,J4*%
X123620000Y-88620000D02*
X123620000Y-90000000D01*
X125000000Y-88620000D02*
X123620000Y-88620000D01*
X126270000Y-88620000D02*
X126270000Y-91380000D01*
X126270000Y-88620000D02*
X174640000Y-88620000D01*
X126270000Y-91380000D02*
X174640000Y-91380000D01*
X174640000Y-88620000D02*
X174640000Y-91380000D01*
%TO.C,J3*%
X123620000Y-106400000D02*
X123620000Y-107780000D01*
X125000000Y-106400000D02*
X123620000Y-106400000D01*
X126270000Y-106400000D02*
X126270000Y-109160000D01*
X126270000Y-106400000D02*
X174640000Y-106400000D01*
X126270000Y-109160000D02*
X174640000Y-109160000D01*
X174640000Y-106400000D02*
X174640000Y-109160000D01*
%TD*%
M02*
