%TF.GenerationSoftware,KiCad,Pcbnew,9.0.6-9.0.6~ubuntu22.04.1*%
%TF.CreationDate,2026-03-21T15:17:45-07:00*%
%TF.ProjectId,pico-2v,7069636f-2d32-4762-9e6b-696361645f70,rev?*%
%TF.SameCoordinates,Original*%
%TF.FileFunction,Copper,L2,Inr*%
%TF.FilePolarity,Positive*%
%FSLAX46Y46*%
G04 Gerber Fmt 4.6, Leading zero omitted, Abs format (unit mm)*
G04 Created by KiCad (PCBNEW 9.0.6-9.0.6~ubuntu22.04.1) date 2026-03-21 15:17:45*
%MOMM*%
%LPD*%
G01*
G04 APERTURE LIST*
%TA.AperFunction,HeatsinkPad*%
%ADD10O,2.100000X1.000000*%
%TD*%
%TA.AperFunction,HeatsinkPad*%
%ADD11O,1.600000X1.000000*%
%TD*%
%TA.AperFunction,ComponentPad*%
%ADD12C,0.600000*%
%TD*%
%TA.AperFunction,ComponentPad*%
%ADD13R,1.700000X1.700000*%
%TD*%
%TA.AperFunction,ComponentPad*%
%ADD14C,1.700000*%
%TD*%
%TA.AperFunction,ViaPad*%
%ADD15C,0.450000*%
%TD*%
%TA.AperFunction,Conductor*%
%ADD16C,0.300000*%
%TD*%
G04 APERTURE END LIST*
D10*
%TO.N,GND*%
%TO.C,J1*%
X130630000Y-94680000D03*
D11*
X126450000Y-94680000D03*
D10*
X130630000Y-103320000D03*
D11*
X126450000Y-103320000D03*
%TD*%
D12*
%TO.N,GND*%
%TO.C,U1*%
X162075000Y-99875000D03*
X162075000Y-98500000D03*
X162075000Y-97125000D03*
X160700000Y-99875000D03*
X160700000Y-98500000D03*
X160700000Y-97125000D03*
X159325000Y-99875000D03*
X159325000Y-98500000D03*
X159325000Y-97125000D03*
%TD*%
D13*
%TO.N,VDD*%
%TO.C,J6*%
X138420000Y-95000000D03*
D14*
%TO.N,QSPI_SD3*%
X140960000Y-95000000D03*
%TO.N,QSPI_SCLK*%
X143500000Y-95000000D03*
%TO.N,QSPI_SD0*%
X146040000Y-95000000D03*
%TD*%
D13*
%TO.N,QSPI_SS*%
%TO.C,J5*%
X138420000Y-102620000D03*
D14*
%TO.N,QSPI_SD1*%
X140960000Y-102620000D03*
%TO.N,QSPI_SD2*%
X143500000Y-102620000D03*
%TO.N,GND*%
X146040000Y-102620000D03*
%TD*%
D13*
%TO.N,+3V3*%
%TO.C,J2*%
X165210000Y-105250000D03*
D14*
%TO.N,VDD*%
X167750000Y-105250000D03*
%TO.N,+1V8*%
X170290000Y-105250000D03*
%TD*%
D13*
%TO.N,VBUS*%
%TO.C,J4*%
X125000000Y-90000000D03*
D14*
%TO.N,VSYS*%
X127540000Y-90000000D03*
%TO.N,GND*%
X130080000Y-90000000D03*
%TO.N,unconnected-(J4-Pin_4-Pad4)*%
X132620000Y-90000000D03*
%TO.N,VDD*%
X135160000Y-90000000D03*
%TO.N,+3V3*%
X137700000Y-90000000D03*
%TO.N,GPIO28*%
X140240000Y-90000000D03*
%TO.N,GND*%
X142780000Y-90000000D03*
%TO.N,GPIO27*%
X145320000Y-90000000D03*
%TO.N,GPIO26*%
X147860000Y-90000000D03*
%TO.N,RUN*%
X150400000Y-90000000D03*
%TO.N,GPIO22*%
X152940000Y-90000000D03*
%TO.N,GND*%
X155480000Y-90000000D03*
%TO.N,GPIO21*%
X158020000Y-90000000D03*
%TO.N,GPIO20*%
X160560000Y-90000000D03*
%TO.N,GPIO19*%
X163100000Y-90000000D03*
%TO.N,GPIO18*%
X165640000Y-90000000D03*
%TO.N,GND*%
X168180000Y-90000000D03*
%TO.N,GPIO17*%
X170720000Y-90000000D03*
%TO.N,GPIO16*%
X173260000Y-90000000D03*
%TD*%
D13*
%TO.N,GPIO0*%
%TO.C,J3*%
X125000000Y-107780000D03*
D14*
%TO.N,GPIO1*%
X127540000Y-107780000D03*
%TO.N,GND*%
X130080000Y-107780000D03*
%TO.N,GPIO2*%
X132620000Y-107780000D03*
%TO.N,GPIO3*%
X135160000Y-107780000D03*
%TO.N,GPIO4*%
X137700000Y-107780000D03*
%TO.N,GPIO5*%
X140240000Y-107780000D03*
%TO.N,GND*%
X142780000Y-107780000D03*
%TO.N,GPIO6*%
X145320000Y-107780000D03*
%TO.N,GPIO7*%
X147860000Y-107780000D03*
%TO.N,GPIO8*%
X150400000Y-107780000D03*
%TO.N,GPIO9*%
X152940000Y-107780000D03*
%TO.N,GND*%
X155480000Y-107780000D03*
%TO.N,GPIO10*%
X158020000Y-107780000D03*
%TO.N,GPIO11*%
X160560000Y-107780000D03*
%TO.N,GPIO12*%
X163100000Y-107780000D03*
%TO.N,GPIO13*%
X165640000Y-107780000D03*
%TO.N,GND*%
X168180000Y-107780000D03*
%TO.N,GPIO14*%
X170720000Y-107780000D03*
%TO.N,GPIO15*%
X173260000Y-107780000D03*
%TD*%
D15*
%TO.N,+3V3*%
X168800000Y-102650000D03*
X172000000Y-102800000D03*
X140250000Y-100500000D03*
X164800000Y-93200000D03*
X141750000Y-101000000D03*
X140750000Y-101000000D03*
X160283502Y-91397250D03*
%TO.N,GND*%
X140250000Y-92250000D03*
X165480000Y-102750000D03*
X155500000Y-106100000D03*
X169550000Y-96750000D03*
X149500000Y-97750000D03*
X156800000Y-105400000D03*
X166520000Y-102750000D03*
X153750000Y-105500000D03*
X151250000Y-94750000D03*
X161098415Y-105393659D03*
X159500000Y-106067500D03*
X165500000Y-95700000D03*
X173250000Y-105000000D03*
X166250000Y-93500000D03*
X130900000Y-92000000D03*
X127500000Y-92500000D03*
X154270000Y-99750000D03*
X162300000Y-91700000D03*
X154270000Y-97500000D03*
X147000000Y-100230000D03*
X163700000Y-94100000D03*
X171750000Y-99500000D03*
X134900000Y-101700000D03*
X145000000Y-100250000D03*
X125000000Y-101500000D03*
X167000000Y-100000000D03*
X173000000Y-92250000D03*
X169550000Y-99290000D03*
X148700000Y-103250000D03*
X155020000Y-95500000D03*
%TO.N,+1V1*%
X167800000Y-98200000D03*
X153812190Y-106121901D03*
X160419000Y-105220904D03*
%TO.N,VDD*%
X171500000Y-94000000D03*
X165000000Y-94000000D03*
X158500000Y-105250000D03*
X164750000Y-102250000D03*
X157510000Y-92240000D03*
X155990000Y-95510000D03*
X140500000Y-106250000D03*
X166250000Y-100000000D03*
X165500000Y-93500000D03*
X155230000Y-99750000D03*
%TO.N,+1V8*%
X149250000Y-99462960D03*
X149250000Y-100500000D03*
X149250000Y-100000000D03*
%TO.N,RUN*%
X161750000Y-101000000D03*
%TO.N,VBUS*%
X131545000Y-96550000D03*
X135750000Y-97750000D03*
%TO.N,USB_D+*%
X160900000Y-91500000D03*
X136000000Y-98500000D03*
%TO.N,USB_D-*%
X161600000Y-91500000D03*
X133750000Y-98750000D03*
%TO.N,GPIO13*%
X157309020Y-102529510D03*
%TO.N,GPIO2*%
X158500000Y-97250000D03*
%TO.N,GPIO8*%
X154500000Y-101250000D03*
%TO.N,GPIO11*%
X156470490Y-101690980D03*
%TO.N,GPIO14*%
X158500000Y-101000000D03*
%TO.N,GPIO15*%
X159750000Y-101000000D03*
%TO.N,GPIO4*%
X158250000Y-99750000D03*
%TO.N,GPIO7*%
X153750000Y-101250000D03*
%TO.N,GPIO1*%
X153000000Y-97500000D03*
%TO.N,GPIO10*%
X156000000Y-101250000D03*
%TO.N,GPIO5*%
X152631961Y-100690980D03*
%TO.N,GPIO3*%
X158500000Y-98000000D03*
%TO.N,GPIO0*%
X152250000Y-97250000D03*
%TO.N,GPIO9*%
X155250000Y-101250000D03*
%TO.N,GPIO12*%
X156750000Y-102250000D03*
%TO.N,GPIO6*%
X153190980Y-100970490D03*
%TO.N,GPIO26*%
X165250000Y-97000000D03*
%TO.N,GPIO21*%
X165400000Y-100000000D03*
%TO.N,GPIO28*%
X163000000Y-97000000D03*
%TO.N,GPIO16*%
X160500000Y-100750000D03*
%TO.N,GPIO17*%
X167250000Y-95250000D03*
X163000000Y-100750000D03*
%TO.N,GPIO20*%
X165600000Y-100600000D03*
%TO.N,GPIO27*%
X163000000Y-97625003D03*
%TO.N,GPIO19*%
X165250000Y-101500000D03*
%TO.N,GPIO22*%
X165000000Y-99250000D03*
%TO.N,GPIO18*%
X166500000Y-101750000D03*
%TO.N,SWDIO*%
X173450000Y-94210000D03*
X162000000Y-106000000D03*
%TO.N,SWCLK*%
X173450000Y-95480000D03*
X161250000Y-106000000D03*
%TO.N,QSPI_SD0*%
X158750000Y-96500000D03*
%TO.N,QSPI_SD2*%
X158190980Y-96220490D03*
%TO.N,QSPI_SD3*%
X160750000Y-96250000D03*
%TO.N,QSPI_SD1*%
X154750000Y-94000000D03*
%TO.N,QSPI_SCLK*%
X159750000Y-96250000D03*
%TO.N,GPIO25*%
X163000000Y-99200000D03*
X136187500Y-92100000D03*
%TD*%
D16*
%TO.N,+3V3*%
X138821000Y-88879000D02*
X137700000Y-90000000D01*
X161620768Y-93000000D02*
X160283502Y-91662734D01*
X161620768Y-93000000D02*
X164600000Y-93000000D01*
X160283502Y-91662734D02*
X160283502Y-91397250D01*
X159250000Y-90629232D02*
X159250000Y-89250000D01*
X164600000Y-93000000D02*
X164800000Y-93200000D01*
X158879000Y-88879000D02*
X138821000Y-88879000D01*
X160018018Y-91397250D02*
X159250000Y-90629232D01*
X159250000Y-89250000D02*
X158879000Y-88879000D01*
X160283502Y-91397250D02*
X160018018Y-91397250D01*
%TO.N,GPIO13*%
X163521000Y-106615666D02*
X164685334Y-107780000D01*
X157309020Y-102529510D02*
X160389510Y-102529510D01*
X163521000Y-105675616D02*
X163521000Y-106615666D01*
X160389510Y-102544126D02*
X163521000Y-105675616D01*
X164685334Y-107780000D02*
X165640000Y-107780000D01*
X160389510Y-102529510D02*
X160389510Y-102544126D01*
%TO.N,GPIO2*%
X150000000Y-104250000D02*
X151013232Y-103236768D01*
X132620000Y-107780000D02*
X136150000Y-104250000D01*
X136150000Y-104250000D02*
X150000000Y-104250000D01*
X154041768Y-96949000D02*
X158199000Y-96949000D01*
X151013232Y-100339709D02*
X153719000Y-97633941D01*
X153719000Y-97633941D02*
X153719000Y-97271768D01*
X158199000Y-96949000D02*
X158500000Y-97250000D01*
X153719000Y-97271768D02*
X154041768Y-96949000D01*
X151013232Y-103236768D02*
X151013232Y-100339709D01*
%TO.N,GPIO8*%
X150400000Y-107780000D02*
X154500000Y-103680000D01*
X154500000Y-103680000D02*
X154500000Y-101250000D01*
%TO.N,GPIO11*%
X156199000Y-101962470D02*
X156470490Y-101690980D01*
X160560000Y-107780000D02*
X160180000Y-107780000D01*
X160180000Y-107780000D02*
X156199000Y-103799000D01*
X156199000Y-103799000D02*
X156199000Y-101962470D01*
%TO.N,GPIO14*%
X164377000Y-106659000D02*
X163942000Y-106224000D01*
X163942000Y-106224000D02*
X163942000Y-105501232D01*
X158500000Y-102000000D02*
X158500000Y-101000000D01*
X158608510Y-102108510D02*
X158500000Y-102000000D01*
X170720000Y-107780000D02*
X169599000Y-106659000D01*
X160563894Y-102108510D02*
X158608510Y-102108510D01*
X163942000Y-105501232D02*
X163845384Y-105404616D01*
X163845384Y-105404616D02*
X163845384Y-105390000D01*
X169599000Y-106659000D02*
X164377000Y-106659000D01*
X163845384Y-105390000D02*
X160563894Y-102108510D01*
%TO.N,GPIO15*%
X173260000Y-106577919D02*
X170656697Y-103974616D01*
X163025384Y-103974616D02*
X160738278Y-101687510D01*
X173260000Y-107780000D02*
X173260000Y-106577919D01*
X160738278Y-101687510D02*
X160437510Y-101687510D01*
X170656697Y-103974616D02*
X163025384Y-103974616D01*
X160437510Y-101687510D02*
X159750000Y-101000000D01*
%TO.N,GPIO4*%
X153793709Y-98750000D02*
X158000000Y-98750000D01*
X140243000Y-105237000D02*
X150476848Y-105237000D01*
X151981924Y-103731924D02*
X151981924Y-100561785D01*
X158250000Y-99000000D02*
X158250000Y-99750000D01*
X151981924Y-100561785D02*
X153793709Y-98750000D01*
X158000000Y-98750000D02*
X158250000Y-99000000D01*
X150476848Y-105237000D02*
X151981924Y-103731924D01*
X137700000Y-107780000D02*
X140243000Y-105237000D01*
%TO.N,GPIO7*%
X147860000Y-107780000D02*
X149140000Y-106500000D01*
X151000000Y-106500000D02*
X153750000Y-103750000D01*
X153750000Y-103750000D02*
X153750000Y-101250000D01*
X149140000Y-106500000D02*
X151000000Y-106500000D01*
%TO.N,GPIO1*%
X136044334Y-103801000D02*
X135993334Y-103750000D01*
X149853616Y-103801000D02*
X136044334Y-103801000D01*
X133084334Y-106659000D02*
X128661000Y-106659000D01*
X128661000Y-106659000D02*
X127540000Y-107780000D01*
X150592232Y-99907768D02*
X150592232Y-103062384D01*
X153000000Y-97500000D02*
X150592232Y-99907768D01*
X150592232Y-103062384D02*
X149853616Y-103801000D01*
X135993334Y-103750000D02*
X133084334Y-106659000D01*
%TO.N,GPIO10*%
X158020000Y-107780000D02*
X155778000Y-105538000D01*
X155778000Y-101472000D02*
X156000000Y-101250000D01*
X155778000Y-105538000D02*
X155778000Y-101472000D01*
%TO.N,GPIO5*%
X152631961Y-103631961D02*
X152631961Y-100690980D01*
X150651232Y-105658000D02*
X152654616Y-103654616D01*
X140240000Y-107780000D02*
X142362000Y-105658000D01*
X142362000Y-105658000D02*
X150651232Y-105658000D01*
X152654616Y-103654616D02*
X152631961Y-103631961D01*
%TO.N,GPIO3*%
X135160000Y-107780000D02*
X138190000Y-104750000D01*
X151434232Y-103684232D02*
X151434232Y-100514093D01*
X150368464Y-104750000D02*
X151434232Y-103684232D01*
X158400838Y-98099162D02*
X158500000Y-98000000D01*
X138190000Y-104750000D02*
X150368464Y-104750000D01*
X151434232Y-100514093D02*
X153849163Y-98099162D01*
X153849163Y-98099162D02*
X158400838Y-98099162D01*
%TO.N,GPIO0*%
X126542000Y-106238000D02*
X132560000Y-106238000D01*
X125000000Y-107780000D02*
X126542000Y-106238000D01*
X141599000Y-97199000D02*
X152199000Y-97199000D01*
X152199000Y-97199000D02*
X152250000Y-97250000D01*
X132560000Y-106238000D02*
X141599000Y-97199000D01*
%TO.N,GPIO9*%
X155250000Y-105470000D02*
X155250000Y-101250000D01*
X152940000Y-107780000D02*
X155250000Y-105470000D01*
%TO.N,GPIO12*%
X156750000Y-102250000D02*
X156750000Y-102749722D01*
X157080788Y-103080510D02*
X160330510Y-103080510D01*
X160330510Y-103080510D02*
X163100000Y-105850000D01*
X163100000Y-105850000D02*
X163100000Y-107780000D01*
X156750000Y-102749722D02*
X157080788Y-103080510D01*
%TO.N,GPIO6*%
X153202308Y-103702308D02*
X153190980Y-103690980D01*
X147021000Y-106079000D02*
X150825616Y-106079000D01*
X153190980Y-103690980D02*
X153190980Y-100970490D01*
X145320000Y-107780000D02*
X147021000Y-106079000D01*
X150825616Y-106079000D02*
X153202308Y-103702308D01*
%TO.N,GPIO26*%
X162231616Y-94857000D02*
X164374616Y-97000000D01*
X164374616Y-97000000D02*
X165250000Y-97000000D01*
X147860000Y-90000000D02*
X152717000Y-94857000D01*
X152717000Y-94857000D02*
X162231616Y-94857000D01*
%TO.N,GPIO21*%
X166222000Y-95422000D02*
X165400000Y-94600000D01*
X165400000Y-94600000D02*
X164820768Y-94600000D01*
X164820768Y-94600000D02*
X164300000Y-94079232D01*
X165750000Y-99095384D02*
X166222000Y-98623384D01*
X164300000Y-93500000D02*
X164249000Y-93449000D01*
X164249000Y-93449000D02*
X161469000Y-93449000D01*
X165750000Y-99650000D02*
X165400000Y-100000000D01*
X166222000Y-98623384D02*
X166222000Y-95422000D01*
X161469000Y-93449000D02*
X158020000Y-90000000D01*
X164300000Y-94079232D02*
X164300000Y-93500000D01*
X165750000Y-99095384D02*
X165750000Y-99650000D01*
%TO.N,GPIO16*%
X169295384Y-103500000D02*
X172449000Y-100346384D01*
X172449000Y-100346384D02*
X172449000Y-90811000D01*
X160500000Y-100853848D02*
X163146152Y-103500000D01*
X160500000Y-100750000D02*
X160500000Y-100853848D01*
X172449000Y-90811000D02*
X173260000Y-90000000D01*
X163146152Y-103500000D02*
X169295384Y-103500000D01*
%TO.N,GPIO20*%
X163686666Y-92172000D02*
X166572000Y-92172000D01*
X160560000Y-90000000D02*
X161514666Y-90000000D01*
X169800000Y-100600000D02*
X165600000Y-100600000D01*
X166572000Y-92172000D02*
X170358000Y-95958000D01*
X170358000Y-95958000D02*
X170358000Y-100042000D01*
X161514666Y-90000000D02*
X163686666Y-92172000D01*
X170358000Y-100042000D02*
X169800000Y-100600000D01*
%TO.N,GPIO27*%
X163154229Y-97625003D02*
X163551000Y-97228232D01*
X162057232Y-95278000D02*
X158354238Y-95278000D01*
X163000000Y-97625003D02*
X163154229Y-97625003D01*
X151381000Y-96061000D02*
X145320000Y-90000000D01*
X158354238Y-95278000D02*
X157571238Y-96061000D01*
X163551000Y-96771768D02*
X162057232Y-95278000D01*
X157571238Y-96061000D02*
X151381000Y-96061000D01*
X163551000Y-97228232D02*
X163551000Y-96771768D01*
%TO.N,GPIO19*%
X170779000Y-95734384D02*
X170779000Y-100825616D01*
X165551000Y-101199000D02*
X165250000Y-101500000D01*
X170199000Y-101199000D02*
X165551000Y-101199000D01*
X170302308Y-101302308D02*
X170199000Y-101199000D01*
X166795616Y-91751000D02*
X170779000Y-95734384D01*
X170779000Y-100825616D02*
X170302308Y-101302308D01*
X164851000Y-91751000D02*
X166795616Y-91751000D01*
X163100000Y-90000000D02*
X164851000Y-91751000D01*
%TO.N,GPIO22*%
X152940000Y-90000000D02*
X157376000Y-94436000D01*
X163256768Y-94436000D02*
X157376000Y-94436000D01*
X165071768Y-96251000D02*
X163256768Y-94436000D01*
X165801000Y-96771768D02*
X165801000Y-98449000D01*
X165280232Y-96251000D02*
X165071768Y-96251000D01*
X165801000Y-96771768D02*
X165280232Y-96251000D01*
X165801000Y-98449000D02*
X165000000Y-99250000D01*
%TO.N,GPIO18*%
X170400000Y-101800000D02*
X170350000Y-101750000D01*
X171200000Y-95560000D02*
X171200000Y-101000000D01*
X165640000Y-90000000D02*
X171200000Y-95560000D01*
X171200000Y-101000000D02*
X170400000Y-101800000D01*
X170350000Y-101750000D02*
X166500000Y-101750000D01*
%TO.N,SWCLK*%
X173450000Y-95480000D02*
X174381000Y-96411000D01*
X161750000Y-107250000D02*
X161250000Y-106750000D01*
X162101000Y-108901000D02*
X161750000Y-108550000D01*
X161750000Y-108550000D02*
X161750000Y-107250000D01*
X174381000Y-108244334D02*
X173724334Y-108901000D01*
X174381000Y-96411000D02*
X174381000Y-108244334D01*
X173724334Y-108901000D02*
X162101000Y-108901000D01*
X161250000Y-106750000D02*
X161250000Y-106000000D01*
%TD*%
M02*
