M48
; DRILL file {KiCad 9.0.6-9.0.6~ubuntu22.04.1} date 2026-03-21T15:17:33-0700
; FORMAT={-:-/ absolute / metric / decimal}
; #@! TF.CreationDate,2026-03-21T15:17:33-07:00
; #@! TF.GenerationSoftware,Kicad,Pcbnew,9.0.6-9.0.6~ubuntu22.04.1
; #@! TF.FileFunction,Plated,1,4,PTH
FMAT,2
METRIC
; #@! TA.AperFunction,Plated,PTH,ComponentDrill
T1C0.250
; #@! TA.AperFunction,Plated,PTH,ViaDrill
T2C0.300
; #@! TA.AperFunction,Plated,PTH,ComponentDrill
T3C0.600
; #@! TA.AperFunction,Plated,PTH,ComponentDrill
T4C1.000
%
G90
G05
T1
X159.325Y-97.125
X159.325Y-98.5
X159.325Y-99.875
X160.7Y-97.125
X160.7Y-98.5
X160.7Y-99.875
X162.075Y-97.125
X162.075Y-98.5
X162.075Y-99.875
T2
X125.0Y-101.5
X127.5Y-92.5
X130.9Y-92.0
X131.545Y-96.55
X133.75Y-98.75
X134.9Y-101.7
X135.75Y-97.75
X136.0Y-98.5
X136.188Y-92.1
X140.25Y-92.25
X140.25Y-100.5
X140.5Y-106.25
X140.75Y-101.0
X141.75Y-101.0
X145.0Y-100.25
X147.0Y-100.23
X148.7Y-103.25
X149.25Y-99.463
X149.25Y-100.0
X149.25Y-100.5
X149.5Y-97.75
X151.25Y-94.75
X152.25Y-97.25
X152.632Y-100.691
X153.0Y-97.5
X153.191Y-100.97
X153.75Y-101.25
X153.75Y-105.5
X153.812Y-106.122
X154.27Y-97.5
X154.27Y-99.75
X154.5Y-101.25
X154.75Y-94.0
X155.02Y-95.5
X155.23Y-99.75
X155.25Y-101.25
X155.5Y-106.1
X155.99Y-95.51
X156.0Y-101.25
X156.47Y-101.691
X156.75Y-102.25
X156.8Y-105.4
X157.309Y-102.53
X157.51Y-92.24
X158.191Y-96.22
X158.25Y-99.75
X158.5Y-97.25
X158.5Y-98.0
X158.5Y-101.0
X158.5Y-105.25
X158.75Y-96.5
X159.5Y-106.067
X159.75Y-96.25
X159.75Y-101.0
X160.284Y-91.397
X160.419Y-105.221
X160.5Y-100.75
X160.75Y-96.25
X160.9Y-91.5
X161.098Y-105.394
X161.25Y-106.0
X161.6Y-91.5
X161.75Y-101.0
X162.0Y-106.0
X162.3Y-91.7
X163.0Y-97.0
X163.0Y-97.625
X163.0Y-99.2
X163.0Y-100.75
X163.7Y-94.1
X164.75Y-102.25
X164.8Y-93.2
X165.0Y-94.0
X165.0Y-99.25
X165.25Y-97.0
X165.25Y-101.5
X165.4Y-100.0
X165.48Y-102.75
X165.5Y-93.5
X165.5Y-95.7
X165.6Y-100.6
X166.25Y-93.5
X166.25Y-100.0
X166.5Y-101.75
X166.52Y-102.75
X167.0Y-100.0
X167.25Y-95.25
X167.8Y-98.2
X168.8Y-102.65
X169.55Y-96.75
X169.55Y-99.29
X171.5Y-94.0
X171.75Y-99.5
X172.0Y-102.8
X173.0Y-92.25
X173.25Y-105.0
X173.45Y-94.21
X173.45Y-95.48
T4
X125.0Y-90.0
X125.0Y-107.78
X127.54Y-90.0
X127.54Y-107.78
X130.08Y-90.0
X130.08Y-107.78
X132.62Y-90.0
X132.62Y-107.78
X135.16Y-90.0
X135.16Y-107.78
X137.7Y-90.0
X137.7Y-107.78
X138.42Y-95.0
X138.42Y-102.62
X140.24Y-90.0
X140.24Y-107.78
X140.96Y-95.0
X140.96Y-102.62
X142.78Y-90.0
X142.78Y-107.78
X143.5Y-95.0
X143.5Y-102.62
X145.32Y-90.0
X145.32Y-107.78
X146.04Y-95.0
X146.04Y-102.62
X147.86Y-90.0
X147.86Y-107.78
X150.4Y-90.0
X150.4Y-107.78
X152.94Y-90.0
X152.94Y-107.78
X155.48Y-90.0
X155.48Y-107.78
X158.02Y-90.0
X158.02Y-107.78
X160.56Y-90.0
X160.56Y-107.78
X163.1Y-90.0
X163.1Y-107.78
X165.21Y-105.25
X165.64Y-90.0
X165.64Y-107.78
X167.75Y-105.25
X168.18Y-90.0
X168.18Y-107.78
X170.29Y-105.25
X170.72Y-90.0
X170.72Y-107.78
X173.26Y-90.0
X173.26Y-107.78
T3
G00X126.75Y-94.68
M15
G01X126.15Y-94.68
M16
G05
G00X126.75Y-103.32
M15
G01X126.15Y-103.32
M16
G05
G00X131.18Y-94.68
M15
G01X130.08Y-94.68
M16
G05
G00X131.18Y-103.32
M15
G01X130.08Y-103.32
M16
G05
M30
