%TF.GenerationSoftware,KiCad,Pcbnew,9.0.6-9.0.6~ubuntu22.04.1*%
%TF.CreationDate,2026-03-21T15:17:45-07:00*%
%TF.ProjectId,pico-2v,7069636f-2d32-4762-9e6b-696361645f70,rev?*%
%TF.SameCoordinates,Original*%
%TF.FileFunction,Copper,L3,Inr*%
%TF.FilePolarity,Positive*%
%FSLAX46Y46*%
G04 Gerber Fmt 4.6, Leading zero omitted, Abs format (unit mm)*
G04 Created by KiCad (PCBNEW 9.0.6-9.0.6~ubuntu22.04.1) date 2026-03-21 15:17:45*
%MOMM*%
%LPD*%
G01*
G04 APERTURE LIST*
%TA.AperFunction,HeatsinkPad*%
%ADD10O,2.100000X1.000000*%
%TD*%
%TA.AperFunction,HeatsinkPad*%
%ADD11O,1.600000X1.000000*%
%TD*%
%TA.AperFunction,ComponentPad*%
%ADD12C,0.600000*%
%TD*%
%TA.AperFunction,ComponentPad*%
%ADD13R,1.700000X1.700000*%
%TD*%
%TA.AperFunction,ComponentPad*%
%ADD14C,1.700000*%
%TD*%
%TA.AperFunction,ViaPad*%
%ADD15C,0.450000*%
%TD*%
%TA.AperFunction,Conductor*%
%ADD16C,0.300000*%
%TD*%
G04 APERTURE END LIST*
D10*
%TO.N,GND*%
%TO.C,J1*%
X130630000Y-94680000D03*
D11*
X126450000Y-94680000D03*
D10*
X130630000Y-103320000D03*
D11*
X126450000Y-103320000D03*
%TD*%
D12*
%TO.N,GND*%
%TO.C,U1*%
X162075000Y-99875000D03*
X162075000Y-98500000D03*
X162075000Y-97125000D03*
X160700000Y-99875000D03*
X160700000Y-98500000D03*
X160700000Y-97125000D03*
X159325000Y-99875000D03*
X159325000Y-98500000D03*
X159325000Y-97125000D03*
%TD*%
D13*
%TO.N,VDD*%
%TO.C,J6*%
X138420000Y-95000000D03*
D14*
%TO.N,QSPI_SD3*%
X140960000Y-95000000D03*
%TO.N,QSPI_SCLK*%
X143500000Y-95000000D03*
%TO.N,QSPI_SD0*%
X146040000Y-95000000D03*
%TD*%
D13*
%TO.N,QSPI_SS*%
%TO.C,J5*%
X138420000Y-102620000D03*
D14*
%TO.N,QSPI_SD1*%
X140960000Y-102620000D03*
%TO.N,QSPI_SD2*%
X143500000Y-102620000D03*
%TO.N,GND*%
X146040000Y-102620000D03*
%TD*%
D13*
%TO.N,+3V3*%
%TO.C,J2*%
X165210000Y-105250000D03*
D14*
%TO.N,VDD*%
X167750000Y-105250000D03*
%TO.N,+1V8*%
X170290000Y-105250000D03*
%TD*%
D13*
%TO.N,VBUS*%
%TO.C,J4*%
X125000000Y-90000000D03*
D14*
%TO.N,VSYS*%
X127540000Y-90000000D03*
%TO.N,GND*%
X130080000Y-90000000D03*
%TO.N,unconnected-(J4-Pin_4-Pad4)*%
X132620000Y-90000000D03*
%TO.N,VDD*%
X135160000Y-90000000D03*
%TO.N,+3V3*%
X137700000Y-90000000D03*
%TO.N,GPIO28*%
X140240000Y-90000000D03*
%TO.N,GND*%
X142780000Y-90000000D03*
%TO.N,GPIO27*%
X145320000Y-90000000D03*
%TO.N,GPIO26*%
X147860000Y-90000000D03*
%TO.N,RUN*%
X150400000Y-90000000D03*
%TO.N,GPIO22*%
X152940000Y-90000000D03*
%TO.N,GND*%
X155480000Y-90000000D03*
%TO.N,GPIO21*%
X158020000Y-90000000D03*
%TO.N,GPIO20*%
X160560000Y-90000000D03*
%TO.N,GPIO19*%
X163100000Y-90000000D03*
%TO.N,GPIO18*%
X165640000Y-90000000D03*
%TO.N,GND*%
X168180000Y-90000000D03*
%TO.N,GPIO17*%
X170720000Y-90000000D03*
%TO.N,GPIO16*%
X173260000Y-90000000D03*
%TD*%
D13*
%TO.N,GPIO0*%
%TO.C,J3*%
X125000000Y-107780000D03*
D14*
%TO.N,GPIO1*%
X127540000Y-107780000D03*
%TO.N,GND*%
X130080000Y-107780000D03*
%TO.N,GPIO2*%
X132620000Y-107780000D03*
%TO.N,GPIO3*%
X135160000Y-107780000D03*
%TO.N,GPIO4*%
X137700000Y-107780000D03*
%TO.N,GPIO5*%
X140240000Y-107780000D03*
%TO.N,GND*%
X142780000Y-107780000D03*
%TO.N,GPIO6*%
X145320000Y-107780000D03*
%TO.N,GPIO7*%
X147860000Y-107780000D03*
%TO.N,GPIO8*%
X150400000Y-107780000D03*
%TO.N,GPIO9*%
X152940000Y-107780000D03*
%TO.N,GND*%
X155480000Y-107780000D03*
%TO.N,GPIO10*%
X158020000Y-107780000D03*
%TO.N,GPIO11*%
X160560000Y-107780000D03*
%TO.N,GPIO12*%
X163100000Y-107780000D03*
%TO.N,GPIO13*%
X165640000Y-107780000D03*
%TO.N,GND*%
X168180000Y-107780000D03*
%TO.N,GPIO14*%
X170720000Y-107780000D03*
%TO.N,GPIO15*%
X173260000Y-107780000D03*
%TD*%
D15*
%TO.N,+3V3*%
X168800000Y-102650000D03*
X172000000Y-102800000D03*
X140250000Y-100500000D03*
X164800000Y-93200000D03*
X141750000Y-101000000D03*
X140750000Y-101000000D03*
X160283502Y-91397250D03*
%TO.N,GND*%
X140250000Y-92250000D03*
X165480000Y-102750000D03*
X155500000Y-106100000D03*
X169550000Y-96750000D03*
X149500000Y-97750000D03*
X156800000Y-105400000D03*
X166520000Y-102750000D03*
X153750000Y-105500000D03*
X151250000Y-94750000D03*
X161098415Y-105393659D03*
X159500000Y-106067500D03*
X165500000Y-95700000D03*
X173250000Y-105000000D03*
X166250000Y-93500000D03*
X130900000Y-92000000D03*
X127500000Y-92500000D03*
X154270000Y-99750000D03*
X162300000Y-91700000D03*
X154270000Y-97500000D03*
X147000000Y-100230000D03*
X163700000Y-94100000D03*
X171750000Y-99500000D03*
X134900000Y-101700000D03*
X145000000Y-100250000D03*
X125000000Y-101500000D03*
X167000000Y-100000000D03*
X173000000Y-92250000D03*
X169550000Y-99290000D03*
X148700000Y-103250000D03*
X155020000Y-95500000D03*
%TO.N,+1V1*%
X167800000Y-98200000D03*
X153812190Y-106121901D03*
X160419000Y-105220904D03*
%TO.N,VDD*%
X171500000Y-94000000D03*
X165000000Y-94000000D03*
X158500000Y-105250000D03*
X164750000Y-102250000D03*
X157510000Y-92240000D03*
X155990000Y-95510000D03*
X140500000Y-106250000D03*
X166250000Y-100000000D03*
X165500000Y-93500000D03*
X155230000Y-99750000D03*
%TO.N,+1V8*%
X149250000Y-99462960D03*
X149250000Y-100500000D03*
X149250000Y-100000000D03*
%TO.N,RUN*%
X161750000Y-101000000D03*
%TO.N,VBUS*%
X131545000Y-96550000D03*
X135750000Y-97750000D03*
%TO.N,USB_D+*%
X160900000Y-91500000D03*
X136000000Y-98500000D03*
%TO.N,USB_D-*%
X161600000Y-91500000D03*
X133750000Y-98750000D03*
%TO.N,GPIO13*%
X157309020Y-102529510D03*
%TO.N,GPIO2*%
X158500000Y-97250000D03*
%TO.N,GPIO8*%
X154500000Y-101250000D03*
%TO.N,GPIO11*%
X156470490Y-101690980D03*
%TO.N,GPIO14*%
X158500000Y-101000000D03*
%TO.N,GPIO15*%
X159750000Y-101000000D03*
%TO.N,GPIO4*%
X158250000Y-99750000D03*
%TO.N,GPIO7*%
X153750000Y-101250000D03*
%TO.N,GPIO1*%
X153000000Y-97500000D03*
%TO.N,GPIO10*%
X156000000Y-101250000D03*
%TO.N,GPIO5*%
X152631961Y-100690980D03*
%TO.N,GPIO3*%
X158500000Y-98000000D03*
%TO.N,GPIO0*%
X152250000Y-97250000D03*
%TO.N,GPIO9*%
X155250000Y-101250000D03*
%TO.N,GPIO12*%
X156750000Y-102250000D03*
%TO.N,GPIO6*%
X153190980Y-100970490D03*
%TO.N,GPIO26*%
X165250000Y-97000000D03*
%TO.N,GPIO21*%
X165400000Y-100000000D03*
%TO.N,GPIO28*%
X163000000Y-97000000D03*
%TO.N,GPIO16*%
X160500000Y-100750000D03*
%TO.N,GPIO17*%
X167250000Y-95250000D03*
X163000000Y-100750000D03*
%TO.N,GPIO20*%
X165600000Y-100600000D03*
%TO.N,GPIO27*%
X163000000Y-97625003D03*
%TO.N,GPIO19*%
X165250000Y-101500000D03*
%TO.N,GPIO22*%
X165000000Y-99250000D03*
%TO.N,GPIO18*%
X166500000Y-101750000D03*
%TO.N,SWDIO*%
X173450000Y-94210000D03*
X162000000Y-106000000D03*
%TO.N,SWCLK*%
X173450000Y-95480000D03*
X161250000Y-106000000D03*
%TO.N,QSPI_SD0*%
X158750000Y-96500000D03*
%TO.N,QSPI_SD2*%
X158190980Y-96220490D03*
%TO.N,QSPI_SD3*%
X160750000Y-96250000D03*
%TO.N,QSPI_SD1*%
X154750000Y-94000000D03*
%TO.N,QSPI_SCLK*%
X159750000Y-96250000D03*
%TO.N,GPIO25*%
X163000000Y-99200000D03*
X136187500Y-92100000D03*
%TD*%
D16*
%TO.N,+3V3*%
X137700000Y-90000000D02*
X139541000Y-91841000D01*
X141750000Y-101000000D02*
X140750000Y-101000000D01*
X139541000Y-91841000D02*
X139541000Y-99791000D01*
X140250000Y-100500000D02*
X140750000Y-101000000D01*
X139541000Y-99791000D02*
X140250000Y-100500000D01*
%TO.N,+1V1*%
X174400000Y-108800000D02*
X174299000Y-108901000D01*
X159167500Y-106651000D02*
X159200000Y-106618500D01*
X174400000Y-100000000D02*
X174400000Y-108800000D01*
X159200000Y-108005334D02*
X159200000Y-106618500D01*
X160419000Y-105220904D02*
X160419000Y-105948638D01*
X174299000Y-108901000D02*
X160095666Y-108901000D01*
X160095666Y-108901000D02*
X159200000Y-108005334D01*
X153812190Y-106121901D02*
X154341289Y-106651000D01*
X167800000Y-98200000D02*
X172600000Y-98200000D01*
X159200000Y-106618500D02*
X159749138Y-106618500D01*
X160419000Y-105948638D02*
X159749138Y-106618500D01*
X172600000Y-98200000D02*
X174400000Y-100000000D01*
X154341289Y-106651000D02*
X159167500Y-106651000D01*
%TO.N,RUN*%
X162857516Y-99900000D02*
X161757516Y-101000000D01*
X163153905Y-99900000D02*
X162857516Y-99900000D01*
X164028000Y-88879000D02*
X164250000Y-89101000D01*
X164250000Y-98803905D02*
X163153905Y-99900000D01*
X164250000Y-89101000D02*
X164250000Y-98803905D01*
X151521000Y-88879000D02*
X164028000Y-88879000D01*
X150400000Y-90000000D02*
X151521000Y-88879000D01*
X161757516Y-101000000D02*
X161750000Y-101000000D01*
%TO.N,GPIO28*%
X157738232Y-91689000D02*
X163000000Y-96950768D01*
X141929000Y-91689000D02*
X157738232Y-91689000D01*
X163000000Y-96950768D02*
X163000000Y-97000000D01*
X140240000Y-90000000D02*
X141929000Y-91689000D01*
%TO.N,QSPI_SD0*%
X146040000Y-95000000D02*
X147591000Y-93449000D01*
X156198722Y-93449000D02*
X158750000Y-96000278D01*
X147591000Y-93449000D02*
X156198722Y-93449000D01*
X158750000Y-96000278D02*
X158750000Y-96500000D01*
%TO.N,QSPI_SD2*%
X143500000Y-102620000D02*
X149899510Y-96220490D01*
X151279510Y-96220490D02*
X152600000Y-94900000D01*
X149899510Y-96220490D02*
X151279510Y-96220490D01*
X152600000Y-94900000D02*
X156870490Y-94900000D01*
X156870490Y-94900000D02*
X158190980Y-96220490D01*
%TO.N,QSPI_SD3*%
X143353000Y-92607000D02*
X157007000Y-92607000D01*
X157007000Y-92607000D02*
X160650000Y-96250000D01*
X140960000Y-95000000D02*
X143353000Y-92607000D01*
X160650000Y-96250000D02*
X160750000Y-96250000D01*
%TO.N,QSPI_SD1*%
X149580000Y-94000000D02*
X154750000Y-94000000D01*
X140960000Y-102620000D02*
X149580000Y-94000000D01*
%TO.N,QSPI_SCLK*%
X145472000Y-93028000D02*
X156528000Y-93028000D01*
X156528000Y-93028000D02*
X159750000Y-96250000D01*
X143500000Y-95000000D02*
X145472000Y-93028000D01*
%TO.N,GPIO25*%
X142200000Y-91200000D02*
X157979232Y-91200000D01*
X163800000Y-97020768D02*
X163800000Y-98658521D01*
X136579000Y-91708500D02*
X136579000Y-89535666D01*
X141659000Y-90659000D02*
X142200000Y-91200000D01*
X141659000Y-89535666D02*
X141659000Y-90659000D01*
X141002334Y-88879000D02*
X141659000Y-89535666D01*
X157979232Y-91200000D02*
X163800000Y-97020768D01*
X137235666Y-88879000D02*
X141002334Y-88879000D01*
X136579000Y-89535666D02*
X137235666Y-88879000D01*
X163258521Y-99200000D02*
X163000000Y-99200000D01*
X136187500Y-92100000D02*
X136579000Y-91708500D01*
X163800000Y-98658521D02*
X163258521Y-99200000D01*
%TD*%
%TA.AperFunction,Conductor*%
%TO.N,VDD*%
G36*
X134345678Y-88720185D02*
G01*
X134391433Y-88772989D01*
X134402257Y-88834230D01*
X134398282Y-88884728D01*
X135030591Y-89517037D01*
X134967007Y-89534075D01*
X134852993Y-89599901D01*
X134759901Y-89692993D01*
X134694075Y-89807007D01*
X134677037Y-89870591D01*
X134044728Y-89238282D01*
X134044727Y-89238282D01*
X134005380Y-89292439D01*
X133908904Y-89481782D01*
X133843242Y-89683869D01*
X133843242Y-89683872D01*
X133820383Y-89828196D01*
X133790454Y-89891331D01*
X133731142Y-89928262D01*
X133661279Y-89927264D01*
X133603047Y-89888654D01*
X133576293Y-89832989D01*
X133553205Y-89716923D01*
X133553205Y-89716921D01*
X133553204Y-89716916D01*
X133524015Y-89646446D01*
X133480048Y-89540299D01*
X133373835Y-89381339D01*
X133238660Y-89246164D01*
X133079700Y-89139951D01*
X132903088Y-89066797D01*
X132903078Y-89066794D01*
X132715588Y-89029500D01*
X132715586Y-89029500D01*
X132524414Y-89029500D01*
X132524412Y-89029500D01*
X132336921Y-89066794D01*
X132336911Y-89066797D01*
X132160299Y-89139951D01*
X132001339Y-89246164D01*
X131866164Y-89381339D01*
X131759951Y-89540299D01*
X131686797Y-89716911D01*
X131686794Y-89716921D01*
X131649500Y-89904411D01*
X131649500Y-89904414D01*
X131649500Y-90095586D01*
X131649500Y-90095588D01*
X131649499Y-90095588D01*
X131686794Y-90283078D01*
X131686797Y-90283088D01*
X131759951Y-90459700D01*
X131866164Y-90618660D01*
X132001339Y-90753835D01*
X132160299Y-90860048D01*
X132336911Y-90933202D01*
X132336916Y-90933204D01*
X132336920Y-90933204D01*
X132336921Y-90933205D01*
X132524411Y-90970500D01*
X132524414Y-90970500D01*
X132715588Y-90970500D01*
X132715589Y-90970499D01*
X132756039Y-90962453D01*
X132836771Y-90946395D01*
X132836776Y-90946394D01*
X132884629Y-90936875D01*
X132903084Y-90933204D01*
X132991394Y-90896625D01*
X133079700Y-90860048D01*
X133079701Y-90860047D01*
X133079704Y-90860046D01*
X133238658Y-90753837D01*
X133373837Y-90618658D01*
X133480046Y-90459704D01*
X133504835Y-90399859D01*
X133520101Y-90363003D01*
X133553204Y-90283084D01*
X133571124Y-90192993D01*
X133576293Y-90167010D01*
X133608678Y-90105099D01*
X133669393Y-90070525D01*
X133739163Y-90074264D01*
X133795835Y-90115131D01*
X133820383Y-90171803D01*
X133843242Y-90316127D01*
X133843242Y-90316130D01*
X133908904Y-90518217D01*
X134005375Y-90707550D01*
X134044728Y-90761716D01*
X134677037Y-90129408D01*
X134694075Y-90192993D01*
X134759901Y-90307007D01*
X134852993Y-90400099D01*
X134967007Y-90465925D01*
X135030590Y-90482962D01*
X134398282Y-91115269D01*
X134398282Y-91115270D01*
X134452449Y-91154624D01*
X134641782Y-91251095D01*
X134843870Y-91316757D01*
X135053754Y-91350000D01*
X135266246Y-91350000D01*
X135476127Y-91316757D01*
X135476130Y-91316757D01*
X135678217Y-91251095D01*
X135867554Y-91154622D01*
X135921716Y-91115270D01*
X135921717Y-91115270D01*
X135289408Y-90482962D01*
X135352993Y-90465925D01*
X135467007Y-90400099D01*
X135560099Y-90307007D01*
X135625925Y-90192993D01*
X135642962Y-90129409D01*
X136272181Y-90758628D01*
X136305666Y-90819951D01*
X136308500Y-90846309D01*
X136308500Y-91545093D01*
X136299855Y-91574533D01*
X136293332Y-91604520D01*
X136289577Y-91609535D01*
X136288815Y-91612132D01*
X136272181Y-91632774D01*
X136241774Y-91663181D01*
X136180451Y-91696666D01*
X136154093Y-91699500D01*
X136134773Y-91699500D01*
X136032913Y-91726793D01*
X136032910Y-91726794D01*
X135941585Y-91779521D01*
X135867021Y-91854085D01*
X135814294Y-91945410D01*
X135814294Y-91945411D01*
X135814293Y-91945413D01*
X135787000Y-92047273D01*
X135787000Y-92152727D01*
X135814293Y-92254587D01*
X135867020Y-92345913D01*
X135941587Y-92420480D01*
X136032913Y-92473207D01*
X136134773Y-92500500D01*
X136134775Y-92500500D01*
X136240225Y-92500500D01*
X136240227Y-92500500D01*
X136342087Y-92473207D01*
X136433413Y-92420480D01*
X136507980Y-92345913D01*
X136560707Y-92254587D01*
X136588000Y-92152727D01*
X136588000Y-92133407D01*
X136607685Y-92066368D01*
X136624319Y-92045726D01*
X136710546Y-91959499D01*
X136808319Y-91861726D01*
X136839191Y-91787194D01*
X136849500Y-91762306D01*
X136849500Y-90821358D01*
X136869185Y-90754319D01*
X136921989Y-90708564D01*
X136991147Y-90698620D01*
X137054703Y-90727645D01*
X137061181Y-90733677D01*
X137081339Y-90753835D01*
X137240299Y-90860048D01*
X137416911Y-90933202D01*
X137416916Y-90933204D01*
X137416920Y-90933204D01*
X137416921Y-90933205D01*
X137604411Y-90970500D01*
X137604414Y-90970500D01*
X137795588Y-90970500D01*
X137956806Y-90938431D01*
X137983084Y-90933204D01*
X138095745Y-90886538D01*
X138165209Y-90879070D01*
X138227688Y-90910344D01*
X138230874Y-90913419D01*
X139234181Y-91916726D01*
X139267666Y-91978049D01*
X139270500Y-92004407D01*
X139270500Y-93526000D01*
X139250815Y-93593039D01*
X139198011Y-93638794D01*
X139146500Y-93650000D01*
X138670000Y-93650000D01*
X138670000Y-94566988D01*
X138612993Y-94534075D01*
X138485826Y-94500000D01*
X138354174Y-94500000D01*
X138227007Y-94534075D01*
X138170000Y-94566988D01*
X138170000Y-93650000D01*
X137522155Y-93650000D01*
X137462627Y-93656401D01*
X137462620Y-93656403D01*
X137327913Y-93706645D01*
X137327906Y-93706649D01*
X137212812Y-93792809D01*
X137212809Y-93792812D01*
X137126649Y-93907906D01*
X137126645Y-93907913D01*
X137076403Y-94042620D01*
X137076401Y-94042627D01*
X137070000Y-94102155D01*
X137070000Y-94750000D01*
X137986988Y-94750000D01*
X137954075Y-94807007D01*
X137920000Y-94934174D01*
X137920000Y-95065826D01*
X137954075Y-95192993D01*
X137986988Y-95250000D01*
X137070000Y-95250000D01*
X137070000Y-95897844D01*
X137076401Y-95957372D01*
X137076403Y-95957379D01*
X137126645Y-96092086D01*
X137126649Y-96092093D01*
X137212809Y-96207187D01*
X137212812Y-96207190D01*
X137327906Y-96293350D01*
X137327913Y-96293354D01*
X137462620Y-96343596D01*
X137462627Y-96343598D01*
X137522155Y-96349999D01*
X137522172Y-96350000D01*
X138170000Y-96350000D01*
X138170000Y-95433012D01*
X138227007Y-95465925D01*
X138354174Y-95500000D01*
X138485826Y-95500000D01*
X138612993Y-95465925D01*
X138670000Y-95433012D01*
X138670000Y-96350000D01*
X139146500Y-96350000D01*
X139213539Y-96369685D01*
X139259294Y-96422489D01*
X139270500Y-96474000D01*
X139270500Y-99844806D01*
X139293570Y-99900500D01*
X139311681Y-99944226D01*
X139311683Y-99944228D01*
X139813181Y-100445726D01*
X139846666Y-100507049D01*
X139849500Y-100533407D01*
X139849500Y-100552727D01*
X139876295Y-100652726D01*
X139876793Y-100654586D01*
X139876794Y-100654589D01*
X139885752Y-100670105D01*
X139929520Y-100745913D01*
X140004087Y-100820480D01*
X140095413Y-100873207D01*
X140197273Y-100900500D01*
X140216593Y-100900500D01*
X140246033Y-100909144D01*
X140276020Y-100915668D01*
X140281035Y-100919422D01*
X140283632Y-100920185D01*
X140304274Y-100936819D01*
X140313181Y-100945726D01*
X140346666Y-101007049D01*
X140349500Y-101033407D01*
X140349500Y-101052727D01*
X140376793Y-101154587D01*
X140429520Y-101245913D01*
X140504087Y-101320480D01*
X140595413Y-101373207D01*
X140697273Y-101400500D01*
X140697275Y-101400500D01*
X140802725Y-101400500D01*
X140802727Y-101400500D01*
X140904587Y-101373207D01*
X140995913Y-101320480D01*
X141009574Y-101306819D01*
X141070897Y-101273334D01*
X141097255Y-101270500D01*
X141402745Y-101270500D01*
X141469784Y-101290185D01*
X141470745Y-101290808D01*
X141481407Y-101297800D01*
X141504087Y-101320480D01*
X141595413Y-101373207D01*
X141597069Y-101373650D01*
X141606539Y-101379861D01*
X141626977Y-101403893D01*
X141648755Y-101426733D01*
X141649444Y-101430311D01*
X141651804Y-101433086D01*
X141656004Y-101464348D01*
X141661978Y-101495340D01*
X141660623Y-101498722D01*
X141661109Y-101502333D01*
X141647738Y-101530908D01*
X141636010Y-101560205D01*
X141631824Y-101564921D01*
X141631498Y-101565618D01*
X141630834Y-101566035D01*
X141626223Y-101571230D01*
X141551580Y-101645874D01*
X141490874Y-101706580D01*
X141429551Y-101740064D01*
X141359859Y-101735080D01*
X141355741Y-101733459D01*
X141243088Y-101686797D01*
X141243078Y-101686794D01*
X141055588Y-101649500D01*
X141055586Y-101649500D01*
X140864414Y-101649500D01*
X140864412Y-101649500D01*
X140676921Y-101686794D01*
X140676911Y-101686797D01*
X140500299Y-101759951D01*
X140341339Y-101866164D01*
X140206164Y-102001339D01*
X140099951Y-102160299D01*
X140026797Y-102336911D01*
X140026794Y-102336921D01*
X139989500Y-102524411D01*
X139989500Y-102524414D01*
X139989500Y-102715586D01*
X139989500Y-102715588D01*
X139989499Y-102715588D01*
X140026794Y-102903078D01*
X140026797Y-102903088D01*
X140099951Y-103079700D01*
X140206164Y-103238660D01*
X140341339Y-103373835D01*
X140500299Y-103480048D01*
X140676911Y-103553202D01*
X140676916Y-103553204D01*
X140676920Y-103553204D01*
X140676921Y-103553205D01*
X140864411Y-103590500D01*
X140864414Y-103590500D01*
X141055588Y-103590500D01*
X141181729Y-103565408D01*
X141243084Y-103553204D01*
X141369131Y-103500994D01*
X141419700Y-103480048D01*
X141419701Y-103480047D01*
X141419704Y-103480046D01*
X141578658Y-103373837D01*
X141713837Y-103238658D01*
X141820046Y-103079704D01*
X141842257Y-103026083D01*
X141884352Y-102924455D01*
X141893204Y-102903084D01*
X141912796Y-102804589D01*
X141930500Y-102715588D01*
X141930500Y-102524411D01*
X141893205Y-102336921D01*
X141893204Y-102336920D01*
X141893204Y-102336916D01*
X141846538Y-102224255D01*
X141839070Y-102154789D01*
X141870345Y-102092309D01*
X141873391Y-102089152D01*
X149655726Y-94306819D01*
X149717049Y-94273334D01*
X149743407Y-94270500D01*
X150863745Y-94270500D01*
X150930784Y-94290185D01*
X150976539Y-94342989D01*
X150986483Y-94412147D01*
X150957458Y-94475703D01*
X150951426Y-94482181D01*
X150929521Y-94504085D01*
X150876794Y-94595410D01*
X150876793Y-94595413D01*
X150849500Y-94697273D01*
X150849500Y-94802727D01*
X150876793Y-94904587D01*
X150929520Y-94995913D01*
X151004087Y-95070480D01*
X151095413Y-95123207D01*
X151197273Y-95150500D01*
X151197275Y-95150500D01*
X151302725Y-95150500D01*
X151302727Y-95150500D01*
X151404587Y-95123207D01*
X151495913Y-95070480D01*
X151570480Y-94995913D01*
X151623207Y-94904587D01*
X151650500Y-94802727D01*
X151650500Y-94697273D01*
X151623207Y-94595413D01*
X151570480Y-94504087D01*
X151548574Y-94482181D01*
X151515089Y-94420858D01*
X151520073Y-94351166D01*
X151561945Y-94295233D01*
X151627409Y-94270816D01*
X151636255Y-94270500D01*
X154402745Y-94270500D01*
X154461280Y-94285185D01*
X154477451Y-94293844D01*
X154504087Y-94320480D01*
X154595413Y-94373207D01*
X154655961Y-94389430D01*
X154668575Y-94396185D01*
X154683690Y-94411055D01*
X154701794Y-94422090D01*
X154708098Y-94435067D01*
X154718382Y-94445185D01*
X154723057Y-94465864D01*
X154732323Y-94484937D01*
X154730610Y-94499262D01*
X154733792Y-94513334D01*
X154726545Y-94533260D01*
X154724028Y-94554312D01*
X154714843Y-94565435D01*
X154709912Y-94578996D01*
X154693040Y-94591842D01*
X154679543Y-94608190D01*
X154665801Y-94612582D01*
X154654323Y-94621323D01*
X154633187Y-94623008D01*
X154612991Y-94629465D01*
X154610040Y-94629500D01*
X152546194Y-94629500D01*
X152537666Y-94633032D01*
X152517074Y-94641560D01*
X152517074Y-94641561D01*
X152493640Y-94651267D01*
X152446772Y-94670681D01*
X151203784Y-95913671D01*
X151142461Y-95947156D01*
X151116103Y-95949990D01*
X149845704Y-95949990D01*
X149837176Y-95953522D01*
X149816584Y-95962050D01*
X149816584Y-95962051D01*
X149796187Y-95970500D01*
X149746282Y-95991171D01*
X145581886Y-100155567D01*
X145520563Y-100189052D01*
X145450871Y-100184068D01*
X145394938Y-100142196D01*
X145374430Y-100099978D01*
X145373207Y-100095414D01*
X145373205Y-100095410D01*
X145320480Y-100004087D01*
X145245913Y-99929520D01*
X145179059Y-99890922D01*
X145154589Y-99876794D01*
X145154588Y-99876793D01*
X145154587Y-99876793D01*
X145052727Y-99849500D01*
X144947273Y-99849500D01*
X144845413Y-99876793D01*
X144845410Y-99876794D01*
X144754085Y-99929521D01*
X144679521Y-100004085D01*
X144626794Y-100095410D01*
X144626793Y-100095413D01*
X144599500Y-100197273D01*
X144599500Y-100302727D01*
X144626793Y-100404587D01*
X144679520Y-100495913D01*
X144754087Y-100570480D01*
X144845413Y-100623207D01*
X144849978Y-100624430D01*
X144909639Y-100660794D01*
X144940169Y-100723641D01*
X144931875Y-100793017D01*
X144905567Y-100831886D01*
X144030874Y-101706579D01*
X143969551Y-101740064D01*
X143899859Y-101735080D01*
X143895741Y-101733459D01*
X143783088Y-101686797D01*
X143783078Y-101686794D01*
X143595588Y-101649500D01*
X143595586Y-101649500D01*
X143404414Y-101649500D01*
X143404412Y-101649500D01*
X143216921Y-101686794D01*
X143216911Y-101686797D01*
X143040299Y-101759951D01*
X142881339Y-101866164D01*
X142746164Y-102001339D01*
X142639951Y-102160299D01*
X142566797Y-102336911D01*
X142566794Y-102336921D01*
X142529500Y-102524411D01*
X142529500Y-102524414D01*
X142529500Y-102715586D01*
X142529500Y-102715588D01*
X142529499Y-102715588D01*
X142566794Y-102903078D01*
X142566797Y-102903088D01*
X142639951Y-103079700D01*
X142746164Y-103238660D01*
X142881339Y-103373835D01*
X143040299Y-103480048D01*
X143216911Y-103553202D01*
X143216916Y-103553204D01*
X143216920Y-103553204D01*
X143216921Y-103553205D01*
X143404411Y-103590500D01*
X143404414Y-103590500D01*
X143595588Y-103590500D01*
X143721729Y-103565408D01*
X143783084Y-103553204D01*
X143909131Y-103500994D01*
X143959700Y-103480048D01*
X143959701Y-103480047D01*
X143959704Y-103480046D01*
X144118658Y-103373837D01*
X144253837Y-103238658D01*
X144360046Y-103079704D01*
X144382257Y-103026083D01*
X144424352Y-102924455D01*
X144433204Y-102903084D01*
X144452796Y-102804589D01*
X144470500Y-102715588D01*
X145069499Y-102715588D01*
X145106794Y-102903078D01*
X145106797Y-102903088D01*
X145179951Y-103079700D01*
X145286164Y-103238660D01*
X145421339Y-103373835D01*
X145580299Y-103480048D01*
X145756911Y-103553202D01*
X145756916Y-103553204D01*
X145756920Y-103553204D01*
X145756921Y-103553205D01*
X145944411Y-103590500D01*
X145944414Y-103590500D01*
X146135588Y-103590500D01*
X146261729Y-103565408D01*
X146323084Y-103553204D01*
X146449131Y-103500994D01*
X146499700Y-103480048D01*
X146499701Y-103480047D01*
X146499704Y-103480046D01*
X146658658Y-103373837D01*
X146793837Y-103238658D01*
X146821489Y-103197273D01*
X148299500Y-103197273D01*
X148299500Y-103302727D01*
X148326793Y-103404587D01*
X148379520Y-103495913D01*
X148454087Y-103570480D01*
X148545413Y-103623207D01*
X148647273Y-103650500D01*
X148647275Y-103650500D01*
X148752725Y-103650500D01*
X148752727Y-103650500D01*
X148854587Y-103623207D01*
X148945913Y-103570480D01*
X149020480Y-103495913D01*
X149073207Y-103404587D01*
X149100500Y-103302727D01*
X149100500Y-103197273D01*
X149073207Y-103095413D01*
X149020480Y-103004087D01*
X148945913Y-102929520D01*
X148854587Y-102876793D01*
X148752727Y-102849500D01*
X148647273Y-102849500D01*
X148545413Y-102876793D01*
X148545410Y-102876794D01*
X148454085Y-102929521D01*
X148379521Y-103004085D01*
X148326794Y-103095410D01*
X148326793Y-103095413D01*
X148299500Y-103197273D01*
X146821489Y-103197273D01*
X146900046Y-103079704D01*
X146922257Y-103026083D01*
X146964352Y-102924455D01*
X146973204Y-102903084D01*
X146992796Y-102804589D01*
X147010500Y-102715588D01*
X147010500Y-102524411D01*
X146973205Y-102336921D01*
X146973204Y-102336920D01*
X146973204Y-102336916D01*
X146970141Y-102329521D01*
X146900048Y-102160299D01*
X146793835Y-102001339D01*
X146658660Y-101866164D01*
X146499700Y-101759951D01*
X146323088Y-101686797D01*
X146323078Y-101686794D01*
X146135588Y-101649500D01*
X146135586Y-101649500D01*
X145944414Y-101649500D01*
X145944412Y-101649500D01*
X145756921Y-101686794D01*
X145756911Y-101686797D01*
X145580299Y-101759951D01*
X145421339Y-101866164D01*
X145286164Y-102001339D01*
X145179951Y-102160299D01*
X145106797Y-102336911D01*
X145106794Y-102336921D01*
X145069500Y-102524411D01*
X145069500Y-102524414D01*
X145069500Y-102715586D01*
X145069500Y-102715588D01*
X145069499Y-102715588D01*
X144470500Y-102715588D01*
X144470500Y-102524411D01*
X144433205Y-102336921D01*
X144433204Y-102336920D01*
X144433204Y-102336916D01*
X144386538Y-102224255D01*
X144379070Y-102154789D01*
X144410345Y-102092309D01*
X144413391Y-102089153D01*
X146387819Y-100114724D01*
X146449142Y-100081240D01*
X146518834Y-100086224D01*
X146574767Y-100128096D01*
X146599184Y-100193560D01*
X146599500Y-100202406D01*
X146599500Y-100282727D01*
X146626793Y-100384587D01*
X146679520Y-100475913D01*
X146754087Y-100550480D01*
X146845413Y-100603207D01*
X146947273Y-100630500D01*
X146947275Y-100630500D01*
X147052725Y-100630500D01*
X147052727Y-100630500D01*
X147154587Y-100603207D01*
X147245913Y-100550480D01*
X147320480Y-100475913D01*
X147373207Y-100384587D01*
X147400500Y-100282727D01*
X147400500Y-100177273D01*
X147373207Y-100075413D01*
X147320480Y-99984087D01*
X147245913Y-99909520D01*
X147154587Y-99856793D01*
X147052727Y-99829500D01*
X146972406Y-99829500D01*
X146905367Y-99809815D01*
X146859612Y-99757011D01*
X146849668Y-99687853D01*
X146878693Y-99624297D01*
X146884725Y-99617819D01*
X147092311Y-99410233D01*
X148849500Y-99410233D01*
X148849500Y-99515687D01*
X148874900Y-99610480D01*
X148876793Y-99617546D01*
X148876793Y-99617547D01*
X148906777Y-99669481D01*
X148923249Y-99737381D01*
X148906777Y-99793479D01*
X148876793Y-99845412D01*
X148876793Y-99845413D01*
X148849500Y-99947273D01*
X148849500Y-100052727D01*
X148871061Y-100133192D01*
X148876793Y-100154586D01*
X148876794Y-100154589D01*
X148896084Y-100188000D01*
X148912557Y-100255900D01*
X148896084Y-100312000D01*
X148876794Y-100345410D01*
X148876793Y-100345413D01*
X148849500Y-100447273D01*
X148849500Y-100552727D01*
X148876295Y-100652726D01*
X148876793Y-100654586D01*
X148876794Y-100654589D01*
X148885752Y-100670105D01*
X148929520Y-100745913D01*
X149004087Y-100820480D01*
X149095413Y-100873207D01*
X149197273Y-100900500D01*
X149197275Y-100900500D01*
X149302725Y-100900500D01*
X149302727Y-100900500D01*
X149404587Y-100873207D01*
X149495913Y-100820480D01*
X149570480Y-100745913D01*
X149623207Y-100654587D01*
X149627584Y-100638253D01*
X152231461Y-100638253D01*
X152231461Y-100743707D01*
X152252032Y-100820478D01*
X152258754Y-100845566D01*
X152258755Y-100845569D01*
X152262039Y-100851257D01*
X152311481Y-100936893D01*
X152386048Y-101011460D01*
X152477374Y-101064187D01*
X152579234Y-101091480D01*
X152579236Y-101091480D01*
X152684684Y-101091480D01*
X152684688Y-101091480D01*
X152691237Y-101089725D01*
X152761083Y-101091386D01*
X152818947Y-101130546D01*
X152830716Y-101147495D01*
X152870500Y-101216403D01*
X152945067Y-101290970D01*
X153036393Y-101343697D01*
X153138253Y-101370990D01*
X153138255Y-101370990D01*
X153243705Y-101370990D01*
X153243707Y-101370990D01*
X153250256Y-101369235D01*
X153320105Y-101370896D01*
X153377968Y-101410058D01*
X153389736Y-101427005D01*
X153429520Y-101495913D01*
X153504087Y-101570480D01*
X153595413Y-101623207D01*
X153697273Y-101650500D01*
X153697275Y-101650500D01*
X153802725Y-101650500D01*
X153802727Y-101650500D01*
X153904587Y-101623207D01*
X153995913Y-101570480D01*
X154037319Y-101529074D01*
X154098642Y-101495589D01*
X154168334Y-101500573D01*
X154212681Y-101529074D01*
X154254087Y-101570480D01*
X154345413Y-101623207D01*
X154447273Y-101650500D01*
X154447275Y-101650500D01*
X154552725Y-101650500D01*
X154552727Y-101650500D01*
X154654587Y-101623207D01*
X154745913Y-101570480D01*
X154787319Y-101529074D01*
X154848642Y-101495589D01*
X154918334Y-101500573D01*
X154962681Y-101529074D01*
X155004087Y-101570480D01*
X155095413Y-101623207D01*
X155197273Y-101650500D01*
X155197275Y-101650500D01*
X155302725Y-101650500D01*
X155302727Y-101650500D01*
X155404587Y-101623207D01*
X155495913Y-101570480D01*
X155537319Y-101529074D01*
X155598642Y-101495589D01*
X155668334Y-101500573D01*
X155712681Y-101529074D01*
X155754087Y-101570480D01*
X155845413Y-101623207D01*
X155947273Y-101650500D01*
X155947275Y-101650500D01*
X155949867Y-101650500D01*
X155951974Y-101651118D01*
X155955333Y-101651561D01*
X155955264Y-101652084D01*
X156016906Y-101670185D01*
X156062661Y-101722989D01*
X156069642Y-101742407D01*
X156069990Y-101743705D01*
X156069990Y-101743707D01*
X156097283Y-101845567D01*
X156150010Y-101936893D01*
X156224577Y-102011460D01*
X156293480Y-102051241D01*
X156341696Y-102101808D01*
X156354918Y-102170415D01*
X156351257Y-102190714D01*
X156349500Y-102197270D01*
X156349500Y-102197273D01*
X156349500Y-102302727D01*
X156376793Y-102404587D01*
X156429520Y-102495913D01*
X156504087Y-102570480D01*
X156595413Y-102623207D01*
X156697273Y-102650500D01*
X156697275Y-102650500D01*
X156802725Y-102650500D01*
X156802727Y-102650500D01*
X156809276Y-102648745D01*
X156879125Y-102650406D01*
X156936988Y-102689568D01*
X156948756Y-102706515D01*
X156988540Y-102775423D01*
X157063107Y-102849990D01*
X157154433Y-102902717D01*
X157256293Y-102930010D01*
X157256295Y-102930010D01*
X157361745Y-102930010D01*
X157361747Y-102930010D01*
X157463607Y-102902717D01*
X157554933Y-102849990D01*
X157629500Y-102775423D01*
X157674620Y-102697273D01*
X165079500Y-102697273D01*
X165079500Y-102802727D01*
X165106793Y-102904587D01*
X165159520Y-102995913D01*
X165234087Y-103070480D01*
X165325413Y-103123207D01*
X165427273Y-103150500D01*
X165427275Y-103150500D01*
X165532725Y-103150500D01*
X165532727Y-103150500D01*
X165634587Y-103123207D01*
X165725913Y-103070480D01*
X165800480Y-102995913D01*
X165853207Y-102904587D01*
X165880500Y-102802727D01*
X165880500Y-102697273D01*
X165853207Y-102595413D01*
X165800480Y-102504087D01*
X165725913Y-102429520D01*
X165634587Y-102376793D01*
X165532727Y-102349500D01*
X165427273Y-102349500D01*
X165325413Y-102376793D01*
X165325410Y-102376794D01*
X165234085Y-102429521D01*
X165159521Y-102504085D01*
X165106794Y-102595410D01*
X165106794Y-102595411D01*
X165106793Y-102595413D01*
X165079500Y-102697273D01*
X157674620Y-102697273D01*
X157682227Y-102684097D01*
X157709520Y-102582237D01*
X157709520Y-102476783D01*
X157682227Y-102374923D01*
X157629500Y-102283597D01*
X157554933Y-102209030D01*
X157486063Y-102169268D01*
X157463609Y-102156304D01*
X157463608Y-102156303D01*
X157463607Y-102156303D01*
X157361747Y-102129010D01*
X157256293Y-102129010D01*
X157256290Y-102129010D01*
X157249734Y-102130767D01*
X157179884Y-102129100D01*
X157122024Y-102089933D01*
X157110261Y-102072990D01*
X157108811Y-102070478D01*
X157070480Y-102004087D01*
X156995913Y-101929520D01*
X156927007Y-101889737D01*
X156878793Y-101839170D01*
X156865571Y-101770563D01*
X156869235Y-101750255D01*
X156870990Y-101743707D01*
X156870990Y-101638253D01*
X156843697Y-101536393D01*
X156790970Y-101445067D01*
X156716403Y-101370500D01*
X156625077Y-101317773D01*
X156523217Y-101290480D01*
X156520623Y-101290480D01*
X156518515Y-101289861D01*
X156515157Y-101289419D01*
X156515225Y-101288895D01*
X156501506Y-101284866D01*
X156481592Y-101284177D01*
X156468667Y-101275223D01*
X156453584Y-101270795D01*
X156440537Y-101255738D01*
X156424156Y-101244391D01*
X156414845Y-101226088D01*
X156407829Y-101217991D01*
X156406114Y-101214057D01*
X156400500Y-101200545D01*
X156400500Y-101197273D01*
X156373207Y-101095413D01*
X156320480Y-101004087D01*
X156263666Y-100947273D01*
X158099500Y-100947273D01*
X158099500Y-101052727D01*
X158126793Y-101154587D01*
X158179520Y-101245913D01*
X158254087Y-101320480D01*
X158345413Y-101373207D01*
X158447273Y-101400500D01*
X158447275Y-101400500D01*
X158552725Y-101400500D01*
X158552727Y-101400500D01*
X158654587Y-101373207D01*
X158745913Y-101320480D01*
X158820480Y-101245913D01*
X158873207Y-101154587D01*
X158900500Y-101052727D01*
X158900500Y-100947273D01*
X159349500Y-100947273D01*
X159349500Y-101052727D01*
X159376793Y-101154587D01*
X159429520Y-101245913D01*
X159504087Y-101320480D01*
X159595413Y-101373207D01*
X159697273Y-101400500D01*
X159697275Y-101400500D01*
X159802725Y-101400500D01*
X159802727Y-101400500D01*
X159904587Y-101373207D01*
X159995913Y-101320480D01*
X160070480Y-101245913D01*
X160123207Y-101154587D01*
X160123207Y-101154586D01*
X160127271Y-101147548D01*
X160128844Y-101148456D01*
X160166302Y-101101966D01*
X160232593Y-101079894D01*
X160299031Y-101096428D01*
X160345413Y-101123207D01*
X160447273Y-101150500D01*
X160447275Y-101150500D01*
X160552725Y-101150500D01*
X160552727Y-101150500D01*
X160654587Y-101123207D01*
X160745913Y-101070480D01*
X160820480Y-100995913D01*
X160873207Y-100904587D01*
X160900500Y-100802727D01*
X160900500Y-100697273D01*
X160873207Y-100595413D01*
X160820480Y-100504087D01*
X160794078Y-100477685D01*
X160760593Y-100416362D01*
X160765577Y-100346670D01*
X160807449Y-100290737D01*
X160849666Y-100270229D01*
X160862307Y-100266843D01*
X160958193Y-100211483D01*
X161036483Y-100133193D01*
X161091843Y-100037307D01*
X161120500Y-99930360D01*
X161120500Y-99819640D01*
X161091843Y-99712693D01*
X161036483Y-99616807D01*
X160958193Y-99538517D01*
X160862307Y-99483157D01*
X160755360Y-99454500D01*
X160644640Y-99454500D01*
X160573342Y-99473604D01*
X160537692Y-99483157D01*
X160441807Y-99538517D01*
X160441804Y-99538519D01*
X160363519Y-99616804D01*
X160363517Y-99616807D01*
X160308157Y-99712692D01*
X160297066Y-99754085D01*
X160279500Y-99819640D01*
X160279500Y-99930360D01*
X160308157Y-100037307D01*
X160363517Y-100133193D01*
X160363519Y-100133195D01*
X160399944Y-100169620D01*
X160433429Y-100230943D01*
X160428445Y-100300635D01*
X160386573Y-100356568D01*
X160352655Y-100373045D01*
X160352920Y-100373684D01*
X160345410Y-100376794D01*
X160254085Y-100429521D01*
X160179521Y-100504085D01*
X160122729Y-100602452D01*
X160121158Y-100601545D01*
X160083676Y-100648048D01*
X160017379Y-100670105D01*
X159950969Y-100653571D01*
X159904587Y-100626793D01*
X159802727Y-100599500D01*
X159697273Y-100599500D01*
X159595413Y-100626793D01*
X159595410Y-100626794D01*
X159504085Y-100679521D01*
X159429521Y-100754085D01*
X159376794Y-100845410D01*
X159376793Y-100845413D01*
X159349500Y-100947273D01*
X158900500Y-100947273D01*
X158873207Y-100845413D01*
X158820480Y-100754087D01*
X158745913Y-100679520D01*
X158654587Y-100626793D01*
X158552727Y-100599500D01*
X158447273Y-100599500D01*
X158345413Y-100626793D01*
X158345410Y-100626794D01*
X158254085Y-100679521D01*
X158179521Y-100754085D01*
X158126794Y-100845410D01*
X158126793Y-100845413D01*
X158099500Y-100947273D01*
X156263666Y-100947273D01*
X156245913Y-100929520D01*
X156173685Y-100887819D01*
X156154589Y-100876794D01*
X156154588Y-100876793D01*
X156154587Y-100876793D01*
X156052727Y-100849500D01*
X155947273Y-100849500D01*
X155845413Y-100876793D01*
X155845410Y-100876794D01*
X155754085Y-100929521D01*
X155712681Y-100970926D01*
X155651358Y-101004411D01*
X155581666Y-100999427D01*
X155537319Y-100970926D01*
X155495914Y-100929521D01*
X155495913Y-100929520D01*
X155423685Y-100887819D01*
X155404589Y-100876794D01*
X155404588Y-100876793D01*
X155404587Y-100876793D01*
X155302727Y-100849500D01*
X155197273Y-100849500D01*
X155095413Y-100876793D01*
X155095410Y-100876794D01*
X155004085Y-100929521D01*
X154962681Y-100970926D01*
X154901358Y-101004411D01*
X154831666Y-100999427D01*
X154787319Y-100970926D01*
X154745914Y-100929521D01*
X154745913Y-100929520D01*
X154673685Y-100887819D01*
X154654589Y-100876794D01*
X154654588Y-100876793D01*
X154654587Y-100876793D01*
X154552727Y-100849500D01*
X154447273Y-100849500D01*
X154345413Y-100876793D01*
X154345410Y-100876794D01*
X154254085Y-100929521D01*
X154212681Y-100970926D01*
X154151358Y-101004411D01*
X154081666Y-100999427D01*
X154037319Y-100970926D01*
X153995914Y-100929521D01*
X153995913Y-100929520D01*
X153923685Y-100887819D01*
X153904589Y-100876794D01*
X153904588Y-100876793D01*
X153904587Y-100876793D01*
X153802727Y-100849500D01*
X153697273Y-100849500D01*
X153697270Y-100849500D01*
X153690714Y-100851257D01*
X153620864Y-100849590D01*
X153563004Y-100810423D01*
X153551241Y-100793480D01*
X153550974Y-100793017D01*
X153511460Y-100724577D01*
X153436893Y-100650010D01*
X153345567Y-100597283D01*
X153243707Y-100569990D01*
X153138253Y-100569990D01*
X153138248Y-100569990D01*
X153131697Y-100571746D01*
X153061847Y-100570080D01*
X153003986Y-100530915D01*
X152992222Y-100513970D01*
X152981797Y-100495913D01*
X152952441Y-100445067D01*
X152877874Y-100370500D01*
X152786548Y-100317773D01*
X152684688Y-100290480D01*
X152579234Y-100290480D01*
X152477374Y-100317773D01*
X152477371Y-100317774D01*
X152386046Y-100370501D01*
X152311482Y-100445065D01*
X152258755Y-100536390D01*
X152258754Y-100536393D01*
X152231461Y-100638253D01*
X149627584Y-100638253D01*
X149650500Y-100552727D01*
X149650500Y-100447273D01*
X149623207Y-100345413D01*
X149603915Y-100311998D01*
X149587442Y-100244102D01*
X149603914Y-100188002D01*
X149623207Y-100154587D01*
X149650500Y-100052727D01*
X149650500Y-99947273D01*
X149623207Y-99845413D01*
X149593222Y-99793477D01*
X149590392Y-99781812D01*
X149583430Y-99772035D01*
X149582308Y-99748493D01*
X149576750Y-99725581D01*
X149580593Y-99712489D01*
X149580106Y-99702245D01*
X149582096Y-99697273D01*
X153869500Y-99697273D01*
X153869500Y-99802727D01*
X153896793Y-99904587D01*
X153949520Y-99995913D01*
X154024087Y-100070480D01*
X154115413Y-100123207D01*
X154217273Y-100150500D01*
X154217275Y-100150500D01*
X154322725Y-100150500D01*
X154322727Y-100150500D01*
X154424587Y-100123207D01*
X154515913Y-100070480D01*
X154590480Y-99995913D01*
X154643207Y-99904587D01*
X154670500Y-99802727D01*
X154670500Y-99697273D01*
X157849500Y-99697273D01*
X157849500Y-99802727D01*
X157876793Y-99904587D01*
X157929520Y-99995913D01*
X158004087Y-100070480D01*
X158095413Y-100123207D01*
X158197273Y-100150500D01*
X158197275Y-100150500D01*
X158302725Y-100150500D01*
X158302727Y-100150500D01*
X158404587Y-100123207D01*
X158495913Y-100070480D01*
X158570480Y-99995913D01*
X158623207Y-99904587D01*
X158645968Y-99819640D01*
X158904500Y-99819640D01*
X158904500Y-99930360D01*
X158933157Y-100037307D01*
X158988517Y-100133193D01*
X159066807Y-100211483D01*
X159162693Y-100266843D01*
X159269640Y-100295500D01*
X159269642Y-100295500D01*
X159380358Y-100295500D01*
X159380360Y-100295500D01*
X159487307Y-100266843D01*
X159583193Y-100211483D01*
X159661483Y-100133193D01*
X159716843Y-100037307D01*
X159745500Y-99930360D01*
X159745500Y-99819640D01*
X159716843Y-99712693D01*
X159661483Y-99616807D01*
X159583193Y-99538517D01*
X159487307Y-99483157D01*
X159380360Y-99454500D01*
X159269640Y-99454500D01*
X159198342Y-99473604D01*
X159162692Y-99483157D01*
X159066807Y-99538517D01*
X159066804Y-99538519D01*
X158988519Y-99616804D01*
X158988517Y-99616807D01*
X158933157Y-99712692D01*
X158922066Y-99754085D01*
X158904500Y-99819640D01*
X158645968Y-99819640D01*
X158650500Y-99802727D01*
X158650500Y-99697273D01*
X158623207Y-99595413D01*
X158570480Y-99504087D01*
X158495913Y-99429520D01*
X158404587Y-99376793D01*
X158302727Y-99349500D01*
X158197273Y-99349500D01*
X158095413Y-99376793D01*
X158095410Y-99376794D01*
X158004085Y-99429521D01*
X157929521Y-99504085D01*
X157876794Y-99595410D01*
X157876793Y-99595413D01*
X157849500Y-99697273D01*
X154670500Y-99697273D01*
X154643207Y-99595413D01*
X154590480Y-99504087D01*
X154515913Y-99429520D01*
X154424587Y-99376793D01*
X154322727Y-99349500D01*
X154217273Y-99349500D01*
X154115413Y-99376793D01*
X154115410Y-99376794D01*
X154024085Y-99429521D01*
X153949521Y-99504085D01*
X153896794Y-99595410D01*
X153896793Y-99595413D01*
X153869500Y-99697273D01*
X149582096Y-99697273D01*
X149593220Y-99669485D01*
X149623207Y-99617547D01*
X149650500Y-99515687D01*
X149650500Y-99410233D01*
X149623207Y-99308373D01*
X149570480Y-99217047D01*
X149495913Y-99142480D01*
X149421469Y-99099500D01*
X149404589Y-99089754D01*
X149404588Y-99089753D01*
X149404587Y-99089753D01*
X149302727Y-99062460D01*
X149197273Y-99062460D01*
X149095413Y-99089753D01*
X149095410Y-99089754D01*
X149004085Y-99142481D01*
X148929521Y-99217045D01*
X148876794Y-99308370D01*
X148876793Y-99308373D01*
X148849500Y-99410233D01*
X147092311Y-99410233D01*
X147159819Y-99342725D01*
X148887820Y-97614724D01*
X148949142Y-97581240D01*
X149018834Y-97586224D01*
X149074767Y-97628096D01*
X149099184Y-97693560D01*
X149099500Y-97702406D01*
X149099500Y-97802727D01*
X149126793Y-97904587D01*
X149179520Y-97995913D01*
X149254087Y-98070480D01*
X149345413Y-98123207D01*
X149447273Y-98150500D01*
X149447275Y-98150500D01*
X149552725Y-98150500D01*
X149552727Y-98150500D01*
X149654587Y-98123207D01*
X149745913Y-98070480D01*
X149820480Y-97995913D01*
X149873207Y-97904587D01*
X149900500Y-97802727D01*
X149900500Y-97697273D01*
X149873207Y-97595413D01*
X149820480Y-97504087D01*
X149745913Y-97429520D01*
X149665672Y-97383193D01*
X149654589Y-97376794D01*
X149654588Y-97376793D01*
X149654587Y-97376793D01*
X149552727Y-97349500D01*
X149452407Y-97349500D01*
X149431161Y-97343261D01*
X149409073Y-97341682D01*
X149398289Y-97333609D01*
X149385368Y-97329815D01*
X149370868Y-97313081D01*
X149353140Y-97299810D01*
X149348432Y-97287189D01*
X149339613Y-97277011D01*
X149336461Y-97255093D01*
X149328723Y-97234346D01*
X149331585Y-97221185D01*
X149329669Y-97207853D01*
X149334500Y-97197273D01*
X151849500Y-97197273D01*
X151849500Y-97302727D01*
X151876793Y-97404587D01*
X151929520Y-97495913D01*
X152004087Y-97570480D01*
X152095413Y-97623207D01*
X152197273Y-97650500D01*
X152197275Y-97650500D01*
X152302725Y-97650500D01*
X152302727Y-97650500D01*
X152404587Y-97623207D01*
X152450970Y-97596427D01*
X152518865Y-97579955D01*
X152584892Y-97602806D01*
X152621210Y-97648424D01*
X152622729Y-97647548D01*
X152626793Y-97654587D01*
X152679520Y-97745913D01*
X152754087Y-97820480D01*
X152845413Y-97873207D01*
X152947273Y-97900500D01*
X152947275Y-97900500D01*
X153052725Y-97900500D01*
X153052727Y-97900500D01*
X153154587Y-97873207D01*
X153245913Y-97820480D01*
X153320480Y-97745913D01*
X153373207Y-97654587D01*
X153400500Y-97552727D01*
X153400500Y-97447273D01*
X153869500Y-97447273D01*
X153869500Y-97552727D01*
X153896793Y-97654587D01*
X153949520Y-97745913D01*
X154024087Y-97820480D01*
X154115413Y-97873207D01*
X154217273Y-97900500D01*
X154217275Y-97900500D01*
X154322725Y-97900500D01*
X154322727Y-97900500D01*
X154424587Y-97873207D01*
X154515913Y-97820480D01*
X154590480Y-97745913D01*
X154643207Y-97654587D01*
X154670500Y-97552727D01*
X154670500Y-97447273D01*
X154643207Y-97345413D01*
X154590480Y-97254087D01*
X154515913Y-97179520D01*
X154424587Y-97126793D01*
X154322727Y-97099500D01*
X154217273Y-97099500D01*
X154115413Y-97126793D01*
X154115410Y-97126794D01*
X154024085Y-97179521D01*
X153949521Y-97254085D01*
X153896794Y-97345410D01*
X153896793Y-97345413D01*
X153869500Y-97447273D01*
X153400500Y-97447273D01*
X153373207Y-97345413D01*
X153320480Y-97254087D01*
X153245913Y-97179520D01*
X153154587Y-97126793D01*
X153052727Y-97099500D01*
X152947273Y-97099500D01*
X152845413Y-97126793D01*
X152845410Y-97126794D01*
X152799032Y-97153571D01*
X152731132Y-97170044D01*
X152665105Y-97147191D01*
X152628791Y-97101574D01*
X152627271Y-97102452D01*
X152608811Y-97070478D01*
X152570480Y-97004087D01*
X152495913Y-96929520D01*
X152404587Y-96876793D01*
X152302727Y-96849500D01*
X152197273Y-96849500D01*
X152095413Y-96876793D01*
X152095410Y-96876794D01*
X152004085Y-96929521D01*
X151929521Y-97004085D01*
X151876794Y-97095410D01*
X151876793Y-97095413D01*
X151849500Y-97197273D01*
X149334500Y-97197273D01*
X149338868Y-97187709D01*
X149343575Y-97166073D01*
X149356843Y-97148347D01*
X149358694Y-97144297D01*
X149364726Y-97137819D01*
X149975236Y-96527309D01*
X150036559Y-96493824D01*
X150062917Y-96490990D01*
X151333315Y-96490990D01*
X151333316Y-96490990D01*
X151392673Y-96466403D01*
X151432736Y-96449809D01*
X152675726Y-95206819D01*
X152737049Y-95173334D01*
X152763407Y-95170500D01*
X154533665Y-95170500D01*
X154600704Y-95190185D01*
X154646459Y-95242989D01*
X154656403Y-95312147D01*
X154648228Y-95341948D01*
X154646794Y-95345409D01*
X154635636Y-95387051D01*
X154619500Y-95447273D01*
X154619500Y-95552727D01*
X154646793Y-95654587D01*
X154699520Y-95745913D01*
X154774087Y-95820480D01*
X154865413Y-95873207D01*
X154967273Y-95900500D01*
X154967275Y-95900500D01*
X155072725Y-95900500D01*
X155072727Y-95900500D01*
X155174587Y-95873207D01*
X155265913Y-95820480D01*
X155340480Y-95745913D01*
X155393207Y-95654587D01*
X155420500Y-95552727D01*
X155420500Y-95447273D01*
X155393207Y-95345413D01*
X155393205Y-95345409D01*
X155391772Y-95341948D01*
X155391432Y-95338793D01*
X155391103Y-95337562D01*
X155391295Y-95337510D01*
X155384306Y-95272479D01*
X155415583Y-95210001D01*
X155475674Y-95174351D01*
X155506335Y-95170500D01*
X156707083Y-95170500D01*
X156774122Y-95190185D01*
X156794764Y-95206819D01*
X157754161Y-96166216D01*
X157787646Y-96227539D01*
X157790480Y-96253897D01*
X157790480Y-96273217D01*
X157817773Y-96375077D01*
X157870500Y-96466403D01*
X157945067Y-96540970D01*
X158036393Y-96593697D01*
X158138253Y-96620990D01*
X158138255Y-96620990D01*
X158243705Y-96620990D01*
X158243707Y-96620990D01*
X158250256Y-96619235D01*
X158278094Y-96619897D01*
X158305815Y-96617249D01*
X158312540Y-96620716D01*
X158320105Y-96620896D01*
X158343167Y-96636504D01*
X158367918Y-96649264D01*
X158374631Y-96657799D01*
X158377968Y-96660058D01*
X158389734Y-96677002D01*
X158403570Y-96700967D01*
X158420044Y-96768864D01*
X158397193Y-96834891D01*
X158351575Y-96871211D01*
X158352452Y-96872729D01*
X158254085Y-96929521D01*
X158179521Y-97004085D01*
X158126794Y-97095410D01*
X158126793Y-97095413D01*
X158099500Y-97197273D01*
X158099500Y-97302727D01*
X158126793Y-97404587D01*
X158164799Y-97470416D01*
X158179521Y-97495914D01*
X158220926Y-97537319D01*
X158254411Y-97598642D01*
X158249427Y-97668334D01*
X158220926Y-97712681D01*
X158179521Y-97754085D01*
X158126794Y-97845410D01*
X158126793Y-97845413D01*
X158099500Y-97947273D01*
X158099500Y-98052727D01*
X158126793Y-98154587D01*
X158179520Y-98245913D01*
X158254087Y-98320480D01*
X158345413Y-98373207D01*
X158447273Y-98400500D01*
X158447275Y-98400500D01*
X158552725Y-98400500D01*
X158552727Y-98400500D01*
X158654587Y-98373207D01*
X158718503Y-98336304D01*
X158786399Y-98319833D01*
X158852426Y-98342685D01*
X158895617Y-98397606D01*
X158904500Y-98443693D01*
X158904500Y-98444640D01*
X158904500Y-98555360D01*
X158933157Y-98662307D01*
X158988517Y-98758193D01*
X159066807Y-98836483D01*
X159162693Y-98891843D01*
X159269640Y-98920500D01*
X159269642Y-98920500D01*
X159380358Y-98920500D01*
X159380360Y-98920500D01*
X159487307Y-98891843D01*
X159583193Y-98836483D01*
X159661483Y-98758193D01*
X159716843Y-98662307D01*
X159745500Y-98555360D01*
X159745500Y-98444640D01*
X160279500Y-98444640D01*
X160279500Y-98555360D01*
X160308157Y-98662307D01*
X160363517Y-98758193D01*
X160441807Y-98836483D01*
X160537693Y-98891843D01*
X160644640Y-98920500D01*
X160644642Y-98920500D01*
X160755358Y-98920500D01*
X160755360Y-98920500D01*
X160862307Y-98891843D01*
X160958193Y-98836483D01*
X161036483Y-98758193D01*
X161091843Y-98662307D01*
X161120500Y-98555360D01*
X161120500Y-98444640D01*
X161654500Y-98444640D01*
X161654500Y-98555360D01*
X161683157Y-98662307D01*
X161738517Y-98758193D01*
X161816807Y-98836483D01*
X161912693Y-98891843D01*
X162019640Y-98920500D01*
X162019642Y-98920500D01*
X162130358Y-98920500D01*
X162130360Y-98920500D01*
X162237307Y-98891843D01*
X162333193Y-98836483D01*
X162411483Y-98758193D01*
X162466843Y-98662307D01*
X162495500Y-98555360D01*
X162495500Y-98444640D01*
X162466843Y-98337693D01*
X162411483Y-98241807D01*
X162333193Y-98163517D01*
X162237307Y-98108157D01*
X162130360Y-98079500D01*
X162019640Y-98079500D01*
X161948342Y-98098604D01*
X161912692Y-98108157D01*
X161816807Y-98163517D01*
X161816804Y-98163519D01*
X161738519Y-98241804D01*
X161738517Y-98241807D01*
X161683157Y-98337692D01*
X161673641Y-98373205D01*
X161654500Y-98444640D01*
X161120500Y-98444640D01*
X161091843Y-98337693D01*
X161036483Y-98241807D01*
X160958193Y-98163517D01*
X160862307Y-98108157D01*
X160755360Y-98079500D01*
X160644640Y-98079500D01*
X160573342Y-98098604D01*
X160537692Y-98108157D01*
X160441807Y-98163517D01*
X160441804Y-98163519D01*
X160363519Y-98241804D01*
X160363517Y-98241807D01*
X160308157Y-98337692D01*
X160298641Y-98373205D01*
X160279500Y-98444640D01*
X159745500Y-98444640D01*
X159716843Y-98337693D01*
X159661483Y-98241807D01*
X159583193Y-98163517D01*
X159487307Y-98108157D01*
X159380360Y-98079500D01*
X159269640Y-98079500D01*
X159198342Y-98098604D01*
X159162692Y-98108157D01*
X159126862Y-98128844D01*
X159086499Y-98152147D01*
X159018600Y-98168620D01*
X158952573Y-98145768D01*
X158909383Y-98090847D01*
X158900500Y-98044760D01*
X158900500Y-97947275D01*
X158900500Y-97947273D01*
X158873207Y-97845413D01*
X158820480Y-97754087D01*
X158779074Y-97712681D01*
X158778267Y-97711204D01*
X158776811Y-97710359D01*
X158761577Y-97680639D01*
X158745589Y-97651358D01*
X158745709Y-97649679D01*
X158744941Y-97648181D01*
X158748191Y-97614962D01*
X158750573Y-97581666D01*
X158751634Y-97579780D01*
X158751746Y-97578644D01*
X158755310Y-97573254D01*
X158769465Y-97548120D01*
X158773954Y-97542438D01*
X158820480Y-97495913D01*
X158846952Y-97450060D01*
X158852541Y-97442989D01*
X158873987Y-97427792D01*
X158893011Y-97409654D01*
X158902043Y-97407913D01*
X158909550Y-97402594D01*
X158935808Y-97401404D01*
X158961618Y-97396430D01*
X158970158Y-97399849D01*
X158979348Y-97399433D01*
X159002079Y-97412628D01*
X159026483Y-97422398D01*
X159037512Y-97432188D01*
X159066807Y-97461483D01*
X159162693Y-97516843D01*
X159269640Y-97545500D01*
X159269642Y-97545500D01*
X159380358Y-97545500D01*
X159380360Y-97545500D01*
X159487307Y-97516843D01*
X159583193Y-97461483D01*
X159661483Y-97383193D01*
X159716843Y-97287307D01*
X159745500Y-97180360D01*
X159745500Y-97069640D01*
X159716843Y-96962693D01*
X159661483Y-96866807D01*
X159656857Y-96862181D01*
X159623372Y-96800858D01*
X159628356Y-96731166D01*
X159670228Y-96675233D01*
X159735692Y-96650816D01*
X159744538Y-96650500D01*
X159802725Y-96650500D01*
X159802727Y-96650500D01*
X159904587Y-96623207D01*
X159995913Y-96570480D01*
X160070480Y-96495913D01*
X160123207Y-96404587D01*
X160130225Y-96378392D01*
X160166587Y-96318736D01*
X160229433Y-96288205D01*
X160298809Y-96296499D01*
X160352688Y-96340983D01*
X160369773Y-96378391D01*
X160376792Y-96404586D01*
X160387129Y-96422489D01*
X160429520Y-96495913D01*
X160429521Y-96495914D01*
X160429522Y-96495915D01*
X160505252Y-96571645D01*
X160538737Y-96632968D01*
X160533753Y-96702660D01*
X160491881Y-96758593D01*
X160479573Y-96766712D01*
X160441810Y-96788515D01*
X160441804Y-96788519D01*
X160363519Y-96866804D01*
X160363517Y-96866807D01*
X160308157Y-96962692D01*
X160299255Y-96995914D01*
X160279500Y-97069640D01*
X160279500Y-97180360D01*
X160308157Y-97287307D01*
X160363517Y-97383193D01*
X160441807Y-97461483D01*
X160537693Y-97516843D01*
X160644640Y-97545500D01*
X160644642Y-97545500D01*
X160755358Y-97545500D01*
X160755360Y-97545500D01*
X160862307Y-97516843D01*
X160958193Y-97461483D01*
X161036483Y-97383193D01*
X161091843Y-97287307D01*
X161120500Y-97180360D01*
X161120500Y-97069640D01*
X161091843Y-96962693D01*
X161036483Y-96866807D01*
X160958193Y-96788517D01*
X160952446Y-96782770D01*
X160953665Y-96781550D01*
X160918264Y-96733062D01*
X160914112Y-96663316D01*
X160948328Y-96602398D01*
X160972946Y-96583739D01*
X160995913Y-96570480D01*
X161070480Y-96495913D01*
X161123207Y-96404587D01*
X161150500Y-96302727D01*
X161150500Y-96197273D01*
X161123207Y-96095413D01*
X161070480Y-96004087D01*
X160995913Y-95929520D01*
X160904587Y-95876793D01*
X160802727Y-95849500D01*
X160697273Y-95849500D01*
X160689146Y-95849500D01*
X160689146Y-95847376D01*
X160631208Y-95838333D01*
X160596393Y-95813848D01*
X157160225Y-92377680D01*
X157160226Y-92377680D01*
X157134257Y-92366924D01*
X157119044Y-92360623D01*
X157119042Y-92360622D01*
X157060808Y-92336500D01*
X157060806Y-92336500D01*
X143299194Y-92336500D01*
X143299192Y-92336500D01*
X143299190Y-92336501D01*
X143240955Y-92360622D01*
X143240955Y-92360623D01*
X143199774Y-92377681D01*
X143199772Y-92377682D01*
X141490874Y-94086579D01*
X141429551Y-94120064D01*
X141359859Y-94115080D01*
X141355741Y-94113459D01*
X141243088Y-94066797D01*
X141243078Y-94066794D01*
X141055588Y-94029500D01*
X141055586Y-94029500D01*
X140864414Y-94029500D01*
X140864412Y-94029500D01*
X140676921Y-94066794D01*
X140676911Y-94066797D01*
X140500299Y-94139951D01*
X140341339Y-94246164D01*
X140206164Y-94381339D01*
X140099951Y-94540299D01*
X140050061Y-94660748D01*
X140006220Y-94715152D01*
X139939926Y-94737217D01*
X139872227Y-94719938D01*
X139824616Y-94668801D01*
X139811500Y-94613296D01*
X139811500Y-92674063D01*
X139831185Y-92607024D01*
X139883989Y-92561269D01*
X139953147Y-92551325D01*
X139997501Y-92566676D01*
X140004083Y-92570476D01*
X140004087Y-92570480D01*
X140095413Y-92623207D01*
X140197273Y-92650500D01*
X140197275Y-92650500D01*
X140302725Y-92650500D01*
X140302727Y-92650500D01*
X140404587Y-92623207D01*
X140495913Y-92570480D01*
X140570480Y-92495913D01*
X140623207Y-92404587D01*
X140650500Y-92302727D01*
X140650500Y-92197273D01*
X140623207Y-92095413D01*
X140570480Y-92004087D01*
X140495913Y-91929520D01*
X140404587Y-91876793D01*
X140302727Y-91849500D01*
X140197273Y-91849500D01*
X140095413Y-91876793D01*
X140095410Y-91876794D01*
X139997500Y-91933323D01*
X139929600Y-91949796D01*
X139863573Y-91926943D01*
X139820382Y-91872022D01*
X139815031Y-91855316D01*
X139811500Y-91840837D01*
X139811500Y-91787194D01*
X139783337Y-91719204D01*
X139770319Y-91687774D01*
X139770317Y-91687772D01*
X139770317Y-91687771D01*
X138613419Y-90530874D01*
X138579934Y-90469551D01*
X138584918Y-90399859D01*
X138586500Y-90395836D01*
X138633204Y-90283084D01*
X138651124Y-90192993D01*
X138670500Y-90095588D01*
X138670500Y-89904411D01*
X138633205Y-89716921D01*
X138633204Y-89716920D01*
X138633204Y-89716916D01*
X138604015Y-89646446D01*
X138560048Y-89540299D01*
X138453835Y-89381339D01*
X138433677Y-89361181D01*
X138400192Y-89299858D01*
X138405176Y-89230166D01*
X138447048Y-89174233D01*
X138512512Y-89149816D01*
X138521358Y-89149500D01*
X139418642Y-89149500D01*
X139485681Y-89169185D01*
X139531436Y-89221989D01*
X139541380Y-89291147D01*
X139512355Y-89354703D01*
X139506323Y-89361181D01*
X139486165Y-89381338D01*
X139486164Y-89381339D01*
X139379951Y-89540299D01*
X139306797Y-89716911D01*
X139306794Y-89716921D01*
X139269500Y-89904411D01*
X139269500Y-89904414D01*
X139269500Y-90095586D01*
X139269500Y-90095588D01*
X139269499Y-90095588D01*
X139306794Y-90283078D01*
X139306797Y-90283088D01*
X139379951Y-90459700D01*
X139486164Y-90618660D01*
X139621339Y-90753835D01*
X139780299Y-90860048D01*
X139956911Y-90933202D01*
X139956916Y-90933204D01*
X139956920Y-90933204D01*
X139956921Y-90933205D01*
X140144411Y-90970500D01*
X140144414Y-90970500D01*
X140335588Y-90970500D01*
X140496806Y-90938431D01*
X140523084Y-90933204D01*
X140635745Y-90886538D01*
X140705209Y-90879070D01*
X140767688Y-90910344D01*
X140770874Y-90913419D01*
X141775774Y-91918319D01*
X141841186Y-91945413D01*
X141875194Y-91959500D01*
X141875195Y-91959500D01*
X141982805Y-91959500D01*
X157574825Y-91959500D01*
X157641864Y-91979185D01*
X157662506Y-91995819D01*
X162159506Y-96492819D01*
X162192991Y-96554142D01*
X162188007Y-96623834D01*
X162146135Y-96679767D01*
X162080671Y-96704184D01*
X162071825Y-96704500D01*
X162019640Y-96704500D01*
X161948342Y-96723604D01*
X161912692Y-96733157D01*
X161816807Y-96788517D01*
X161816804Y-96788519D01*
X161738519Y-96866804D01*
X161738517Y-96866807D01*
X161683157Y-96962692D01*
X161674255Y-96995914D01*
X161654500Y-97069640D01*
X161654500Y-97180360D01*
X161683157Y-97287307D01*
X161738517Y-97383193D01*
X161816807Y-97461483D01*
X161912693Y-97516843D01*
X162019640Y-97545500D01*
X162019642Y-97545500D01*
X162130358Y-97545500D01*
X162130360Y-97545500D01*
X162237307Y-97516843D01*
X162333193Y-97461483D01*
X162410300Y-97384375D01*
X162471619Y-97350893D01*
X162541311Y-97355877D01*
X162597245Y-97397748D01*
X162621662Y-97463212D01*
X162617753Y-97504151D01*
X162599500Y-97572274D01*
X162599500Y-97572276D01*
X162599500Y-97677730D01*
X162626793Y-97779590D01*
X162679520Y-97870916D01*
X162754087Y-97945483D01*
X162845413Y-97998210D01*
X162947273Y-98025503D01*
X162947275Y-98025503D01*
X163052725Y-98025503D01*
X163052727Y-98025503D01*
X163154587Y-97998210D01*
X163245913Y-97945483D01*
X163317819Y-97873577D01*
X163379142Y-97840092D01*
X163448834Y-97845076D01*
X163504767Y-97886948D01*
X163529184Y-97952412D01*
X163529500Y-97961258D01*
X163529500Y-98495113D01*
X163509815Y-98562152D01*
X163493181Y-98582794D01*
X163279814Y-98796160D01*
X163218491Y-98829645D01*
X163160040Y-98828254D01*
X163064770Y-98802727D01*
X163052727Y-98799500D01*
X162947273Y-98799500D01*
X162845413Y-98826793D01*
X162845410Y-98826794D01*
X162754085Y-98879521D01*
X162679521Y-98954085D01*
X162626794Y-99045410D01*
X162626793Y-99045413D01*
X162599500Y-99147273D01*
X162599500Y-99252727D01*
X162626793Y-99354587D01*
X162678754Y-99444587D01*
X162679521Y-99445914D01*
X162717340Y-99483733D01*
X162750825Y-99545056D01*
X162745841Y-99614748D01*
X162716330Y-99660094D01*
X162706385Y-99669812D01*
X162704290Y-99670681D01*
X162652208Y-99722762D01*
X162651635Y-99723323D01*
X162621389Y-99739390D01*
X162591321Y-99755809D01*
X162590584Y-99755756D01*
X162589932Y-99756103D01*
X162555756Y-99753265D01*
X162521629Y-99750824D01*
X162521038Y-99750382D01*
X162520302Y-99750321D01*
X162493125Y-99729486D01*
X162465696Y-99708953D01*
X162465035Y-99707951D01*
X162464852Y-99707811D01*
X162464742Y-99707508D01*
X162457577Y-99696644D01*
X162454029Y-99690499D01*
X162411483Y-99616807D01*
X162333193Y-99538517D01*
X162237307Y-99483157D01*
X162130360Y-99454500D01*
X162019640Y-99454500D01*
X161948342Y-99473604D01*
X161912692Y-99483157D01*
X161816807Y-99538517D01*
X161816804Y-99538519D01*
X161738519Y-99616804D01*
X161738517Y-99616807D01*
X161683157Y-99712692D01*
X161672066Y-99754085D01*
X161654500Y-99819640D01*
X161654500Y-99930360D01*
X161683157Y-100037307D01*
X161738517Y-100133193D01*
X161816807Y-100211483D01*
X161876443Y-100245914D01*
X161896644Y-100257577D01*
X161913895Y-100275670D01*
X161933911Y-100290653D01*
X161937591Y-100300521D01*
X161944860Y-100308144D01*
X161949591Y-100332694D01*
X161958328Y-100356117D01*
X161956089Y-100366407D01*
X161958083Y-100376751D01*
X161948789Y-100399965D01*
X161943476Y-100424390D01*
X161933877Y-100437212D01*
X161932115Y-100441616D01*
X161922326Y-100452645D01*
X161811788Y-100563182D01*
X161750468Y-100596666D01*
X161724109Y-100599500D01*
X161697273Y-100599500D01*
X161595413Y-100626793D01*
X161595410Y-100626794D01*
X161504085Y-100679521D01*
X161429521Y-100754085D01*
X161376794Y-100845410D01*
X161376793Y-100845413D01*
X161349500Y-100947273D01*
X161349500Y-101052727D01*
X161376793Y-101154587D01*
X161429520Y-101245913D01*
X161504087Y-101320480D01*
X161595413Y-101373207D01*
X161697273Y-101400500D01*
X161697275Y-101400500D01*
X161802725Y-101400500D01*
X161802727Y-101400500D01*
X161904587Y-101373207D01*
X161995913Y-101320480D01*
X162070480Y-101245913D01*
X162123207Y-101154587D01*
X162150500Y-101052727D01*
X162150500Y-101040923D01*
X162170185Y-100973884D01*
X162186819Y-100953242D01*
X162289522Y-100850539D01*
X162392231Y-100747829D01*
X162453552Y-100714346D01*
X162523243Y-100719330D01*
X162579177Y-100761201D01*
X162599685Y-100803418D01*
X162626793Y-100904588D01*
X162626794Y-100904589D01*
X162679520Y-100995913D01*
X162754087Y-101070480D01*
X162845413Y-101123207D01*
X162947273Y-101150500D01*
X162947275Y-101150500D01*
X163052725Y-101150500D01*
X163052727Y-101150500D01*
X163154587Y-101123207D01*
X163245913Y-101070480D01*
X163320480Y-100995913D01*
X163373207Y-100904587D01*
X163400500Y-100802727D01*
X163400500Y-100697273D01*
X163373207Y-100595413D01*
X163320480Y-100504087D01*
X163245913Y-100429520D01*
X163186488Y-100395211D01*
X163176691Y-100384937D01*
X163163995Y-100378582D01*
X163153060Y-100360153D01*
X163138273Y-100344645D01*
X163135586Y-100330702D01*
X163128342Y-100318494D01*
X163129106Y-100297080D01*
X163125051Y-100276038D01*
X163130327Y-100262857D01*
X163130834Y-100248669D01*
X163143054Y-100231066D01*
X163151019Y-100211173D01*
X163163360Y-100201818D01*
X163170681Y-100191275D01*
X163201034Y-100173265D01*
X163207709Y-100170500D01*
X163207711Y-100170500D01*
X163265949Y-100146376D01*
X163307131Y-100129319D01*
X164404159Y-99032290D01*
X164465480Y-98998807D01*
X164535171Y-99003791D01*
X164591105Y-99045662D01*
X164615522Y-99111127D01*
X164611613Y-99152065D01*
X164599500Y-99197271D01*
X164599500Y-99197273D01*
X164599500Y-99302727D01*
X164613396Y-99354586D01*
X164626793Y-99404586D01*
X164626794Y-99404589D01*
X164628216Y-99407052D01*
X164679520Y-99495913D01*
X164754087Y-99570480D01*
X164845413Y-99623207D01*
X164947273Y-99650500D01*
X164947275Y-99650500D01*
X164955123Y-99652603D01*
X164954385Y-99655357D01*
X165005661Y-99678038D01*
X165044134Y-99736361D01*
X165044969Y-99806226D01*
X165032970Y-99834714D01*
X165026794Y-99845410D01*
X165026793Y-99845413D01*
X164999500Y-99947273D01*
X164999500Y-100052727D01*
X165021061Y-100133192D01*
X165026793Y-100154586D01*
X165026794Y-100154589D01*
X165027359Y-100155567D01*
X165079520Y-100245913D01*
X165154087Y-100320480D01*
X165163643Y-100325997D01*
X165211858Y-100376563D01*
X165225081Y-100445170D01*
X165221417Y-100465476D01*
X165210278Y-100507049D01*
X165199500Y-100547273D01*
X165199500Y-100652727D01*
X165226659Y-100754085D01*
X165226793Y-100754586D01*
X165226794Y-100754589D01*
X165240922Y-100779059D01*
X165279321Y-100845569D01*
X165279521Y-100845914D01*
X165321426Y-100887819D01*
X165354911Y-100949142D01*
X165349927Y-101018834D01*
X165308055Y-101074767D01*
X165242591Y-101099184D01*
X165233745Y-101099500D01*
X165197273Y-101099500D01*
X165095413Y-101126793D01*
X165095410Y-101126794D01*
X165004085Y-101179521D01*
X164929521Y-101254085D01*
X164876794Y-101345410D01*
X164876793Y-101345413D01*
X164849500Y-101447273D01*
X164849500Y-101552727D01*
X164876793Y-101654587D01*
X164929520Y-101745913D01*
X165004087Y-101820480D01*
X165095413Y-101873207D01*
X165197273Y-101900500D01*
X165197275Y-101900500D01*
X165302725Y-101900500D01*
X165302727Y-101900500D01*
X165404587Y-101873207D01*
X165495913Y-101820480D01*
X165570480Y-101745913D01*
X165598562Y-101697273D01*
X166099500Y-101697273D01*
X166099500Y-101802727D01*
X166126793Y-101904587D01*
X166179520Y-101995913D01*
X166254087Y-102070480D01*
X166345413Y-102123207D01*
X166381606Y-102132904D01*
X166441266Y-102169268D01*
X166471796Y-102232115D01*
X166463502Y-102301490D01*
X166419017Y-102355369D01*
X166381609Y-102372453D01*
X166365415Y-102376792D01*
X166365410Y-102376794D01*
X166274085Y-102429521D01*
X166199521Y-102504085D01*
X166146794Y-102595410D01*
X166146794Y-102595411D01*
X166146793Y-102595413D01*
X166119500Y-102697273D01*
X166119500Y-102802727D01*
X166146793Y-102904587D01*
X166199520Y-102995913D01*
X166274087Y-103070480D01*
X166365413Y-103123207D01*
X166467273Y-103150500D01*
X166467275Y-103150500D01*
X166572725Y-103150500D01*
X166572727Y-103150500D01*
X166674587Y-103123207D01*
X166765913Y-103070480D01*
X166840480Y-102995913D01*
X166893207Y-102904587D01*
X166920500Y-102802727D01*
X166920500Y-102697273D01*
X166893705Y-102597273D01*
X168399500Y-102597273D01*
X168399500Y-102702727D01*
X168426793Y-102804587D01*
X168479520Y-102895913D01*
X168554087Y-102970480D01*
X168645413Y-103023207D01*
X168747273Y-103050500D01*
X168747275Y-103050500D01*
X168852725Y-103050500D01*
X168852727Y-103050500D01*
X168954587Y-103023207D01*
X169045913Y-102970480D01*
X169120480Y-102895913D01*
X169173207Y-102804587D01*
X169188564Y-102747273D01*
X171599500Y-102747273D01*
X171599500Y-102852727D01*
X171626793Y-102954587D01*
X171679520Y-103045913D01*
X171754087Y-103120480D01*
X171845413Y-103173207D01*
X171947273Y-103200500D01*
X171947275Y-103200500D01*
X172052725Y-103200500D01*
X172052727Y-103200500D01*
X172154587Y-103173207D01*
X172245913Y-103120480D01*
X172320480Y-103045913D01*
X172373207Y-102954587D01*
X172400500Y-102852727D01*
X172400500Y-102747273D01*
X172373207Y-102645413D01*
X172320480Y-102554087D01*
X172245913Y-102479520D01*
X172159312Y-102429521D01*
X172154589Y-102426794D01*
X172154588Y-102426793D01*
X172154587Y-102426793D01*
X172052727Y-102399500D01*
X171947273Y-102399500D01*
X171845413Y-102426793D01*
X171845410Y-102426794D01*
X171754085Y-102479521D01*
X171679521Y-102554085D01*
X171626794Y-102645410D01*
X171626793Y-102645413D01*
X171599500Y-102747273D01*
X169188564Y-102747273D01*
X169200500Y-102702727D01*
X169200500Y-102597273D01*
X169173207Y-102495413D01*
X169120480Y-102404087D01*
X169045913Y-102329520D01*
X168966372Y-102283597D01*
X168954589Y-102276794D01*
X168954588Y-102276793D01*
X168954587Y-102276793D01*
X168852727Y-102249500D01*
X168747273Y-102249500D01*
X168645413Y-102276793D01*
X168645410Y-102276794D01*
X168554085Y-102329521D01*
X168479521Y-102404085D01*
X168426794Y-102495410D01*
X168426793Y-102495413D01*
X168399500Y-102597273D01*
X166893705Y-102597273D01*
X166893207Y-102595413D01*
X166840480Y-102504087D01*
X166765913Y-102429520D01*
X166674589Y-102376794D01*
X166674588Y-102376793D01*
X166657885Y-102372317D01*
X166638391Y-102367094D01*
X166578732Y-102330730D01*
X166548203Y-102267882D01*
X166556498Y-102198507D01*
X166600983Y-102144629D01*
X166638389Y-102127547D01*
X166654587Y-102123207D01*
X166745913Y-102070480D01*
X166820480Y-101995913D01*
X166873207Y-101904587D01*
X166900500Y-101802727D01*
X166900500Y-101697273D01*
X166873207Y-101595413D01*
X166820480Y-101504087D01*
X166745913Y-101429520D01*
X166659312Y-101379521D01*
X166654589Y-101376794D01*
X166654588Y-101376793D01*
X166654587Y-101376793D01*
X166552727Y-101349500D01*
X166447273Y-101349500D01*
X166345413Y-101376793D01*
X166345410Y-101376794D01*
X166254085Y-101429521D01*
X166179521Y-101504085D01*
X166126794Y-101595410D01*
X166126793Y-101595413D01*
X166099500Y-101697273D01*
X165598562Y-101697273D01*
X165623207Y-101654587D01*
X165650500Y-101552727D01*
X165650500Y-101447273D01*
X165623207Y-101345413D01*
X165570480Y-101254087D01*
X165528574Y-101212181D01*
X165495089Y-101150858D01*
X165500073Y-101081166D01*
X165541945Y-101025233D01*
X165607409Y-101000816D01*
X165616255Y-101000500D01*
X165652725Y-101000500D01*
X165652727Y-101000500D01*
X165754587Y-100973207D01*
X165845913Y-100920480D01*
X165920480Y-100845913D01*
X165973207Y-100754587D01*
X166000500Y-100652727D01*
X166000500Y-100547273D01*
X165973207Y-100445413D01*
X165920480Y-100354087D01*
X165845913Y-100279520D01*
X165836354Y-100274001D01*
X165788140Y-100223434D01*
X165774919Y-100154827D01*
X165775168Y-100152458D01*
X165776212Y-100143370D01*
X165800500Y-100052727D01*
X165800500Y-99947273D01*
X166599500Y-99947273D01*
X166599500Y-100052727D01*
X166621061Y-100133192D01*
X166626793Y-100154586D01*
X166626794Y-100154589D01*
X166627359Y-100155567D01*
X166679520Y-100245913D01*
X166754087Y-100320480D01*
X166845413Y-100373207D01*
X166947273Y-100400500D01*
X166947275Y-100400500D01*
X167052725Y-100400500D01*
X167052727Y-100400500D01*
X167154587Y-100373207D01*
X167245913Y-100320480D01*
X167320480Y-100245913D01*
X167373207Y-100154587D01*
X167400500Y-100052727D01*
X167400500Y-99947273D01*
X167373207Y-99845413D01*
X167320480Y-99754087D01*
X167245913Y-99679520D01*
X167154587Y-99626793D01*
X167052727Y-99599500D01*
X166947273Y-99599500D01*
X166845413Y-99626793D01*
X166845410Y-99626794D01*
X166754085Y-99679521D01*
X166679521Y-99754085D01*
X166626794Y-99845410D01*
X166626793Y-99845413D01*
X166599500Y-99947273D01*
X165800500Y-99947273D01*
X165773207Y-99845413D01*
X165720480Y-99754087D01*
X165645913Y-99679520D01*
X165554587Y-99626793D01*
X165452727Y-99599500D01*
X165452726Y-99599500D01*
X165444877Y-99597397D01*
X165445613Y-99594648D01*
X165394307Y-99571934D01*
X165355852Y-99513598D01*
X165355041Y-99443734D01*
X165367028Y-99415287D01*
X165373207Y-99404587D01*
X165400500Y-99302727D01*
X165400500Y-99237273D01*
X169149500Y-99237273D01*
X169149500Y-99342727D01*
X169176565Y-99443734D01*
X169176793Y-99444586D01*
X169176794Y-99444589D01*
X169177559Y-99445914D01*
X169229520Y-99535913D01*
X169304087Y-99610480D01*
X169395413Y-99663207D01*
X169497273Y-99690500D01*
X169497275Y-99690500D01*
X169602725Y-99690500D01*
X169602727Y-99690500D01*
X169704587Y-99663207D01*
X169795913Y-99610480D01*
X169870480Y-99535913D01*
X169921656Y-99447273D01*
X171349500Y-99447273D01*
X171349500Y-99552727D01*
X171376262Y-99652603D01*
X171376793Y-99654586D01*
X171376794Y-99654589D01*
X171381769Y-99663206D01*
X171429520Y-99745913D01*
X171504087Y-99820480D01*
X171595413Y-99873207D01*
X171697273Y-99900500D01*
X171697275Y-99900500D01*
X171802725Y-99900500D01*
X171802727Y-99900500D01*
X171904587Y-99873207D01*
X171995913Y-99820480D01*
X172070480Y-99745913D01*
X172123207Y-99654587D01*
X172150500Y-99552727D01*
X172150500Y-99447273D01*
X172123207Y-99345413D01*
X172070480Y-99254087D01*
X171995913Y-99179520D01*
X171904587Y-99126793D01*
X171802727Y-99099500D01*
X171697273Y-99099500D01*
X171595413Y-99126793D01*
X171595410Y-99126794D01*
X171504085Y-99179521D01*
X171429521Y-99254085D01*
X171376794Y-99345410D01*
X171376793Y-99345413D01*
X171349500Y-99447273D01*
X169921656Y-99447273D01*
X169923207Y-99444587D01*
X169950500Y-99342727D01*
X169950500Y-99237273D01*
X169923207Y-99135413D01*
X169870480Y-99044087D01*
X169795913Y-98969520D01*
X169704587Y-98916793D01*
X169602727Y-98889500D01*
X169497273Y-98889500D01*
X169395413Y-98916793D01*
X169395410Y-98916794D01*
X169304085Y-98969521D01*
X169229521Y-99044085D01*
X169176794Y-99135410D01*
X169176793Y-99135413D01*
X169149500Y-99237273D01*
X165400500Y-99237273D01*
X165400500Y-99197273D01*
X165373207Y-99095413D01*
X165320480Y-99004087D01*
X165245913Y-98929520D01*
X165159312Y-98879521D01*
X165154589Y-98876794D01*
X165154588Y-98876793D01*
X165154587Y-98876793D01*
X165052727Y-98849500D01*
X164947273Y-98849500D01*
X164845413Y-98876793D01*
X164845410Y-98876794D01*
X164754085Y-98929521D01*
X164732181Y-98951426D01*
X164670858Y-98984911D01*
X164601166Y-98979927D01*
X164545233Y-98938055D01*
X164520816Y-98872591D01*
X164520500Y-98863745D01*
X164520500Y-96947273D01*
X164849500Y-96947273D01*
X164849500Y-97052727D01*
X164876793Y-97154587D01*
X164929520Y-97245913D01*
X165004087Y-97320480D01*
X165095413Y-97373207D01*
X165197273Y-97400500D01*
X165197275Y-97400500D01*
X165302725Y-97400500D01*
X165302727Y-97400500D01*
X165404587Y-97373207D01*
X165495913Y-97320480D01*
X165570480Y-97245913D01*
X165623207Y-97154587D01*
X165650500Y-97052727D01*
X165650500Y-96947273D01*
X165623207Y-96845413D01*
X165570480Y-96754087D01*
X165513666Y-96697273D01*
X169149500Y-96697273D01*
X169149500Y-96802727D01*
X169176793Y-96904587D01*
X169229520Y-96995913D01*
X169304087Y-97070480D01*
X169395413Y-97123207D01*
X169497273Y-97150500D01*
X169497275Y-97150500D01*
X169602725Y-97150500D01*
X169602727Y-97150500D01*
X169704587Y-97123207D01*
X169795913Y-97070480D01*
X169870480Y-96995913D01*
X169923207Y-96904587D01*
X169950500Y-96802727D01*
X169950500Y-96697273D01*
X169923207Y-96595413D01*
X169870480Y-96504087D01*
X169795913Y-96429520D01*
X169704587Y-96376793D01*
X169602727Y-96349500D01*
X169497273Y-96349500D01*
X169395413Y-96376793D01*
X169395410Y-96376794D01*
X169304085Y-96429521D01*
X169229521Y-96504085D01*
X169176794Y-96595410D01*
X169176793Y-96595413D01*
X169149500Y-96697273D01*
X165513666Y-96697273D01*
X165495913Y-96679520D01*
X165421407Y-96636504D01*
X165404589Y-96626794D01*
X165404588Y-96626793D01*
X165404587Y-96626793D01*
X165302727Y-96599500D01*
X165197273Y-96599500D01*
X165095413Y-96626793D01*
X165095410Y-96626794D01*
X165004085Y-96679521D01*
X164929521Y-96754085D01*
X164876794Y-96845410D01*
X164876793Y-96845413D01*
X164849500Y-96947273D01*
X164520500Y-96947273D01*
X164520500Y-95647273D01*
X165099500Y-95647273D01*
X165099500Y-95752727D01*
X165126793Y-95854587D01*
X165179520Y-95945913D01*
X165254087Y-96020480D01*
X165345413Y-96073207D01*
X165447273Y-96100500D01*
X165447275Y-96100500D01*
X165552725Y-96100500D01*
X165552727Y-96100500D01*
X165654587Y-96073207D01*
X165745913Y-96020480D01*
X165820480Y-95945913D01*
X165873207Y-95854587D01*
X165900500Y-95752727D01*
X165900500Y-95647273D01*
X165873207Y-95545413D01*
X165820480Y-95454087D01*
X165745913Y-95379520D01*
X165675372Y-95338793D01*
X165654589Y-95326794D01*
X165654588Y-95326793D01*
X165654587Y-95326793D01*
X165552727Y-95299500D01*
X165447273Y-95299500D01*
X165345413Y-95326793D01*
X165345410Y-95326794D01*
X165254085Y-95379521D01*
X165179521Y-95454085D01*
X165126794Y-95545410D01*
X165126793Y-95545413D01*
X165099500Y-95647273D01*
X164520500Y-95647273D01*
X164520500Y-95197273D01*
X166849500Y-95197273D01*
X166849500Y-95302727D01*
X166876793Y-95404587D01*
X166929520Y-95495913D01*
X167004087Y-95570480D01*
X167095413Y-95623207D01*
X167197273Y-95650500D01*
X167197275Y-95650500D01*
X167302725Y-95650500D01*
X167302727Y-95650500D01*
X167404587Y-95623207D01*
X167495913Y-95570480D01*
X167570480Y-95495913D01*
X167610109Y-95427273D01*
X173049500Y-95427273D01*
X173049500Y-95532727D01*
X173073744Y-95623205D01*
X173076793Y-95634586D01*
X173076794Y-95634589D01*
X173085980Y-95650499D01*
X173129520Y-95725913D01*
X173204087Y-95800480D01*
X173295413Y-95853207D01*
X173397273Y-95880500D01*
X173397275Y-95880500D01*
X173502725Y-95880500D01*
X173502727Y-95880500D01*
X173604587Y-95853207D01*
X173695913Y-95800480D01*
X173770480Y-95725913D01*
X173823207Y-95634587D01*
X173850500Y-95532727D01*
X173850500Y-95427273D01*
X173823207Y-95325413D01*
X173770480Y-95234087D01*
X173695913Y-95159520D01*
X173604587Y-95106793D01*
X173502727Y-95079500D01*
X173397273Y-95079500D01*
X173295413Y-95106793D01*
X173295410Y-95106794D01*
X173204085Y-95159521D01*
X173129521Y-95234085D01*
X173076794Y-95325410D01*
X173076793Y-95325413D01*
X173049500Y-95427273D01*
X167610109Y-95427273D01*
X167623207Y-95404587D01*
X167650500Y-95302727D01*
X167650500Y-95197273D01*
X167623207Y-95095413D01*
X167570480Y-95004087D01*
X167495913Y-94929520D01*
X167404587Y-94876793D01*
X167302727Y-94849500D01*
X167197273Y-94849500D01*
X167095413Y-94876793D01*
X167095410Y-94876794D01*
X167004085Y-94929521D01*
X166929521Y-95004085D01*
X166876794Y-95095410D01*
X166876793Y-95095413D01*
X166849500Y-95197273D01*
X164520500Y-95197273D01*
X164520500Y-94157273D01*
X173049500Y-94157273D01*
X173049500Y-94262727D01*
X173072751Y-94349500D01*
X173076793Y-94364586D01*
X173076794Y-94364589D01*
X173081769Y-94373206D01*
X173129520Y-94455913D01*
X173204087Y-94530480D01*
X173295413Y-94583207D01*
X173397273Y-94610500D01*
X173397275Y-94610500D01*
X173502725Y-94610500D01*
X173502727Y-94610500D01*
X173604587Y-94583207D01*
X173695913Y-94530480D01*
X173770480Y-94455913D01*
X173823207Y-94364587D01*
X173850500Y-94262727D01*
X173850500Y-94157273D01*
X173823207Y-94055413D01*
X173770480Y-93964087D01*
X173695913Y-93889520D01*
X173604587Y-93836793D01*
X173502727Y-93809500D01*
X173397273Y-93809500D01*
X173295413Y-93836793D01*
X173295410Y-93836794D01*
X173204085Y-93889521D01*
X173129521Y-93964085D01*
X173076794Y-94055410D01*
X173076793Y-94055413D01*
X173049500Y-94157273D01*
X164520500Y-94157273D01*
X164520500Y-93701336D01*
X164540185Y-93634297D01*
X164592989Y-93588542D01*
X164662147Y-93578598D01*
X164676584Y-93581559D01*
X164747273Y-93600500D01*
X164747275Y-93600500D01*
X164852725Y-93600500D01*
X164852727Y-93600500D01*
X164954587Y-93573207D01*
X165045913Y-93520480D01*
X165119120Y-93447273D01*
X165849500Y-93447273D01*
X165849500Y-93552727D01*
X165876793Y-93654587D01*
X165929520Y-93745913D01*
X166004087Y-93820480D01*
X166095413Y-93873207D01*
X166197273Y-93900500D01*
X166197275Y-93900500D01*
X166302725Y-93900500D01*
X166302727Y-93900500D01*
X166404587Y-93873207D01*
X166495913Y-93820480D01*
X166570480Y-93745913D01*
X166623207Y-93654587D01*
X166650500Y-93552727D01*
X166650500Y-93447273D01*
X166623207Y-93345413D01*
X166570480Y-93254087D01*
X166495913Y-93179520D01*
X166404587Y-93126793D01*
X166302727Y-93099500D01*
X166197273Y-93099500D01*
X166095413Y-93126793D01*
X166095410Y-93126794D01*
X166004085Y-93179521D01*
X165929521Y-93254085D01*
X165876794Y-93345410D01*
X165876793Y-93345413D01*
X165849500Y-93447273D01*
X165119120Y-93447273D01*
X165120480Y-93445913D01*
X165173207Y-93354587D01*
X165200500Y-93252727D01*
X165200500Y-93147273D01*
X165173207Y-93045413D01*
X165120480Y-92954087D01*
X165045913Y-92879520D01*
X164954587Y-92826793D01*
X164852727Y-92799500D01*
X164747273Y-92799500D01*
X164747271Y-92799500D01*
X164676592Y-92818438D01*
X164606742Y-92816775D01*
X164548880Y-92777611D01*
X164521377Y-92713383D01*
X164520500Y-92698663D01*
X164520500Y-92197273D01*
X172599500Y-92197273D01*
X172599500Y-92302727D01*
X172626793Y-92404587D01*
X172679520Y-92495913D01*
X172754087Y-92570480D01*
X172845413Y-92623207D01*
X172947273Y-92650500D01*
X172947275Y-92650500D01*
X173052725Y-92650500D01*
X173052727Y-92650500D01*
X173154587Y-92623207D01*
X173245913Y-92570480D01*
X173320480Y-92495913D01*
X173373207Y-92404587D01*
X173400500Y-92302727D01*
X173400500Y-92197273D01*
X173373207Y-92095413D01*
X173320480Y-92004087D01*
X173245913Y-91929520D01*
X173154587Y-91876793D01*
X173052727Y-91849500D01*
X172947273Y-91849500D01*
X172845413Y-91876793D01*
X172845410Y-91876794D01*
X172754085Y-91929521D01*
X172679521Y-92004085D01*
X172626794Y-92095410D01*
X172626793Y-92095413D01*
X172599500Y-92197273D01*
X164520500Y-92197273D01*
X164520500Y-90456716D01*
X164540185Y-90389677D01*
X164592989Y-90343922D01*
X164662147Y-90333978D01*
X164725703Y-90363003D01*
X164759061Y-90409264D01*
X164779954Y-90459704D01*
X164789500Y-90473990D01*
X164886164Y-90618660D01*
X165021339Y-90753835D01*
X165180299Y-90860048D01*
X165356911Y-90933202D01*
X165356916Y-90933204D01*
X165356920Y-90933204D01*
X165356921Y-90933205D01*
X165544411Y-90970500D01*
X165544414Y-90970500D01*
X165735588Y-90970500D01*
X165896806Y-90938431D01*
X165923084Y-90933204D01*
X166011394Y-90896625D01*
X166099700Y-90860048D01*
X166099701Y-90860047D01*
X166099704Y-90860046D01*
X166258658Y-90753837D01*
X166393837Y-90618658D01*
X166500046Y-90459704D01*
X166524835Y-90399859D01*
X166540101Y-90363003D01*
X166573204Y-90283084D01*
X166591124Y-90192993D01*
X166610500Y-90095588D01*
X167209499Y-90095588D01*
X167246794Y-90283078D01*
X167246797Y-90283088D01*
X167319951Y-90459700D01*
X167426164Y-90618660D01*
X167561339Y-90753835D01*
X167720299Y-90860048D01*
X167896911Y-90933202D01*
X167896916Y-90933204D01*
X167896920Y-90933204D01*
X167896921Y-90933205D01*
X168084411Y-90970500D01*
X168084414Y-90970500D01*
X168275588Y-90970500D01*
X168436806Y-90938431D01*
X168463084Y-90933204D01*
X168551394Y-90896625D01*
X168639700Y-90860048D01*
X168639701Y-90860047D01*
X168639704Y-90860046D01*
X168798658Y-90753837D01*
X168933837Y-90618658D01*
X169040046Y-90459704D01*
X169064835Y-90399859D01*
X169080101Y-90363003D01*
X169113204Y-90283084D01*
X169131124Y-90192993D01*
X169150500Y-90095588D01*
X169749499Y-90095588D01*
X169786794Y-90283078D01*
X169786797Y-90283088D01*
X169859951Y-90459700D01*
X169966164Y-90618660D01*
X170101339Y-90753835D01*
X170260299Y-90860048D01*
X170436911Y-90933202D01*
X170436916Y-90933204D01*
X170436920Y-90933204D01*
X170436921Y-90933205D01*
X170624411Y-90970500D01*
X170624414Y-90970500D01*
X170815588Y-90970500D01*
X170976806Y-90938431D01*
X171003084Y-90933204D01*
X171091394Y-90896625D01*
X171179700Y-90860048D01*
X171179701Y-90860047D01*
X171179704Y-90860046D01*
X171338658Y-90753837D01*
X171473837Y-90618658D01*
X171580046Y-90459704D01*
X171604835Y-90399859D01*
X171620101Y-90363003D01*
X171653204Y-90283084D01*
X171671124Y-90192993D01*
X171690500Y-90095588D01*
X172289499Y-90095588D01*
X172326794Y-90283078D01*
X172326797Y-90283088D01*
X172399951Y-90459700D01*
X172506164Y-90618660D01*
X172641339Y-90753835D01*
X172800299Y-90860048D01*
X172976911Y-90933202D01*
X172976916Y-90933204D01*
X172976920Y-90933204D01*
X172976921Y-90933205D01*
X173164411Y-90970500D01*
X173164414Y-90970500D01*
X173355588Y-90970500D01*
X173516806Y-90938431D01*
X173543084Y-90933204D01*
X173631394Y-90896625D01*
X173719700Y-90860048D01*
X173719701Y-90860047D01*
X173719704Y-90860046D01*
X173878658Y-90753837D01*
X174013837Y-90618658D01*
X174120046Y-90459704D01*
X174144835Y-90399859D01*
X174160101Y-90363003D01*
X174193204Y-90283084D01*
X174211124Y-90192993D01*
X174230500Y-90095588D01*
X174230500Y-89904411D01*
X174193205Y-89716921D01*
X174193204Y-89716920D01*
X174193204Y-89716916D01*
X174164015Y-89646446D01*
X174120048Y-89540299D01*
X174013835Y-89381339D01*
X173878660Y-89246164D01*
X173719700Y-89139951D01*
X173543088Y-89066797D01*
X173543078Y-89066794D01*
X173355588Y-89029500D01*
X173355586Y-89029500D01*
X173164414Y-89029500D01*
X173164412Y-89029500D01*
X172976921Y-89066794D01*
X172976911Y-89066797D01*
X172800299Y-89139951D01*
X172641339Y-89246164D01*
X172506164Y-89381339D01*
X172399951Y-89540299D01*
X172326797Y-89716911D01*
X172326794Y-89716921D01*
X172289500Y-89904411D01*
X172289500Y-89904414D01*
X172289500Y-90095586D01*
X172289500Y-90095588D01*
X172289499Y-90095588D01*
X171690500Y-90095588D01*
X171690500Y-89904411D01*
X171653205Y-89716921D01*
X171653204Y-89716920D01*
X171653204Y-89716916D01*
X171624015Y-89646446D01*
X171580048Y-89540299D01*
X171473835Y-89381339D01*
X171338660Y-89246164D01*
X171179700Y-89139951D01*
X171003088Y-89066797D01*
X171003078Y-89066794D01*
X170815588Y-89029500D01*
X170815586Y-89029500D01*
X170624414Y-89029500D01*
X170624412Y-89029500D01*
X170436921Y-89066794D01*
X170436911Y-89066797D01*
X170260299Y-89139951D01*
X170101339Y-89246164D01*
X169966164Y-89381339D01*
X169859951Y-89540299D01*
X169786797Y-89716911D01*
X169786794Y-89716921D01*
X169749500Y-89904411D01*
X169749500Y-89904414D01*
X169749500Y-90095586D01*
X169749500Y-90095588D01*
X169749499Y-90095588D01*
X169150500Y-90095588D01*
X169150500Y-89904411D01*
X169113205Y-89716921D01*
X169113204Y-89716920D01*
X169113204Y-89716916D01*
X169084015Y-89646446D01*
X169040048Y-89540299D01*
X168933835Y-89381339D01*
X168798660Y-89246164D01*
X168639700Y-89139951D01*
X168463088Y-89066797D01*
X168463078Y-89066794D01*
X168275588Y-89029500D01*
X168275586Y-89029500D01*
X168084414Y-89029500D01*
X168084412Y-89029500D01*
X167896921Y-89066794D01*
X167896911Y-89066797D01*
X167720299Y-89139951D01*
X167561339Y-89246164D01*
X167426164Y-89381339D01*
X167319951Y-89540299D01*
X167246797Y-89716911D01*
X167246794Y-89716921D01*
X167209500Y-89904411D01*
X167209500Y-89904414D01*
X167209500Y-90095586D01*
X167209500Y-90095588D01*
X167209499Y-90095588D01*
X166610500Y-90095588D01*
X166610500Y-89904411D01*
X166573205Y-89716921D01*
X166573204Y-89716920D01*
X166573204Y-89716916D01*
X166544015Y-89646446D01*
X166500048Y-89540299D01*
X166393835Y-89381339D01*
X166258660Y-89246164D01*
X166099700Y-89139951D01*
X165923088Y-89066797D01*
X165923078Y-89066794D01*
X165735588Y-89029500D01*
X165735586Y-89029500D01*
X165544414Y-89029500D01*
X165544412Y-89029500D01*
X165356921Y-89066794D01*
X165356911Y-89066797D01*
X165180299Y-89139951D01*
X165021339Y-89246164D01*
X164886164Y-89381339D01*
X164779953Y-89540297D01*
X164759061Y-89590736D01*
X164715220Y-89645139D01*
X164648926Y-89667204D01*
X164581227Y-89649925D01*
X164533616Y-89598788D01*
X164520500Y-89543283D01*
X164520500Y-89047195D01*
X164520500Y-89047194D01*
X164496376Y-88988955D01*
X164479319Y-88947774D01*
X164435441Y-88903896D01*
X164428856Y-88894208D01*
X164421595Y-88871653D01*
X164410241Y-88850858D01*
X164411088Y-88839008D01*
X164407448Y-88827699D01*
X164413534Y-88804800D01*
X164415225Y-88781166D01*
X164422345Y-88771654D01*
X164425397Y-88760174D01*
X164442897Y-88744201D01*
X164457097Y-88725233D01*
X164468227Y-88721081D01*
X164477003Y-88713072D01*
X164500361Y-88709096D01*
X164522561Y-88700816D01*
X164531407Y-88700500D01*
X174675500Y-88700500D01*
X174742539Y-88720185D01*
X174788294Y-88772989D01*
X174799500Y-88824500D01*
X174799500Y-99717593D01*
X174779815Y-99784632D01*
X174727011Y-99830387D01*
X174657853Y-99840331D01*
X174594297Y-99811306D01*
X174587819Y-99805274D01*
X172753225Y-97970680D01*
X172753226Y-97970680D01*
X172727257Y-97959924D01*
X172712044Y-97953623D01*
X172696714Y-97947273D01*
X172653808Y-97929500D01*
X172653806Y-97929500D01*
X168147255Y-97929500D01*
X168080216Y-97909815D01*
X168059574Y-97893181D01*
X168045914Y-97879521D01*
X168045913Y-97879520D01*
X167954587Y-97826793D01*
X167852727Y-97799500D01*
X167747273Y-97799500D01*
X167645413Y-97826793D01*
X167645410Y-97826794D01*
X167554085Y-97879521D01*
X167479521Y-97954085D01*
X167426794Y-98045410D01*
X167426793Y-98045413D01*
X167399500Y-98147273D01*
X167399500Y-98252727D01*
X167426793Y-98354587D01*
X167479520Y-98445913D01*
X167554087Y-98520480D01*
X167645413Y-98573207D01*
X167747273Y-98600500D01*
X167747275Y-98600500D01*
X167852725Y-98600500D01*
X167852727Y-98600500D01*
X167954587Y-98573207D01*
X168045913Y-98520480D01*
X168059574Y-98506819D01*
X168120897Y-98473334D01*
X168147255Y-98470500D01*
X172436593Y-98470500D01*
X172503632Y-98490185D01*
X172524274Y-98506819D01*
X174093181Y-100075726D01*
X174126666Y-100137049D01*
X174129500Y-100163407D01*
X174129500Y-106977642D01*
X174109815Y-107044681D01*
X174057011Y-107090436D01*
X173987853Y-107100380D01*
X173924297Y-107071355D01*
X173917819Y-107065323D01*
X173878660Y-107026164D01*
X173719700Y-106919951D01*
X173543088Y-106846797D01*
X173543078Y-106846794D01*
X173355588Y-106809500D01*
X173355586Y-106809500D01*
X173164414Y-106809500D01*
X173164412Y-106809500D01*
X172976921Y-106846794D01*
X172976911Y-106846797D01*
X172800299Y-106919951D01*
X172641339Y-107026164D01*
X172506164Y-107161339D01*
X172399951Y-107320299D01*
X172326797Y-107496911D01*
X172326794Y-107496921D01*
X172289500Y-107684411D01*
X172289500Y-107684414D01*
X172289500Y-107875586D01*
X172289500Y-107875588D01*
X172289499Y-107875588D01*
X172326794Y-108063078D01*
X172326797Y-108063088D01*
X172399951Y-108239700D01*
X172506164Y-108398660D01*
X172526323Y-108418819D01*
X172559808Y-108480142D01*
X172554824Y-108549834D01*
X172512952Y-108605767D01*
X172447488Y-108630184D01*
X172438642Y-108630500D01*
X171541358Y-108630500D01*
X171474319Y-108610815D01*
X171428564Y-108558011D01*
X171418620Y-108488853D01*
X171447645Y-108425297D01*
X171453677Y-108418819D01*
X171473834Y-108398661D01*
X171473835Y-108398660D01*
X171473837Y-108398658D01*
X171580046Y-108239704D01*
X171589221Y-108217555D01*
X171653202Y-108063088D01*
X171653204Y-108063084D01*
X171690500Y-107875586D01*
X171690500Y-107684414D01*
X171690500Y-107684411D01*
X171653205Y-107496921D01*
X171653204Y-107496920D01*
X171653204Y-107496916D01*
X171629500Y-107439689D01*
X171580048Y-107320299D01*
X171473835Y-107161339D01*
X171338660Y-107026164D01*
X171179700Y-106919951D01*
X171003088Y-106846797D01*
X171003078Y-106846794D01*
X170815588Y-106809500D01*
X170815586Y-106809500D01*
X170624414Y-106809500D01*
X170624412Y-106809500D01*
X170436921Y-106846794D01*
X170436911Y-106846797D01*
X170260299Y-106919951D01*
X170101339Y-107026164D01*
X169966164Y-107161339D01*
X169859951Y-107320299D01*
X169786797Y-107496911D01*
X169786794Y-107496921D01*
X169749500Y-107684411D01*
X169749500Y-107684414D01*
X169749500Y-107875586D01*
X169749500Y-107875588D01*
X169749499Y-107875588D01*
X169786794Y-108063078D01*
X169786797Y-108063088D01*
X169859951Y-108239700D01*
X169966164Y-108398660D01*
X169986323Y-108418819D01*
X170019808Y-108480142D01*
X170014824Y-108549834D01*
X169972952Y-108605767D01*
X169907488Y-108630184D01*
X169898642Y-108630500D01*
X169001358Y-108630500D01*
X168934319Y-108610815D01*
X168888564Y-108558011D01*
X168878620Y-108488853D01*
X168907645Y-108425297D01*
X168913677Y-108418819D01*
X168933834Y-108398661D01*
X168933835Y-108398660D01*
X168933837Y-108398658D01*
X169040046Y-108239704D01*
X169049221Y-108217555D01*
X169113202Y-108063088D01*
X169113204Y-108063084D01*
X169150500Y-107875586D01*
X169150500Y-107684414D01*
X169150500Y-107684411D01*
X169113205Y-107496921D01*
X169113204Y-107496920D01*
X169113204Y-107496916D01*
X169089500Y-107439689D01*
X169040048Y-107320299D01*
X168933835Y-107161339D01*
X168798660Y-107026164D01*
X168639700Y-106919951D01*
X168463088Y-106846797D01*
X168463078Y-106846794D01*
X168275588Y-106809500D01*
X168275586Y-106809500D01*
X168084414Y-106809500D01*
X167950293Y-106836178D01*
X167950260Y-106836184D01*
X167896920Y-106846795D01*
X167896911Y-106846797D01*
X167720299Y-106919951D01*
X167561339Y-107026164D01*
X167426164Y-107161339D01*
X167319951Y-107320299D01*
X167246797Y-107496911D01*
X167246794Y-107496921D01*
X167209500Y-107684411D01*
X167209500Y-107684414D01*
X167209500Y-107875586D01*
X167209500Y-107875588D01*
X167209499Y-107875588D01*
X167246794Y-108063078D01*
X167246797Y-108063088D01*
X167319951Y-108239700D01*
X167426164Y-108398660D01*
X167446323Y-108418819D01*
X167479808Y-108480142D01*
X167474824Y-108549834D01*
X167432952Y-108605767D01*
X167367488Y-108630184D01*
X167358642Y-108630500D01*
X166461358Y-108630500D01*
X166394319Y-108610815D01*
X166348564Y-108558011D01*
X166338620Y-108488853D01*
X166367645Y-108425297D01*
X166373677Y-108418819D01*
X166393834Y-108398661D01*
X166393835Y-108398660D01*
X166393837Y-108398658D01*
X166500046Y-108239704D01*
X166509221Y-108217555D01*
X166573202Y-108063088D01*
X166573204Y-108063084D01*
X166610500Y-107875586D01*
X166610500Y-107684414D01*
X166610500Y-107684411D01*
X166573205Y-107496921D01*
X166573204Y-107496920D01*
X166573204Y-107496916D01*
X166549500Y-107439689D01*
X166500048Y-107320299D01*
X166393835Y-107161339D01*
X166258660Y-107026164D01*
X166099700Y-106919951D01*
X165923088Y-106846797D01*
X165923078Y-106846794D01*
X165735588Y-106809500D01*
X165735586Y-106809500D01*
X165544414Y-106809500D01*
X165544412Y-106809500D01*
X165356921Y-106846794D01*
X165356911Y-106846797D01*
X165180299Y-106919951D01*
X165021339Y-107026164D01*
X164886164Y-107161339D01*
X164779951Y-107320299D01*
X164706797Y-107496911D01*
X164706794Y-107496921D01*
X164669500Y-107684411D01*
X164669500Y-107684414D01*
X164669500Y-107875586D01*
X164669500Y-107875588D01*
X164669499Y-107875588D01*
X164706794Y-108063078D01*
X164706797Y-108063088D01*
X164779951Y-108239700D01*
X164886164Y-108398660D01*
X164906323Y-108418819D01*
X164939808Y-108480142D01*
X164934824Y-108549834D01*
X164892952Y-108605767D01*
X164827488Y-108630184D01*
X164818642Y-108630500D01*
X163921358Y-108630500D01*
X163854319Y-108610815D01*
X163808564Y-108558011D01*
X163798620Y-108488853D01*
X163827645Y-108425297D01*
X163833677Y-108418819D01*
X163853834Y-108398661D01*
X163853835Y-108398660D01*
X163853837Y-108398658D01*
X163960046Y-108239704D01*
X163969221Y-108217555D01*
X164033202Y-108063088D01*
X164033204Y-108063084D01*
X164070500Y-107875586D01*
X164070500Y-107684414D01*
X164070500Y-107684411D01*
X164033205Y-107496921D01*
X164033204Y-107496920D01*
X164033204Y-107496916D01*
X164009500Y-107439689D01*
X163960048Y-107320299D01*
X163853835Y-107161339D01*
X163718660Y-107026164D01*
X163559700Y-106919951D01*
X163383088Y-106846797D01*
X163383078Y-106846794D01*
X163195588Y-106809500D01*
X163195586Y-106809500D01*
X163004414Y-106809500D01*
X163004412Y-106809500D01*
X162816921Y-106846794D01*
X162816911Y-106846797D01*
X162640299Y-106919951D01*
X162481339Y-107026164D01*
X162346164Y-107161339D01*
X162239951Y-107320299D01*
X162166797Y-107496911D01*
X162166794Y-107496921D01*
X162129500Y-107684411D01*
X162129500Y-107684414D01*
X162129500Y-107875586D01*
X162129500Y-107875588D01*
X162129499Y-107875588D01*
X162166794Y-108063078D01*
X162166797Y-108063088D01*
X162239951Y-108239700D01*
X162346164Y-108398660D01*
X162366323Y-108418819D01*
X162399808Y-108480142D01*
X162394824Y-108549834D01*
X162352952Y-108605767D01*
X162287488Y-108630184D01*
X162278642Y-108630500D01*
X161381358Y-108630500D01*
X161314319Y-108610815D01*
X161268564Y-108558011D01*
X161258620Y-108488853D01*
X161287645Y-108425297D01*
X161293677Y-108418819D01*
X161313834Y-108398661D01*
X161313835Y-108398660D01*
X161313837Y-108398658D01*
X161420046Y-108239704D01*
X161429221Y-108217555D01*
X161493202Y-108063088D01*
X161493204Y-108063084D01*
X161530500Y-107875586D01*
X161530500Y-107684414D01*
X161530500Y-107684411D01*
X161493205Y-107496921D01*
X161493204Y-107496920D01*
X161493204Y-107496916D01*
X161469500Y-107439689D01*
X161420048Y-107320299D01*
X161313835Y-107161339D01*
X161178660Y-107026164D01*
X161019700Y-106919951D01*
X160843088Y-106846797D01*
X160843078Y-106846794D01*
X160655588Y-106809500D01*
X160655586Y-106809500D01*
X160464414Y-106809500D01*
X160464412Y-106809500D01*
X160276921Y-106846794D01*
X160276920Y-106846795D01*
X160276919Y-106846795D01*
X160276916Y-106846796D01*
X160233267Y-106864876D01*
X160215199Y-106872360D01*
X160145729Y-106879828D01*
X160083250Y-106848552D01*
X160047598Y-106788463D01*
X160050093Y-106718638D01*
X160080066Y-106670117D01*
X160349684Y-106400499D01*
X160648319Y-106101864D01*
X160648321Y-106101857D01*
X160649267Y-106100444D01*
X160652140Y-106098042D01*
X160656955Y-106093228D01*
X160657385Y-106093658D01*
X160702879Y-106055639D01*
X160772204Y-106046930D01*
X160835232Y-106077085D01*
X160871951Y-106136527D01*
X160872144Y-106137238D01*
X160876792Y-106154584D01*
X160876793Y-106154587D01*
X160929520Y-106245913D01*
X161004087Y-106320480D01*
X161095413Y-106373207D01*
X161197273Y-106400500D01*
X161197275Y-106400500D01*
X161302725Y-106400500D01*
X161302727Y-106400500D01*
X161404587Y-106373207D01*
X161495913Y-106320480D01*
X161537319Y-106279074D01*
X161598642Y-106245589D01*
X161668334Y-106250573D01*
X161712681Y-106279074D01*
X161754087Y-106320480D01*
X161845413Y-106373207D01*
X161947273Y-106400500D01*
X161947275Y-106400500D01*
X162052725Y-106400500D01*
X162052727Y-106400500D01*
X162154587Y-106373207D01*
X162245913Y-106320480D01*
X162320480Y-106245913D01*
X162373207Y-106154587D01*
X162400500Y-106052727D01*
X162400500Y-105947273D01*
X162373207Y-105845413D01*
X162320480Y-105754087D01*
X162245913Y-105679520D01*
X162154587Y-105626793D01*
X162052727Y-105599500D01*
X161947273Y-105599500D01*
X161845413Y-105626793D01*
X161845410Y-105626794D01*
X161754085Y-105679521D01*
X161712681Y-105720926D01*
X161704735Y-105725264D01*
X161699310Y-105732512D01*
X161674550Y-105741746D01*
X161651358Y-105754411D01*
X161642328Y-105753765D01*
X161633846Y-105756929D01*
X161608025Y-105751312D01*
X161581666Y-105749427D01*
X161572612Y-105743608D01*
X161565573Y-105742077D01*
X161537319Y-105720926D01*
X161498874Y-105682481D01*
X161465389Y-105621158D01*
X161470031Y-105556234D01*
X161469518Y-105556097D01*
X161470232Y-105553430D01*
X161470373Y-105551466D01*
X161471582Y-105548393D01*
X161471620Y-105548247D01*
X161471622Y-105548246D01*
X161498915Y-105446386D01*
X161498915Y-105340932D01*
X161471622Y-105239072D01*
X161418895Y-105147746D01*
X161344328Y-105073179D01*
X161276314Y-105033911D01*
X161253004Y-105020453D01*
X161253003Y-105020452D01*
X161253002Y-105020452D01*
X161151142Y-104993159D01*
X161045688Y-104993159D01*
X160943828Y-105020452D01*
X160943823Y-105020454D01*
X160917636Y-105035573D01*
X160849736Y-105052044D01*
X160783709Y-105029191D01*
X160748254Y-104990189D01*
X160739480Y-104974991D01*
X160664913Y-104900424D01*
X160598059Y-104861826D01*
X160573589Y-104847698D01*
X160573588Y-104847697D01*
X160573587Y-104847697D01*
X160471727Y-104820404D01*
X160366273Y-104820404D01*
X160264413Y-104847697D01*
X160264410Y-104847698D01*
X160173085Y-104900425D01*
X160098521Y-104974989D01*
X160045794Y-105066314D01*
X160045793Y-105066317D01*
X160018500Y-105168177D01*
X160018500Y-105273631D01*
X160045793Y-105375491D01*
X160087237Y-105447275D01*
X160098521Y-105466818D01*
X160112181Y-105480478D01*
X160126884Y-105507405D01*
X160143477Y-105533224D01*
X160144368Y-105539424D01*
X160145666Y-105541801D01*
X160148500Y-105568159D01*
X160148500Y-105785231D01*
X160128815Y-105852270D01*
X160112180Y-105872913D01*
X160060303Y-105924789D01*
X159998980Y-105958273D01*
X159929288Y-105953288D01*
X159873355Y-105911416D01*
X159865236Y-105899107D01*
X159863838Y-105896685D01*
X159820480Y-105821587D01*
X159745913Y-105747020D01*
X159654587Y-105694293D01*
X159552727Y-105667000D01*
X159447273Y-105667000D01*
X159345413Y-105694293D01*
X159345410Y-105694294D01*
X159254085Y-105747021D01*
X159179521Y-105821585D01*
X159126794Y-105912910D01*
X159126793Y-105912913D01*
X159099500Y-106014773D01*
X159099500Y-106120227D01*
X159117358Y-106186876D01*
X159127415Y-106224407D01*
X159125752Y-106294257D01*
X159086589Y-106352119D01*
X159022361Y-106379623D01*
X159007640Y-106380500D01*
X156001068Y-106380500D01*
X155934029Y-106360815D01*
X155888274Y-106308011D01*
X155878330Y-106238853D01*
X155881290Y-106224420D01*
X155900500Y-106152727D01*
X155900500Y-106047273D01*
X155873207Y-105945413D01*
X155820480Y-105854087D01*
X155745913Y-105779520D01*
X155654587Y-105726793D01*
X155552727Y-105699500D01*
X155447273Y-105699500D01*
X155345413Y-105726793D01*
X155345410Y-105726794D01*
X155254085Y-105779521D01*
X155179521Y-105854085D01*
X155126794Y-105945410D01*
X155126793Y-105945413D01*
X155099500Y-106047273D01*
X155099500Y-106152727D01*
X155118706Y-106224409D01*
X155117044Y-106294256D01*
X155077882Y-106352119D01*
X155013653Y-106379623D01*
X154998932Y-106380500D01*
X154504696Y-106380500D01*
X154475255Y-106371855D01*
X154445269Y-106365332D01*
X154440253Y-106361577D01*
X154437657Y-106360815D01*
X154417015Y-106344181D01*
X154249009Y-106176175D01*
X154215524Y-106114852D01*
X154212690Y-106088494D01*
X154212690Y-106069176D01*
X154212690Y-106069174D01*
X154185397Y-105967314D01*
X154132670Y-105875988D01*
X154112912Y-105856230D01*
X154079427Y-105794907D01*
X154084411Y-105725215D01*
X154093199Y-105706560D01*
X154123207Y-105654587D01*
X154150500Y-105552727D01*
X154150500Y-105447273D01*
X154123705Y-105347273D01*
X156399500Y-105347273D01*
X156399500Y-105452727D01*
X156426793Y-105554587D01*
X156479520Y-105645913D01*
X156554087Y-105720480D01*
X156645413Y-105773207D01*
X156747273Y-105800500D01*
X156747275Y-105800500D01*
X156852725Y-105800500D01*
X156852727Y-105800500D01*
X156954587Y-105773207D01*
X157045913Y-105720480D01*
X157120480Y-105645913D01*
X157173207Y-105554587D01*
X157200500Y-105452727D01*
X157200500Y-105347273D01*
X157173207Y-105245413D01*
X157120480Y-105154087D01*
X157045913Y-105079520D01*
X156979059Y-105040922D01*
X156954589Y-105026794D01*
X156954588Y-105026793D01*
X156954587Y-105026793D01*
X156852727Y-104999500D01*
X156747273Y-104999500D01*
X156645413Y-105026793D01*
X156645410Y-105026794D01*
X156554085Y-105079521D01*
X156479521Y-105154085D01*
X156426794Y-105245410D01*
X156426793Y-105245413D01*
X156399500Y-105347273D01*
X154123705Y-105347273D01*
X154123207Y-105345413D01*
X154070480Y-105254087D01*
X153995913Y-105179520D01*
X153904587Y-105126793D01*
X153802727Y-105099500D01*
X153697273Y-105099500D01*
X153595413Y-105126793D01*
X153595410Y-105126794D01*
X153504085Y-105179521D01*
X153429521Y-105254085D01*
X153376794Y-105345410D01*
X153376794Y-105345411D01*
X153376793Y-105345413D01*
X153349500Y-105447273D01*
X153349500Y-105552727D01*
X153376793Y-105654587D01*
X153428189Y-105743608D01*
X153429521Y-105745914D01*
X153449277Y-105765670D01*
X153482762Y-105826993D01*
X153477778Y-105896685D01*
X153468984Y-105915350D01*
X153438983Y-105967313D01*
X153438983Y-105967314D01*
X153411690Y-106069174D01*
X153411690Y-106174628D01*
X153438983Y-106276488D01*
X153491710Y-106367814D01*
X153566277Y-106442381D01*
X153657603Y-106495108D01*
X153759463Y-106522401D01*
X153778783Y-106522401D01*
X153845822Y-106542086D01*
X153866464Y-106558720D01*
X154188063Y-106880319D01*
X154229241Y-106897374D01*
X154229243Y-106897376D01*
X154229244Y-106897376D01*
X154287483Y-106921500D01*
X154666642Y-106921500D01*
X154733681Y-106941185D01*
X154779436Y-106993989D01*
X154789380Y-107063147D01*
X154760355Y-107126703D01*
X154754323Y-107133181D01*
X154726165Y-107161338D01*
X154726164Y-107161339D01*
X154619951Y-107320299D01*
X154546797Y-107496911D01*
X154546794Y-107496921D01*
X154509500Y-107684411D01*
X154509500Y-107684414D01*
X154509500Y-107875586D01*
X154509500Y-107875588D01*
X154509499Y-107875588D01*
X154546794Y-108063078D01*
X154546797Y-108063088D01*
X154619951Y-108239700D01*
X154726164Y-108398660D01*
X154861339Y-108533835D01*
X155020299Y-108640048D01*
X155196911Y-108713202D01*
X155196916Y-108713204D01*
X155196920Y-108713204D01*
X155196921Y-108713205D01*
X155384411Y-108750500D01*
X155384414Y-108750500D01*
X155575588Y-108750500D01*
X155701729Y-108725408D01*
X155763084Y-108713204D01*
X155851394Y-108676625D01*
X155939700Y-108640048D01*
X155939701Y-108640047D01*
X155939704Y-108640046D01*
X156098658Y-108533837D01*
X156233837Y-108398658D01*
X156340046Y-108239704D01*
X156349221Y-108217555D01*
X156413202Y-108063088D01*
X156413204Y-108063084D01*
X156450500Y-107875586D01*
X156450500Y-107684414D01*
X156450500Y-107684411D01*
X156413205Y-107496921D01*
X156413204Y-107496920D01*
X156413204Y-107496916D01*
X156389500Y-107439689D01*
X156340048Y-107320299D01*
X156233835Y-107161339D01*
X156205677Y-107133181D01*
X156172192Y-107071858D01*
X156177176Y-107002166D01*
X156219048Y-106946233D01*
X156284512Y-106921816D01*
X156293358Y-106921500D01*
X157206642Y-106921500D01*
X157273681Y-106941185D01*
X157319436Y-106993989D01*
X157329380Y-107063147D01*
X157300355Y-107126703D01*
X157294323Y-107133181D01*
X157266165Y-107161338D01*
X157266164Y-107161339D01*
X157159951Y-107320299D01*
X157086797Y-107496911D01*
X157086794Y-107496921D01*
X157049500Y-107684411D01*
X157049500Y-107684414D01*
X157049500Y-107875586D01*
X157049500Y-107875588D01*
X157049499Y-107875588D01*
X157086794Y-108063078D01*
X157086797Y-108063088D01*
X157159951Y-108239700D01*
X157266164Y-108398660D01*
X157401339Y-108533835D01*
X157560299Y-108640048D01*
X157736911Y-108713202D01*
X157736916Y-108713204D01*
X157736920Y-108713204D01*
X157736921Y-108713205D01*
X157924411Y-108750500D01*
X157924414Y-108750500D01*
X158115588Y-108750500D01*
X158241729Y-108725408D01*
X158303084Y-108713204D01*
X158391394Y-108676625D01*
X158479700Y-108640048D01*
X158479701Y-108640047D01*
X158479704Y-108640046D01*
X158638658Y-108533837D01*
X158773837Y-108398658D01*
X158864908Y-108262358D01*
X158918518Y-108217555D01*
X158987843Y-108208846D01*
X159050870Y-108239000D01*
X159055690Y-108243569D01*
X159899940Y-109087819D01*
X159933425Y-109149142D01*
X159928441Y-109218834D01*
X159886569Y-109274767D01*
X159821105Y-109299184D01*
X159812259Y-109299500D01*
X123824500Y-109299500D01*
X123757461Y-109279815D01*
X123711706Y-109227011D01*
X123700500Y-109175500D01*
X123700500Y-106918125D01*
X124029500Y-106918125D01*
X124029500Y-108641874D01*
X124036489Y-108677014D01*
X124036490Y-108677015D01*
X124036490Y-108677016D01*
X124036491Y-108677017D01*
X124063124Y-108716876D01*
X124102983Y-108743509D01*
X124102984Y-108743509D01*
X124102985Y-108743510D01*
X124138125Y-108750499D01*
X124138129Y-108750500D01*
X124138130Y-108750500D01*
X125861871Y-108750500D01*
X125861872Y-108750499D01*
X125873692Y-108748148D01*
X125897014Y-108743510D01*
X125897014Y-108743509D01*
X125897017Y-108743509D01*
X125936876Y-108716876D01*
X125963509Y-108677017D01*
X125970500Y-108641870D01*
X125970500Y-107875588D01*
X126569499Y-107875588D01*
X126606794Y-108063078D01*
X126606797Y-108063088D01*
X126679951Y-108239700D01*
X126786164Y-108398660D01*
X126921339Y-108533835D01*
X127080299Y-108640048D01*
X127256911Y-108713202D01*
X127256916Y-108713204D01*
X127256920Y-108713204D01*
X127256921Y-108713205D01*
X127444411Y-108750500D01*
X127444414Y-108750500D01*
X127635588Y-108750500D01*
X127761729Y-108725408D01*
X127823084Y-108713204D01*
X127911394Y-108676625D01*
X127999700Y-108640048D01*
X127999701Y-108640047D01*
X127999704Y-108640046D01*
X128158658Y-108533837D01*
X128293837Y-108398658D01*
X128400046Y-108239704D01*
X128409221Y-108217555D01*
X128473202Y-108063088D01*
X128473204Y-108063084D01*
X128510500Y-107875588D01*
X129109499Y-107875588D01*
X129146794Y-108063078D01*
X129146797Y-108063088D01*
X129219951Y-108239700D01*
X129326164Y-108398660D01*
X129461339Y-108533835D01*
X129620299Y-108640048D01*
X129796911Y-108713202D01*
X129796916Y-108713204D01*
X129796920Y-108713204D01*
X129796921Y-108713205D01*
X129984411Y-108750500D01*
X129984414Y-108750500D01*
X130175588Y-108750500D01*
X130301729Y-108725408D01*
X130363084Y-108713204D01*
X130451394Y-108676625D01*
X130539700Y-108640048D01*
X130539701Y-108640047D01*
X130539704Y-108640046D01*
X130698658Y-108533837D01*
X130833837Y-108398658D01*
X130940046Y-108239704D01*
X130949221Y-108217555D01*
X131013202Y-108063088D01*
X131013204Y-108063084D01*
X131050500Y-107875588D01*
X131649499Y-107875588D01*
X131686794Y-108063078D01*
X131686797Y-108063088D01*
X131759951Y-108239700D01*
X131866164Y-108398660D01*
X132001339Y-108533835D01*
X132160299Y-108640048D01*
X132336911Y-108713202D01*
X132336916Y-108713204D01*
X132336920Y-108713204D01*
X132336921Y-108713205D01*
X132524411Y-108750500D01*
X132524414Y-108750500D01*
X132715588Y-108750500D01*
X132841729Y-108725408D01*
X132903084Y-108713204D01*
X132991394Y-108676625D01*
X133079700Y-108640048D01*
X133079701Y-108640047D01*
X133079704Y-108640046D01*
X133238658Y-108533837D01*
X133373837Y-108398658D01*
X133480046Y-108239704D01*
X133489221Y-108217555D01*
X133553202Y-108063088D01*
X133553204Y-108063084D01*
X133590500Y-107875588D01*
X134189499Y-107875588D01*
X134226794Y-108063078D01*
X134226797Y-108063088D01*
X134299951Y-108239700D01*
X134406164Y-108398660D01*
X134541339Y-108533835D01*
X134700299Y-108640048D01*
X134876911Y-108713202D01*
X134876916Y-108713204D01*
X134876920Y-108713204D01*
X134876921Y-108713205D01*
X135064411Y-108750500D01*
X135064414Y-108750500D01*
X135255588Y-108750500D01*
X135381729Y-108725408D01*
X135443084Y-108713204D01*
X135531394Y-108676625D01*
X135619700Y-108640048D01*
X135619701Y-108640047D01*
X135619704Y-108640046D01*
X135778658Y-108533837D01*
X135913837Y-108398658D01*
X136020046Y-108239704D01*
X136029221Y-108217555D01*
X136093202Y-108063088D01*
X136093204Y-108063084D01*
X136130500Y-107875588D01*
X136729499Y-107875588D01*
X136766794Y-108063078D01*
X136766797Y-108063088D01*
X136839951Y-108239700D01*
X136946164Y-108398660D01*
X137081339Y-108533835D01*
X137240299Y-108640048D01*
X137416911Y-108713202D01*
X137416916Y-108713204D01*
X137416920Y-108713204D01*
X137416921Y-108713205D01*
X137604411Y-108750500D01*
X137604414Y-108750500D01*
X137795588Y-108750500D01*
X137921729Y-108725408D01*
X137983084Y-108713204D01*
X138071394Y-108676625D01*
X138159700Y-108640048D01*
X138159701Y-108640047D01*
X138159704Y-108640046D01*
X138318658Y-108533837D01*
X138453837Y-108398658D01*
X138560046Y-108239704D01*
X138569221Y-108217555D01*
X138633202Y-108063088D01*
X138633204Y-108063084D01*
X138670500Y-107875588D01*
X139269499Y-107875588D01*
X139306794Y-108063078D01*
X139306797Y-108063088D01*
X139379951Y-108239700D01*
X139486164Y-108398660D01*
X139621339Y-108533835D01*
X139780299Y-108640048D01*
X139956911Y-108713202D01*
X139956916Y-108713204D01*
X139956920Y-108713204D01*
X139956921Y-108713205D01*
X140144411Y-108750500D01*
X140144414Y-108750500D01*
X140335588Y-108750500D01*
X140461729Y-108725408D01*
X140523084Y-108713204D01*
X140611394Y-108676625D01*
X140699700Y-108640048D01*
X140699701Y-108640047D01*
X140699704Y-108640046D01*
X140858658Y-108533837D01*
X140993837Y-108398658D01*
X141100046Y-108239704D01*
X141109221Y-108217555D01*
X141173202Y-108063088D01*
X141173204Y-108063084D01*
X141210500Y-107875588D01*
X141809499Y-107875588D01*
X141846794Y-108063078D01*
X141846797Y-108063088D01*
X141919951Y-108239700D01*
X142026164Y-108398660D01*
X142161339Y-108533835D01*
X142320299Y-108640048D01*
X142496911Y-108713202D01*
X142496916Y-108713204D01*
X142496920Y-108713204D01*
X142496921Y-108713205D01*
X142684411Y-108750500D01*
X142684414Y-108750500D01*
X142875588Y-108750500D01*
X143001729Y-108725408D01*
X143063084Y-108713204D01*
X143151394Y-108676625D01*
X143239700Y-108640048D01*
X143239701Y-108640047D01*
X143239704Y-108640046D01*
X143398658Y-108533837D01*
X143533837Y-108398658D01*
X143640046Y-108239704D01*
X143649221Y-108217555D01*
X143713202Y-108063088D01*
X143713204Y-108063084D01*
X143750500Y-107875588D01*
X144349499Y-107875588D01*
X144386794Y-108063078D01*
X144386797Y-108063088D01*
X144459951Y-108239700D01*
X144566164Y-108398660D01*
X144701339Y-108533835D01*
X144860299Y-108640048D01*
X145036911Y-108713202D01*
X145036916Y-108713204D01*
X145036920Y-108713204D01*
X145036921Y-108713205D01*
X145224411Y-108750500D01*
X145224414Y-108750500D01*
X145415588Y-108750500D01*
X145541729Y-108725408D01*
X145603084Y-108713204D01*
X145691394Y-108676625D01*
X145779700Y-108640048D01*
X145779701Y-108640047D01*
X145779704Y-108640046D01*
X145938658Y-108533837D01*
X146073837Y-108398658D01*
X146180046Y-108239704D01*
X146189221Y-108217555D01*
X146253202Y-108063088D01*
X146253204Y-108063084D01*
X146290500Y-107875588D01*
X146889499Y-107875588D01*
X146926794Y-108063078D01*
X146926797Y-108063088D01*
X146999951Y-108239700D01*
X147106164Y-108398660D01*
X147241339Y-108533835D01*
X147400299Y-108640048D01*
X147576911Y-108713202D01*
X147576916Y-108713204D01*
X147576920Y-108713204D01*
X147576921Y-108713205D01*
X147764411Y-108750500D01*
X147764414Y-108750500D01*
X147955588Y-108750500D01*
X148081729Y-108725408D01*
X148143084Y-108713204D01*
X148231394Y-108676625D01*
X148319700Y-108640048D01*
X148319701Y-108640047D01*
X148319704Y-108640046D01*
X148478658Y-108533837D01*
X148613837Y-108398658D01*
X148720046Y-108239704D01*
X148729221Y-108217555D01*
X148793202Y-108063088D01*
X148793204Y-108063084D01*
X148830500Y-107875588D01*
X149429499Y-107875588D01*
X149466794Y-108063078D01*
X149466797Y-108063088D01*
X149539951Y-108239700D01*
X149646164Y-108398660D01*
X149781339Y-108533835D01*
X149940299Y-108640048D01*
X150116911Y-108713202D01*
X150116916Y-108713204D01*
X150116920Y-108713204D01*
X150116921Y-108713205D01*
X150304411Y-108750500D01*
X150304414Y-108750500D01*
X150495588Y-108750500D01*
X150621729Y-108725408D01*
X150683084Y-108713204D01*
X150771394Y-108676625D01*
X150859700Y-108640048D01*
X150859701Y-108640047D01*
X150859704Y-108640046D01*
X151018658Y-108533837D01*
X151153837Y-108398658D01*
X151260046Y-108239704D01*
X151269221Y-108217555D01*
X151333202Y-108063088D01*
X151333204Y-108063084D01*
X151370500Y-107875588D01*
X151969499Y-107875588D01*
X152006794Y-108063078D01*
X152006797Y-108063088D01*
X152079951Y-108239700D01*
X152186164Y-108398660D01*
X152321339Y-108533835D01*
X152480299Y-108640048D01*
X152656911Y-108713202D01*
X152656916Y-108713204D01*
X152656920Y-108713204D01*
X152656921Y-108713205D01*
X152844411Y-108750500D01*
X152844414Y-108750500D01*
X153035588Y-108750500D01*
X153161729Y-108725408D01*
X153223084Y-108713204D01*
X153311394Y-108676625D01*
X153399700Y-108640048D01*
X153399701Y-108640047D01*
X153399704Y-108640046D01*
X153558658Y-108533837D01*
X153693837Y-108398658D01*
X153800046Y-108239704D01*
X153809221Y-108217555D01*
X153873202Y-108063088D01*
X153873204Y-108063084D01*
X153910500Y-107875586D01*
X153910500Y-107684414D01*
X153910500Y-107684411D01*
X153873205Y-107496921D01*
X153873204Y-107496920D01*
X153873204Y-107496916D01*
X153849500Y-107439689D01*
X153800048Y-107320299D01*
X153693835Y-107161339D01*
X153558660Y-107026164D01*
X153399700Y-106919951D01*
X153223088Y-106846797D01*
X153223078Y-106846794D01*
X153035588Y-106809500D01*
X153035586Y-106809500D01*
X152844414Y-106809500D01*
X152844412Y-106809500D01*
X152656921Y-106846794D01*
X152656911Y-106846797D01*
X152480299Y-106919951D01*
X152321339Y-107026164D01*
X152186164Y-107161339D01*
X152079951Y-107320299D01*
X152006797Y-107496911D01*
X152006794Y-107496921D01*
X151969500Y-107684411D01*
X151969500Y-107684414D01*
X151969500Y-107875586D01*
X151969500Y-107875588D01*
X151969499Y-107875588D01*
X151370500Y-107875588D01*
X151370500Y-107875586D01*
X151370500Y-107684414D01*
X151370500Y-107684411D01*
X151333205Y-107496921D01*
X151333204Y-107496920D01*
X151333204Y-107496916D01*
X151309500Y-107439689D01*
X151260048Y-107320299D01*
X151153835Y-107161339D01*
X151018660Y-107026164D01*
X150859700Y-106919951D01*
X150683088Y-106846797D01*
X150683078Y-106846794D01*
X150495588Y-106809500D01*
X150495586Y-106809500D01*
X150304414Y-106809500D01*
X150304412Y-106809500D01*
X150116921Y-106846794D01*
X150116911Y-106846797D01*
X149940299Y-106919951D01*
X149781339Y-107026164D01*
X149646164Y-107161339D01*
X149539951Y-107320299D01*
X149466797Y-107496911D01*
X149466794Y-107496921D01*
X149429500Y-107684411D01*
X149429500Y-107684414D01*
X149429500Y-107875586D01*
X149429500Y-107875588D01*
X149429499Y-107875588D01*
X148830500Y-107875588D01*
X148830500Y-107875586D01*
X148830500Y-107684414D01*
X148830500Y-107684411D01*
X148793205Y-107496921D01*
X148793204Y-107496920D01*
X148793204Y-107496916D01*
X148769500Y-107439689D01*
X148720048Y-107320299D01*
X148613835Y-107161339D01*
X148478660Y-107026164D01*
X148319700Y-106919951D01*
X148143088Y-106846797D01*
X148143078Y-106846794D01*
X147955588Y-106809500D01*
X147955586Y-106809500D01*
X147764414Y-106809500D01*
X147764412Y-106809500D01*
X147576921Y-106846794D01*
X147576911Y-106846797D01*
X147400299Y-106919951D01*
X147241339Y-107026164D01*
X147106164Y-107161339D01*
X146999951Y-107320299D01*
X146926797Y-107496911D01*
X146926794Y-107496921D01*
X146889500Y-107684411D01*
X146889500Y-107684414D01*
X146889500Y-107875586D01*
X146889500Y-107875588D01*
X146889499Y-107875588D01*
X146290500Y-107875588D01*
X146290500Y-107875586D01*
X146290500Y-107684414D01*
X146290500Y-107684411D01*
X146253205Y-107496921D01*
X146253204Y-107496920D01*
X146253204Y-107496916D01*
X146229500Y-107439689D01*
X146180048Y-107320299D01*
X146073835Y-107161339D01*
X145938660Y-107026164D01*
X145779700Y-106919951D01*
X145603088Y-106846797D01*
X145603078Y-106846794D01*
X145415588Y-106809500D01*
X145415586Y-106809500D01*
X145224414Y-106809500D01*
X145224412Y-106809500D01*
X145036921Y-106846794D01*
X145036911Y-106846797D01*
X144860299Y-106919951D01*
X144701339Y-107026164D01*
X144566164Y-107161339D01*
X144459951Y-107320299D01*
X144386797Y-107496911D01*
X144386794Y-107496921D01*
X144349500Y-107684411D01*
X144349500Y-107684414D01*
X144349500Y-107875586D01*
X144349500Y-107875588D01*
X144349499Y-107875588D01*
X143750500Y-107875588D01*
X143750500Y-107875586D01*
X143750500Y-107684414D01*
X143750500Y-107684411D01*
X143713205Y-107496921D01*
X143713204Y-107496920D01*
X143713204Y-107496916D01*
X143689500Y-107439689D01*
X143640048Y-107320299D01*
X143533835Y-107161339D01*
X143398660Y-107026164D01*
X143239700Y-106919951D01*
X143063088Y-106846797D01*
X143063078Y-106846794D01*
X142875588Y-106809500D01*
X142875586Y-106809500D01*
X142684414Y-106809500D01*
X142684412Y-106809500D01*
X142496921Y-106846794D01*
X142496911Y-106846797D01*
X142320299Y-106919951D01*
X142161339Y-107026164D01*
X142026164Y-107161339D01*
X141919951Y-107320299D01*
X141846797Y-107496911D01*
X141846794Y-107496921D01*
X141809500Y-107684411D01*
X141809500Y-107684414D01*
X141809500Y-107875586D01*
X141809500Y-107875588D01*
X141809499Y-107875588D01*
X141210500Y-107875588D01*
X141210500Y-107875586D01*
X141210500Y-107684414D01*
X141210500Y-107684411D01*
X141173205Y-107496921D01*
X141173204Y-107496920D01*
X141173204Y-107496916D01*
X141149500Y-107439689D01*
X141100048Y-107320299D01*
X140993835Y-107161339D01*
X140858660Y-107026164D01*
X140699700Y-106919951D01*
X140523088Y-106846797D01*
X140523078Y-106846794D01*
X140335588Y-106809500D01*
X140335586Y-106809500D01*
X140144414Y-106809500D01*
X140144412Y-106809500D01*
X139956921Y-106846794D01*
X139956911Y-106846797D01*
X139780299Y-106919951D01*
X139621339Y-107026164D01*
X139486164Y-107161339D01*
X139379951Y-107320299D01*
X139306797Y-107496911D01*
X139306794Y-107496921D01*
X139269500Y-107684411D01*
X139269500Y-107684414D01*
X139269500Y-107875586D01*
X139269500Y-107875588D01*
X139269499Y-107875588D01*
X138670500Y-107875588D01*
X138670500Y-107875586D01*
X138670500Y-107684414D01*
X138670500Y-107684411D01*
X138633205Y-107496921D01*
X138633204Y-107496920D01*
X138633204Y-107496916D01*
X138609500Y-107439689D01*
X138560048Y-107320299D01*
X138453835Y-107161339D01*
X138318660Y-107026164D01*
X138159700Y-106919951D01*
X137983088Y-106846797D01*
X137983078Y-106846794D01*
X137795588Y-106809500D01*
X137795586Y-106809500D01*
X137604414Y-106809500D01*
X137604412Y-106809500D01*
X137416921Y-106846794D01*
X137416911Y-106846797D01*
X137240299Y-106919951D01*
X137081339Y-107026164D01*
X136946164Y-107161339D01*
X136839951Y-107320299D01*
X136766797Y-107496911D01*
X136766794Y-107496921D01*
X136729500Y-107684411D01*
X136729500Y-107684414D01*
X136729500Y-107875586D01*
X136729500Y-107875588D01*
X136729499Y-107875588D01*
X136130500Y-107875588D01*
X136130500Y-107875586D01*
X136130500Y-107684414D01*
X136130500Y-107684411D01*
X136093205Y-107496921D01*
X136093204Y-107496920D01*
X136093204Y-107496916D01*
X136069500Y-107439689D01*
X136020048Y-107320299D01*
X135913835Y-107161339D01*
X135778660Y-107026164D01*
X135619700Y-106919951D01*
X135443088Y-106846797D01*
X135443078Y-106846794D01*
X135255588Y-106809500D01*
X135255586Y-106809500D01*
X135064414Y-106809500D01*
X135064412Y-106809500D01*
X134876921Y-106846794D01*
X134876911Y-106846797D01*
X134700299Y-106919951D01*
X134541339Y-107026164D01*
X134406164Y-107161339D01*
X134299951Y-107320299D01*
X134226797Y-107496911D01*
X134226794Y-107496921D01*
X134189500Y-107684411D01*
X134189500Y-107684414D01*
X134189500Y-107875586D01*
X134189500Y-107875588D01*
X134189499Y-107875588D01*
X133590500Y-107875588D01*
X133590500Y-107875586D01*
X133590500Y-107684414D01*
X133590500Y-107684411D01*
X133553205Y-107496921D01*
X133553204Y-107496920D01*
X133553204Y-107496916D01*
X133529500Y-107439689D01*
X133480048Y-107320299D01*
X133373835Y-107161339D01*
X133238660Y-107026164D01*
X133079700Y-106919951D01*
X132903088Y-106846797D01*
X132903078Y-106846794D01*
X132715588Y-106809500D01*
X132715586Y-106809500D01*
X132524414Y-106809500D01*
X132524412Y-106809500D01*
X132336921Y-106846794D01*
X132336911Y-106846797D01*
X132160299Y-106919951D01*
X132001339Y-107026164D01*
X131866164Y-107161339D01*
X131759951Y-107320299D01*
X131686797Y-107496911D01*
X131686794Y-107496921D01*
X131649500Y-107684411D01*
X131649500Y-107684414D01*
X131649500Y-107875586D01*
X131649500Y-107875588D01*
X131649499Y-107875588D01*
X131050500Y-107875588D01*
X131050500Y-107875586D01*
X131050500Y-107684414D01*
X131050500Y-107684411D01*
X131013205Y-107496921D01*
X131013204Y-107496920D01*
X131013204Y-107496916D01*
X130989500Y-107439689D01*
X130940048Y-107320299D01*
X130833835Y-107161339D01*
X130698660Y-107026164D01*
X130539700Y-106919951D01*
X130363088Y-106846797D01*
X130363078Y-106846794D01*
X130175588Y-106809500D01*
X130175586Y-106809500D01*
X129984414Y-106809500D01*
X129984412Y-106809500D01*
X129796921Y-106846794D01*
X129796911Y-106846797D01*
X129620299Y-106919951D01*
X129461339Y-107026164D01*
X129326164Y-107161339D01*
X129219951Y-107320299D01*
X129146797Y-107496911D01*
X129146794Y-107496921D01*
X129109500Y-107684411D01*
X129109500Y-107684414D01*
X129109500Y-107875586D01*
X129109500Y-107875588D01*
X129109499Y-107875588D01*
X128510500Y-107875588D01*
X128510500Y-107875586D01*
X128510500Y-107684414D01*
X128510500Y-107684411D01*
X128473205Y-107496921D01*
X128473204Y-107496920D01*
X128473204Y-107496916D01*
X128449500Y-107439689D01*
X128400048Y-107320299D01*
X128293835Y-107161339D01*
X128158660Y-107026164D01*
X127999700Y-106919951D01*
X127823088Y-106846797D01*
X127823078Y-106846794D01*
X127635588Y-106809500D01*
X127635586Y-106809500D01*
X127444414Y-106809500D01*
X127444412Y-106809500D01*
X127256921Y-106846794D01*
X127256911Y-106846797D01*
X127080299Y-106919951D01*
X126921339Y-107026164D01*
X126786164Y-107161339D01*
X126679951Y-107320299D01*
X126606797Y-107496911D01*
X126606794Y-107496921D01*
X126569500Y-107684411D01*
X126569500Y-107684414D01*
X126569500Y-107875586D01*
X126569500Y-107875588D01*
X126569499Y-107875588D01*
X125970500Y-107875588D01*
X125970500Y-106918130D01*
X125966372Y-106897376D01*
X125963510Y-106882985D01*
X125963509Y-106882984D01*
X125963509Y-106882983D01*
X125936876Y-106843124D01*
X125897017Y-106816491D01*
X125897016Y-106816490D01*
X125897015Y-106816490D01*
X125897014Y-106816489D01*
X125861874Y-106809500D01*
X125861870Y-106809500D01*
X124138130Y-106809500D01*
X124138125Y-106809500D01*
X124102985Y-106816489D01*
X124102984Y-106816490D01*
X124063124Y-106843124D01*
X124036490Y-106882984D01*
X124036489Y-106882985D01*
X124029500Y-106918125D01*
X123700500Y-106918125D01*
X123700500Y-104388125D01*
X164239500Y-104388125D01*
X164239500Y-106111874D01*
X164246489Y-106147014D01*
X164246490Y-106147015D01*
X164246490Y-106147016D01*
X164246491Y-106147017D01*
X164273124Y-106186876D01*
X164312983Y-106213509D01*
X164312984Y-106213509D01*
X164312985Y-106213510D01*
X164348125Y-106220499D01*
X164348129Y-106220500D01*
X164348130Y-106220500D01*
X166071871Y-106220500D01*
X166071872Y-106220499D01*
X166083692Y-106218148D01*
X166107014Y-106213510D01*
X166107014Y-106213509D01*
X166107017Y-106213509D01*
X166146876Y-106186876D01*
X166173509Y-106147017D01*
X166174934Y-106139856D01*
X166180499Y-106111874D01*
X166180500Y-106111871D01*
X166180500Y-105545944D01*
X166200185Y-105478905D01*
X166252989Y-105433150D01*
X166322147Y-105423206D01*
X166385703Y-105452231D01*
X166423477Y-105511009D01*
X166426973Y-105526546D01*
X166433242Y-105566127D01*
X166433242Y-105566130D01*
X166498904Y-105768217D01*
X166595375Y-105957550D01*
X166634728Y-106011716D01*
X167267037Y-105379408D01*
X167284075Y-105442993D01*
X167349901Y-105557007D01*
X167442993Y-105650099D01*
X167557007Y-105715925D01*
X167620590Y-105732962D01*
X166988282Y-106365269D01*
X166988282Y-106365270D01*
X167042449Y-106404624D01*
X167231782Y-106501095D01*
X167433870Y-106566757D01*
X167643754Y-106600000D01*
X167856245Y-106600000D01*
X167908267Y-106591759D01*
X168072537Y-106564675D01*
X168268217Y-106501095D01*
X168457554Y-106404622D01*
X168511716Y-106365270D01*
X168511717Y-106365270D01*
X167879408Y-105732962D01*
X167942993Y-105715925D01*
X168057007Y-105650099D01*
X168150099Y-105557007D01*
X168215925Y-105442993D01*
X168232962Y-105379409D01*
X168865270Y-106011717D01*
X168865270Y-106011716D01*
X168904622Y-105957554D01*
X169001095Y-105768217D01*
X169066757Y-105566130D01*
X169066758Y-105566125D01*
X169089616Y-105421804D01*
X169119545Y-105358669D01*
X169178856Y-105321737D01*
X169248719Y-105322735D01*
X169306952Y-105361344D01*
X169333706Y-105417009D01*
X169356794Y-105533078D01*
X169356797Y-105533088D01*
X169429951Y-105709700D01*
X169536164Y-105868660D01*
X169671339Y-106003835D01*
X169830299Y-106110048D01*
X169989946Y-106176175D01*
X170006916Y-106183204D01*
X170006920Y-106183204D01*
X170006921Y-106183205D01*
X170194411Y-106220500D01*
X170194414Y-106220500D01*
X170385588Y-106220500D01*
X170511729Y-106195408D01*
X170573084Y-106183204D01*
X170677736Y-106139856D01*
X170749700Y-106110048D01*
X170749701Y-106110047D01*
X170749704Y-106110046D01*
X170908658Y-106003837D01*
X171043837Y-105868658D01*
X171150046Y-105709704D01*
X171151354Y-105706548D01*
X171186723Y-105621158D01*
X171223204Y-105533084D01*
X171240273Y-105447273D01*
X171260500Y-105345588D01*
X171260500Y-105154411D01*
X171260499Y-105154409D01*
X171223207Y-104966927D01*
X171223202Y-104966911D01*
X171215068Y-104947273D01*
X172849500Y-104947273D01*
X172849500Y-105052727D01*
X172876793Y-105154587D01*
X172929520Y-105245913D01*
X173004087Y-105320480D01*
X173095413Y-105373207D01*
X173197273Y-105400500D01*
X173197275Y-105400500D01*
X173302725Y-105400500D01*
X173302727Y-105400500D01*
X173404587Y-105373207D01*
X173495913Y-105320480D01*
X173570480Y-105245913D01*
X173623207Y-105154587D01*
X173650500Y-105052727D01*
X173650500Y-104947273D01*
X173623207Y-104845413D01*
X173570480Y-104754087D01*
X173495913Y-104679520D01*
X173404587Y-104626793D01*
X173302727Y-104599500D01*
X173197273Y-104599500D01*
X173095413Y-104626793D01*
X173095410Y-104626794D01*
X173004085Y-104679521D01*
X172929521Y-104754085D01*
X172876794Y-104845410D01*
X172876793Y-104845413D01*
X172849500Y-104947273D01*
X171215068Y-104947273D01*
X171150048Y-104790299D01*
X171043835Y-104631339D01*
X170908660Y-104496164D01*
X170749700Y-104389951D01*
X170573088Y-104316797D01*
X170573078Y-104316794D01*
X170385588Y-104279500D01*
X170385586Y-104279500D01*
X170194414Y-104279500D01*
X170194412Y-104279500D01*
X170006921Y-104316794D01*
X170006911Y-104316797D01*
X169830299Y-104389951D01*
X169671339Y-104496164D01*
X169536164Y-104631339D01*
X169429951Y-104790299D01*
X169356797Y-104966911D01*
X169356794Y-104966921D01*
X169333706Y-105082990D01*
X169301321Y-105144901D01*
X169240605Y-105179475D01*
X169170835Y-105175734D01*
X169114163Y-105134868D01*
X169089616Y-105078195D01*
X169066758Y-104933874D01*
X169066757Y-104933869D01*
X169001095Y-104731782D01*
X168904624Y-104542449D01*
X168865270Y-104488282D01*
X168865269Y-104488282D01*
X168232962Y-105120590D01*
X168215925Y-105057007D01*
X168150099Y-104942993D01*
X168057007Y-104849901D01*
X167942993Y-104784075D01*
X167879409Y-104767037D01*
X168511716Y-104134728D01*
X168457550Y-104095375D01*
X168268217Y-103998904D01*
X168066129Y-103933242D01*
X167856246Y-103900000D01*
X167643754Y-103900000D01*
X167433872Y-103933242D01*
X167433869Y-103933242D01*
X167231782Y-103998904D01*
X167042439Y-104095380D01*
X166988282Y-104134727D01*
X166988282Y-104134728D01*
X167620591Y-104767037D01*
X167557007Y-104784075D01*
X167442993Y-104849901D01*
X167349901Y-104942993D01*
X167284075Y-105057007D01*
X167267037Y-105120591D01*
X166634728Y-104488282D01*
X166634727Y-104488282D01*
X166595380Y-104542439D01*
X166498904Y-104731782D01*
X166433242Y-104933869D01*
X166433242Y-104933872D01*
X166426973Y-104973453D01*
X166397044Y-105036588D01*
X166337732Y-105073519D01*
X166267869Y-105072521D01*
X166209637Y-105033911D01*
X166181523Y-104969947D01*
X166180500Y-104954055D01*
X166180500Y-104388129D01*
X166180499Y-104388125D01*
X166173510Y-104352985D01*
X166173509Y-104352984D01*
X166173509Y-104352983D01*
X166146876Y-104313124D01*
X166107017Y-104286491D01*
X166107016Y-104286490D01*
X166107015Y-104286490D01*
X166107014Y-104286489D01*
X166071874Y-104279500D01*
X166071870Y-104279500D01*
X164348130Y-104279500D01*
X164348125Y-104279500D01*
X164312985Y-104286489D01*
X164312984Y-104286490D01*
X164273124Y-104313124D01*
X164246490Y-104352984D01*
X164246489Y-104352985D01*
X164239500Y-104388125D01*
X123700500Y-104388125D01*
X123700500Y-103381116D01*
X125529499Y-103381116D01*
X125553344Y-103500986D01*
X125553346Y-103500994D01*
X125600120Y-103613917D01*
X125600121Y-103613920D01*
X125668025Y-103715544D01*
X125668028Y-103715548D01*
X125754451Y-103801971D01*
X125754455Y-103801974D01*
X125856079Y-103869878D01*
X125856081Y-103869878D01*
X125856083Y-103869880D01*
X125969007Y-103916654D01*
X125998364Y-103922493D01*
X126088883Y-103940500D01*
X126088886Y-103940500D01*
X126811116Y-103940500D01*
X126871461Y-103928495D01*
X126930993Y-103916654D01*
X127043917Y-103869880D01*
X127145545Y-103801974D01*
X127231974Y-103715545D01*
X127299880Y-103613917D01*
X127346654Y-103500993D01*
X127358495Y-103441461D01*
X127370500Y-103381116D01*
X129459499Y-103381116D01*
X129483344Y-103500986D01*
X129483346Y-103500994D01*
X129530120Y-103613917D01*
X129530121Y-103613920D01*
X129598025Y-103715544D01*
X129598028Y-103715548D01*
X129684451Y-103801971D01*
X129684455Y-103801974D01*
X129786079Y-103869878D01*
X129786081Y-103869878D01*
X129786083Y-103869880D01*
X129899007Y-103916654D01*
X129928364Y-103922493D01*
X130018883Y-103940500D01*
X130018886Y-103940500D01*
X131241116Y-103940500D01*
X131301461Y-103928495D01*
X131360993Y-103916654D01*
X131473917Y-103869880D01*
X131575545Y-103801974D01*
X131661974Y-103715545D01*
X131729880Y-103613917D01*
X131776654Y-103500993D01*
X131788495Y-103441461D01*
X131800500Y-103381116D01*
X131800500Y-103258883D01*
X131776655Y-103139013D01*
X131776654Y-103139007D01*
X131729880Y-103026083D01*
X131729878Y-103026081D01*
X131729878Y-103026079D01*
X131661974Y-102924455D01*
X131661971Y-102924451D01*
X131575548Y-102838028D01*
X131575544Y-102838025D01*
X131473920Y-102770121D01*
X131473917Y-102770120D01*
X131360994Y-102723346D01*
X131360986Y-102723344D01*
X131241116Y-102699500D01*
X131241114Y-102699500D01*
X130244339Y-102699500D01*
X130177300Y-102679815D01*
X130131545Y-102627011D01*
X130121601Y-102557853D01*
X130150626Y-102494297D01*
X130209404Y-102456523D01*
X130212220Y-102455732D01*
X130322135Y-102426281D01*
X130453365Y-102350515D01*
X130560515Y-102243365D01*
X130636281Y-102112135D01*
X130675500Y-101965766D01*
X130675500Y-101814234D01*
X130636281Y-101667865D01*
X130624392Y-101647273D01*
X134499500Y-101647273D01*
X134499500Y-101752727D01*
X134512898Y-101802727D01*
X134526793Y-101854586D01*
X134526794Y-101854589D01*
X134533476Y-101866163D01*
X134579520Y-101945913D01*
X134654087Y-102020480D01*
X134745413Y-102073207D01*
X134847273Y-102100500D01*
X134847275Y-102100500D01*
X134952725Y-102100500D01*
X134952727Y-102100500D01*
X135054587Y-102073207D01*
X135145913Y-102020480D01*
X135220480Y-101945913D01*
X135273207Y-101854587D01*
X135299054Y-101758125D01*
X137449500Y-101758125D01*
X137449500Y-103481874D01*
X137456489Y-103517014D01*
X137456490Y-103517015D01*
X137456490Y-103517016D01*
X137456491Y-103517017D01*
X137483124Y-103556876D01*
X137522983Y-103583509D01*
X137522984Y-103583509D01*
X137522985Y-103583510D01*
X137558125Y-103590499D01*
X137558129Y-103590500D01*
X137558130Y-103590500D01*
X139281871Y-103590500D01*
X139281872Y-103590499D01*
X139293692Y-103588148D01*
X139317014Y-103583510D01*
X139317014Y-103583509D01*
X139317017Y-103583509D01*
X139356876Y-103556876D01*
X139383509Y-103517017D01*
X139390500Y-103481870D01*
X139390500Y-101758130D01*
X139386907Y-101740064D01*
X139383510Y-101722985D01*
X139383509Y-101722984D01*
X139383509Y-101722983D01*
X139356876Y-101683124D01*
X139317017Y-101656491D01*
X139317016Y-101656490D01*
X139317015Y-101656490D01*
X139317014Y-101656489D01*
X139281874Y-101649500D01*
X139281870Y-101649500D01*
X137558130Y-101649500D01*
X137558125Y-101649500D01*
X137522985Y-101656489D01*
X137522984Y-101656490D01*
X137483124Y-101683124D01*
X137456490Y-101722984D01*
X137456489Y-101722985D01*
X137449500Y-101758125D01*
X135299054Y-101758125D01*
X135300500Y-101752727D01*
X135300500Y-101647273D01*
X135273207Y-101545413D01*
X135220480Y-101454087D01*
X135145913Y-101379520D01*
X135079059Y-101340922D01*
X135054589Y-101326794D01*
X135054588Y-101326793D01*
X135054587Y-101326793D01*
X134952727Y-101299500D01*
X134847273Y-101299500D01*
X134745413Y-101326793D01*
X134745410Y-101326794D01*
X134654085Y-101379521D01*
X134579521Y-101454085D01*
X134526794Y-101545410D01*
X134526793Y-101545413D01*
X134499500Y-101647273D01*
X130624392Y-101647273D01*
X130560515Y-101536635D01*
X130453365Y-101429485D01*
X130367414Y-101379861D01*
X130322136Y-101353719D01*
X130221648Y-101326794D01*
X130175766Y-101314500D01*
X130024234Y-101314500D01*
X129877863Y-101353719D01*
X129746635Y-101429485D01*
X129746632Y-101429487D01*
X129639487Y-101536632D01*
X129639485Y-101536635D01*
X129563719Y-101667863D01*
X129527583Y-101802727D01*
X129524500Y-101814234D01*
X129524500Y-101965766D01*
X129534768Y-102004087D01*
X129563719Y-102112136D01*
X129593524Y-102163758D01*
X129639485Y-102243365D01*
X129746635Y-102350515D01*
X129877865Y-102426281D01*
X130009490Y-102461549D01*
X130069148Y-102497913D01*
X130099678Y-102560759D01*
X130091384Y-102630135D01*
X130046899Y-102684013D01*
X130001588Y-102702940D01*
X129899011Y-102723344D01*
X129899005Y-102723346D01*
X129786082Y-102770120D01*
X129786079Y-102770121D01*
X129684455Y-102838025D01*
X129684451Y-102838028D01*
X129598028Y-102924451D01*
X129598025Y-102924455D01*
X129530121Y-103026079D01*
X129530120Y-103026082D01*
X129483346Y-103139005D01*
X129483344Y-103139013D01*
X129459500Y-103258883D01*
X129459500Y-103258886D01*
X129459500Y-103381114D01*
X129459500Y-103381116D01*
X129459499Y-103381116D01*
X127370500Y-103381116D01*
X127370500Y-103258883D01*
X127346655Y-103139013D01*
X127346654Y-103139007D01*
X127299880Y-103026083D01*
X127299878Y-103026081D01*
X127299878Y-103026079D01*
X127231974Y-102924455D01*
X127231971Y-102924451D01*
X127145548Y-102838028D01*
X127145544Y-102838025D01*
X127043920Y-102770121D01*
X127043917Y-102770120D01*
X126930994Y-102723346D01*
X126930986Y-102723344D01*
X126811116Y-102699500D01*
X126811114Y-102699500D01*
X126088886Y-102699500D01*
X126088884Y-102699500D01*
X125969013Y-102723344D01*
X125969005Y-102723346D01*
X125856082Y-102770120D01*
X125856079Y-102770121D01*
X125754455Y-102838025D01*
X125754451Y-102838028D01*
X125668028Y-102924451D01*
X125668025Y-102924455D01*
X125600121Y-103026079D01*
X125600120Y-103026082D01*
X125553346Y-103139005D01*
X125553344Y-103139013D01*
X125529500Y-103258883D01*
X125529500Y-103258886D01*
X125529500Y-103381114D01*
X125529500Y-103381116D01*
X125529499Y-103381116D01*
X123700500Y-103381116D01*
X123700500Y-101447273D01*
X124599500Y-101447273D01*
X124599500Y-101552727D01*
X124626793Y-101654587D01*
X124679520Y-101745913D01*
X124754087Y-101820480D01*
X124845413Y-101873207D01*
X124947273Y-101900500D01*
X124947275Y-101900500D01*
X125052725Y-101900500D01*
X125052727Y-101900500D01*
X125154587Y-101873207D01*
X125245913Y-101820480D01*
X125320480Y-101745913D01*
X125373207Y-101654587D01*
X125400500Y-101552727D01*
X125400500Y-101447273D01*
X125373207Y-101345413D01*
X125320480Y-101254087D01*
X125245913Y-101179520D01*
X125179059Y-101140922D01*
X125154589Y-101126794D01*
X125154588Y-101126793D01*
X125154587Y-101126793D01*
X125052727Y-101099500D01*
X124947273Y-101099500D01*
X124845413Y-101126793D01*
X124845410Y-101126794D01*
X124754085Y-101179521D01*
X124679521Y-101254085D01*
X124626794Y-101345410D01*
X124626793Y-101345413D01*
X124599500Y-101447273D01*
X123700500Y-101447273D01*
X123700500Y-98697273D01*
X133349500Y-98697273D01*
X133349500Y-98802727D01*
X133376793Y-98904587D01*
X133429520Y-98995913D01*
X133504087Y-99070480D01*
X133595413Y-99123207D01*
X133697273Y-99150500D01*
X133697275Y-99150500D01*
X133802725Y-99150500D01*
X133802727Y-99150500D01*
X133904587Y-99123207D01*
X133995913Y-99070480D01*
X134070480Y-98995913D01*
X134123207Y-98904587D01*
X134150500Y-98802727D01*
X134150500Y-98697273D01*
X134123207Y-98595413D01*
X134070480Y-98504087D01*
X133995913Y-98429520D01*
X133904587Y-98376793D01*
X133802727Y-98349500D01*
X133697273Y-98349500D01*
X133595413Y-98376793D01*
X133595410Y-98376794D01*
X133504085Y-98429521D01*
X133429521Y-98504085D01*
X133376794Y-98595410D01*
X133376793Y-98595413D01*
X133349500Y-98697273D01*
X123700500Y-98697273D01*
X123700500Y-97697273D01*
X135349500Y-97697273D01*
X135349500Y-97802727D01*
X135376793Y-97904587D01*
X135429520Y-97995913D01*
X135504087Y-98070480D01*
X135555758Y-98100312D01*
X135602452Y-98127271D01*
X135601543Y-98128844D01*
X135648037Y-98166308D01*
X135670105Y-98232601D01*
X135653571Y-98299032D01*
X135626794Y-98345410D01*
X135626793Y-98345413D01*
X135599500Y-98447273D01*
X135599500Y-98552727D01*
X135626793Y-98654587D01*
X135679520Y-98745913D01*
X135754087Y-98820480D01*
X135845413Y-98873207D01*
X135947273Y-98900500D01*
X135947275Y-98900500D01*
X136052725Y-98900500D01*
X136052727Y-98900500D01*
X136154587Y-98873207D01*
X136245913Y-98820480D01*
X136320480Y-98745913D01*
X136373207Y-98654587D01*
X136400500Y-98552727D01*
X136400500Y-98447273D01*
X136373207Y-98345413D01*
X136320480Y-98254087D01*
X136245913Y-98179520D01*
X136154587Y-98126793D01*
X136147548Y-98122729D01*
X136148455Y-98121157D01*
X136101956Y-98083682D01*
X136079894Y-98017387D01*
X136096427Y-97950970D01*
X136123207Y-97904587D01*
X136150500Y-97802727D01*
X136150500Y-97697273D01*
X136123207Y-97595413D01*
X136070480Y-97504087D01*
X135995913Y-97429520D01*
X135915672Y-97383193D01*
X135904589Y-97376794D01*
X135904588Y-97376793D01*
X135904587Y-97376793D01*
X135802727Y-97349500D01*
X135697273Y-97349500D01*
X135595413Y-97376793D01*
X135595410Y-97376794D01*
X135504085Y-97429521D01*
X135429521Y-97504085D01*
X135376794Y-97595410D01*
X135376793Y-97595413D01*
X135349500Y-97697273D01*
X123700500Y-97697273D01*
X123700500Y-94741116D01*
X125529499Y-94741116D01*
X125553344Y-94860986D01*
X125553346Y-94860994D01*
X125600120Y-94973917D01*
X125600121Y-94973920D01*
X125668025Y-95075544D01*
X125668028Y-95075548D01*
X125754451Y-95161971D01*
X125754455Y-95161974D01*
X125856079Y-95229878D01*
X125856081Y-95229878D01*
X125856083Y-95229880D01*
X125969007Y-95276654D01*
X125998364Y-95282493D01*
X126088883Y-95300500D01*
X126088886Y-95300500D01*
X126811116Y-95300500D01*
X126871461Y-95288495D01*
X126930993Y-95276654D01*
X127043917Y-95229880D01*
X127145545Y-95161974D01*
X127231974Y-95075545D01*
X127299880Y-94973917D01*
X127346654Y-94860993D01*
X127358495Y-94801461D01*
X127370500Y-94741116D01*
X129459499Y-94741116D01*
X129483344Y-94860986D01*
X129483346Y-94860994D01*
X129530120Y-94973917D01*
X129530121Y-94973920D01*
X129598025Y-95075544D01*
X129598028Y-95075548D01*
X129684451Y-95161971D01*
X129684455Y-95161974D01*
X129786079Y-95229878D01*
X129786081Y-95229878D01*
X129786083Y-95229880D01*
X129899007Y-95276654D01*
X129899010Y-95276654D01*
X129899015Y-95276656D01*
X130001586Y-95297059D01*
X130063497Y-95329444D01*
X130098072Y-95390160D01*
X130094332Y-95459929D01*
X130053465Y-95516601D01*
X130009489Y-95538450D01*
X129877865Y-95573719D01*
X129877863Y-95573719D01*
X129877863Y-95573720D01*
X129746635Y-95649485D01*
X129746632Y-95649487D01*
X129639487Y-95756632D01*
X129639485Y-95756635D01*
X129563719Y-95887863D01*
X129532578Y-96004085D01*
X129524500Y-96034234D01*
X129524500Y-96185766D01*
X129535693Y-96227539D01*
X129563719Y-96332136D01*
X129588513Y-96375079D01*
X129639485Y-96463365D01*
X129746635Y-96570515D01*
X129837898Y-96623206D01*
X129868889Y-96641099D01*
X129877865Y-96646281D01*
X130024234Y-96685500D01*
X130024236Y-96685500D01*
X130175764Y-96685500D01*
X130175766Y-96685500D01*
X130322135Y-96646281D01*
X130453365Y-96570515D01*
X130526607Y-96497273D01*
X131144500Y-96497273D01*
X131144500Y-96602727D01*
X131171793Y-96704587D01*
X131224520Y-96795913D01*
X131299087Y-96870480D01*
X131390413Y-96923207D01*
X131492273Y-96950500D01*
X131492275Y-96950500D01*
X131597725Y-96950500D01*
X131597727Y-96950500D01*
X131699587Y-96923207D01*
X131790913Y-96870480D01*
X131865480Y-96795913D01*
X131918207Y-96704587D01*
X131945500Y-96602727D01*
X131945500Y-96497273D01*
X131918207Y-96395413D01*
X131865480Y-96304087D01*
X131790913Y-96229520D01*
X131699587Y-96176793D01*
X131597727Y-96149500D01*
X131492273Y-96149500D01*
X131390413Y-96176793D01*
X131390410Y-96176794D01*
X131299085Y-96229521D01*
X131224521Y-96304085D01*
X131171794Y-96395410D01*
X131171793Y-96395413D01*
X131144500Y-96497273D01*
X130526607Y-96497273D01*
X130560515Y-96463365D01*
X130636281Y-96332135D01*
X130675500Y-96185766D01*
X130675500Y-96034234D01*
X130636281Y-95887865D01*
X130560515Y-95756635D01*
X130453365Y-95649485D01*
X130387750Y-95611602D01*
X130322136Y-95573719D01*
X130272640Y-95560457D01*
X130212245Y-95544274D01*
X130152585Y-95507910D01*
X130122056Y-95445063D01*
X130130351Y-95375688D01*
X130174836Y-95321810D01*
X130241388Y-95300535D01*
X130244339Y-95300500D01*
X131241116Y-95300500D01*
X131301461Y-95288495D01*
X131360993Y-95276654D01*
X131473917Y-95229880D01*
X131575545Y-95161974D01*
X131587020Y-95150499D01*
X131626563Y-95110957D01*
X131661971Y-95075548D01*
X131661974Y-95075545D01*
X131729880Y-94973917D01*
X131776654Y-94860993D01*
X131788495Y-94801461D01*
X131800500Y-94741116D01*
X131800500Y-94618883D01*
X131776951Y-94500499D01*
X131776654Y-94499007D01*
X131729880Y-94386083D01*
X131729878Y-94386081D01*
X131729878Y-94386079D01*
X131661974Y-94284455D01*
X131661971Y-94284451D01*
X131575551Y-94198031D01*
X131575543Y-94198025D01*
X131575541Y-94198023D01*
X131473920Y-94130121D01*
X131473917Y-94130120D01*
X131360994Y-94083346D01*
X131360986Y-94083344D01*
X131241116Y-94059500D01*
X131241114Y-94059500D01*
X130018886Y-94059500D01*
X130018884Y-94059500D01*
X129899013Y-94083344D01*
X129899005Y-94083346D01*
X129786082Y-94130120D01*
X129786079Y-94130121D01*
X129684455Y-94198025D01*
X129684451Y-94198028D01*
X129598028Y-94284451D01*
X129598025Y-94284455D01*
X129530121Y-94386079D01*
X129530120Y-94386082D01*
X129483346Y-94499005D01*
X129483344Y-94499013D01*
X129459500Y-94618883D01*
X129459500Y-94618886D01*
X129459500Y-94741114D01*
X129459500Y-94741116D01*
X129459499Y-94741116D01*
X127370500Y-94741116D01*
X127370500Y-94618883D01*
X127346951Y-94500499D01*
X127346654Y-94499007D01*
X127299880Y-94386083D01*
X127299878Y-94386081D01*
X127299878Y-94386079D01*
X127231974Y-94284455D01*
X127231971Y-94284451D01*
X127145548Y-94198028D01*
X127145544Y-94198025D01*
X127043920Y-94130121D01*
X127043917Y-94130120D01*
X126930994Y-94083346D01*
X126930986Y-94083344D01*
X126811116Y-94059500D01*
X126811114Y-94059500D01*
X126088886Y-94059500D01*
X126088884Y-94059500D01*
X125969013Y-94083344D01*
X125969005Y-94083346D01*
X125856082Y-94130120D01*
X125856079Y-94130121D01*
X125754455Y-94198025D01*
X125754451Y-94198028D01*
X125668028Y-94284451D01*
X125668025Y-94284455D01*
X125600121Y-94386079D01*
X125600120Y-94386082D01*
X125553346Y-94499005D01*
X125553344Y-94499013D01*
X125529500Y-94618883D01*
X125529500Y-94618886D01*
X125529500Y-94741114D01*
X125529500Y-94741116D01*
X125529499Y-94741116D01*
X123700500Y-94741116D01*
X123700500Y-92447273D01*
X127099500Y-92447273D01*
X127099500Y-92552727D01*
X127126793Y-92654587D01*
X127179520Y-92745913D01*
X127254087Y-92820480D01*
X127345413Y-92873207D01*
X127447273Y-92900500D01*
X127447275Y-92900500D01*
X127552725Y-92900500D01*
X127552727Y-92900500D01*
X127654587Y-92873207D01*
X127745913Y-92820480D01*
X127820480Y-92745913D01*
X127873207Y-92654587D01*
X127900500Y-92552727D01*
X127900500Y-92447273D01*
X127873207Y-92345413D01*
X127820480Y-92254087D01*
X127745913Y-92179520D01*
X127654587Y-92126793D01*
X127552727Y-92099500D01*
X127447273Y-92099500D01*
X127345413Y-92126793D01*
X127345410Y-92126794D01*
X127254085Y-92179521D01*
X127179521Y-92254085D01*
X127126794Y-92345410D01*
X127126793Y-92345413D01*
X127099500Y-92447273D01*
X123700500Y-92447273D01*
X123700500Y-91947273D01*
X130499500Y-91947273D01*
X130499500Y-92052727D01*
X130526793Y-92154587D01*
X130579520Y-92245913D01*
X130654087Y-92320480D01*
X130745413Y-92373207D01*
X130847273Y-92400500D01*
X130847275Y-92400500D01*
X130952725Y-92400500D01*
X130952727Y-92400500D01*
X131054587Y-92373207D01*
X131145913Y-92320480D01*
X131220480Y-92245913D01*
X131273207Y-92154587D01*
X131300500Y-92052727D01*
X131300500Y-91947273D01*
X131273207Y-91845413D01*
X131220480Y-91754087D01*
X131145913Y-91679520D01*
X131079059Y-91640922D01*
X131054589Y-91626794D01*
X131054588Y-91626793D01*
X131054587Y-91626793D01*
X130952727Y-91599500D01*
X130847273Y-91599500D01*
X130745413Y-91626793D01*
X130745410Y-91626794D01*
X130654085Y-91679521D01*
X130579521Y-91754085D01*
X130526794Y-91845410D01*
X130526793Y-91845413D01*
X130499500Y-91947273D01*
X123700500Y-91947273D01*
X123700500Y-89138125D01*
X124029500Y-89138125D01*
X124029500Y-90861874D01*
X124036489Y-90897014D01*
X124036490Y-90897015D01*
X124036490Y-90897016D01*
X124036491Y-90897017D01*
X124063124Y-90936876D01*
X124102983Y-90963509D01*
X124102984Y-90963509D01*
X124102985Y-90963510D01*
X124138125Y-90970499D01*
X124138129Y-90970500D01*
X124138130Y-90970500D01*
X125861871Y-90970500D01*
X125861872Y-90970499D01*
X125873692Y-90968148D01*
X125897014Y-90963510D01*
X125897014Y-90963509D01*
X125897017Y-90963509D01*
X125936876Y-90936876D01*
X125963509Y-90897017D01*
X125970500Y-90861870D01*
X125970500Y-90095588D01*
X126569499Y-90095588D01*
X126606794Y-90283078D01*
X126606797Y-90283088D01*
X126679951Y-90459700D01*
X126786164Y-90618660D01*
X126921339Y-90753835D01*
X127080299Y-90860048D01*
X127256911Y-90933202D01*
X127256916Y-90933204D01*
X127256920Y-90933204D01*
X127256921Y-90933205D01*
X127444411Y-90970500D01*
X127444414Y-90970500D01*
X127635588Y-90970500D01*
X127796806Y-90938431D01*
X127823084Y-90933204D01*
X127911394Y-90896625D01*
X127999700Y-90860048D01*
X127999701Y-90860047D01*
X127999704Y-90860046D01*
X128158658Y-90753837D01*
X128293837Y-90618658D01*
X128400046Y-90459704D01*
X128424835Y-90399859D01*
X128440101Y-90363003D01*
X128473204Y-90283084D01*
X128491124Y-90192993D01*
X128510500Y-90095588D01*
X129109499Y-90095588D01*
X129146794Y-90283078D01*
X129146797Y-90283088D01*
X129219951Y-90459700D01*
X129326164Y-90618660D01*
X129461339Y-90753835D01*
X129620299Y-90860048D01*
X129796911Y-90933202D01*
X129796916Y-90933204D01*
X129796920Y-90933204D01*
X129796921Y-90933205D01*
X129984411Y-90970500D01*
X129984414Y-90970500D01*
X130175588Y-90970500D01*
X130336806Y-90938431D01*
X130363084Y-90933204D01*
X130451394Y-90896625D01*
X130539700Y-90860048D01*
X130539701Y-90860047D01*
X130539704Y-90860046D01*
X130698658Y-90753837D01*
X130833837Y-90618658D01*
X130940046Y-90459704D01*
X130964835Y-90399859D01*
X130980101Y-90363003D01*
X131013204Y-90283084D01*
X131031124Y-90192993D01*
X131050500Y-90095588D01*
X131050500Y-89904411D01*
X131013205Y-89716921D01*
X131013204Y-89716920D01*
X131013204Y-89716916D01*
X130984015Y-89646446D01*
X130940048Y-89540299D01*
X130833835Y-89381339D01*
X130698660Y-89246164D01*
X130539700Y-89139951D01*
X130363088Y-89066797D01*
X130363078Y-89066794D01*
X130175588Y-89029500D01*
X130175586Y-89029500D01*
X129984414Y-89029500D01*
X129984412Y-89029500D01*
X129796921Y-89066794D01*
X129796911Y-89066797D01*
X129620299Y-89139951D01*
X129461339Y-89246164D01*
X129326164Y-89381339D01*
X129219951Y-89540299D01*
X129146797Y-89716911D01*
X129146794Y-89716921D01*
X129109500Y-89904411D01*
X129109500Y-89904414D01*
X129109500Y-90095586D01*
X129109500Y-90095588D01*
X129109499Y-90095588D01*
X128510500Y-90095588D01*
X128510500Y-89904411D01*
X128473205Y-89716921D01*
X128473204Y-89716920D01*
X128473204Y-89716916D01*
X128444015Y-89646446D01*
X128400048Y-89540299D01*
X128293835Y-89381339D01*
X128158660Y-89246164D01*
X127999700Y-89139951D01*
X127823088Y-89066797D01*
X127823078Y-89066794D01*
X127635588Y-89029500D01*
X127635586Y-89029500D01*
X127444414Y-89029500D01*
X127444412Y-89029500D01*
X127256921Y-89066794D01*
X127256911Y-89066797D01*
X127080299Y-89139951D01*
X126921339Y-89246164D01*
X126786164Y-89381339D01*
X126679951Y-89540299D01*
X126606797Y-89716911D01*
X126606794Y-89716921D01*
X126569500Y-89904411D01*
X126569500Y-89904414D01*
X126569500Y-90095586D01*
X126569500Y-90095588D01*
X126569499Y-90095588D01*
X125970500Y-90095588D01*
X125970500Y-89138130D01*
X125966907Y-89120064D01*
X125963510Y-89102985D01*
X125963509Y-89102984D01*
X125963509Y-89102983D01*
X125936876Y-89063124D01*
X125897017Y-89036491D01*
X125897016Y-89036490D01*
X125897015Y-89036490D01*
X125897014Y-89036489D01*
X125861874Y-89029500D01*
X125861870Y-89029500D01*
X124138130Y-89029500D01*
X124138125Y-89029500D01*
X124102985Y-89036489D01*
X124102984Y-89036490D01*
X124063124Y-89063124D01*
X124036490Y-89102984D01*
X124036489Y-89102985D01*
X124029500Y-89138125D01*
X123700500Y-89138125D01*
X123700500Y-88824500D01*
X123720185Y-88757461D01*
X123772989Y-88711706D01*
X123824500Y-88700500D01*
X134278639Y-88700500D01*
X134345678Y-88720185D01*
G37*
%TD.AperFunction*%
%TA.AperFunction,Conductor*%
G36*
X136799298Y-88720185D02*
G01*
X136845053Y-88772989D01*
X136854997Y-88842147D01*
X136825972Y-88905703D01*
X136819940Y-88912181D01*
X136469907Y-89262212D01*
X136408584Y-89295697D01*
X136338892Y-89290713D01*
X136282959Y-89248841D01*
X136281908Y-89247417D01*
X136275271Y-89238282D01*
X136275269Y-89238282D01*
X135642962Y-89870590D01*
X135625925Y-89807007D01*
X135560099Y-89692993D01*
X135467007Y-89599901D01*
X135352993Y-89534075D01*
X135289409Y-89517037D01*
X135921716Y-88884728D01*
X135917742Y-88834230D01*
X135932106Y-88765852D01*
X135981157Y-88716095D01*
X136041360Y-88700500D01*
X136732259Y-88700500D01*
X136799298Y-88720185D01*
G37*
%TD.AperFunction*%
%TD*%
M02*
