%TF.GenerationSoftware,KiCad,Pcbnew,9.0.6-9.0.6~ubuntu22.04.1*%
%TF.CreationDate,2026-03-21T15:17:45-07:00*%
%TF.ProjectId,pico-2v,7069636f-2d32-4762-9e6b-696361645f70,rev?*%
%TF.SameCoordinates,Original*%
%TF.FileFunction,Copper,L4,Bot*%
%TF.FilePolarity,Positive*%
%FSLAX46Y46*%
G04 Gerber Fmt 4.6, Leading zero omitted, Abs format (unit mm)*
G04 Created by KiCad (PCBNEW 9.0.6-9.0.6~ubuntu22.04.1) date 2026-03-21 15:17:45*
%MOMM*%
%LPD*%
G01*
G04 APERTURE LIST*
%TA.AperFunction,HeatsinkPad*%
%ADD10O,2.100000X1.000000*%
%TD*%
%TA.AperFunction,HeatsinkPad*%
%ADD11O,1.600000X1.000000*%
%TD*%
%TA.AperFunction,ComponentPad*%
%ADD12C,0.600000*%
%TD*%
%TA.AperFunction,ComponentPad*%
%ADD13R,1.700000X1.700000*%
%TD*%
%TA.AperFunction,ComponentPad*%
%ADD14C,1.700000*%
%TD*%
%TA.AperFunction,ViaPad*%
%ADD15C,0.450000*%
%TD*%
%TA.AperFunction,Conductor*%
%ADD16C,0.300000*%
%TD*%
G04 APERTURE END LIST*
D10*
%TO.P,J1,S1,SHIELD*%
%TO.N,GND*%
X130630000Y-94680000D03*
D11*
X126450000Y-94680000D03*
D10*
X130630000Y-103320000D03*
D11*
X126450000Y-103320000D03*
%TD*%
D12*
%TO.P,U1,61,GND*%
%TO.N,GND*%
X162075000Y-99875000D03*
X162075000Y-98500000D03*
X162075000Y-97125000D03*
X160700000Y-99875000D03*
X160700000Y-98500000D03*
X160700000Y-97125000D03*
X159325000Y-99875000D03*
X159325000Y-98500000D03*
X159325000Y-97125000D03*
%TD*%
D13*
%TO.P,J6,1,Pin_1*%
%TO.N,VDD*%
X138420000Y-95000000D03*
D14*
%TO.P,J6,2,Pin_2*%
%TO.N,QSPI_SD3*%
X140960000Y-95000000D03*
%TO.P,J6,3,Pin_3*%
%TO.N,QSPI_SCLK*%
X143500000Y-95000000D03*
%TO.P,J6,4,Pin_4*%
%TO.N,QSPI_SD0*%
X146040000Y-95000000D03*
%TD*%
D13*
%TO.P,J5,1,Pin_1*%
%TO.N,QSPI_SS*%
X138420000Y-102620000D03*
D14*
%TO.P,J5,2,Pin_2*%
%TO.N,QSPI_SD1*%
X140960000Y-102620000D03*
%TO.P,J5,3,Pin_3*%
%TO.N,QSPI_SD2*%
X143500000Y-102620000D03*
%TO.P,J5,4,Pin_4*%
%TO.N,GND*%
X146040000Y-102620000D03*
%TD*%
D13*
%TO.P,J2,1,Pin_1*%
%TO.N,+3V3*%
X165210000Y-105250000D03*
D14*
%TO.P,J2,2,Pin_2*%
%TO.N,VDD*%
X167750000Y-105250000D03*
%TO.P,J2,3,Pin_3*%
%TO.N,+1V8*%
X170290000Y-105250000D03*
%TD*%
D13*
%TO.P,J4,1,Pin_1*%
%TO.N,VBUS*%
X125000000Y-90000000D03*
D14*
%TO.P,J4,2,Pin_2*%
%TO.N,VSYS*%
X127540000Y-90000000D03*
%TO.P,J4,3,Pin_3*%
%TO.N,GND*%
X130080000Y-90000000D03*
%TO.P,J4,4,Pin_4*%
%TO.N,unconnected-(J4-Pin_4-Pad4)*%
X132620000Y-90000000D03*
%TO.P,J4,5,Pin_5*%
%TO.N,VDD*%
X135160000Y-90000000D03*
%TO.P,J4,6,Pin_6*%
%TO.N,+3V3*%
X137700000Y-90000000D03*
%TO.P,J4,7,Pin_7*%
%TO.N,GPIO28*%
X140240000Y-90000000D03*
%TO.P,J4,8,Pin_8*%
%TO.N,GND*%
X142780000Y-90000000D03*
%TO.P,J4,9,Pin_9*%
%TO.N,GPIO27*%
X145320000Y-90000000D03*
%TO.P,J4,10,Pin_10*%
%TO.N,GPIO26*%
X147860000Y-90000000D03*
%TO.P,J4,11,Pin_11*%
%TO.N,RUN*%
X150400000Y-90000000D03*
%TO.P,J4,12,Pin_12*%
%TO.N,GPIO22*%
X152940000Y-90000000D03*
%TO.P,J4,13,Pin_13*%
%TO.N,GND*%
X155480000Y-90000000D03*
%TO.P,J4,14,Pin_14*%
%TO.N,GPIO21*%
X158020000Y-90000000D03*
%TO.P,J4,15,Pin_15*%
%TO.N,GPIO20*%
X160560000Y-90000000D03*
%TO.P,J4,16,Pin_16*%
%TO.N,GPIO19*%
X163100000Y-90000000D03*
%TO.P,J4,17,Pin_17*%
%TO.N,GPIO18*%
X165640000Y-90000000D03*
%TO.P,J4,18,Pin_18*%
%TO.N,GND*%
X168180000Y-90000000D03*
%TO.P,J4,19,Pin_19*%
%TO.N,GPIO17*%
X170720000Y-90000000D03*
%TO.P,J4,20,Pin_20*%
%TO.N,GPIO16*%
X173260000Y-90000000D03*
%TD*%
D13*
%TO.P,J3,1,Pin_1*%
%TO.N,GPIO0*%
X125000000Y-107780000D03*
D14*
%TO.P,J3,2,Pin_2*%
%TO.N,GPIO1*%
X127540000Y-107780000D03*
%TO.P,J3,3,Pin_3*%
%TO.N,GND*%
X130080000Y-107780000D03*
%TO.P,J3,4,Pin_4*%
%TO.N,GPIO2*%
X132620000Y-107780000D03*
%TO.P,J3,5,Pin_5*%
%TO.N,GPIO3*%
X135160000Y-107780000D03*
%TO.P,J3,6,Pin_6*%
%TO.N,GPIO4*%
X137700000Y-107780000D03*
%TO.P,J3,7,Pin_7*%
%TO.N,GPIO5*%
X140240000Y-107780000D03*
%TO.P,J3,8,Pin_8*%
%TO.N,GND*%
X142780000Y-107780000D03*
%TO.P,J3,9,Pin_9*%
%TO.N,GPIO6*%
X145320000Y-107780000D03*
%TO.P,J3,10,Pin_10*%
%TO.N,GPIO7*%
X147860000Y-107780000D03*
%TO.P,J3,11,Pin_11*%
%TO.N,GPIO8*%
X150400000Y-107780000D03*
%TO.P,J3,12,Pin_12*%
%TO.N,GPIO9*%
X152940000Y-107780000D03*
%TO.P,J3,13,Pin_13*%
%TO.N,GND*%
X155480000Y-107780000D03*
%TO.P,J3,14,Pin_14*%
%TO.N,GPIO10*%
X158020000Y-107780000D03*
%TO.P,J3,15,Pin_15*%
%TO.N,GPIO11*%
X160560000Y-107780000D03*
%TO.P,J3,16,Pin_16*%
%TO.N,GPIO12*%
X163100000Y-107780000D03*
%TO.P,J3,17,Pin_17*%
%TO.N,GPIO13*%
X165640000Y-107780000D03*
%TO.P,J3,18,Pin_18*%
%TO.N,GND*%
X168180000Y-107780000D03*
%TO.P,J3,19,Pin_19*%
%TO.N,GPIO14*%
X170720000Y-107780000D03*
%TO.P,J3,20,Pin_20*%
%TO.N,GPIO15*%
X173260000Y-107780000D03*
%TD*%
D15*
%TO.N,+3V3*%
X168800000Y-102650000D03*
X172000000Y-102800000D03*
X140250000Y-100500000D03*
X164800000Y-93200000D03*
X141750000Y-101000000D03*
X140750000Y-101000000D03*
X160283502Y-91397250D03*
%TO.N,GND*%
X140250000Y-92250000D03*
X165480000Y-102750000D03*
X155500000Y-106100000D03*
X169550000Y-96750000D03*
X149500000Y-97750000D03*
X156800000Y-105400000D03*
X166520000Y-102750000D03*
X153750000Y-105500000D03*
X151250000Y-94750000D03*
X161098415Y-105393659D03*
X159500000Y-106067500D03*
X165500000Y-95700000D03*
X173250000Y-105000000D03*
X166250000Y-93500000D03*
X130900000Y-92000000D03*
X127500000Y-92500000D03*
X154270000Y-99750000D03*
X162300000Y-91700000D03*
X154270000Y-97500000D03*
X147000000Y-100230000D03*
X163700000Y-94100000D03*
X171750000Y-99500000D03*
X134900000Y-101700000D03*
X145000000Y-100250000D03*
X125000000Y-101500000D03*
X167000000Y-100000000D03*
X173000000Y-92250000D03*
X169550000Y-99290000D03*
X148700000Y-103250000D03*
X155020000Y-95500000D03*
%TO.N,+1V1*%
X167800000Y-98200000D03*
X153812190Y-106121901D03*
X160419000Y-105220904D03*
%TO.N,VDD*%
X171500000Y-94000000D03*
X165000000Y-94000000D03*
X158500000Y-105250000D03*
X164750000Y-102250000D03*
X157510000Y-92240000D03*
X155990000Y-95510000D03*
X140500000Y-106250000D03*
X166250000Y-100000000D03*
X165500000Y-93500000D03*
X155230000Y-99750000D03*
%TO.N,+1V8*%
X149250000Y-99462960D03*
X149250000Y-100500000D03*
X149250000Y-100000000D03*
%TO.N,RUN*%
X161750000Y-101000000D03*
%TO.N,VBUS*%
X131545000Y-96550000D03*
X135750000Y-97750000D03*
%TO.N,USB_D+*%
X160900000Y-91500000D03*
X136000000Y-98500000D03*
%TO.N,USB_D-*%
X161600000Y-91500000D03*
X133750000Y-98750000D03*
%TO.N,GPIO13*%
X157309020Y-102529510D03*
%TO.N,GPIO2*%
X158500000Y-97250000D03*
%TO.N,GPIO8*%
X154500000Y-101250000D03*
%TO.N,GPIO11*%
X156470490Y-101690980D03*
%TO.N,GPIO14*%
X158500000Y-101000000D03*
%TO.N,GPIO15*%
X159750000Y-101000000D03*
%TO.N,GPIO4*%
X158250000Y-99750000D03*
%TO.N,GPIO7*%
X153750000Y-101250000D03*
%TO.N,GPIO1*%
X153000000Y-97500000D03*
%TO.N,GPIO10*%
X156000000Y-101250000D03*
%TO.N,GPIO5*%
X152631961Y-100690980D03*
%TO.N,GPIO3*%
X158500000Y-98000000D03*
%TO.N,GPIO0*%
X152250000Y-97250000D03*
%TO.N,GPIO9*%
X155250000Y-101250000D03*
%TO.N,GPIO12*%
X156750000Y-102250000D03*
%TO.N,GPIO6*%
X153190980Y-100970490D03*
%TO.N,GPIO26*%
X165250000Y-97000000D03*
%TO.N,GPIO21*%
X165400000Y-100000000D03*
%TO.N,GPIO28*%
X163000000Y-97000000D03*
%TO.N,GPIO16*%
X160500000Y-100750000D03*
%TO.N,GPIO17*%
X167250000Y-95250000D03*
X163000000Y-100750000D03*
%TO.N,GPIO20*%
X165600000Y-100600000D03*
%TO.N,GPIO27*%
X163000000Y-97625003D03*
%TO.N,GPIO19*%
X165250000Y-101500000D03*
%TO.N,GPIO22*%
X165000000Y-99250000D03*
%TO.N,GPIO18*%
X166500000Y-101750000D03*
%TO.N,SWDIO*%
X173450000Y-94210000D03*
X162000000Y-106000000D03*
%TO.N,SWCLK*%
X173450000Y-95480000D03*
X161250000Y-106000000D03*
%TO.N,QSPI_SD0*%
X158750000Y-96500000D03*
%TO.N,QSPI_SD2*%
X158190980Y-96220490D03*
%TO.N,QSPI_SD3*%
X160750000Y-96250000D03*
%TO.N,QSPI_SD1*%
X154750000Y-94000000D03*
%TO.N,QSPI_SCLK*%
X159750000Y-96250000D03*
%TO.N,GPIO25*%
X163000000Y-99200000D03*
X136187500Y-92100000D03*
%TD*%
D16*
%TO.N,+3V3*%
X141750000Y-101000000D02*
X148500000Y-101000000D01*
X151890672Y-104669904D02*
X164629904Y-104669904D01*
X164629904Y-104669904D02*
X165210000Y-105250000D01*
X149000000Y-101779232D02*
X151890672Y-104669904D01*
X172000000Y-102800000D02*
X171850000Y-102650000D01*
X171850000Y-102650000D02*
X168800000Y-102650000D01*
X148500000Y-101000000D02*
X149000000Y-101500000D01*
X149000000Y-101500000D02*
X149000000Y-101779232D01*
%TO.N,VDD*%
X155990000Y-95510000D02*
X157510000Y-93990000D01*
X157510000Y-93990000D02*
X157510000Y-92240000D01*
%TO.N,+1V8*%
X149279232Y-100500000D02*
X152879000Y-104099768D01*
X149250000Y-100500000D02*
X149279232Y-100500000D01*
X149250000Y-99462960D02*
X149250000Y-100500000D01*
X169169000Y-104129000D02*
X152879000Y-104129000D01*
X152879000Y-104099768D02*
X152879000Y-104129000D01*
X170290000Y-105250000D02*
X169169000Y-104129000D01*
%TO.N,VBUS*%
X134550000Y-96550000D02*
X131545000Y-96550000D01*
X135750000Y-97750000D02*
X134550000Y-96550000D01*
%TO.N,USB_D+*%
X136324231Y-98923462D02*
X136324231Y-98824231D01*
X161024999Y-91906803D02*
X156656802Y-96275000D01*
X160900000Y-91500000D02*
X161024999Y-91624999D01*
X161024999Y-91624999D02*
X161024999Y-91906803D01*
X147406802Y-96275000D02*
X144758340Y-98923462D01*
X156656802Y-96275000D02*
X155156802Y-96275000D01*
X155156802Y-96275000D02*
X147406802Y-96275000D01*
X136324231Y-98824231D02*
X136000000Y-98500000D01*
X144758340Y-98923462D02*
X136324231Y-98923462D01*
%TO.N,USB_D-*%
X161475001Y-92093197D02*
X161475001Y-91624999D01*
X134373462Y-99373462D02*
X144944736Y-99373462D01*
X161475001Y-91624999D02*
X161600000Y-91500000D01*
X156869198Y-96699000D02*
X161475001Y-92093197D01*
X133750000Y-98750000D02*
X134373462Y-99373462D01*
X147619198Y-96699000D02*
X156869198Y-96699000D01*
X144944736Y-99373462D02*
X147619198Y-96699000D01*
%TO.N,GPIO17*%
X163000000Y-100750000D02*
X163000000Y-100470768D01*
X167250000Y-96220768D02*
X167250000Y-95250000D01*
X163000000Y-100470768D02*
X167250000Y-96220768D01*
%TO.N,SWDIO*%
X174250000Y-95010000D02*
X174250000Y-105659000D01*
X174250000Y-105659000D02*
X173409000Y-106500000D01*
X173409000Y-106500000D02*
X162500000Y-106500000D01*
X162500000Y-106500000D02*
X162000000Y-106000000D01*
X173450000Y-94210000D02*
X174250000Y-95010000D01*
%TD*%
%TA.AperFunction,Conductor*%
%TO.N,GND*%
G36*
X129265678Y-88720185D02*
G01*
X129311433Y-88772989D01*
X129322257Y-88834230D01*
X129318282Y-88884728D01*
X129950591Y-89517037D01*
X129887007Y-89534075D01*
X129772993Y-89599901D01*
X129679901Y-89692993D01*
X129614075Y-89807007D01*
X129597037Y-89870591D01*
X128964728Y-89238282D01*
X128964727Y-89238282D01*
X128925380Y-89292439D01*
X128828904Y-89481782D01*
X128763242Y-89683869D01*
X128763242Y-89683872D01*
X128740383Y-89828196D01*
X128710454Y-89891331D01*
X128651142Y-89928262D01*
X128581279Y-89927264D01*
X128523047Y-89888654D01*
X128496293Y-89832989D01*
X128473205Y-89716923D01*
X128473205Y-89716921D01*
X128473204Y-89716916D01*
X128444015Y-89646446D01*
X128400048Y-89540299D01*
X128293835Y-89381339D01*
X128158660Y-89246164D01*
X127999700Y-89139951D01*
X127823088Y-89066797D01*
X127823078Y-89066794D01*
X127635588Y-89029500D01*
X127635586Y-89029500D01*
X127444414Y-89029500D01*
X127444412Y-89029500D01*
X127256921Y-89066794D01*
X127256911Y-89066797D01*
X127080299Y-89139951D01*
X126921339Y-89246164D01*
X126786164Y-89381339D01*
X126679951Y-89540299D01*
X126606797Y-89716911D01*
X126606794Y-89716921D01*
X126569500Y-89904411D01*
X126569500Y-89904414D01*
X126569500Y-90095586D01*
X126569500Y-90095588D01*
X126569499Y-90095588D01*
X126606794Y-90283078D01*
X126606797Y-90283088D01*
X126679951Y-90459700D01*
X126786164Y-90618660D01*
X126921339Y-90753835D01*
X127080299Y-90860048D01*
X127256911Y-90933202D01*
X127256916Y-90933204D01*
X127256920Y-90933204D01*
X127256921Y-90933205D01*
X127444411Y-90970500D01*
X127444414Y-90970500D01*
X127635588Y-90970500D01*
X127635589Y-90970499D01*
X127676039Y-90962453D01*
X127756771Y-90946395D01*
X127756776Y-90946394D01*
X127804629Y-90936875D01*
X127823084Y-90933204D01*
X127911394Y-90896625D01*
X127999700Y-90860048D01*
X127999701Y-90860047D01*
X127999704Y-90860046D01*
X128158658Y-90753837D01*
X128293837Y-90618658D01*
X128400046Y-90459704D01*
X128473204Y-90283084D01*
X128495339Y-90171804D01*
X128496293Y-90167010D01*
X128528678Y-90105099D01*
X128589393Y-90070525D01*
X128659163Y-90074264D01*
X128715835Y-90115131D01*
X128740383Y-90171803D01*
X128763242Y-90316127D01*
X128763242Y-90316130D01*
X128828904Y-90518217D01*
X128925375Y-90707550D01*
X128964728Y-90761716D01*
X129597037Y-90129408D01*
X129614075Y-90192993D01*
X129679901Y-90307007D01*
X129772993Y-90400099D01*
X129887007Y-90465925D01*
X129950590Y-90482962D01*
X129318282Y-91115269D01*
X129318282Y-91115270D01*
X129372449Y-91154624D01*
X129561782Y-91251095D01*
X129763870Y-91316757D01*
X129973754Y-91350000D01*
X130186246Y-91350000D01*
X130396127Y-91316757D01*
X130396130Y-91316757D01*
X130598217Y-91251095D01*
X130787554Y-91154622D01*
X130841716Y-91115270D01*
X130841717Y-91115270D01*
X130209408Y-90482962D01*
X130272993Y-90465925D01*
X130387007Y-90400099D01*
X130480099Y-90307007D01*
X130545925Y-90192993D01*
X130562962Y-90129408D01*
X131195270Y-90761717D01*
X131195270Y-90761716D01*
X131234622Y-90707554D01*
X131331095Y-90518217D01*
X131396757Y-90316130D01*
X131396758Y-90316125D01*
X131419616Y-90171804D01*
X131449545Y-90108669D01*
X131508856Y-90071737D01*
X131578719Y-90072735D01*
X131636952Y-90111344D01*
X131663706Y-90167009D01*
X131686794Y-90283078D01*
X131686797Y-90283088D01*
X131759951Y-90459700D01*
X131866164Y-90618660D01*
X132001339Y-90753835D01*
X132160299Y-90860048D01*
X132336911Y-90933202D01*
X132336916Y-90933204D01*
X132336920Y-90933204D01*
X132336921Y-90933205D01*
X132524411Y-90970500D01*
X132524414Y-90970500D01*
X132715588Y-90970500D01*
X132857361Y-90942299D01*
X132903084Y-90933204D01*
X132991394Y-90896625D01*
X133079700Y-90860048D01*
X133079701Y-90860047D01*
X133079704Y-90860046D01*
X133238658Y-90753837D01*
X133373837Y-90618658D01*
X133480046Y-90459704D01*
X133553204Y-90283084D01*
X133575339Y-90171804D01*
X133590500Y-90095588D01*
X134189499Y-90095588D01*
X134226794Y-90283078D01*
X134226797Y-90283088D01*
X134299951Y-90459700D01*
X134406164Y-90618660D01*
X134541339Y-90753835D01*
X134700299Y-90860048D01*
X134876911Y-90933202D01*
X134876916Y-90933204D01*
X134876920Y-90933204D01*
X134876921Y-90933205D01*
X135064411Y-90970500D01*
X135064414Y-90970500D01*
X135255588Y-90970500D01*
X135397361Y-90942299D01*
X135443084Y-90933204D01*
X135531394Y-90896625D01*
X135619700Y-90860048D01*
X135619701Y-90860047D01*
X135619704Y-90860046D01*
X135778658Y-90753837D01*
X135913837Y-90618658D01*
X136020046Y-90459704D01*
X136093204Y-90283084D01*
X136115339Y-90171804D01*
X136130500Y-90095588D01*
X136729499Y-90095588D01*
X136766794Y-90283078D01*
X136766797Y-90283088D01*
X136839951Y-90459700D01*
X136946164Y-90618660D01*
X137081339Y-90753835D01*
X137240299Y-90860048D01*
X137416911Y-90933202D01*
X137416916Y-90933204D01*
X137416920Y-90933204D01*
X137416921Y-90933205D01*
X137604411Y-90970500D01*
X137604414Y-90970500D01*
X137795588Y-90970500D01*
X137937361Y-90942299D01*
X137983084Y-90933204D01*
X138071394Y-90896625D01*
X138159700Y-90860048D01*
X138159701Y-90860047D01*
X138159704Y-90860046D01*
X138318658Y-90753837D01*
X138453837Y-90618658D01*
X138560046Y-90459704D01*
X138633204Y-90283084D01*
X138655339Y-90171804D01*
X138670500Y-90095588D01*
X138670500Y-89904411D01*
X138633205Y-89716921D01*
X138633204Y-89716920D01*
X138633204Y-89716916D01*
X138604015Y-89646446D01*
X138560048Y-89540299D01*
X138453835Y-89381339D01*
X138318660Y-89246164D01*
X138159700Y-89139951D01*
X137983088Y-89066797D01*
X137983078Y-89066794D01*
X137795588Y-89029500D01*
X137795586Y-89029500D01*
X137604414Y-89029500D01*
X137604412Y-89029500D01*
X137416921Y-89066794D01*
X137416911Y-89066797D01*
X137240299Y-89139951D01*
X137081339Y-89246164D01*
X136946164Y-89381339D01*
X136839951Y-89540299D01*
X136766797Y-89716911D01*
X136766794Y-89716921D01*
X136729500Y-89904411D01*
X136729500Y-89904414D01*
X136729500Y-90095586D01*
X136729500Y-90095588D01*
X136729499Y-90095588D01*
X136130500Y-90095588D01*
X136130500Y-89904411D01*
X136093205Y-89716921D01*
X136093204Y-89716920D01*
X136093204Y-89716916D01*
X136064015Y-89646446D01*
X136020048Y-89540299D01*
X135913835Y-89381339D01*
X135778660Y-89246164D01*
X135619700Y-89139951D01*
X135443088Y-89066797D01*
X135443078Y-89066794D01*
X135255588Y-89029500D01*
X135255586Y-89029500D01*
X135064414Y-89029500D01*
X135064412Y-89029500D01*
X134876921Y-89066794D01*
X134876911Y-89066797D01*
X134700299Y-89139951D01*
X134541339Y-89246164D01*
X134406164Y-89381339D01*
X134299951Y-89540299D01*
X134226797Y-89716911D01*
X134226794Y-89716921D01*
X134189500Y-89904411D01*
X134189500Y-89904414D01*
X134189500Y-90095586D01*
X134189500Y-90095588D01*
X134189499Y-90095588D01*
X133590500Y-90095588D01*
X133590500Y-89904411D01*
X133553205Y-89716921D01*
X133553204Y-89716920D01*
X133553204Y-89716916D01*
X133524015Y-89646446D01*
X133480048Y-89540299D01*
X133373835Y-89381339D01*
X133238660Y-89246164D01*
X133079700Y-89139951D01*
X132903088Y-89066797D01*
X132903078Y-89066794D01*
X132715588Y-89029500D01*
X132715586Y-89029500D01*
X132524414Y-89029500D01*
X132524412Y-89029500D01*
X132336921Y-89066794D01*
X132336911Y-89066797D01*
X132160299Y-89139951D01*
X132001339Y-89246164D01*
X131866164Y-89381339D01*
X131759951Y-89540299D01*
X131686797Y-89716911D01*
X131686794Y-89716921D01*
X131663706Y-89832990D01*
X131631321Y-89894901D01*
X131570605Y-89929475D01*
X131500835Y-89925734D01*
X131444163Y-89884868D01*
X131419616Y-89828195D01*
X131396758Y-89683874D01*
X131396757Y-89683869D01*
X131331095Y-89481782D01*
X131234624Y-89292449D01*
X131195270Y-89238282D01*
X131195269Y-89238282D01*
X130562962Y-89870590D01*
X130545925Y-89807007D01*
X130480099Y-89692993D01*
X130387007Y-89599901D01*
X130272993Y-89534075D01*
X130209409Y-89517037D01*
X130841716Y-88884728D01*
X130837742Y-88834230D01*
X130852106Y-88765852D01*
X130901157Y-88716095D01*
X130961360Y-88700500D01*
X141898639Y-88700500D01*
X141965678Y-88720185D01*
X142011433Y-88772989D01*
X142022257Y-88834230D01*
X142018282Y-88884728D01*
X142650591Y-89517037D01*
X142587007Y-89534075D01*
X142472993Y-89599901D01*
X142379901Y-89692993D01*
X142314075Y-89807007D01*
X142297037Y-89870591D01*
X141664728Y-89238282D01*
X141664727Y-89238282D01*
X141625380Y-89292439D01*
X141528904Y-89481782D01*
X141463242Y-89683869D01*
X141463242Y-89683872D01*
X141440383Y-89828196D01*
X141410454Y-89891331D01*
X141351142Y-89928262D01*
X141281279Y-89927264D01*
X141223047Y-89888654D01*
X141196293Y-89832989D01*
X141173205Y-89716923D01*
X141173205Y-89716921D01*
X141173204Y-89716916D01*
X141144015Y-89646446D01*
X141100048Y-89540299D01*
X140993835Y-89381339D01*
X140858660Y-89246164D01*
X140699700Y-89139951D01*
X140523088Y-89066797D01*
X140523078Y-89066794D01*
X140335588Y-89029500D01*
X140335586Y-89029500D01*
X140144414Y-89029500D01*
X140144412Y-89029500D01*
X139956921Y-89066794D01*
X139956911Y-89066797D01*
X139780299Y-89139951D01*
X139621339Y-89246164D01*
X139486164Y-89381339D01*
X139379951Y-89540299D01*
X139306797Y-89716911D01*
X139306794Y-89716921D01*
X139269500Y-89904411D01*
X139269500Y-89904414D01*
X139269500Y-90095586D01*
X139269500Y-90095588D01*
X139269499Y-90095588D01*
X139306794Y-90283078D01*
X139306797Y-90283088D01*
X139379951Y-90459700D01*
X139486164Y-90618660D01*
X139621339Y-90753835D01*
X139780299Y-90860048D01*
X139956911Y-90933202D01*
X139956916Y-90933204D01*
X139956920Y-90933204D01*
X139956921Y-90933205D01*
X140144411Y-90970500D01*
X140144414Y-90970500D01*
X140335588Y-90970500D01*
X140335589Y-90970499D01*
X140376039Y-90962453D01*
X140456771Y-90946395D01*
X140456776Y-90946394D01*
X140504629Y-90936875D01*
X140523084Y-90933204D01*
X140611394Y-90896625D01*
X140699700Y-90860048D01*
X140699701Y-90860047D01*
X140699704Y-90860046D01*
X140858658Y-90753837D01*
X140993837Y-90618658D01*
X141100046Y-90459704D01*
X141173204Y-90283084D01*
X141195339Y-90171804D01*
X141196293Y-90167010D01*
X141228678Y-90105099D01*
X141289393Y-90070525D01*
X141359163Y-90074264D01*
X141415835Y-90115131D01*
X141440383Y-90171803D01*
X141463242Y-90316127D01*
X141463242Y-90316130D01*
X141528904Y-90518217D01*
X141625375Y-90707550D01*
X141664728Y-90761716D01*
X142297037Y-90129408D01*
X142314075Y-90192993D01*
X142379901Y-90307007D01*
X142472993Y-90400099D01*
X142587007Y-90465925D01*
X142650590Y-90482962D01*
X142018282Y-91115269D01*
X142018282Y-91115270D01*
X142072449Y-91154624D01*
X142261782Y-91251095D01*
X142463870Y-91316757D01*
X142673754Y-91350000D01*
X142886246Y-91350000D01*
X143096127Y-91316757D01*
X143096130Y-91316757D01*
X143298217Y-91251095D01*
X143487554Y-91154622D01*
X143541716Y-91115270D01*
X143541717Y-91115270D01*
X142909408Y-90482962D01*
X142972993Y-90465925D01*
X143087007Y-90400099D01*
X143180099Y-90307007D01*
X143245925Y-90192993D01*
X143262962Y-90129408D01*
X143895270Y-90761717D01*
X143895270Y-90761716D01*
X143934622Y-90707554D01*
X144031095Y-90518217D01*
X144096757Y-90316130D01*
X144096758Y-90316125D01*
X144119616Y-90171804D01*
X144149545Y-90108669D01*
X144208856Y-90071737D01*
X144278719Y-90072735D01*
X144336952Y-90111344D01*
X144363706Y-90167009D01*
X144386794Y-90283078D01*
X144386797Y-90283088D01*
X144459951Y-90459700D01*
X144566164Y-90618660D01*
X144701339Y-90753835D01*
X144860299Y-90860048D01*
X145036911Y-90933202D01*
X145036916Y-90933204D01*
X145036920Y-90933204D01*
X145036921Y-90933205D01*
X145224411Y-90970500D01*
X145224414Y-90970500D01*
X145415588Y-90970500D01*
X145557361Y-90942299D01*
X145603084Y-90933204D01*
X145691394Y-90896625D01*
X145779700Y-90860048D01*
X145779701Y-90860047D01*
X145779704Y-90860046D01*
X145938658Y-90753837D01*
X146073837Y-90618658D01*
X146180046Y-90459704D01*
X146253204Y-90283084D01*
X146275339Y-90171804D01*
X146290500Y-90095588D01*
X146889499Y-90095588D01*
X146926794Y-90283078D01*
X146926797Y-90283088D01*
X146999951Y-90459700D01*
X147106164Y-90618660D01*
X147241339Y-90753835D01*
X147400299Y-90860048D01*
X147576911Y-90933202D01*
X147576916Y-90933204D01*
X147576920Y-90933204D01*
X147576921Y-90933205D01*
X147764411Y-90970500D01*
X147764414Y-90970500D01*
X147955588Y-90970500D01*
X148097361Y-90942299D01*
X148143084Y-90933204D01*
X148231394Y-90896625D01*
X148319700Y-90860048D01*
X148319701Y-90860047D01*
X148319704Y-90860046D01*
X148478658Y-90753837D01*
X148613837Y-90618658D01*
X148720046Y-90459704D01*
X148793204Y-90283084D01*
X148815339Y-90171804D01*
X148830500Y-90095588D01*
X149429499Y-90095588D01*
X149466794Y-90283078D01*
X149466797Y-90283088D01*
X149539951Y-90459700D01*
X149646164Y-90618660D01*
X149781339Y-90753835D01*
X149940299Y-90860048D01*
X150116911Y-90933202D01*
X150116916Y-90933204D01*
X150116920Y-90933204D01*
X150116921Y-90933205D01*
X150304411Y-90970500D01*
X150304414Y-90970500D01*
X150495588Y-90970500D01*
X150637361Y-90942299D01*
X150683084Y-90933204D01*
X150771394Y-90896625D01*
X150859700Y-90860048D01*
X150859701Y-90860047D01*
X150859704Y-90860046D01*
X151018658Y-90753837D01*
X151153837Y-90618658D01*
X151260046Y-90459704D01*
X151333204Y-90283084D01*
X151355339Y-90171804D01*
X151370500Y-90095588D01*
X151370500Y-89904411D01*
X151333205Y-89716921D01*
X151333204Y-89716920D01*
X151333204Y-89716916D01*
X151304015Y-89646446D01*
X151260048Y-89540299D01*
X151153835Y-89381339D01*
X151018660Y-89246164D01*
X150859700Y-89139951D01*
X150683088Y-89066797D01*
X150683078Y-89066794D01*
X150495588Y-89029500D01*
X150495586Y-89029500D01*
X150304414Y-89029500D01*
X150304412Y-89029500D01*
X150116921Y-89066794D01*
X150116911Y-89066797D01*
X149940299Y-89139951D01*
X149781339Y-89246164D01*
X149646164Y-89381339D01*
X149539951Y-89540299D01*
X149466797Y-89716911D01*
X149466794Y-89716921D01*
X149429500Y-89904411D01*
X149429500Y-89904414D01*
X149429500Y-90095586D01*
X149429500Y-90095588D01*
X149429499Y-90095588D01*
X148830500Y-90095588D01*
X148830500Y-89904411D01*
X148793205Y-89716921D01*
X148793204Y-89716920D01*
X148793204Y-89716916D01*
X148764015Y-89646446D01*
X148720048Y-89540299D01*
X148613835Y-89381339D01*
X148478660Y-89246164D01*
X148319700Y-89139951D01*
X148143088Y-89066797D01*
X148143078Y-89066794D01*
X147955588Y-89029500D01*
X147955586Y-89029500D01*
X147764414Y-89029500D01*
X147764412Y-89029500D01*
X147576921Y-89066794D01*
X147576911Y-89066797D01*
X147400299Y-89139951D01*
X147241339Y-89246164D01*
X147106164Y-89381339D01*
X146999951Y-89540299D01*
X146926797Y-89716911D01*
X146926794Y-89716921D01*
X146889500Y-89904411D01*
X146889500Y-89904414D01*
X146889500Y-90095586D01*
X146889500Y-90095588D01*
X146889499Y-90095588D01*
X146290500Y-90095588D01*
X146290500Y-89904411D01*
X146253205Y-89716921D01*
X146253204Y-89716920D01*
X146253204Y-89716916D01*
X146224015Y-89646446D01*
X146180048Y-89540299D01*
X146073835Y-89381339D01*
X145938660Y-89246164D01*
X145779700Y-89139951D01*
X145603088Y-89066797D01*
X145603078Y-89066794D01*
X145415588Y-89029500D01*
X145415586Y-89029500D01*
X145224414Y-89029500D01*
X145224412Y-89029500D01*
X145036921Y-89066794D01*
X145036911Y-89066797D01*
X144860299Y-89139951D01*
X144701339Y-89246164D01*
X144566164Y-89381339D01*
X144459951Y-89540299D01*
X144386797Y-89716911D01*
X144386794Y-89716921D01*
X144363706Y-89832990D01*
X144331321Y-89894901D01*
X144270605Y-89929475D01*
X144200835Y-89925734D01*
X144144163Y-89884868D01*
X144119616Y-89828195D01*
X144096758Y-89683874D01*
X144096757Y-89683869D01*
X144031095Y-89481782D01*
X143934624Y-89292449D01*
X143895270Y-89238282D01*
X143895269Y-89238282D01*
X143262962Y-89870590D01*
X143245925Y-89807007D01*
X143180099Y-89692993D01*
X143087007Y-89599901D01*
X142972993Y-89534075D01*
X142909409Y-89517037D01*
X143541716Y-88884728D01*
X143537742Y-88834230D01*
X143552106Y-88765852D01*
X143601157Y-88716095D01*
X143661360Y-88700500D01*
X154598639Y-88700500D01*
X154665678Y-88720185D01*
X154711433Y-88772989D01*
X154722257Y-88834230D01*
X154718282Y-88884728D01*
X155350591Y-89517037D01*
X155287007Y-89534075D01*
X155172993Y-89599901D01*
X155079901Y-89692993D01*
X155014075Y-89807007D01*
X154997037Y-89870591D01*
X154364728Y-89238282D01*
X154364727Y-89238282D01*
X154325380Y-89292439D01*
X154228904Y-89481782D01*
X154163242Y-89683869D01*
X154163242Y-89683872D01*
X154140383Y-89828196D01*
X154110454Y-89891331D01*
X154051142Y-89928262D01*
X153981279Y-89927264D01*
X153923047Y-89888654D01*
X153896293Y-89832989D01*
X153873205Y-89716923D01*
X153873205Y-89716921D01*
X153873204Y-89716916D01*
X153844015Y-89646446D01*
X153800048Y-89540299D01*
X153693835Y-89381339D01*
X153558660Y-89246164D01*
X153399700Y-89139951D01*
X153223088Y-89066797D01*
X153223078Y-89066794D01*
X153035588Y-89029500D01*
X153035586Y-89029500D01*
X152844414Y-89029500D01*
X152844412Y-89029500D01*
X152656921Y-89066794D01*
X152656911Y-89066797D01*
X152480299Y-89139951D01*
X152321339Y-89246164D01*
X152186164Y-89381339D01*
X152079951Y-89540299D01*
X152006797Y-89716911D01*
X152006794Y-89716921D01*
X151969500Y-89904411D01*
X151969500Y-89904414D01*
X151969500Y-90095586D01*
X151969500Y-90095588D01*
X151969499Y-90095588D01*
X152006794Y-90283078D01*
X152006797Y-90283088D01*
X152079951Y-90459700D01*
X152186164Y-90618660D01*
X152321339Y-90753835D01*
X152480299Y-90860048D01*
X152656911Y-90933202D01*
X152656916Y-90933204D01*
X152656920Y-90933204D01*
X152656921Y-90933205D01*
X152844411Y-90970500D01*
X152844414Y-90970500D01*
X153035588Y-90970500D01*
X153035589Y-90970499D01*
X153076039Y-90962453D01*
X153156771Y-90946395D01*
X153156776Y-90946394D01*
X153204629Y-90936875D01*
X153223084Y-90933204D01*
X153311394Y-90896625D01*
X153399700Y-90860048D01*
X153399701Y-90860047D01*
X153399704Y-90860046D01*
X153558658Y-90753837D01*
X153693837Y-90618658D01*
X153800046Y-90459704D01*
X153873204Y-90283084D01*
X153895339Y-90171804D01*
X153896293Y-90167010D01*
X153928678Y-90105099D01*
X153989393Y-90070525D01*
X154059163Y-90074264D01*
X154115835Y-90115131D01*
X154140383Y-90171803D01*
X154163242Y-90316127D01*
X154163242Y-90316130D01*
X154228904Y-90518217D01*
X154325375Y-90707550D01*
X154364728Y-90761716D01*
X154997037Y-90129408D01*
X155014075Y-90192993D01*
X155079901Y-90307007D01*
X155172993Y-90400099D01*
X155287007Y-90465925D01*
X155350590Y-90482962D01*
X154718282Y-91115269D01*
X154718282Y-91115270D01*
X154772449Y-91154624D01*
X154961782Y-91251095D01*
X155163870Y-91316757D01*
X155373754Y-91350000D01*
X155586246Y-91350000D01*
X155796127Y-91316757D01*
X155796130Y-91316757D01*
X155998217Y-91251095D01*
X156187554Y-91154622D01*
X156241716Y-91115270D01*
X156241717Y-91115270D01*
X155609408Y-90482962D01*
X155672993Y-90465925D01*
X155787007Y-90400099D01*
X155880099Y-90307007D01*
X155945925Y-90192993D01*
X155962962Y-90129408D01*
X156595270Y-90761717D01*
X156595270Y-90761716D01*
X156634622Y-90707554D01*
X156731095Y-90518217D01*
X156796757Y-90316130D01*
X156796758Y-90316125D01*
X156819616Y-90171804D01*
X156849545Y-90108669D01*
X156908856Y-90071737D01*
X156978719Y-90072735D01*
X157036952Y-90111344D01*
X157063706Y-90167009D01*
X157086794Y-90283078D01*
X157086797Y-90283088D01*
X157159951Y-90459700D01*
X157266164Y-90618660D01*
X157401339Y-90753835D01*
X157560299Y-90860048D01*
X157736911Y-90933202D01*
X157736916Y-90933204D01*
X157736920Y-90933204D01*
X157736921Y-90933205D01*
X157924411Y-90970500D01*
X157924414Y-90970500D01*
X158115588Y-90970500D01*
X158257361Y-90942299D01*
X158303084Y-90933204D01*
X158391394Y-90896625D01*
X158479700Y-90860048D01*
X158479701Y-90860047D01*
X158479704Y-90860046D01*
X158638658Y-90753837D01*
X158773837Y-90618658D01*
X158880046Y-90459704D01*
X158953204Y-90283084D01*
X158975339Y-90171804D01*
X158990500Y-90095588D01*
X158990500Y-89904411D01*
X158953205Y-89716921D01*
X158953204Y-89716920D01*
X158953204Y-89716916D01*
X158924015Y-89646446D01*
X158880048Y-89540299D01*
X158773835Y-89381339D01*
X158638660Y-89246164D01*
X158479700Y-89139951D01*
X158303088Y-89066797D01*
X158303078Y-89066794D01*
X158115588Y-89029500D01*
X158115586Y-89029500D01*
X157924414Y-89029500D01*
X157924412Y-89029500D01*
X157736921Y-89066794D01*
X157736911Y-89066797D01*
X157560299Y-89139951D01*
X157401339Y-89246164D01*
X157266164Y-89381339D01*
X157159951Y-89540299D01*
X157086797Y-89716911D01*
X157086794Y-89716921D01*
X157063706Y-89832990D01*
X157031321Y-89894901D01*
X156970605Y-89929475D01*
X156900835Y-89925734D01*
X156844163Y-89884868D01*
X156819616Y-89828195D01*
X156796758Y-89683874D01*
X156796757Y-89683869D01*
X156731095Y-89481782D01*
X156634624Y-89292449D01*
X156595270Y-89238282D01*
X155962962Y-89870590D01*
X155945925Y-89807007D01*
X155880099Y-89692993D01*
X155787007Y-89599901D01*
X155672993Y-89534075D01*
X155609409Y-89517037D01*
X156241716Y-88884728D01*
X156237742Y-88834230D01*
X156252106Y-88765852D01*
X156301157Y-88716095D01*
X156361360Y-88700500D01*
X167298639Y-88700500D01*
X167365678Y-88720185D01*
X167411433Y-88772989D01*
X167422257Y-88834230D01*
X167418282Y-88884728D01*
X168050591Y-89517037D01*
X167987007Y-89534075D01*
X167872993Y-89599901D01*
X167779901Y-89692993D01*
X167714075Y-89807007D01*
X167697037Y-89870591D01*
X167064728Y-89238282D01*
X167064727Y-89238282D01*
X167025380Y-89292439D01*
X166928904Y-89481782D01*
X166863242Y-89683869D01*
X166863242Y-89683872D01*
X166840383Y-89828196D01*
X166810454Y-89891331D01*
X166751142Y-89928262D01*
X166681279Y-89927264D01*
X166623047Y-89888654D01*
X166596293Y-89832989D01*
X166573205Y-89716923D01*
X166573205Y-89716921D01*
X166573204Y-89716916D01*
X166544015Y-89646446D01*
X166500048Y-89540299D01*
X166393835Y-89381339D01*
X166258660Y-89246164D01*
X166099700Y-89139951D01*
X165923088Y-89066797D01*
X165923078Y-89066794D01*
X165735588Y-89029500D01*
X165735586Y-89029500D01*
X165544414Y-89029500D01*
X165544412Y-89029500D01*
X165356921Y-89066794D01*
X165356911Y-89066797D01*
X165180299Y-89139951D01*
X165021339Y-89246164D01*
X164886164Y-89381339D01*
X164779951Y-89540299D01*
X164706797Y-89716911D01*
X164706794Y-89716921D01*
X164669500Y-89904411D01*
X164669500Y-89904414D01*
X164669500Y-90095586D01*
X164669500Y-90095588D01*
X164669499Y-90095588D01*
X164706794Y-90283078D01*
X164706797Y-90283088D01*
X164779951Y-90459700D01*
X164886164Y-90618660D01*
X165021339Y-90753835D01*
X165180299Y-90860048D01*
X165356911Y-90933202D01*
X165356916Y-90933204D01*
X165356920Y-90933204D01*
X165356921Y-90933205D01*
X165544411Y-90970500D01*
X165544414Y-90970500D01*
X165735588Y-90970500D01*
X165735589Y-90970499D01*
X165776039Y-90962453D01*
X165856771Y-90946395D01*
X165856776Y-90946394D01*
X165904629Y-90936875D01*
X165923084Y-90933204D01*
X166011394Y-90896625D01*
X166099700Y-90860048D01*
X166099701Y-90860047D01*
X166099704Y-90860046D01*
X166258658Y-90753837D01*
X166393837Y-90618658D01*
X166500046Y-90459704D01*
X166573204Y-90283084D01*
X166595339Y-90171804D01*
X166596293Y-90167010D01*
X166628678Y-90105099D01*
X166689393Y-90070525D01*
X166759163Y-90074264D01*
X166815835Y-90115131D01*
X166840383Y-90171803D01*
X166863242Y-90316127D01*
X166863242Y-90316130D01*
X166928904Y-90518217D01*
X167025375Y-90707550D01*
X167064728Y-90761716D01*
X167697037Y-90129408D01*
X167714075Y-90192993D01*
X167779901Y-90307007D01*
X167872993Y-90400099D01*
X167987007Y-90465925D01*
X168050590Y-90482962D01*
X167418282Y-91115269D01*
X167418282Y-91115270D01*
X167472449Y-91154624D01*
X167661782Y-91251095D01*
X167863870Y-91316757D01*
X168073754Y-91350000D01*
X168286246Y-91350000D01*
X168496127Y-91316757D01*
X168496130Y-91316757D01*
X168698217Y-91251095D01*
X168887554Y-91154622D01*
X168941716Y-91115270D01*
X168941717Y-91115270D01*
X168309408Y-90482962D01*
X168372993Y-90465925D01*
X168487007Y-90400099D01*
X168580099Y-90307007D01*
X168645925Y-90192993D01*
X168662962Y-90129408D01*
X169295270Y-90761717D01*
X169295270Y-90761716D01*
X169334622Y-90707554D01*
X169431095Y-90518217D01*
X169496757Y-90316130D01*
X169496758Y-90316125D01*
X169519616Y-90171804D01*
X169549545Y-90108669D01*
X169608856Y-90071737D01*
X169678719Y-90072735D01*
X169736952Y-90111344D01*
X169763706Y-90167009D01*
X169786794Y-90283078D01*
X169786797Y-90283088D01*
X169859951Y-90459700D01*
X169966164Y-90618660D01*
X170101339Y-90753835D01*
X170260299Y-90860048D01*
X170436911Y-90933202D01*
X170436916Y-90933204D01*
X170436920Y-90933204D01*
X170436921Y-90933205D01*
X170624411Y-90970500D01*
X170624414Y-90970500D01*
X170815588Y-90970500D01*
X170957361Y-90942299D01*
X171003084Y-90933204D01*
X171091394Y-90896625D01*
X171179700Y-90860048D01*
X171179701Y-90860047D01*
X171179704Y-90860046D01*
X171338658Y-90753837D01*
X171473837Y-90618658D01*
X171580046Y-90459704D01*
X171653204Y-90283084D01*
X171675339Y-90171804D01*
X171690500Y-90095588D01*
X172289499Y-90095588D01*
X172326794Y-90283078D01*
X172326797Y-90283088D01*
X172399951Y-90459700D01*
X172506164Y-90618660D01*
X172641339Y-90753835D01*
X172800299Y-90860048D01*
X172976911Y-90933202D01*
X172976916Y-90933204D01*
X172976920Y-90933204D01*
X172976921Y-90933205D01*
X173164411Y-90970500D01*
X173164414Y-90970500D01*
X173355588Y-90970500D01*
X173497361Y-90942299D01*
X173543084Y-90933204D01*
X173631394Y-90896625D01*
X173719700Y-90860048D01*
X173719701Y-90860047D01*
X173719704Y-90860046D01*
X173878658Y-90753837D01*
X174013837Y-90618658D01*
X174120046Y-90459704D01*
X174193204Y-90283084D01*
X174215339Y-90171804D01*
X174230500Y-90095588D01*
X174230500Y-89904411D01*
X174193205Y-89716921D01*
X174193204Y-89716920D01*
X174193204Y-89716916D01*
X174164015Y-89646446D01*
X174120048Y-89540299D01*
X174013835Y-89381339D01*
X173878660Y-89246164D01*
X173719700Y-89139951D01*
X173543088Y-89066797D01*
X173543078Y-89066794D01*
X173355588Y-89029500D01*
X173355586Y-89029500D01*
X173164414Y-89029500D01*
X173164412Y-89029500D01*
X172976921Y-89066794D01*
X172976911Y-89066797D01*
X172800299Y-89139951D01*
X172641339Y-89246164D01*
X172506164Y-89381339D01*
X172399951Y-89540299D01*
X172326797Y-89716911D01*
X172326794Y-89716921D01*
X172289500Y-89904411D01*
X172289500Y-89904414D01*
X172289500Y-90095586D01*
X172289500Y-90095588D01*
X172289499Y-90095588D01*
X171690500Y-90095588D01*
X171690500Y-89904411D01*
X171653205Y-89716921D01*
X171653204Y-89716920D01*
X171653204Y-89716916D01*
X171624015Y-89646446D01*
X171580048Y-89540299D01*
X171473835Y-89381339D01*
X171338660Y-89246164D01*
X171179700Y-89139951D01*
X171003088Y-89066797D01*
X171003078Y-89066794D01*
X170815588Y-89029500D01*
X170815586Y-89029500D01*
X170624414Y-89029500D01*
X170624412Y-89029500D01*
X170436921Y-89066794D01*
X170436911Y-89066797D01*
X170260299Y-89139951D01*
X170101339Y-89246164D01*
X169966164Y-89381339D01*
X169859951Y-89540299D01*
X169786797Y-89716911D01*
X169786794Y-89716921D01*
X169763706Y-89832990D01*
X169731321Y-89894901D01*
X169670605Y-89929475D01*
X169600835Y-89925734D01*
X169544163Y-89884868D01*
X169519616Y-89828195D01*
X169496758Y-89683874D01*
X169496757Y-89683869D01*
X169431095Y-89481782D01*
X169334624Y-89292449D01*
X169295270Y-89238282D01*
X169295269Y-89238282D01*
X168662962Y-89870590D01*
X168645925Y-89807007D01*
X168580099Y-89692993D01*
X168487007Y-89599901D01*
X168372993Y-89534075D01*
X168309409Y-89517037D01*
X168941716Y-88884728D01*
X168937742Y-88834230D01*
X168952106Y-88765852D01*
X169001157Y-88716095D01*
X169061360Y-88700500D01*
X174675500Y-88700500D01*
X174742539Y-88720185D01*
X174788294Y-88772989D01*
X174799500Y-88824500D01*
X174799500Y-109175500D01*
X174779815Y-109242539D01*
X174727011Y-109288294D01*
X174675500Y-109299500D01*
X168655058Y-109299500D01*
X168588019Y-109279815D01*
X168542264Y-109227011D01*
X168532320Y-109157853D01*
X168561345Y-109094297D01*
X168616740Y-109057569D01*
X168698217Y-109031095D01*
X168887554Y-108934622D01*
X168941716Y-108895270D01*
X168941717Y-108895270D01*
X168309408Y-108262962D01*
X168372993Y-108245925D01*
X168487007Y-108180099D01*
X168580099Y-108087007D01*
X168645925Y-107972993D01*
X168662962Y-107909409D01*
X169295270Y-108541717D01*
X169295270Y-108541716D01*
X169334622Y-108487554D01*
X169431095Y-108298217D01*
X169496757Y-108096130D01*
X169496758Y-108096125D01*
X169519616Y-107951804D01*
X169549545Y-107888669D01*
X169608856Y-107851737D01*
X169678719Y-107852735D01*
X169736952Y-107891344D01*
X169763706Y-107947009D01*
X169786794Y-108063078D01*
X169786797Y-108063088D01*
X169859951Y-108239700D01*
X169966164Y-108398660D01*
X170101339Y-108533835D01*
X170260299Y-108640048D01*
X170436911Y-108713202D01*
X170436916Y-108713204D01*
X170436920Y-108713204D01*
X170436921Y-108713205D01*
X170624411Y-108750500D01*
X170624414Y-108750500D01*
X170815588Y-108750500D01*
X170941729Y-108725408D01*
X171003084Y-108713204D01*
X171091394Y-108676625D01*
X171179700Y-108640048D01*
X171179701Y-108640047D01*
X171179704Y-108640046D01*
X171338658Y-108533837D01*
X171473837Y-108398658D01*
X171580046Y-108239704D01*
X171653204Y-108063084D01*
X171675339Y-107951804D01*
X171690500Y-107875588D01*
X171690500Y-107684411D01*
X171653205Y-107496921D01*
X171653204Y-107496920D01*
X171653204Y-107496916D01*
X171624015Y-107426446D01*
X171580048Y-107320299D01*
X171473835Y-107161339D01*
X171338661Y-107026165D01*
X171338657Y-107026162D01*
X171295914Y-106997602D01*
X171251109Y-106943990D01*
X171242402Y-106874665D01*
X171272556Y-106811637D01*
X171331999Y-106774918D01*
X171364805Y-106770500D01*
X172615195Y-106770500D01*
X172682234Y-106790185D01*
X172727989Y-106842989D01*
X172737933Y-106912147D01*
X172708908Y-106975703D01*
X172684086Y-106997602D01*
X172641342Y-107026162D01*
X172641338Y-107026165D01*
X172506164Y-107161339D01*
X172399951Y-107320299D01*
X172326797Y-107496911D01*
X172326794Y-107496921D01*
X172289500Y-107684411D01*
X172289500Y-107684414D01*
X172289500Y-107875586D01*
X172289500Y-107875588D01*
X172289499Y-107875588D01*
X172326794Y-108063078D01*
X172326797Y-108063088D01*
X172399951Y-108239700D01*
X172506164Y-108398660D01*
X172641339Y-108533835D01*
X172800299Y-108640048D01*
X172976911Y-108713202D01*
X172976916Y-108713204D01*
X172976920Y-108713204D01*
X172976921Y-108713205D01*
X173164411Y-108750500D01*
X173164414Y-108750500D01*
X173355588Y-108750500D01*
X173481729Y-108725408D01*
X173543084Y-108713204D01*
X173631394Y-108676625D01*
X173719700Y-108640048D01*
X173719701Y-108640047D01*
X173719704Y-108640046D01*
X173878658Y-108533837D01*
X174013837Y-108398658D01*
X174120046Y-108239704D01*
X174193204Y-108063084D01*
X174215339Y-107951804D01*
X174230500Y-107875588D01*
X174230500Y-107684411D01*
X174193205Y-107496921D01*
X174193204Y-107496920D01*
X174193204Y-107496916D01*
X174164015Y-107426446D01*
X174120048Y-107320299D01*
X174013835Y-107161339D01*
X173878660Y-107026164D01*
X173719700Y-106919951D01*
X173645004Y-106889012D01*
X173590600Y-106845171D01*
X173568535Y-106778877D01*
X173585814Y-106711178D01*
X173604775Y-106686770D01*
X174040972Y-106250573D01*
X174479319Y-105812226D01*
X174508438Y-105741925D01*
X174520500Y-105712806D01*
X174520500Y-94956194D01*
X174509452Y-94929521D01*
X174508028Y-94926083D01*
X174508027Y-94926082D01*
X174479319Y-94856774D01*
X173886819Y-94264274D01*
X173853334Y-94202951D01*
X173850500Y-94176593D01*
X173850500Y-94157275D01*
X173850500Y-94157273D01*
X173823207Y-94055413D01*
X173770480Y-93964087D01*
X173695913Y-93889520D01*
X173604587Y-93836793D01*
X173502727Y-93809500D01*
X173397273Y-93809500D01*
X173295413Y-93836793D01*
X173295410Y-93836794D01*
X173204085Y-93889521D01*
X173129521Y-93964085D01*
X173076794Y-94055410D01*
X173076793Y-94055413D01*
X173049500Y-94157273D01*
X173049500Y-94262726D01*
X173076793Y-94364586D01*
X173076794Y-94364589D01*
X173081769Y-94373206D01*
X173129520Y-94455913D01*
X173204087Y-94530480D01*
X173295413Y-94583207D01*
X173397273Y-94610500D01*
X173416593Y-94610500D01*
X173483632Y-94630185D01*
X173504274Y-94646819D01*
X173789550Y-94932095D01*
X173823035Y-94993418D01*
X173818051Y-95063110D01*
X173776179Y-95119043D01*
X173710715Y-95143460D01*
X173642442Y-95128608D01*
X173639869Y-95127163D01*
X173604589Y-95106794D01*
X173604588Y-95106793D01*
X173604587Y-95106793D01*
X173502727Y-95079500D01*
X173397273Y-95079500D01*
X173295413Y-95106793D01*
X173295410Y-95106794D01*
X173204085Y-95159521D01*
X173129521Y-95234085D01*
X173076794Y-95325410D01*
X173076793Y-95325413D01*
X173049500Y-95427273D01*
X173049500Y-95532727D01*
X173072526Y-95618660D01*
X173076793Y-95634586D01*
X173076794Y-95634589D01*
X173090922Y-95659059D01*
X173129520Y-95725913D01*
X173204087Y-95800480D01*
X173295413Y-95853207D01*
X173397273Y-95880500D01*
X173397275Y-95880500D01*
X173502725Y-95880500D01*
X173502727Y-95880500D01*
X173604587Y-95853207D01*
X173695913Y-95800480D01*
X173767819Y-95728574D01*
X173829142Y-95695089D01*
X173898834Y-95700073D01*
X173954767Y-95741945D01*
X173979184Y-95807409D01*
X173979500Y-95816255D01*
X173979500Y-105495593D01*
X173959815Y-105562632D01*
X173943181Y-105583274D01*
X173333274Y-106193181D01*
X173271951Y-106226666D01*
X173245593Y-106229500D01*
X170979703Y-106229500D01*
X170912664Y-106209815D01*
X170866909Y-106157011D01*
X170856965Y-106087853D01*
X170885990Y-106024297D01*
X170904307Y-106008136D01*
X170903950Y-106007701D01*
X170908654Y-106003839D01*
X170908658Y-106003837D01*
X171043837Y-105868658D01*
X171150046Y-105709704D01*
X171223204Y-105533084D01*
X171236385Y-105466817D01*
X171260500Y-105345588D01*
X171260500Y-105154411D01*
X171223205Y-104966921D01*
X171223204Y-104966920D01*
X171223204Y-104966916D01*
X171212586Y-104941281D01*
X171150048Y-104790299D01*
X171043835Y-104631339D01*
X170908660Y-104496164D01*
X170749700Y-104389951D01*
X170573088Y-104316797D01*
X170573078Y-104316794D01*
X170385588Y-104279500D01*
X170385586Y-104279500D01*
X170194414Y-104279500D01*
X170194412Y-104279500D01*
X170006921Y-104316794D01*
X170006916Y-104316796D01*
X169894256Y-104363460D01*
X169824787Y-104370928D01*
X169762308Y-104339652D01*
X169759124Y-104336579D01*
X169322225Y-103899680D01*
X169322226Y-103899680D01*
X169296257Y-103888924D01*
X169281044Y-103882623D01*
X169222808Y-103858500D01*
X169222806Y-103858500D01*
X153071639Y-103858500D01*
X153004600Y-103838815D01*
X152983958Y-103822181D01*
X149800030Y-100638253D01*
X152231461Y-100638253D01*
X152231461Y-100743707D01*
X152252032Y-100820478D01*
X152258754Y-100845566D01*
X152258755Y-100845569D01*
X152269589Y-100864333D01*
X152311481Y-100936893D01*
X152386048Y-101011460D01*
X152477374Y-101064187D01*
X152579234Y-101091480D01*
X152579236Y-101091480D01*
X152684684Y-101091480D01*
X152684688Y-101091480D01*
X152691237Y-101089725D01*
X152761083Y-101091386D01*
X152818947Y-101130546D01*
X152830716Y-101147495D01*
X152870500Y-101216403D01*
X152945067Y-101290970D01*
X153036393Y-101343697D01*
X153138253Y-101370990D01*
X153138255Y-101370990D01*
X153243705Y-101370990D01*
X153243707Y-101370990D01*
X153250256Y-101369235D01*
X153320105Y-101370896D01*
X153377968Y-101410058D01*
X153389736Y-101427005D01*
X153429520Y-101495913D01*
X153504087Y-101570480D01*
X153595413Y-101623207D01*
X153697273Y-101650500D01*
X153697275Y-101650500D01*
X153802725Y-101650500D01*
X153802727Y-101650500D01*
X153904587Y-101623207D01*
X153995913Y-101570480D01*
X154037319Y-101529074D01*
X154098642Y-101495589D01*
X154168334Y-101500573D01*
X154212681Y-101529074D01*
X154254087Y-101570480D01*
X154345413Y-101623207D01*
X154447273Y-101650500D01*
X154447275Y-101650500D01*
X154552725Y-101650500D01*
X154552727Y-101650500D01*
X154654587Y-101623207D01*
X154745913Y-101570480D01*
X154787319Y-101529074D01*
X154848642Y-101495589D01*
X154918334Y-101500573D01*
X154962681Y-101529074D01*
X155004087Y-101570480D01*
X155095413Y-101623207D01*
X155197273Y-101650500D01*
X155197275Y-101650500D01*
X155302725Y-101650500D01*
X155302727Y-101650500D01*
X155404587Y-101623207D01*
X155495913Y-101570480D01*
X155537319Y-101529074D01*
X155598642Y-101495589D01*
X155668334Y-101500573D01*
X155712681Y-101529074D01*
X155754087Y-101570480D01*
X155845413Y-101623207D01*
X155947273Y-101650500D01*
X155947275Y-101650500D01*
X155949867Y-101650500D01*
X155951974Y-101651118D01*
X155955333Y-101651561D01*
X155955264Y-101652084D01*
X156016906Y-101670185D01*
X156062661Y-101722989D01*
X156069642Y-101742407D01*
X156069990Y-101743705D01*
X156069990Y-101743707D01*
X156097283Y-101845567D01*
X156150010Y-101936893D01*
X156224577Y-102011460D01*
X156293480Y-102051241D01*
X156341696Y-102101808D01*
X156354918Y-102170415D01*
X156351257Y-102190714D01*
X156349500Y-102197270D01*
X156349500Y-102197273D01*
X156349500Y-102302727D01*
X156376793Y-102404587D01*
X156429520Y-102495913D01*
X156504087Y-102570480D01*
X156595413Y-102623207D01*
X156697273Y-102650500D01*
X156697275Y-102650500D01*
X156802725Y-102650500D01*
X156802727Y-102650500D01*
X156809276Y-102648745D01*
X156879125Y-102650406D01*
X156936988Y-102689568D01*
X156948756Y-102706515D01*
X156988540Y-102775423D01*
X157063107Y-102849990D01*
X157154433Y-102902717D01*
X157256293Y-102930010D01*
X157256295Y-102930010D01*
X157361745Y-102930010D01*
X157361747Y-102930010D01*
X157463607Y-102902717D01*
X157554933Y-102849990D01*
X157629500Y-102775423D01*
X157682227Y-102684097D01*
X157709520Y-102582237D01*
X157709520Y-102476783D01*
X157682227Y-102374923D01*
X157629500Y-102283597D01*
X157554933Y-102209030D01*
X157488050Y-102170415D01*
X157463609Y-102156304D01*
X157463608Y-102156303D01*
X157463607Y-102156303D01*
X157361747Y-102129010D01*
X157256293Y-102129010D01*
X157256290Y-102129010D01*
X157249734Y-102130767D01*
X157179884Y-102129100D01*
X157122024Y-102089933D01*
X157110261Y-102072990D01*
X157108811Y-102070478D01*
X157070480Y-102004087D01*
X156995913Y-101929520D01*
X156927007Y-101889737D01*
X156878793Y-101839170D01*
X156865571Y-101770563D01*
X156869235Y-101750255D01*
X156870990Y-101743707D01*
X156870990Y-101638253D01*
X156843697Y-101536393D01*
X156790970Y-101445067D01*
X156716403Y-101370500D01*
X156625077Y-101317773D01*
X156523217Y-101290480D01*
X156520623Y-101290480D01*
X156518515Y-101289861D01*
X156515157Y-101289419D01*
X156515225Y-101288895D01*
X156501506Y-101284866D01*
X156481592Y-101284177D01*
X156468667Y-101275223D01*
X156453584Y-101270795D01*
X156440537Y-101255738D01*
X156424156Y-101244391D01*
X156414845Y-101226088D01*
X156407829Y-101217991D01*
X156406114Y-101214057D01*
X156400500Y-101200545D01*
X156400500Y-101197273D01*
X156373207Y-101095413D01*
X156320480Y-101004087D01*
X156263666Y-100947273D01*
X158099500Y-100947273D01*
X158099500Y-101052727D01*
X158126793Y-101154587D01*
X158179520Y-101245913D01*
X158254087Y-101320480D01*
X158345413Y-101373207D01*
X158447273Y-101400500D01*
X158447275Y-101400500D01*
X158552725Y-101400500D01*
X158552727Y-101400500D01*
X158654587Y-101373207D01*
X158745913Y-101320480D01*
X158820480Y-101245913D01*
X158873207Y-101154587D01*
X158900500Y-101052727D01*
X158900500Y-100947273D01*
X159349500Y-100947273D01*
X159349500Y-101052727D01*
X159376793Y-101154587D01*
X159429520Y-101245913D01*
X159504087Y-101320480D01*
X159595413Y-101373207D01*
X159697273Y-101400500D01*
X159697275Y-101400500D01*
X159802725Y-101400500D01*
X159802727Y-101400500D01*
X159904587Y-101373207D01*
X159995913Y-101320480D01*
X160070480Y-101245913D01*
X160123207Y-101154587D01*
X160123207Y-101154586D01*
X160127271Y-101147548D01*
X160128844Y-101148456D01*
X160166302Y-101101966D01*
X160232593Y-101079894D01*
X160299031Y-101096428D01*
X160345413Y-101123207D01*
X160447273Y-101150500D01*
X160447275Y-101150500D01*
X160552725Y-101150500D01*
X160552727Y-101150500D01*
X160654587Y-101123207D01*
X160745913Y-101070480D01*
X160820480Y-100995913D01*
X160848562Y-100947273D01*
X161349500Y-100947273D01*
X161349500Y-101052727D01*
X161376793Y-101154587D01*
X161429520Y-101245913D01*
X161504087Y-101320480D01*
X161595413Y-101373207D01*
X161697273Y-101400500D01*
X161697275Y-101400500D01*
X161802725Y-101400500D01*
X161802727Y-101400500D01*
X161904587Y-101373207D01*
X161995913Y-101320480D01*
X162070480Y-101245913D01*
X162123207Y-101154587D01*
X162150500Y-101052727D01*
X162150500Y-100947273D01*
X162123207Y-100845413D01*
X162070480Y-100754087D01*
X161995913Y-100679520D01*
X161904587Y-100626793D01*
X161802727Y-100599500D01*
X161697273Y-100599500D01*
X161595413Y-100626793D01*
X161595410Y-100626794D01*
X161504085Y-100679521D01*
X161429521Y-100754085D01*
X161376794Y-100845410D01*
X161376793Y-100845413D01*
X161349500Y-100947273D01*
X160848562Y-100947273D01*
X160873207Y-100904587D01*
X160900500Y-100802727D01*
X160900500Y-100697273D01*
X160873207Y-100595413D01*
X160820480Y-100504087D01*
X160745913Y-100429520D01*
X160654587Y-100376793D01*
X160552727Y-100349500D01*
X160447273Y-100349500D01*
X160345413Y-100376793D01*
X160345410Y-100376794D01*
X160254085Y-100429521D01*
X160179521Y-100504085D01*
X160122729Y-100602452D01*
X160121158Y-100601545D01*
X160083676Y-100648048D01*
X160017379Y-100670105D01*
X159950969Y-100653571D01*
X159904587Y-100626793D01*
X159802727Y-100599500D01*
X159697273Y-100599500D01*
X159595413Y-100626793D01*
X159595410Y-100626794D01*
X159504085Y-100679521D01*
X159429521Y-100754085D01*
X159376794Y-100845410D01*
X159376793Y-100845413D01*
X159349500Y-100947273D01*
X158900500Y-100947273D01*
X158873207Y-100845413D01*
X158820480Y-100754087D01*
X158745913Y-100679520D01*
X158654587Y-100626793D01*
X158552727Y-100599500D01*
X158447273Y-100599500D01*
X158345413Y-100626793D01*
X158345410Y-100626794D01*
X158254085Y-100679521D01*
X158179521Y-100754085D01*
X158126794Y-100845410D01*
X158126793Y-100845413D01*
X158099500Y-100947273D01*
X156263666Y-100947273D01*
X156245913Y-100929520D01*
X156172067Y-100886885D01*
X156154589Y-100876794D01*
X156154588Y-100876793D01*
X156154587Y-100876793D01*
X156052727Y-100849500D01*
X155947273Y-100849500D01*
X155845413Y-100876793D01*
X155845410Y-100876794D01*
X155754085Y-100929521D01*
X155712681Y-100970926D01*
X155651358Y-101004411D01*
X155581666Y-100999427D01*
X155537319Y-100970926D01*
X155495914Y-100929521D01*
X155495913Y-100929520D01*
X155422067Y-100886885D01*
X155404589Y-100876794D01*
X155404588Y-100876793D01*
X155404587Y-100876793D01*
X155302727Y-100849500D01*
X155197273Y-100849500D01*
X155095413Y-100876793D01*
X155095410Y-100876794D01*
X155004085Y-100929521D01*
X154962681Y-100970926D01*
X154901358Y-101004411D01*
X154831666Y-100999427D01*
X154787319Y-100970926D01*
X154745914Y-100929521D01*
X154745913Y-100929520D01*
X154672067Y-100886885D01*
X154654589Y-100876794D01*
X154654588Y-100876793D01*
X154654587Y-100876793D01*
X154552727Y-100849500D01*
X154447273Y-100849500D01*
X154345413Y-100876793D01*
X154345410Y-100876794D01*
X154254085Y-100929521D01*
X154212681Y-100970926D01*
X154151358Y-101004411D01*
X154081666Y-100999427D01*
X154037319Y-100970926D01*
X153995914Y-100929521D01*
X153995913Y-100929520D01*
X153922067Y-100886885D01*
X153904589Y-100876794D01*
X153904588Y-100876793D01*
X153904587Y-100876793D01*
X153802727Y-100849500D01*
X153697273Y-100849500D01*
X153697270Y-100849500D01*
X153690714Y-100851257D01*
X153620864Y-100849590D01*
X153563004Y-100810423D01*
X153551241Y-100793480D01*
X153511460Y-100724577D01*
X153436893Y-100650010D01*
X153345567Y-100597283D01*
X153243707Y-100569990D01*
X153138253Y-100569990D01*
X153138248Y-100569990D01*
X153131697Y-100571746D01*
X153061847Y-100570080D01*
X153003986Y-100530915D01*
X152992222Y-100513970D01*
X152978340Y-100489926D01*
X152952441Y-100445067D01*
X152877874Y-100370500D01*
X152786548Y-100317773D01*
X152684688Y-100290480D01*
X152579234Y-100290480D01*
X152477374Y-100317773D01*
X152477371Y-100317774D01*
X152386046Y-100370501D01*
X152311482Y-100445065D01*
X152258755Y-100536390D01*
X152258754Y-100536393D01*
X152231461Y-100638253D01*
X149800030Y-100638253D01*
X149686548Y-100524771D01*
X149656699Y-100476621D01*
X149650500Y-100458190D01*
X149650500Y-100447273D01*
X149623207Y-100345413D01*
X149597719Y-100301267D01*
X149593772Y-100289531D01*
X149592876Y-100266500D01*
X149587442Y-100244102D01*
X149591471Y-100230378D01*
X149591057Y-100219714D01*
X149598127Y-100207711D01*
X149603914Y-100188002D01*
X149623207Y-100154587D01*
X149650500Y-100052727D01*
X149650500Y-99947273D01*
X149623207Y-99845413D01*
X149593222Y-99793477D01*
X149590392Y-99781812D01*
X149583430Y-99772035D01*
X149582308Y-99748493D01*
X149576750Y-99725581D01*
X149580593Y-99712489D01*
X149580106Y-99702245D01*
X149582096Y-99697273D01*
X154829500Y-99697273D01*
X154829500Y-99802727D01*
X154856793Y-99904587D01*
X154909520Y-99995913D01*
X154984087Y-100070480D01*
X155075413Y-100123207D01*
X155177273Y-100150500D01*
X155177275Y-100150500D01*
X155282725Y-100150500D01*
X155282727Y-100150500D01*
X155384587Y-100123207D01*
X155475913Y-100070480D01*
X155550480Y-99995913D01*
X155603207Y-99904587D01*
X155630500Y-99802727D01*
X155630500Y-99697273D01*
X157849500Y-99697273D01*
X157849500Y-99802727D01*
X157876793Y-99904587D01*
X157929520Y-99995913D01*
X158004087Y-100070480D01*
X158095413Y-100123207D01*
X158197273Y-100150500D01*
X158197275Y-100150500D01*
X158302725Y-100150500D01*
X158302727Y-100150500D01*
X158404587Y-100123207D01*
X158495913Y-100070480D01*
X158570480Y-99995913D01*
X158623207Y-99904587D01*
X158650500Y-99802727D01*
X158650500Y-99697273D01*
X158623207Y-99595413D01*
X158570480Y-99504087D01*
X158495913Y-99429520D01*
X158404587Y-99376793D01*
X158302727Y-99349500D01*
X158197273Y-99349500D01*
X158095413Y-99376793D01*
X158095410Y-99376794D01*
X158004085Y-99429521D01*
X157929521Y-99504085D01*
X157876794Y-99595410D01*
X157876793Y-99595413D01*
X157849500Y-99697273D01*
X155630500Y-99697273D01*
X155603207Y-99595413D01*
X155550480Y-99504087D01*
X155475913Y-99429520D01*
X155384587Y-99376793D01*
X155282727Y-99349500D01*
X155177273Y-99349500D01*
X155075413Y-99376793D01*
X155075410Y-99376794D01*
X154984085Y-99429521D01*
X154909521Y-99504085D01*
X154856794Y-99595410D01*
X154856793Y-99595413D01*
X154829500Y-99697273D01*
X149582096Y-99697273D01*
X149593220Y-99669485D01*
X149623207Y-99617547D01*
X149650500Y-99515687D01*
X149650500Y-99410233D01*
X149623207Y-99308373D01*
X149570480Y-99217047D01*
X149500706Y-99147273D01*
X162599500Y-99147273D01*
X162599500Y-99252727D01*
X162614410Y-99308370D01*
X162626793Y-99354586D01*
X162626794Y-99354589D01*
X162639614Y-99376793D01*
X162679520Y-99445913D01*
X162754087Y-99520480D01*
X162845413Y-99573207D01*
X162947273Y-99600500D01*
X162947275Y-99600500D01*
X163052725Y-99600500D01*
X163052727Y-99600500D01*
X163154587Y-99573207D01*
X163191687Y-99551787D01*
X163259584Y-99535314D01*
X163325611Y-99558165D01*
X163368803Y-99613086D01*
X163375446Y-99682639D01*
X163343430Y-99744742D01*
X163341367Y-99746855D01*
X162770683Y-100317539D01*
X162770680Y-100317544D01*
X162760041Y-100343229D01*
X162760035Y-100343242D01*
X162759137Y-100345413D01*
X162729500Y-100416962D01*
X162729500Y-100425789D01*
X162722294Y-100445269D01*
X162707057Y-100465736D01*
X162695228Y-100488351D01*
X162693680Y-100489926D01*
X162679521Y-100504084D01*
X162626794Y-100595410D01*
X162626793Y-100595413D01*
X162599500Y-100697273D01*
X162599500Y-100802727D01*
X162626793Y-100904587D01*
X162679520Y-100995913D01*
X162754087Y-101070480D01*
X162845413Y-101123207D01*
X162947273Y-101150500D01*
X162947275Y-101150500D01*
X163052725Y-101150500D01*
X163052727Y-101150500D01*
X163154587Y-101123207D01*
X163245913Y-101070480D01*
X163320480Y-100995913D01*
X163373207Y-100904587D01*
X163400500Y-100802727D01*
X163400500Y-100697273D01*
X163373207Y-100595413D01*
X163373204Y-100595408D01*
X163371138Y-100590417D01*
X163363673Y-100520947D01*
X163394952Y-100458470D01*
X163397991Y-100455320D01*
X164447348Y-99405963D01*
X164508670Y-99372480D01*
X164578362Y-99377464D01*
X164634295Y-99419336D01*
X164642414Y-99431645D01*
X164679520Y-99495913D01*
X164754087Y-99570480D01*
X164845413Y-99623207D01*
X164947273Y-99650500D01*
X164947275Y-99650500D01*
X164955123Y-99652603D01*
X164954385Y-99655357D01*
X165005661Y-99678038D01*
X165044134Y-99736361D01*
X165044969Y-99806226D01*
X165032970Y-99834714D01*
X165026794Y-99845410D01*
X165026793Y-99845413D01*
X164999500Y-99947273D01*
X164999500Y-100052727D01*
X165026793Y-100154587D01*
X165079520Y-100245913D01*
X165154087Y-100320480D01*
X165163643Y-100325997D01*
X165211858Y-100376563D01*
X165225081Y-100445170D01*
X165221417Y-100465476D01*
X165208423Y-100513970D01*
X165199500Y-100547273D01*
X165199500Y-100652727D01*
X165226793Y-100754587D01*
X165279321Y-100845569D01*
X165279521Y-100845914D01*
X165321426Y-100887819D01*
X165354911Y-100949142D01*
X165349927Y-101018834D01*
X165308055Y-101074767D01*
X165242591Y-101099184D01*
X165233745Y-101099500D01*
X165197273Y-101099500D01*
X165095413Y-101126793D01*
X165095410Y-101126794D01*
X165004085Y-101179521D01*
X164929521Y-101254085D01*
X164876794Y-101345410D01*
X164876793Y-101345413D01*
X164849500Y-101447273D01*
X164849500Y-101552727D01*
X164876793Y-101654587D01*
X164881939Y-101663500D01*
X164898412Y-101731400D01*
X164875560Y-101797427D01*
X164820639Y-101840617D01*
X164774552Y-101849500D01*
X164697273Y-101849500D01*
X164595413Y-101876793D01*
X164595410Y-101876794D01*
X164504085Y-101929521D01*
X164429521Y-102004085D01*
X164376794Y-102095410D01*
X164376793Y-102095413D01*
X164349500Y-102197273D01*
X164349500Y-102302727D01*
X164376793Y-102404587D01*
X164429520Y-102495913D01*
X164504087Y-102570480D01*
X164595413Y-102623207D01*
X164697273Y-102650500D01*
X164697275Y-102650500D01*
X164802725Y-102650500D01*
X164802727Y-102650500D01*
X164904587Y-102623207D01*
X164949506Y-102597273D01*
X168399500Y-102597273D01*
X168399500Y-102702727D01*
X168426793Y-102804587D01*
X168479520Y-102895913D01*
X168554087Y-102970480D01*
X168645413Y-103023207D01*
X168747273Y-103050500D01*
X168747275Y-103050500D01*
X168852725Y-103050500D01*
X168852727Y-103050500D01*
X168954587Y-103023207D01*
X169045913Y-102970480D01*
X169059574Y-102956819D01*
X169120897Y-102923334D01*
X169147255Y-102920500D01*
X171535522Y-102920500D01*
X171602561Y-102940185D01*
X171642907Y-102982498D01*
X171679520Y-103045913D01*
X171754087Y-103120480D01*
X171845413Y-103173207D01*
X171947273Y-103200500D01*
X171947275Y-103200500D01*
X172052725Y-103200500D01*
X172052727Y-103200500D01*
X172154587Y-103173207D01*
X172245913Y-103120480D01*
X172320480Y-103045913D01*
X172373207Y-102954587D01*
X172400500Y-102852727D01*
X172400500Y-102747273D01*
X172373207Y-102645413D01*
X172320480Y-102554087D01*
X172245913Y-102479520D01*
X172154587Y-102426793D01*
X172052727Y-102399500D01*
X172052726Y-102399500D01*
X171976756Y-102399500D01*
X171929303Y-102390061D01*
X171903808Y-102379500D01*
X171903806Y-102379500D01*
X169147255Y-102379500D01*
X169080216Y-102359815D01*
X169059574Y-102343181D01*
X169045914Y-102329521D01*
X169045913Y-102329520D01*
X168966372Y-102283597D01*
X168954589Y-102276794D01*
X168954588Y-102276793D01*
X168954587Y-102276793D01*
X168852727Y-102249500D01*
X168747273Y-102249500D01*
X168645413Y-102276793D01*
X168645410Y-102276794D01*
X168554085Y-102329521D01*
X168479521Y-102404085D01*
X168426794Y-102495410D01*
X168426793Y-102495413D01*
X168399500Y-102597273D01*
X164949506Y-102597273D01*
X164995913Y-102570480D01*
X165070480Y-102495913D01*
X165123207Y-102404587D01*
X165150500Y-102302727D01*
X165150500Y-102197273D01*
X165123207Y-102095413D01*
X165118060Y-102086499D01*
X165101588Y-102018600D01*
X165124440Y-101952573D01*
X165179361Y-101909383D01*
X165225448Y-101900500D01*
X165302725Y-101900500D01*
X165302727Y-101900500D01*
X165404587Y-101873207D01*
X165495913Y-101820480D01*
X165570480Y-101745913D01*
X165598562Y-101697273D01*
X166099500Y-101697273D01*
X166099500Y-101802727D01*
X166126793Y-101904587D01*
X166179520Y-101995913D01*
X166254087Y-102070480D01*
X166345413Y-102123207D01*
X166447273Y-102150500D01*
X166447275Y-102150500D01*
X166552725Y-102150500D01*
X166552727Y-102150500D01*
X166654587Y-102123207D01*
X166745913Y-102070480D01*
X166820480Y-101995913D01*
X166873207Y-101904587D01*
X166900500Y-101802727D01*
X166900500Y-101697273D01*
X166873207Y-101595413D01*
X166820480Y-101504087D01*
X166745913Y-101429520D01*
X166654587Y-101376793D01*
X166552727Y-101349500D01*
X166447273Y-101349500D01*
X166345413Y-101376793D01*
X166345410Y-101376794D01*
X166254085Y-101429521D01*
X166179521Y-101504085D01*
X166126794Y-101595410D01*
X166126793Y-101595413D01*
X166099500Y-101697273D01*
X165598562Y-101697273D01*
X165623207Y-101654587D01*
X165650500Y-101552727D01*
X165650500Y-101447273D01*
X165623207Y-101345413D01*
X165570480Y-101254087D01*
X165528574Y-101212181D01*
X165495089Y-101150858D01*
X165500073Y-101081166D01*
X165541945Y-101025233D01*
X165607409Y-101000816D01*
X165616255Y-101000500D01*
X165652725Y-101000500D01*
X165652727Y-101000500D01*
X165754587Y-100973207D01*
X165845913Y-100920480D01*
X165920480Y-100845913D01*
X165973207Y-100754587D01*
X166000500Y-100652727D01*
X166000500Y-100547273D01*
X165998498Y-100539801D01*
X166000157Y-100469954D01*
X166039317Y-100412089D01*
X166103545Y-100384583D01*
X166150358Y-100387929D01*
X166197273Y-100400500D01*
X166197276Y-100400500D01*
X166302725Y-100400500D01*
X166302727Y-100400500D01*
X166404587Y-100373207D01*
X166495913Y-100320480D01*
X166570480Y-100245913D01*
X166623207Y-100154587D01*
X166650500Y-100052727D01*
X166650500Y-99947273D01*
X166623207Y-99845413D01*
X166570480Y-99754087D01*
X166495913Y-99679520D01*
X166404587Y-99626793D01*
X166302727Y-99599500D01*
X166197273Y-99599500D01*
X166095413Y-99626793D01*
X166095410Y-99626794D01*
X166004085Y-99679521D01*
X165929519Y-99754087D01*
X165924574Y-99760533D01*
X165922273Y-99758767D01*
X165881814Y-99797341D01*
X165813206Y-99810560D01*
X165748343Y-99784588D01*
X165726670Y-99759577D01*
X165725426Y-99760533D01*
X165720480Y-99754087D01*
X165645914Y-99679521D01*
X165645913Y-99679520D01*
X165554587Y-99626793D01*
X165452727Y-99599500D01*
X165452726Y-99599500D01*
X165444877Y-99597397D01*
X165445613Y-99594648D01*
X165394307Y-99571934D01*
X165355852Y-99513598D01*
X165355041Y-99443734D01*
X165367028Y-99415287D01*
X165373207Y-99404587D01*
X165400500Y-99302727D01*
X165400500Y-99197273D01*
X165373207Y-99095413D01*
X165320480Y-99004087D01*
X165245913Y-98929520D01*
X165233136Y-98922143D01*
X165181645Y-98892414D01*
X165133430Y-98841847D01*
X165120208Y-98773240D01*
X165146176Y-98708375D01*
X165155957Y-98697355D01*
X165706039Y-98147273D01*
X167399500Y-98147273D01*
X167399500Y-98252727D01*
X167426793Y-98354587D01*
X167479520Y-98445913D01*
X167554087Y-98520480D01*
X167645413Y-98573207D01*
X167747273Y-98600500D01*
X167747275Y-98600500D01*
X167852725Y-98600500D01*
X167852727Y-98600500D01*
X167954587Y-98573207D01*
X168045913Y-98520480D01*
X168120480Y-98445913D01*
X168173207Y-98354587D01*
X168200500Y-98252727D01*
X168200500Y-98147273D01*
X168173207Y-98045413D01*
X168120480Y-97954087D01*
X168045913Y-97879520D01*
X167954587Y-97826793D01*
X167852727Y-97799500D01*
X167747273Y-97799500D01*
X167645413Y-97826793D01*
X167645410Y-97826794D01*
X167554085Y-97879521D01*
X167479521Y-97954085D01*
X167426794Y-98045410D01*
X167426793Y-98045413D01*
X167399500Y-98147273D01*
X165706039Y-98147273D01*
X167479319Y-96373994D01*
X167518459Y-96279501D01*
X167520500Y-96274574D01*
X167520500Y-95597255D01*
X167540185Y-95530216D01*
X167556819Y-95509574D01*
X167570480Y-95495913D01*
X167623207Y-95404587D01*
X167650500Y-95302727D01*
X167650500Y-95197273D01*
X167623207Y-95095413D01*
X167570480Y-95004087D01*
X167495913Y-94929520D01*
X167404587Y-94876793D01*
X167302727Y-94849500D01*
X167197273Y-94849500D01*
X167095413Y-94876793D01*
X167095410Y-94876794D01*
X167004085Y-94929521D01*
X166929521Y-95004085D01*
X166876794Y-95095410D01*
X166876793Y-95095413D01*
X166849500Y-95197273D01*
X166849500Y-95302727D01*
X166876793Y-95404587D01*
X166908612Y-95459700D01*
X166929521Y-95495914D01*
X166943181Y-95509574D01*
X166976666Y-95570897D01*
X166979500Y-95597255D01*
X166979500Y-96057361D01*
X166959815Y-96124400D01*
X166943181Y-96145042D01*
X165836812Y-97251410D01*
X165775489Y-97284895D01*
X165705797Y-97279911D01*
X165649864Y-97238039D01*
X165625447Y-97172575D01*
X165629355Y-97131640D01*
X165650500Y-97052727D01*
X165650500Y-96947273D01*
X165623207Y-96845413D01*
X165570480Y-96754087D01*
X165495913Y-96679520D01*
X165404587Y-96626793D01*
X165302727Y-96599500D01*
X165197273Y-96599500D01*
X165095413Y-96626793D01*
X165095410Y-96626794D01*
X165004085Y-96679521D01*
X164929521Y-96754085D01*
X164876794Y-96845410D01*
X164876793Y-96845413D01*
X164849500Y-96947273D01*
X164849500Y-97052727D01*
X164876793Y-97154587D01*
X164929520Y-97245913D01*
X165004087Y-97320480D01*
X165095413Y-97373207D01*
X165197273Y-97400500D01*
X165197275Y-97400500D01*
X165302724Y-97400500D01*
X165302727Y-97400500D01*
X165381638Y-97379356D01*
X165451485Y-97381019D01*
X165509348Y-97420181D01*
X165536852Y-97484410D01*
X165525266Y-97553312D01*
X165501410Y-97586812D01*
X163546855Y-99541367D01*
X163485532Y-99574852D01*
X163415840Y-99569868D01*
X163359907Y-99527996D01*
X163335490Y-99462532D01*
X163350342Y-99394259D01*
X163351749Y-99391751D01*
X163373207Y-99354587D01*
X163400500Y-99252727D01*
X163400500Y-99147273D01*
X163373207Y-99045413D01*
X163320480Y-98954087D01*
X163245913Y-98879520D01*
X163154587Y-98826793D01*
X163052727Y-98799500D01*
X162947273Y-98799500D01*
X162845413Y-98826793D01*
X162845410Y-98826794D01*
X162754085Y-98879521D01*
X162679521Y-98954085D01*
X162626794Y-99045410D01*
X162626793Y-99045413D01*
X162599500Y-99147273D01*
X149500706Y-99147273D01*
X149495913Y-99142480D01*
X149415653Y-99096142D01*
X149404589Y-99089754D01*
X149404588Y-99089753D01*
X149404587Y-99089753D01*
X149302727Y-99062460D01*
X149197273Y-99062460D01*
X149095413Y-99089753D01*
X149095410Y-99089754D01*
X149004085Y-99142481D01*
X148929521Y-99217045D01*
X148876794Y-99308370D01*
X148876793Y-99308373D01*
X148849500Y-99410233D01*
X148849500Y-99515687D01*
X148876552Y-99616645D01*
X148876793Y-99617546D01*
X148876793Y-99617547D01*
X148906777Y-99669481D01*
X148923249Y-99737381D01*
X148906777Y-99793479D01*
X148876793Y-99845412D01*
X148876793Y-99845413D01*
X148849500Y-99947273D01*
X148849500Y-100052727D01*
X148868385Y-100123205D01*
X148876793Y-100154586D01*
X148876794Y-100154589D01*
X148896084Y-100188000D01*
X148912557Y-100255900D01*
X148896084Y-100312000D01*
X148876794Y-100345410D01*
X148876794Y-100345411D01*
X148876793Y-100345413D01*
X148849500Y-100447273D01*
X148849500Y-100552727D01*
X148876294Y-100652726D01*
X148876794Y-100654589D01*
X148878411Y-100658494D01*
X148878793Y-100662050D01*
X148878897Y-100662438D01*
X148878836Y-100662454D01*
X148885876Y-100727964D01*
X148854597Y-100790441D01*
X148794506Y-100826090D01*
X148724681Y-100823592D01*
X148696938Y-100810339D01*
X148685648Y-100803103D01*
X148653226Y-100770681D01*
X148612044Y-100753623D01*
X148601864Y-100749406D01*
X148601862Y-100749405D01*
X148553808Y-100729500D01*
X148553806Y-100729500D01*
X142097255Y-100729500D01*
X142030216Y-100709815D01*
X142009574Y-100693181D01*
X141995914Y-100679521D01*
X141995913Y-100679520D01*
X141904587Y-100626793D01*
X141802727Y-100599500D01*
X141697273Y-100599500D01*
X141595413Y-100626793D01*
X141595410Y-100626794D01*
X141504085Y-100679521D01*
X141429521Y-100754085D01*
X141376794Y-100845410D01*
X141376793Y-100845413D01*
X141371724Y-100864333D01*
X141369775Y-100871606D01*
X141333410Y-100931267D01*
X141270563Y-100961796D01*
X141201188Y-100953501D01*
X141147310Y-100909016D01*
X141130225Y-100871606D01*
X141123207Y-100845413D01*
X141070480Y-100754087D01*
X140995913Y-100679520D01*
X140904587Y-100626793D01*
X140802727Y-100599500D01*
X140774500Y-100599500D01*
X140707461Y-100579815D01*
X140661706Y-100527011D01*
X140650500Y-100475500D01*
X140650500Y-100447275D01*
X140650500Y-100447273D01*
X140623207Y-100345413D01*
X140570480Y-100254087D01*
X140495913Y-100179520D01*
X140404587Y-100126793D01*
X140302727Y-100099500D01*
X140197273Y-100099500D01*
X140095413Y-100126793D01*
X140095410Y-100126794D01*
X140004085Y-100179521D01*
X139929521Y-100254085D01*
X139876794Y-100345410D01*
X139876794Y-100345411D01*
X139876793Y-100345413D01*
X139849500Y-100447273D01*
X139849500Y-100552727D01*
X139876793Y-100654587D01*
X139929520Y-100745913D01*
X140004087Y-100820480D01*
X140095413Y-100873207D01*
X140197273Y-100900500D01*
X140197275Y-100900500D01*
X140225500Y-100900500D01*
X140292539Y-100920185D01*
X140338294Y-100972989D01*
X140349500Y-101024500D01*
X140349500Y-101052727D01*
X140376793Y-101154587D01*
X140429520Y-101245913D01*
X140504087Y-101320480D01*
X140595413Y-101373207D01*
X140697273Y-101400500D01*
X140697275Y-101400500D01*
X140802725Y-101400500D01*
X140802727Y-101400500D01*
X140904587Y-101373207D01*
X140995913Y-101320480D01*
X141070480Y-101245913D01*
X141123207Y-101154587D01*
X141130225Y-101128393D01*
X141166589Y-101068733D01*
X141229436Y-101038203D01*
X141298812Y-101046497D01*
X141352690Y-101090982D01*
X141369774Y-101128392D01*
X141372611Y-101138979D01*
X141376792Y-101154585D01*
X141376793Y-101154587D01*
X141429520Y-101245913D01*
X141504087Y-101320480D01*
X141595413Y-101373207D01*
X141697273Y-101400500D01*
X141697275Y-101400500D01*
X141802725Y-101400500D01*
X141802727Y-101400500D01*
X141904587Y-101373207D01*
X141995913Y-101320480D01*
X142009574Y-101306819D01*
X142070897Y-101273334D01*
X142097255Y-101270500D01*
X145219036Y-101270500D01*
X145286075Y-101290185D01*
X145331830Y-101342989D01*
X145341774Y-101412147D01*
X145312749Y-101475703D01*
X145291921Y-101494819D01*
X145278282Y-101504727D01*
X145278282Y-101504728D01*
X145910591Y-102137037D01*
X145847007Y-102154075D01*
X145732993Y-102219901D01*
X145639901Y-102312993D01*
X145574075Y-102427007D01*
X145557037Y-102490591D01*
X144924728Y-101858282D01*
X144924727Y-101858282D01*
X144885382Y-101912438D01*
X144885381Y-101912438D01*
X144788904Y-102101782D01*
X144723242Y-102303869D01*
X144723242Y-102303872D01*
X144700383Y-102448196D01*
X144670454Y-102511331D01*
X144611142Y-102548262D01*
X144541279Y-102547264D01*
X144483047Y-102508654D01*
X144456293Y-102452989D01*
X144443775Y-102390061D01*
X144433204Y-102336916D01*
X144430141Y-102329521D01*
X144360048Y-102160299D01*
X144253835Y-102001339D01*
X144118660Y-101866164D01*
X143959700Y-101759951D01*
X143783088Y-101686797D01*
X143783078Y-101686794D01*
X143595588Y-101649500D01*
X143595586Y-101649500D01*
X143404414Y-101649500D01*
X143404412Y-101649500D01*
X143216921Y-101686794D01*
X143216911Y-101686797D01*
X143040299Y-101759951D01*
X142881339Y-101866164D01*
X142746164Y-102001339D01*
X142639951Y-102160299D01*
X142566797Y-102336911D01*
X142566794Y-102336921D01*
X142529500Y-102524411D01*
X142529500Y-102524414D01*
X142529500Y-102715586D01*
X142529500Y-102715588D01*
X142529499Y-102715588D01*
X142566794Y-102903078D01*
X142566797Y-102903088D01*
X142639951Y-103079700D01*
X142746164Y-103238660D01*
X142881339Y-103373835D01*
X143040299Y-103480048D01*
X143216911Y-103553202D01*
X143216916Y-103553204D01*
X143216920Y-103553204D01*
X143216921Y-103553205D01*
X143404411Y-103590500D01*
X143404414Y-103590500D01*
X143595588Y-103590500D01*
X143595589Y-103590499D01*
X143636039Y-103582453D01*
X143716771Y-103566395D01*
X143716776Y-103566394D01*
X143764629Y-103556875D01*
X143783084Y-103553204D01*
X143901379Y-103504205D01*
X143959700Y-103480048D01*
X143959701Y-103480047D01*
X143959704Y-103480046D01*
X144118658Y-103373837D01*
X144253837Y-103238658D01*
X144360046Y-103079704D01*
X144381335Y-103028309D01*
X144400309Y-102982500D01*
X144433204Y-102903084D01*
X144452796Y-102804589D01*
X144456293Y-102787010D01*
X144488678Y-102725099D01*
X144549393Y-102690525D01*
X144619163Y-102694264D01*
X144675835Y-102735131D01*
X144700383Y-102791803D01*
X144723242Y-102936127D01*
X144723242Y-102936130D01*
X144788904Y-103138217D01*
X144885375Y-103327550D01*
X144924728Y-103381716D01*
X145557037Y-102749408D01*
X145574075Y-102812993D01*
X145639901Y-102927007D01*
X145732993Y-103020099D01*
X145847007Y-103085925D01*
X145910590Y-103102962D01*
X145278282Y-103735269D01*
X145278282Y-103735270D01*
X145332449Y-103774624D01*
X145521782Y-103871095D01*
X145723870Y-103936757D01*
X145933754Y-103970000D01*
X146146246Y-103970000D01*
X146356127Y-103936757D01*
X146356130Y-103936757D01*
X146558217Y-103871095D01*
X146747554Y-103774622D01*
X146801716Y-103735270D01*
X146801717Y-103735270D01*
X146169408Y-103102962D01*
X146232993Y-103085925D01*
X146347007Y-103020099D01*
X146440099Y-102927007D01*
X146505925Y-102812993D01*
X146522962Y-102749409D01*
X147155270Y-103381717D01*
X147155270Y-103381716D01*
X147194622Y-103327554D01*
X147291095Y-103138217D01*
X147356757Y-102936130D01*
X147356757Y-102936127D01*
X147390000Y-102726246D01*
X147390000Y-102513753D01*
X147356757Y-102303872D01*
X147356757Y-102303869D01*
X147291095Y-102101782D01*
X147194624Y-101912449D01*
X147155270Y-101858282D01*
X147155269Y-101858282D01*
X146522962Y-102490590D01*
X146505925Y-102427007D01*
X146440099Y-102312993D01*
X146347007Y-102219901D01*
X146232993Y-102154075D01*
X146169409Y-102137037D01*
X146801716Y-101504728D01*
X146801716Y-101504727D01*
X146788077Y-101494818D01*
X146745411Y-101439489D01*
X146739432Y-101369875D01*
X146772037Y-101308080D01*
X146832876Y-101273723D01*
X146860962Y-101270500D01*
X148336593Y-101270500D01*
X148403632Y-101290185D01*
X148424274Y-101306819D01*
X148693181Y-101575726D01*
X148726666Y-101637049D01*
X148729500Y-101663407D01*
X148729500Y-101833040D01*
X148750342Y-101883354D01*
X148750342Y-101883358D01*
X148750344Y-101883358D01*
X148770681Y-101932458D01*
X151737447Y-104899223D01*
X151795680Y-104923343D01*
X151795683Y-104923345D01*
X151795684Y-104923345D01*
X151812743Y-104930411D01*
X151836866Y-104940404D01*
X151836867Y-104940404D01*
X151944477Y-104940404D01*
X158006728Y-104940404D01*
X158073767Y-104960089D01*
X158119522Y-105012893D01*
X158129466Y-105082051D01*
X158126504Y-105096489D01*
X158099500Y-105197273D01*
X158099500Y-105302727D01*
X158126793Y-105404587D01*
X158179520Y-105495913D01*
X158254087Y-105570480D01*
X158345413Y-105623207D01*
X158447273Y-105650500D01*
X158447275Y-105650500D01*
X158552725Y-105650500D01*
X158552727Y-105650500D01*
X158654587Y-105623207D01*
X158745913Y-105570480D01*
X158820480Y-105495913D01*
X158873207Y-105404587D01*
X158900500Y-105302727D01*
X158900500Y-105197273D01*
X158873497Y-105096495D01*
X158875160Y-105026647D01*
X158914323Y-104968785D01*
X158978551Y-104941281D01*
X158993272Y-104940404D01*
X159917932Y-104940404D01*
X159984971Y-104960089D01*
X160030726Y-105012893D01*
X160040670Y-105082051D01*
X160037709Y-105096483D01*
X160018500Y-105168177D01*
X160018500Y-105273631D01*
X160045793Y-105375491D01*
X160098520Y-105466817D01*
X160173087Y-105541384D01*
X160264413Y-105594111D01*
X160366273Y-105621404D01*
X160366275Y-105621404D01*
X160471725Y-105621404D01*
X160471727Y-105621404D01*
X160573587Y-105594111D01*
X160664913Y-105541384D01*
X160739480Y-105466817D01*
X160792207Y-105375491D01*
X160819500Y-105273631D01*
X160819500Y-105168177D01*
X160800293Y-105096494D01*
X160801956Y-105026648D01*
X160841118Y-104968785D01*
X160905347Y-104941281D01*
X160920068Y-104940404D01*
X164115500Y-104940404D01*
X164182539Y-104960089D01*
X164228294Y-105012893D01*
X164239500Y-105064404D01*
X164239500Y-106105500D01*
X164219815Y-106172539D01*
X164167011Y-106218294D01*
X164115500Y-106229500D01*
X162663407Y-106229500D01*
X162633966Y-106220855D01*
X162603980Y-106214332D01*
X162598964Y-106210577D01*
X162596368Y-106209815D01*
X162575726Y-106193181D01*
X162436819Y-106054274D01*
X162403334Y-105992951D01*
X162400500Y-105966593D01*
X162400500Y-105947275D01*
X162400500Y-105947273D01*
X162373207Y-105845413D01*
X162320480Y-105754087D01*
X162245913Y-105679520D01*
X162154587Y-105626793D01*
X162052727Y-105599500D01*
X161947273Y-105599500D01*
X161845413Y-105626793D01*
X161845410Y-105626794D01*
X161754085Y-105679521D01*
X161712681Y-105720926D01*
X161651358Y-105754411D01*
X161581666Y-105749427D01*
X161537319Y-105720926D01*
X161495914Y-105679521D01*
X161495913Y-105679520D01*
X161404587Y-105626793D01*
X161302727Y-105599500D01*
X161197273Y-105599500D01*
X161095413Y-105626793D01*
X161095410Y-105626794D01*
X161004085Y-105679521D01*
X160929521Y-105754085D01*
X160876794Y-105845410D01*
X160876793Y-105845413D01*
X160849500Y-105947273D01*
X160849500Y-106052727D01*
X160864859Y-106110046D01*
X160876793Y-106154586D01*
X160876794Y-106154589D01*
X160888363Y-106174627D01*
X160929520Y-106245913D01*
X161004087Y-106320480D01*
X161095413Y-106373207D01*
X161197273Y-106400500D01*
X161197275Y-106400500D01*
X161302725Y-106400500D01*
X161302727Y-106400500D01*
X161404587Y-106373207D01*
X161495913Y-106320480D01*
X161537319Y-106279074D01*
X161598642Y-106245589D01*
X161668334Y-106250573D01*
X161712681Y-106279074D01*
X161754087Y-106320480D01*
X161845413Y-106373207D01*
X161947273Y-106400500D01*
X161966593Y-106400500D01*
X162033632Y-106420185D01*
X162054274Y-106436819D01*
X162346774Y-106729319D01*
X162417074Y-106758438D01*
X162446194Y-106770500D01*
X162446195Y-106770500D01*
X162470537Y-106770500D01*
X162485413Y-106774238D01*
X162502839Y-106784490D01*
X162522234Y-106790185D01*
X162532335Y-106801842D01*
X162545634Y-106809666D01*
X162554751Y-106827712D01*
X162567989Y-106842989D01*
X162570184Y-106858258D01*
X162577142Y-106872029D01*
X162575055Y-106892137D01*
X162577933Y-106912147D01*
X162571523Y-106926181D01*
X162569932Y-106941525D01*
X162557306Y-106957312D01*
X162548908Y-106975703D01*
X162527483Y-106994604D01*
X162526294Y-106996092D01*
X162525490Y-106996362D01*
X162524086Y-106997602D01*
X162481342Y-107026162D01*
X162481338Y-107026165D01*
X162346164Y-107161339D01*
X162239951Y-107320299D01*
X162166797Y-107496911D01*
X162166794Y-107496921D01*
X162129500Y-107684411D01*
X162129500Y-107684414D01*
X162129500Y-107875586D01*
X162129500Y-107875588D01*
X162129499Y-107875588D01*
X162166794Y-108063078D01*
X162166797Y-108063088D01*
X162239951Y-108239700D01*
X162346164Y-108398660D01*
X162481339Y-108533835D01*
X162640299Y-108640048D01*
X162816911Y-108713202D01*
X162816916Y-108713204D01*
X162816920Y-108713204D01*
X162816921Y-108713205D01*
X163004411Y-108750500D01*
X163004414Y-108750500D01*
X163195588Y-108750500D01*
X163321729Y-108725408D01*
X163383084Y-108713204D01*
X163471394Y-108676625D01*
X163559700Y-108640048D01*
X163559701Y-108640047D01*
X163559704Y-108640046D01*
X163718658Y-108533837D01*
X163853837Y-108398658D01*
X163960046Y-108239704D01*
X164033204Y-108063084D01*
X164055339Y-107951804D01*
X164070500Y-107875588D01*
X164070500Y-107684411D01*
X164033205Y-107496921D01*
X164033204Y-107496920D01*
X164033204Y-107496916D01*
X164004015Y-107426446D01*
X163960048Y-107320299D01*
X163853835Y-107161339D01*
X163718661Y-107026165D01*
X163718657Y-107026162D01*
X163675914Y-106997602D01*
X163631109Y-106943990D01*
X163622402Y-106874665D01*
X163652556Y-106811637D01*
X163711999Y-106774918D01*
X163744805Y-106770500D01*
X164995195Y-106770500D01*
X165062234Y-106790185D01*
X165107989Y-106842989D01*
X165117933Y-106912147D01*
X165088908Y-106975703D01*
X165064086Y-106997602D01*
X165021342Y-107026162D01*
X165021338Y-107026165D01*
X164886164Y-107161339D01*
X164779951Y-107320299D01*
X164706797Y-107496911D01*
X164706794Y-107496921D01*
X164669500Y-107684411D01*
X164669500Y-107684414D01*
X164669500Y-107875586D01*
X164669500Y-107875588D01*
X164669499Y-107875588D01*
X164706794Y-108063078D01*
X164706797Y-108063088D01*
X164779951Y-108239700D01*
X164886164Y-108398660D01*
X165021339Y-108533835D01*
X165180299Y-108640048D01*
X165356911Y-108713202D01*
X165356916Y-108713204D01*
X165356920Y-108713204D01*
X165356921Y-108713205D01*
X165544411Y-108750500D01*
X165544414Y-108750500D01*
X165735588Y-108750500D01*
X165861729Y-108725408D01*
X165923084Y-108713204D01*
X166011394Y-108676625D01*
X166099700Y-108640048D01*
X166099701Y-108640047D01*
X166099704Y-108640046D01*
X166258658Y-108533837D01*
X166393837Y-108398658D01*
X166500046Y-108239704D01*
X166573204Y-108063084D01*
X166595339Y-107951804D01*
X166596293Y-107947010D01*
X166628678Y-107885099D01*
X166689393Y-107850525D01*
X166759163Y-107854264D01*
X166815835Y-107895131D01*
X166840383Y-107951803D01*
X166863242Y-108096127D01*
X166863242Y-108096130D01*
X166928904Y-108298217D01*
X167025375Y-108487550D01*
X167064728Y-108541716D01*
X167697036Y-107909407D01*
X167714075Y-107972993D01*
X167779901Y-108087007D01*
X167872993Y-108180099D01*
X167987007Y-108245925D01*
X168050590Y-108262962D01*
X167418282Y-108895269D01*
X167418282Y-108895270D01*
X167472449Y-108934624D01*
X167661782Y-109031095D01*
X167743260Y-109057569D01*
X167800935Y-109097006D01*
X167828134Y-109161365D01*
X167816219Y-109230211D01*
X167768975Y-109281687D01*
X167704942Y-109299500D01*
X155955058Y-109299500D01*
X155888019Y-109279815D01*
X155842264Y-109227011D01*
X155832320Y-109157853D01*
X155861345Y-109094297D01*
X155916740Y-109057569D01*
X155998217Y-109031095D01*
X156187554Y-108934622D01*
X156241716Y-108895270D01*
X156241717Y-108895270D01*
X155609408Y-108262962D01*
X155672993Y-108245925D01*
X155787007Y-108180099D01*
X155880099Y-108087007D01*
X155945925Y-107972993D01*
X155962962Y-107909408D01*
X156595270Y-108541717D01*
X156595270Y-108541716D01*
X156634622Y-108487554D01*
X156731095Y-108298217D01*
X156796757Y-108096130D01*
X156796758Y-108096125D01*
X156819616Y-107951804D01*
X156849545Y-107888669D01*
X156908856Y-107851737D01*
X156978719Y-107852735D01*
X157036952Y-107891344D01*
X157063706Y-107947009D01*
X157086794Y-108063078D01*
X157086797Y-108063088D01*
X157159951Y-108239700D01*
X157266164Y-108398660D01*
X157401339Y-108533835D01*
X157560299Y-108640048D01*
X157736911Y-108713202D01*
X157736916Y-108713204D01*
X157736920Y-108713204D01*
X157736921Y-108713205D01*
X157924411Y-108750500D01*
X157924414Y-108750500D01*
X158115588Y-108750500D01*
X158241729Y-108725408D01*
X158303084Y-108713204D01*
X158391394Y-108676625D01*
X158479700Y-108640048D01*
X158479701Y-108640047D01*
X158479704Y-108640046D01*
X158638658Y-108533837D01*
X158773837Y-108398658D01*
X158880046Y-108239704D01*
X158953204Y-108063084D01*
X158975339Y-107951804D01*
X158990500Y-107875588D01*
X159589499Y-107875588D01*
X159626794Y-108063078D01*
X159626797Y-108063088D01*
X159699951Y-108239700D01*
X159806164Y-108398660D01*
X159941339Y-108533835D01*
X160100299Y-108640048D01*
X160276911Y-108713202D01*
X160276916Y-108713204D01*
X160276920Y-108713204D01*
X160276921Y-108713205D01*
X160464411Y-108750500D01*
X160464414Y-108750500D01*
X160655588Y-108750500D01*
X160781729Y-108725408D01*
X160843084Y-108713204D01*
X160931394Y-108676625D01*
X161019700Y-108640048D01*
X161019701Y-108640047D01*
X161019704Y-108640046D01*
X161178658Y-108533837D01*
X161313837Y-108398658D01*
X161420046Y-108239704D01*
X161493204Y-108063084D01*
X161515339Y-107951804D01*
X161530500Y-107875588D01*
X161530500Y-107684411D01*
X161493205Y-107496921D01*
X161493204Y-107496920D01*
X161493204Y-107496916D01*
X161464015Y-107426446D01*
X161420048Y-107320299D01*
X161313835Y-107161339D01*
X161178660Y-107026164D01*
X161019700Y-106919951D01*
X160843088Y-106846797D01*
X160843078Y-106846794D01*
X160655588Y-106809500D01*
X160655586Y-106809500D01*
X160464414Y-106809500D01*
X160464412Y-106809500D01*
X160276921Y-106846794D01*
X160276911Y-106846797D01*
X160100299Y-106919951D01*
X159941339Y-107026164D01*
X159806164Y-107161339D01*
X159699951Y-107320299D01*
X159626797Y-107496911D01*
X159626794Y-107496921D01*
X159589500Y-107684411D01*
X159589500Y-107684414D01*
X159589500Y-107875586D01*
X159589500Y-107875588D01*
X159589499Y-107875588D01*
X158990500Y-107875588D01*
X158990500Y-107684411D01*
X158953205Y-107496921D01*
X158953204Y-107496920D01*
X158953204Y-107496916D01*
X158924015Y-107426446D01*
X158880048Y-107320299D01*
X158773835Y-107161339D01*
X158638660Y-107026164D01*
X158479700Y-106919951D01*
X158303088Y-106846797D01*
X158303078Y-106846794D01*
X158115588Y-106809500D01*
X158115586Y-106809500D01*
X157924414Y-106809500D01*
X157924412Y-106809500D01*
X157736921Y-106846794D01*
X157736911Y-106846797D01*
X157560299Y-106919951D01*
X157401339Y-107026164D01*
X157266164Y-107161339D01*
X157159951Y-107320299D01*
X157086797Y-107496911D01*
X157086794Y-107496921D01*
X157063706Y-107612990D01*
X157031321Y-107674901D01*
X156970605Y-107709475D01*
X156900835Y-107705734D01*
X156844163Y-107664868D01*
X156819616Y-107608195D01*
X156796758Y-107463874D01*
X156796757Y-107463869D01*
X156731095Y-107261782D01*
X156634624Y-107072449D01*
X156595270Y-107018282D01*
X156595269Y-107018282D01*
X155962962Y-107650590D01*
X155945925Y-107587007D01*
X155880099Y-107472993D01*
X155787007Y-107379901D01*
X155672993Y-107314075D01*
X155609409Y-107297037D01*
X156241716Y-106664728D01*
X156187550Y-106625375D01*
X155998217Y-106528904D01*
X155796129Y-106463242D01*
X155586246Y-106430000D01*
X155373754Y-106430000D01*
X155163872Y-106463242D01*
X155163869Y-106463242D01*
X154961782Y-106528904D01*
X154772439Y-106625380D01*
X154718282Y-106664727D01*
X154718282Y-106664728D01*
X155350591Y-107297037D01*
X155287007Y-107314075D01*
X155172993Y-107379901D01*
X155079901Y-107472993D01*
X155014075Y-107587007D01*
X154997037Y-107650591D01*
X154364728Y-107018282D01*
X154364727Y-107018282D01*
X154325380Y-107072439D01*
X154228904Y-107261782D01*
X154163242Y-107463869D01*
X154163242Y-107463872D01*
X154140383Y-107608196D01*
X154110454Y-107671331D01*
X154051142Y-107708262D01*
X153981279Y-107707264D01*
X153923047Y-107668654D01*
X153896293Y-107612989D01*
X153873205Y-107496923D01*
X153873205Y-107496921D01*
X153873204Y-107496916D01*
X153844015Y-107426446D01*
X153800048Y-107320299D01*
X153693835Y-107161339D01*
X153558660Y-107026164D01*
X153399700Y-106919951D01*
X153223088Y-106846797D01*
X153223078Y-106846794D01*
X153156766Y-106833604D01*
X153156765Y-106833603D01*
X153035589Y-106809500D01*
X153035586Y-106809500D01*
X152844414Y-106809500D01*
X152844412Y-106809500D01*
X152656921Y-106846794D01*
X152656911Y-106846797D01*
X152480299Y-106919951D01*
X152321339Y-107026164D01*
X152186164Y-107161339D01*
X152079951Y-107320299D01*
X152006797Y-107496911D01*
X152006794Y-107496921D01*
X151969500Y-107684411D01*
X151969500Y-107684414D01*
X151969500Y-107875586D01*
X151969500Y-107875588D01*
X151969499Y-107875588D01*
X152006794Y-108063078D01*
X152006797Y-108063088D01*
X152079951Y-108239700D01*
X152186164Y-108398660D01*
X152321339Y-108533835D01*
X152480299Y-108640048D01*
X152656911Y-108713202D01*
X152656916Y-108713204D01*
X152656920Y-108713204D01*
X152656921Y-108713205D01*
X152844411Y-108750500D01*
X152844414Y-108750500D01*
X153035588Y-108750500D01*
X153161729Y-108725408D01*
X153223084Y-108713204D01*
X153311394Y-108676625D01*
X153399700Y-108640048D01*
X153399701Y-108640047D01*
X153399704Y-108640046D01*
X153558658Y-108533837D01*
X153693837Y-108398658D01*
X153800046Y-108239704D01*
X153873204Y-108063084D01*
X153895339Y-107951804D01*
X153896293Y-107947010D01*
X153928678Y-107885099D01*
X153989393Y-107850525D01*
X154059163Y-107854264D01*
X154115835Y-107895131D01*
X154140383Y-107951803D01*
X154163242Y-108096127D01*
X154163242Y-108096130D01*
X154228904Y-108298217D01*
X154325375Y-108487550D01*
X154364728Y-108541716D01*
X154997037Y-107909408D01*
X155014075Y-107972993D01*
X155079901Y-108087007D01*
X155172993Y-108180099D01*
X155287007Y-108245925D01*
X155350590Y-108262962D01*
X154718282Y-108895269D01*
X154718282Y-108895270D01*
X154772449Y-108934624D01*
X154961782Y-109031095D01*
X155043260Y-109057569D01*
X155100935Y-109097006D01*
X155128134Y-109161365D01*
X155116219Y-109230211D01*
X155068975Y-109281687D01*
X155004942Y-109299500D01*
X143255058Y-109299500D01*
X143188019Y-109279815D01*
X143142264Y-109227011D01*
X143132320Y-109157853D01*
X143161345Y-109094297D01*
X143216740Y-109057569D01*
X143298217Y-109031095D01*
X143487554Y-108934622D01*
X143541716Y-108895270D01*
X143541717Y-108895270D01*
X142909408Y-108262962D01*
X142972993Y-108245925D01*
X143087007Y-108180099D01*
X143180099Y-108087007D01*
X143245925Y-107972993D01*
X143262962Y-107909408D01*
X143895270Y-108541717D01*
X143895270Y-108541716D01*
X143934622Y-108487554D01*
X144031095Y-108298217D01*
X144096757Y-108096130D01*
X144096758Y-108096125D01*
X144119616Y-107951804D01*
X144149545Y-107888669D01*
X144208856Y-107851737D01*
X144278719Y-107852735D01*
X144336952Y-107891344D01*
X144363706Y-107947009D01*
X144386794Y-108063078D01*
X144386797Y-108063088D01*
X144459951Y-108239700D01*
X144566164Y-108398660D01*
X144701339Y-108533835D01*
X144860299Y-108640048D01*
X145036911Y-108713202D01*
X145036916Y-108713204D01*
X145036920Y-108713204D01*
X145036921Y-108713205D01*
X145224411Y-108750500D01*
X145224414Y-108750500D01*
X145415588Y-108750500D01*
X145541729Y-108725408D01*
X145603084Y-108713204D01*
X145691394Y-108676625D01*
X145779700Y-108640048D01*
X145779701Y-108640047D01*
X145779704Y-108640046D01*
X145938658Y-108533837D01*
X146073837Y-108398658D01*
X146180046Y-108239704D01*
X146253204Y-108063084D01*
X146275339Y-107951804D01*
X146290500Y-107875588D01*
X146889499Y-107875588D01*
X146926794Y-108063078D01*
X146926797Y-108063088D01*
X146999951Y-108239700D01*
X147106164Y-108398660D01*
X147241339Y-108533835D01*
X147400299Y-108640048D01*
X147576911Y-108713202D01*
X147576916Y-108713204D01*
X147576920Y-108713204D01*
X147576921Y-108713205D01*
X147764411Y-108750500D01*
X147764414Y-108750500D01*
X147955588Y-108750500D01*
X148081729Y-108725408D01*
X148143084Y-108713204D01*
X148231394Y-108676625D01*
X148319700Y-108640048D01*
X148319701Y-108640047D01*
X148319704Y-108640046D01*
X148478658Y-108533837D01*
X148613837Y-108398658D01*
X148720046Y-108239704D01*
X148793204Y-108063084D01*
X148815339Y-107951804D01*
X148830500Y-107875588D01*
X149429499Y-107875588D01*
X149466794Y-108063078D01*
X149466797Y-108063088D01*
X149539951Y-108239700D01*
X149646164Y-108398660D01*
X149781339Y-108533835D01*
X149940299Y-108640048D01*
X150116911Y-108713202D01*
X150116916Y-108713204D01*
X150116920Y-108713204D01*
X150116921Y-108713205D01*
X150304411Y-108750500D01*
X150304414Y-108750500D01*
X150495588Y-108750500D01*
X150621729Y-108725408D01*
X150683084Y-108713204D01*
X150771394Y-108676625D01*
X150859700Y-108640048D01*
X150859701Y-108640047D01*
X150859704Y-108640046D01*
X151018658Y-108533837D01*
X151153837Y-108398658D01*
X151260046Y-108239704D01*
X151333204Y-108063084D01*
X151355339Y-107951804D01*
X151370500Y-107875588D01*
X151370500Y-107684411D01*
X151333205Y-107496921D01*
X151333204Y-107496920D01*
X151333204Y-107496916D01*
X151304015Y-107426446D01*
X151260048Y-107320299D01*
X151153835Y-107161339D01*
X151018660Y-107026164D01*
X150859700Y-106919951D01*
X150683088Y-106846797D01*
X150683078Y-106846794D01*
X150495588Y-106809500D01*
X150495586Y-106809500D01*
X150304414Y-106809500D01*
X150304412Y-106809500D01*
X150116921Y-106846794D01*
X150116911Y-106846797D01*
X149940299Y-106919951D01*
X149781339Y-107026164D01*
X149646164Y-107161339D01*
X149539951Y-107320299D01*
X149466797Y-107496911D01*
X149466794Y-107496921D01*
X149429500Y-107684411D01*
X149429500Y-107684414D01*
X149429500Y-107875586D01*
X149429500Y-107875588D01*
X149429499Y-107875588D01*
X148830500Y-107875588D01*
X148830500Y-107684411D01*
X148793205Y-107496921D01*
X148793204Y-107496920D01*
X148793204Y-107496916D01*
X148764015Y-107426446D01*
X148720048Y-107320299D01*
X148613835Y-107161339D01*
X148478660Y-107026164D01*
X148319700Y-106919951D01*
X148143088Y-106846797D01*
X148143078Y-106846794D01*
X147955588Y-106809500D01*
X147955586Y-106809500D01*
X147764414Y-106809500D01*
X147764412Y-106809500D01*
X147576921Y-106846794D01*
X147576911Y-106846797D01*
X147400299Y-106919951D01*
X147241339Y-107026164D01*
X147106164Y-107161339D01*
X146999951Y-107320299D01*
X146926797Y-107496911D01*
X146926794Y-107496921D01*
X146889500Y-107684411D01*
X146889500Y-107684414D01*
X146889500Y-107875586D01*
X146889500Y-107875588D01*
X146889499Y-107875588D01*
X146290500Y-107875588D01*
X146290500Y-107684411D01*
X146253205Y-107496921D01*
X146253204Y-107496920D01*
X146253204Y-107496916D01*
X146224015Y-107426446D01*
X146180048Y-107320299D01*
X146073835Y-107161339D01*
X145938660Y-107026164D01*
X145779700Y-106919951D01*
X145603088Y-106846797D01*
X145603078Y-106846794D01*
X145415588Y-106809500D01*
X145415586Y-106809500D01*
X145224414Y-106809500D01*
X145224412Y-106809500D01*
X145036921Y-106846794D01*
X145036911Y-106846797D01*
X144860299Y-106919951D01*
X144701339Y-107026164D01*
X144566164Y-107161339D01*
X144459951Y-107320299D01*
X144386797Y-107496911D01*
X144386794Y-107496921D01*
X144363706Y-107612990D01*
X144331321Y-107674901D01*
X144270605Y-107709475D01*
X144200835Y-107705734D01*
X144144163Y-107664868D01*
X144119616Y-107608195D01*
X144096758Y-107463874D01*
X144096757Y-107463869D01*
X144031095Y-107261782D01*
X143934624Y-107072449D01*
X143895270Y-107018282D01*
X143895269Y-107018282D01*
X143262962Y-107650590D01*
X143245925Y-107587007D01*
X143180099Y-107472993D01*
X143087007Y-107379901D01*
X142972993Y-107314075D01*
X142909409Y-107297037D01*
X143541716Y-106664728D01*
X143487550Y-106625375D01*
X143298217Y-106528904D01*
X143096129Y-106463242D01*
X142886246Y-106430000D01*
X142673754Y-106430000D01*
X142463872Y-106463242D01*
X142463869Y-106463242D01*
X142261782Y-106528904D01*
X142072439Y-106625380D01*
X142018282Y-106664727D01*
X142018282Y-106664728D01*
X142650591Y-107297037D01*
X142587007Y-107314075D01*
X142472993Y-107379901D01*
X142379901Y-107472993D01*
X142314075Y-107587007D01*
X142297037Y-107650591D01*
X141664728Y-107018282D01*
X141664727Y-107018282D01*
X141625380Y-107072439D01*
X141528904Y-107261782D01*
X141463242Y-107463869D01*
X141463242Y-107463872D01*
X141440383Y-107608196D01*
X141410454Y-107671331D01*
X141351142Y-107708262D01*
X141281279Y-107707264D01*
X141223047Y-107668654D01*
X141196293Y-107612989D01*
X141173205Y-107496923D01*
X141173205Y-107496921D01*
X141173204Y-107496916D01*
X141144015Y-107426446D01*
X141100048Y-107320299D01*
X140993835Y-107161339D01*
X140858660Y-107026164D01*
X140770690Y-106967385D01*
X140699704Y-106919954D01*
X140699697Y-106919951D01*
X140584457Y-106872217D01*
X140566266Y-106857557D01*
X140545591Y-106846679D01*
X140539569Y-106836043D01*
X140530054Y-106828376D01*
X140522675Y-106806208D01*
X140511165Y-106785879D01*
X140511848Y-106773678D01*
X140507989Y-106762082D01*
X140513766Y-106739443D01*
X140515074Y-106716119D01*
X140522245Y-106706224D01*
X140525268Y-106694383D01*
X140542368Y-106678461D01*
X140556078Y-106659547D01*
X140570193Y-106652555D01*
X140576405Y-106646772D01*
X140586790Y-106642156D01*
X140593171Y-106639663D01*
X140654587Y-106623207D01*
X140745913Y-106570480D01*
X140820480Y-106495913D01*
X140873207Y-106404587D01*
X140900500Y-106302727D01*
X140900500Y-106197273D01*
X140873207Y-106095413D01*
X140858058Y-106069174D01*
X153411690Y-106069174D01*
X153411690Y-106174628D01*
X153438983Y-106276488D01*
X153491710Y-106367814D01*
X153566277Y-106442381D01*
X153657603Y-106495108D01*
X153759463Y-106522401D01*
X153759465Y-106522401D01*
X153864915Y-106522401D01*
X153864917Y-106522401D01*
X153966777Y-106495108D01*
X154058103Y-106442381D01*
X154132670Y-106367814D01*
X154185397Y-106276488D01*
X154212690Y-106174628D01*
X154212690Y-106069174D01*
X154185397Y-105967314D01*
X154132670Y-105875988D01*
X154058103Y-105801421D01*
X153966777Y-105748694D01*
X153864917Y-105721401D01*
X153759463Y-105721401D01*
X153657603Y-105748694D01*
X153657600Y-105748695D01*
X153566275Y-105801422D01*
X153491711Y-105875986D01*
X153438984Y-105967311D01*
X153438983Y-105967314D01*
X153411690Y-106069174D01*
X140858058Y-106069174D01*
X140820480Y-106004087D01*
X140745913Y-105929520D01*
X140654587Y-105876793D01*
X140552727Y-105849500D01*
X140447273Y-105849500D01*
X140345413Y-105876793D01*
X140345410Y-105876794D01*
X140254085Y-105929521D01*
X140179521Y-106004085D01*
X140126794Y-106095410D01*
X140126793Y-106095413D01*
X140099500Y-106197273D01*
X140099500Y-106302727D01*
X140126793Y-106404587D01*
X140179520Y-106495913D01*
X140254087Y-106570480D01*
X140267310Y-106578114D01*
X140315524Y-106628679D01*
X140328748Y-106697286D01*
X140302780Y-106762151D01*
X140245866Y-106802680D01*
X140205309Y-106809500D01*
X140144412Y-106809500D01*
X139956921Y-106846794D01*
X139956911Y-106846797D01*
X139780299Y-106919951D01*
X139621339Y-107026164D01*
X139486164Y-107161339D01*
X139379951Y-107320299D01*
X139306797Y-107496911D01*
X139306794Y-107496921D01*
X139269500Y-107684411D01*
X139269500Y-107684414D01*
X139269500Y-107875586D01*
X139269500Y-107875588D01*
X139269499Y-107875588D01*
X139306794Y-108063078D01*
X139306797Y-108063088D01*
X139379951Y-108239700D01*
X139486164Y-108398660D01*
X139621339Y-108533835D01*
X139780299Y-108640048D01*
X139956911Y-108713202D01*
X139956916Y-108713204D01*
X139956920Y-108713204D01*
X139956921Y-108713205D01*
X140144411Y-108750500D01*
X140144414Y-108750500D01*
X140335588Y-108750500D01*
X140461729Y-108725408D01*
X140523084Y-108713204D01*
X140611394Y-108676625D01*
X140699700Y-108640048D01*
X140699701Y-108640047D01*
X140699704Y-108640046D01*
X140858658Y-108533837D01*
X140993837Y-108398658D01*
X141100046Y-108239704D01*
X141173204Y-108063084D01*
X141195339Y-107951804D01*
X141196293Y-107947010D01*
X141228678Y-107885099D01*
X141289393Y-107850525D01*
X141359163Y-107854264D01*
X141415835Y-107895131D01*
X141440383Y-107951803D01*
X141463242Y-108096127D01*
X141463242Y-108096130D01*
X141528904Y-108298217D01*
X141625375Y-108487550D01*
X141664728Y-108541716D01*
X142297037Y-107909408D01*
X142314075Y-107972993D01*
X142379901Y-108087007D01*
X142472993Y-108180099D01*
X142587007Y-108245925D01*
X142650590Y-108262962D01*
X142018282Y-108895269D01*
X142018282Y-108895270D01*
X142072449Y-108934624D01*
X142261782Y-109031095D01*
X142343260Y-109057569D01*
X142400935Y-109097006D01*
X142428134Y-109161365D01*
X142416219Y-109230211D01*
X142368975Y-109281687D01*
X142304942Y-109299500D01*
X130555058Y-109299500D01*
X130488019Y-109279815D01*
X130442264Y-109227011D01*
X130432320Y-109157853D01*
X130461345Y-109094297D01*
X130516740Y-109057569D01*
X130598217Y-109031095D01*
X130787554Y-108934622D01*
X130841716Y-108895270D01*
X130841717Y-108895270D01*
X130209408Y-108262962D01*
X130272993Y-108245925D01*
X130387007Y-108180099D01*
X130480099Y-108087007D01*
X130545925Y-107972993D01*
X130562962Y-107909408D01*
X131195270Y-108541717D01*
X131195270Y-108541716D01*
X131234622Y-108487554D01*
X131331095Y-108298217D01*
X131396757Y-108096130D01*
X131396758Y-108096125D01*
X131419616Y-107951804D01*
X131449545Y-107888669D01*
X131508856Y-107851737D01*
X131578719Y-107852735D01*
X131636952Y-107891344D01*
X131663706Y-107947009D01*
X131686794Y-108063078D01*
X131686797Y-108063088D01*
X131759951Y-108239700D01*
X131866164Y-108398660D01*
X132001339Y-108533835D01*
X132160299Y-108640048D01*
X132336911Y-108713202D01*
X132336916Y-108713204D01*
X132336920Y-108713204D01*
X132336921Y-108713205D01*
X132524411Y-108750500D01*
X132524414Y-108750500D01*
X132715588Y-108750500D01*
X132841729Y-108725408D01*
X132903084Y-108713204D01*
X132991394Y-108676625D01*
X133079700Y-108640048D01*
X133079701Y-108640047D01*
X133079704Y-108640046D01*
X133238658Y-108533837D01*
X133373837Y-108398658D01*
X133480046Y-108239704D01*
X133553204Y-108063084D01*
X133575339Y-107951804D01*
X133590500Y-107875588D01*
X134189499Y-107875588D01*
X134226794Y-108063078D01*
X134226797Y-108063088D01*
X134299951Y-108239700D01*
X134406164Y-108398660D01*
X134541339Y-108533835D01*
X134700299Y-108640048D01*
X134876911Y-108713202D01*
X134876916Y-108713204D01*
X134876920Y-108713204D01*
X134876921Y-108713205D01*
X135064411Y-108750500D01*
X135064414Y-108750500D01*
X135255588Y-108750500D01*
X135381729Y-108725408D01*
X135443084Y-108713204D01*
X135531394Y-108676625D01*
X135619700Y-108640048D01*
X135619701Y-108640047D01*
X135619704Y-108640046D01*
X135778658Y-108533837D01*
X135913837Y-108398658D01*
X136020046Y-108239704D01*
X136093204Y-108063084D01*
X136115339Y-107951804D01*
X136130500Y-107875588D01*
X136729499Y-107875588D01*
X136766794Y-108063078D01*
X136766797Y-108063088D01*
X136839951Y-108239700D01*
X136946164Y-108398660D01*
X137081339Y-108533835D01*
X137240299Y-108640048D01*
X137416911Y-108713202D01*
X137416916Y-108713204D01*
X137416920Y-108713204D01*
X137416921Y-108713205D01*
X137604411Y-108750500D01*
X137604414Y-108750500D01*
X137795588Y-108750500D01*
X137921729Y-108725408D01*
X137983084Y-108713204D01*
X138071394Y-108676625D01*
X138159700Y-108640048D01*
X138159701Y-108640047D01*
X138159704Y-108640046D01*
X138318658Y-108533837D01*
X138453837Y-108398658D01*
X138560046Y-108239704D01*
X138633204Y-108063084D01*
X138655339Y-107951804D01*
X138670500Y-107875588D01*
X138670500Y-107684411D01*
X138633205Y-107496921D01*
X138633204Y-107496920D01*
X138633204Y-107496916D01*
X138604015Y-107426446D01*
X138560048Y-107320299D01*
X138453835Y-107161339D01*
X138318660Y-107026164D01*
X138159700Y-106919951D01*
X137983088Y-106846797D01*
X137983078Y-106846794D01*
X137795588Y-106809500D01*
X137795586Y-106809500D01*
X137604414Y-106809500D01*
X137604412Y-106809500D01*
X137416921Y-106846794D01*
X137416911Y-106846797D01*
X137240299Y-106919951D01*
X137081339Y-107026164D01*
X136946164Y-107161339D01*
X136839951Y-107320299D01*
X136766797Y-107496911D01*
X136766794Y-107496921D01*
X136729500Y-107684411D01*
X136729500Y-107684414D01*
X136729500Y-107875586D01*
X136729500Y-107875588D01*
X136729499Y-107875588D01*
X136130500Y-107875588D01*
X136130500Y-107684411D01*
X136093205Y-107496921D01*
X136093204Y-107496920D01*
X136093204Y-107496916D01*
X136064015Y-107426446D01*
X136020048Y-107320299D01*
X135913835Y-107161339D01*
X135778660Y-107026164D01*
X135619700Y-106919951D01*
X135443088Y-106846797D01*
X135443078Y-106846794D01*
X135255588Y-106809500D01*
X135255586Y-106809500D01*
X135064414Y-106809500D01*
X135064412Y-106809500D01*
X134876921Y-106846794D01*
X134876911Y-106846797D01*
X134700299Y-106919951D01*
X134541339Y-107026164D01*
X134406164Y-107161339D01*
X134299951Y-107320299D01*
X134226797Y-107496911D01*
X134226794Y-107496921D01*
X134189500Y-107684411D01*
X134189500Y-107684414D01*
X134189500Y-107875586D01*
X134189500Y-107875588D01*
X134189499Y-107875588D01*
X133590500Y-107875588D01*
X133590500Y-107684411D01*
X133553205Y-107496921D01*
X133553204Y-107496920D01*
X133553204Y-107496916D01*
X133524015Y-107426446D01*
X133480048Y-107320299D01*
X133373835Y-107161339D01*
X133238660Y-107026164D01*
X133079700Y-106919951D01*
X132903088Y-106846797D01*
X132903078Y-106846794D01*
X132715588Y-106809500D01*
X132715586Y-106809500D01*
X132524414Y-106809500D01*
X132524412Y-106809500D01*
X132336921Y-106846794D01*
X132336911Y-106846797D01*
X132160299Y-106919951D01*
X132001339Y-107026164D01*
X131866164Y-107161339D01*
X131759951Y-107320299D01*
X131686797Y-107496911D01*
X131686794Y-107496921D01*
X131663706Y-107612990D01*
X131631321Y-107674901D01*
X131570605Y-107709475D01*
X131500835Y-107705734D01*
X131444163Y-107664868D01*
X131419616Y-107608195D01*
X131396758Y-107463874D01*
X131396757Y-107463869D01*
X131331095Y-107261782D01*
X131234624Y-107072449D01*
X131195270Y-107018282D01*
X131195269Y-107018282D01*
X130562962Y-107650590D01*
X130545925Y-107587007D01*
X130480099Y-107472993D01*
X130387007Y-107379901D01*
X130272993Y-107314075D01*
X130209409Y-107297037D01*
X130841716Y-106664728D01*
X130787550Y-106625375D01*
X130598217Y-106528904D01*
X130396129Y-106463242D01*
X130186246Y-106430000D01*
X129973754Y-106430000D01*
X129763872Y-106463242D01*
X129763869Y-106463242D01*
X129561782Y-106528904D01*
X129372439Y-106625380D01*
X129318282Y-106664727D01*
X129318282Y-106664728D01*
X129950591Y-107297037D01*
X129887007Y-107314075D01*
X129772993Y-107379901D01*
X129679901Y-107472993D01*
X129614075Y-107587007D01*
X129597037Y-107650591D01*
X128964728Y-107018282D01*
X128964727Y-107018282D01*
X128925380Y-107072439D01*
X128828904Y-107261782D01*
X128763242Y-107463869D01*
X128763242Y-107463872D01*
X128740383Y-107608196D01*
X128710454Y-107671331D01*
X128651142Y-107708262D01*
X128581279Y-107707264D01*
X128523047Y-107668654D01*
X128496293Y-107612989D01*
X128473205Y-107496923D01*
X128473205Y-107496921D01*
X128473204Y-107496916D01*
X128444015Y-107426446D01*
X128400048Y-107320299D01*
X128293835Y-107161339D01*
X128158660Y-107026164D01*
X127999700Y-106919951D01*
X127823088Y-106846797D01*
X127823078Y-106846794D01*
X127756766Y-106833604D01*
X127756765Y-106833603D01*
X127635589Y-106809500D01*
X127635586Y-106809500D01*
X127444414Y-106809500D01*
X127444412Y-106809500D01*
X127256921Y-106846794D01*
X127256911Y-106846797D01*
X127080299Y-106919951D01*
X126921339Y-107026164D01*
X126786164Y-107161339D01*
X126679951Y-107320299D01*
X126606797Y-107496911D01*
X126606794Y-107496921D01*
X126569500Y-107684411D01*
X126569500Y-107684414D01*
X126569500Y-107875586D01*
X126569500Y-107875588D01*
X126569499Y-107875588D01*
X126606794Y-108063078D01*
X126606797Y-108063088D01*
X126679951Y-108239700D01*
X126786164Y-108398660D01*
X126921339Y-108533835D01*
X127080299Y-108640048D01*
X127256911Y-108713202D01*
X127256916Y-108713204D01*
X127256920Y-108713204D01*
X127256921Y-108713205D01*
X127444411Y-108750500D01*
X127444414Y-108750500D01*
X127635588Y-108750500D01*
X127761729Y-108725408D01*
X127823084Y-108713204D01*
X127911394Y-108676625D01*
X127999700Y-108640048D01*
X127999701Y-108640047D01*
X127999704Y-108640046D01*
X128158658Y-108533837D01*
X128293837Y-108398658D01*
X128400046Y-108239704D01*
X128473204Y-108063084D01*
X128495339Y-107951804D01*
X128496293Y-107947010D01*
X128528678Y-107885099D01*
X128589393Y-107850525D01*
X128659163Y-107854264D01*
X128715835Y-107895131D01*
X128740383Y-107951803D01*
X128763242Y-108096127D01*
X128763242Y-108096130D01*
X128828904Y-108298217D01*
X128925375Y-108487550D01*
X128964728Y-108541716D01*
X129597037Y-107909408D01*
X129614075Y-107972993D01*
X129679901Y-108087007D01*
X129772993Y-108180099D01*
X129887007Y-108245925D01*
X129950590Y-108262962D01*
X129318282Y-108895269D01*
X129318282Y-108895270D01*
X129372449Y-108934624D01*
X129561782Y-109031095D01*
X129643260Y-109057569D01*
X129700935Y-109097006D01*
X129728134Y-109161365D01*
X129716219Y-109230211D01*
X129668975Y-109281687D01*
X129604942Y-109299500D01*
X123824500Y-109299500D01*
X123757461Y-109279815D01*
X123711706Y-109227011D01*
X123700500Y-109175500D01*
X123700500Y-106918125D01*
X124029500Y-106918125D01*
X124029500Y-108641874D01*
X124036489Y-108677014D01*
X124036490Y-108677015D01*
X124036490Y-108677016D01*
X124036491Y-108677017D01*
X124063124Y-108716876D01*
X124102983Y-108743509D01*
X124102984Y-108743509D01*
X124102985Y-108743510D01*
X124138125Y-108750499D01*
X124138129Y-108750500D01*
X124138130Y-108750500D01*
X125861871Y-108750500D01*
X125861872Y-108750499D01*
X125873692Y-108748148D01*
X125897014Y-108743510D01*
X125897014Y-108743509D01*
X125897017Y-108743509D01*
X125936876Y-108716876D01*
X125963509Y-108677017D01*
X125970500Y-108641870D01*
X125970500Y-106918130D01*
X125965330Y-106892137D01*
X125963510Y-106882985D01*
X125963509Y-106882984D01*
X125963509Y-106882983D01*
X125936876Y-106843124D01*
X125897017Y-106816491D01*
X125897016Y-106816490D01*
X125897015Y-106816490D01*
X125897014Y-106816489D01*
X125861874Y-106809500D01*
X125861870Y-106809500D01*
X124138130Y-106809500D01*
X124138125Y-106809500D01*
X124102985Y-106816489D01*
X124102984Y-106816490D01*
X124063124Y-106843124D01*
X124036490Y-106882984D01*
X124036489Y-106882985D01*
X124029500Y-106918125D01*
X123700500Y-106918125D01*
X123700500Y-103070000D01*
X125180138Y-103070000D01*
X125983012Y-103070000D01*
X125965795Y-103079940D01*
X125909940Y-103135795D01*
X125870444Y-103204204D01*
X125850000Y-103280504D01*
X125850000Y-103359496D01*
X125870444Y-103435796D01*
X125909940Y-103504205D01*
X125965795Y-103560060D01*
X125983012Y-103570000D01*
X125180138Y-103570000D01*
X125188430Y-103611690D01*
X125188430Y-103611692D01*
X125263807Y-103793671D01*
X125263814Y-103793684D01*
X125373248Y-103957462D01*
X125373251Y-103957466D01*
X125512533Y-104096748D01*
X125512537Y-104096751D01*
X125676315Y-104206185D01*
X125676328Y-104206192D01*
X125858306Y-104281569D01*
X125858318Y-104281572D01*
X126051504Y-104319999D01*
X126051508Y-104320000D01*
X126200000Y-104320000D01*
X126200000Y-103620000D01*
X126700000Y-103620000D01*
X126700000Y-104320000D01*
X126848492Y-104320000D01*
X126848495Y-104319999D01*
X127041681Y-104281572D01*
X127041693Y-104281569D01*
X127223671Y-104206192D01*
X127223684Y-104206185D01*
X127387462Y-104096751D01*
X127387466Y-104096748D01*
X127526748Y-103957466D01*
X127526751Y-103957462D01*
X127636185Y-103793684D01*
X127636192Y-103793671D01*
X127711569Y-103611692D01*
X127711569Y-103611690D01*
X127719862Y-103570000D01*
X126916988Y-103570000D01*
X126934205Y-103560060D01*
X126990060Y-103504205D01*
X127029556Y-103435796D01*
X127050000Y-103359496D01*
X127050000Y-103280504D01*
X127029556Y-103204204D01*
X126990060Y-103135795D01*
X126934205Y-103079940D01*
X126916988Y-103070000D01*
X127719862Y-103070000D01*
X129110138Y-103070000D01*
X129913012Y-103070000D01*
X129895795Y-103079940D01*
X129839940Y-103135795D01*
X129800444Y-103204204D01*
X129780000Y-103280504D01*
X129780000Y-103359496D01*
X129800444Y-103435796D01*
X129839940Y-103504205D01*
X129895795Y-103560060D01*
X129913012Y-103570000D01*
X129110138Y-103570000D01*
X129118430Y-103611690D01*
X129118430Y-103611692D01*
X129193807Y-103793671D01*
X129193814Y-103793684D01*
X129303248Y-103957462D01*
X129303251Y-103957466D01*
X129442533Y-104096748D01*
X129442537Y-104096751D01*
X129606315Y-104206185D01*
X129606328Y-104206192D01*
X129788306Y-104281569D01*
X129788318Y-104281572D01*
X129981504Y-104319999D01*
X129981508Y-104320000D01*
X130380000Y-104320000D01*
X130380000Y-103620000D01*
X130880000Y-103620000D01*
X130880000Y-104320000D01*
X131278492Y-104320000D01*
X131278495Y-104319999D01*
X131471681Y-104281572D01*
X131471693Y-104281569D01*
X131653671Y-104206192D01*
X131653684Y-104206185D01*
X131817462Y-104096751D01*
X131817466Y-104096748D01*
X131956748Y-103957466D01*
X131956751Y-103957462D01*
X132066185Y-103793684D01*
X132066192Y-103793671D01*
X132141569Y-103611692D01*
X132141569Y-103611690D01*
X132149862Y-103570000D01*
X131346988Y-103570000D01*
X131364205Y-103560060D01*
X131420060Y-103504205D01*
X131459556Y-103435796D01*
X131480000Y-103359496D01*
X131480000Y-103280504D01*
X131459556Y-103204204D01*
X131420060Y-103135795D01*
X131364205Y-103079940D01*
X131346988Y-103070000D01*
X132149862Y-103070000D01*
X132141569Y-103028309D01*
X132141569Y-103028307D01*
X132066192Y-102846328D01*
X132066185Y-102846315D01*
X131956751Y-102682537D01*
X131956748Y-102682533D01*
X131817466Y-102543251D01*
X131817462Y-102543248D01*
X131653684Y-102433814D01*
X131653671Y-102433807D01*
X131471693Y-102358430D01*
X131471681Y-102358427D01*
X131278495Y-102320000D01*
X130880000Y-102320000D01*
X130880000Y-103020000D01*
X130380000Y-103020000D01*
X130380000Y-102464463D01*
X130399685Y-102397424D01*
X130442000Y-102357076D01*
X130453365Y-102350515D01*
X130560515Y-102243365D01*
X130561372Y-102241879D01*
X130581721Y-102206637D01*
X130626538Y-102129010D01*
X130636281Y-102112135D01*
X130675500Y-101965766D01*
X130675500Y-101814234D01*
X130660466Y-101758125D01*
X137449500Y-101758125D01*
X137449500Y-103481874D01*
X137456489Y-103517014D01*
X137456490Y-103517015D01*
X137456490Y-103517016D01*
X137456491Y-103517017D01*
X137483124Y-103556876D01*
X137522983Y-103583509D01*
X137522984Y-103583509D01*
X137522985Y-103583510D01*
X137558125Y-103590499D01*
X137558129Y-103590500D01*
X137558130Y-103590500D01*
X139281871Y-103590500D01*
X139281872Y-103590499D01*
X139293692Y-103588148D01*
X139317014Y-103583510D01*
X139317014Y-103583509D01*
X139317017Y-103583509D01*
X139356876Y-103556876D01*
X139383509Y-103517017D01*
X139386058Y-103504205D01*
X139390499Y-103481874D01*
X139390500Y-103481871D01*
X139390500Y-102715588D01*
X139989499Y-102715588D01*
X140026794Y-102903078D01*
X140026797Y-102903088D01*
X140099951Y-103079700D01*
X140206164Y-103238660D01*
X140341339Y-103373835D01*
X140500299Y-103480048D01*
X140676911Y-103553202D01*
X140676916Y-103553204D01*
X140676920Y-103553204D01*
X140676921Y-103553205D01*
X140864411Y-103590500D01*
X140864414Y-103590500D01*
X141055588Y-103590500D01*
X141181729Y-103565408D01*
X141243084Y-103553204D01*
X141361379Y-103504205D01*
X141419700Y-103480048D01*
X141419701Y-103480047D01*
X141419704Y-103480046D01*
X141578658Y-103373837D01*
X141713837Y-103238658D01*
X141820046Y-103079704D01*
X141841335Y-103028309D01*
X141860309Y-102982500D01*
X141893204Y-102903084D01*
X141912796Y-102804589D01*
X141930500Y-102715588D01*
X141930500Y-102524411D01*
X141893205Y-102336921D01*
X141893204Y-102336920D01*
X141893204Y-102336916D01*
X141890141Y-102329521D01*
X141820048Y-102160299D01*
X141713835Y-102001339D01*
X141578660Y-101866164D01*
X141419700Y-101759951D01*
X141243088Y-101686797D01*
X141243078Y-101686794D01*
X141055588Y-101649500D01*
X141055586Y-101649500D01*
X140864414Y-101649500D01*
X140864412Y-101649500D01*
X140676921Y-101686794D01*
X140676911Y-101686797D01*
X140500299Y-101759951D01*
X140341339Y-101866164D01*
X140206164Y-102001339D01*
X140099951Y-102160299D01*
X140026797Y-102336911D01*
X140026794Y-102336921D01*
X139989500Y-102524411D01*
X139989500Y-102524414D01*
X139989500Y-102715586D01*
X139989500Y-102715588D01*
X139989499Y-102715588D01*
X139390500Y-102715588D01*
X139390500Y-101758129D01*
X139390499Y-101758125D01*
X139383510Y-101722985D01*
X139383509Y-101722984D01*
X139383509Y-101722983D01*
X139356876Y-101683124D01*
X139317017Y-101656491D01*
X139317016Y-101656490D01*
X139317015Y-101656490D01*
X139317014Y-101656489D01*
X139281874Y-101649500D01*
X139281870Y-101649500D01*
X137558130Y-101649500D01*
X137558125Y-101649500D01*
X137522985Y-101656489D01*
X137522984Y-101656490D01*
X137483124Y-101683124D01*
X137456490Y-101722984D01*
X137456489Y-101722985D01*
X137449500Y-101758125D01*
X130660466Y-101758125D01*
X130636281Y-101667865D01*
X130560515Y-101536635D01*
X130453365Y-101429485D01*
X130362102Y-101376794D01*
X130322136Y-101353719D01*
X130248950Y-101334109D01*
X130175766Y-101314500D01*
X130024234Y-101314500D01*
X129877863Y-101353719D01*
X129746635Y-101429485D01*
X129746632Y-101429487D01*
X129639487Y-101536632D01*
X129639485Y-101536635D01*
X129563719Y-101667863D01*
X129527583Y-101802727D01*
X129524500Y-101814234D01*
X129524500Y-101965766D01*
X129534768Y-102004087D01*
X129563719Y-102112136D01*
X129593524Y-102163758D01*
X129639485Y-102243365D01*
X129639487Y-102243367D01*
X129644432Y-102249811D01*
X129641612Y-102251974D01*
X129667302Y-102299020D01*
X129662318Y-102368712D01*
X129620446Y-102424645D01*
X129611379Y-102430416D01*
X129611387Y-102430427D01*
X129442536Y-102543248D01*
X129303251Y-102682533D01*
X129303248Y-102682537D01*
X129193814Y-102846315D01*
X129193807Y-102846328D01*
X129118430Y-103028307D01*
X129118430Y-103028309D01*
X129110138Y-103070000D01*
X127719862Y-103070000D01*
X127711569Y-103028309D01*
X127711569Y-103028307D01*
X127636192Y-102846328D01*
X127636185Y-102846315D01*
X127526751Y-102682537D01*
X127526748Y-102682533D01*
X127387466Y-102543251D01*
X127387462Y-102543248D01*
X127223684Y-102433814D01*
X127223671Y-102433807D01*
X127041693Y-102358430D01*
X127041681Y-102358427D01*
X126848495Y-102320000D01*
X126700000Y-102320000D01*
X126700000Y-103020000D01*
X126200000Y-103020000D01*
X126200000Y-102320000D01*
X126051504Y-102320000D01*
X125858318Y-102358427D01*
X125858306Y-102358430D01*
X125676328Y-102433807D01*
X125676315Y-102433814D01*
X125512537Y-102543248D01*
X125512533Y-102543251D01*
X125373251Y-102682533D01*
X125373248Y-102682537D01*
X125263814Y-102846315D01*
X125263807Y-102846328D01*
X125188430Y-103028307D01*
X125188430Y-103028309D01*
X125180138Y-103070000D01*
X123700500Y-103070000D01*
X123700500Y-94430000D01*
X125180138Y-94430000D01*
X125983012Y-94430000D01*
X125965795Y-94439940D01*
X125909940Y-94495795D01*
X125870444Y-94564204D01*
X125850000Y-94640504D01*
X125850000Y-94719496D01*
X125870444Y-94795796D01*
X125909940Y-94864205D01*
X125965795Y-94920060D01*
X125983012Y-94930000D01*
X125180138Y-94930000D01*
X125188430Y-94971690D01*
X125188430Y-94971692D01*
X125263807Y-95153671D01*
X125263814Y-95153684D01*
X125373248Y-95317462D01*
X125373251Y-95317466D01*
X125512533Y-95456748D01*
X125512537Y-95456751D01*
X125676315Y-95566185D01*
X125676328Y-95566192D01*
X125858306Y-95641569D01*
X125858318Y-95641572D01*
X126051504Y-95679999D01*
X126051508Y-95680000D01*
X126200000Y-95680000D01*
X126200000Y-94980000D01*
X126700000Y-94980000D01*
X126700000Y-95680000D01*
X126848492Y-95680000D01*
X126848495Y-95679999D01*
X127041681Y-95641572D01*
X127041693Y-95641569D01*
X127223671Y-95566192D01*
X127223684Y-95566185D01*
X127387462Y-95456751D01*
X127387466Y-95456748D01*
X127526748Y-95317466D01*
X127526751Y-95317462D01*
X127636185Y-95153684D01*
X127636192Y-95153671D01*
X127711569Y-94971692D01*
X127711569Y-94971690D01*
X127719862Y-94930000D01*
X126916988Y-94930000D01*
X126934205Y-94920060D01*
X126990060Y-94864205D01*
X127029556Y-94795796D01*
X127050000Y-94719496D01*
X127050000Y-94640504D01*
X127029556Y-94564204D01*
X126990060Y-94495795D01*
X126934205Y-94439940D01*
X126916988Y-94430000D01*
X127719862Y-94430000D01*
X129110138Y-94430000D01*
X129913012Y-94430000D01*
X129895795Y-94439940D01*
X129839940Y-94495795D01*
X129800444Y-94564204D01*
X129780000Y-94640504D01*
X129780000Y-94719496D01*
X129800444Y-94795796D01*
X129839940Y-94864205D01*
X129895795Y-94920060D01*
X129913012Y-94930000D01*
X129110138Y-94930000D01*
X129118430Y-94971690D01*
X129118430Y-94971692D01*
X129193807Y-95153671D01*
X129193814Y-95153684D01*
X129303248Y-95317462D01*
X129303251Y-95317466D01*
X129442533Y-95456748D01*
X129442537Y-95456751D01*
X129611387Y-95569574D01*
X129610430Y-95571005D01*
X129654425Y-95614211D01*
X129669895Y-95682346D01*
X129646072Y-95748029D01*
X129644309Y-95750094D01*
X129644432Y-95750189D01*
X129639485Y-95756635D01*
X129563719Y-95887863D01*
X129524500Y-96034234D01*
X129524500Y-96185765D01*
X129563719Y-96332136D01*
X129590427Y-96378394D01*
X129639485Y-96463365D01*
X129746635Y-96570515D01*
X129877865Y-96646281D01*
X130024234Y-96685500D01*
X130024236Y-96685500D01*
X130175764Y-96685500D01*
X130175766Y-96685500D01*
X130322135Y-96646281D01*
X130453365Y-96570515D01*
X130526607Y-96497273D01*
X131144500Y-96497273D01*
X131144500Y-96602727D01*
X131171793Y-96704587D01*
X131224520Y-96795913D01*
X131299087Y-96870480D01*
X131390413Y-96923207D01*
X131492273Y-96950500D01*
X131492275Y-96950500D01*
X131597725Y-96950500D01*
X131597727Y-96950500D01*
X131699587Y-96923207D01*
X131790913Y-96870480D01*
X131804574Y-96856819D01*
X131865897Y-96823334D01*
X131892255Y-96820500D01*
X134386593Y-96820500D01*
X134453632Y-96840185D01*
X134474274Y-96856819D01*
X135313181Y-97695726D01*
X135346666Y-97757049D01*
X135349500Y-97783407D01*
X135349500Y-97802727D01*
X135376793Y-97904587D01*
X135429520Y-97995913D01*
X135504087Y-98070480D01*
X135555758Y-98100312D01*
X135602452Y-98127271D01*
X135601543Y-98128844D01*
X135648037Y-98166308D01*
X135670105Y-98232601D01*
X135653571Y-98299032D01*
X135626794Y-98345410D01*
X135626793Y-98345413D01*
X135599500Y-98447273D01*
X135599500Y-98552727D01*
X135626793Y-98654587D01*
X135679520Y-98745913D01*
X135754087Y-98820480D01*
X135842587Y-98871575D01*
X135890802Y-98922143D01*
X135904024Y-98990750D01*
X135878056Y-99055614D01*
X135821142Y-99096142D01*
X135780586Y-99102962D01*
X134536869Y-99102962D01*
X134469830Y-99083277D01*
X134449188Y-99066643D01*
X134186819Y-98804274D01*
X134153334Y-98742951D01*
X134150500Y-98716593D01*
X134150500Y-98697275D01*
X134150500Y-98697273D01*
X134123207Y-98595413D01*
X134070480Y-98504087D01*
X133995913Y-98429520D01*
X133904587Y-98376793D01*
X133802727Y-98349500D01*
X133697273Y-98349500D01*
X133595413Y-98376793D01*
X133595410Y-98376794D01*
X133504085Y-98429521D01*
X133429521Y-98504085D01*
X133376794Y-98595410D01*
X133376793Y-98595413D01*
X133349500Y-98697273D01*
X133349500Y-98802727D01*
X133376793Y-98904587D01*
X133429520Y-98995913D01*
X133504087Y-99070480D01*
X133595413Y-99123207D01*
X133697273Y-99150500D01*
X133716593Y-99150500D01*
X133783632Y-99170185D01*
X133804274Y-99186819D01*
X134220236Y-99602781D01*
X134253697Y-99616640D01*
X134253699Y-99616642D01*
X134253700Y-99616642D01*
X134319653Y-99643961D01*
X134319654Y-99643961D01*
X134319656Y-99643962D01*
X134319657Y-99643962D01*
X144998541Y-99643962D01*
X144998542Y-99643962D01*
X145064497Y-99616642D01*
X145097962Y-99602781D01*
X147694924Y-97005819D01*
X147756247Y-96972334D01*
X147782605Y-96969500D01*
X151748932Y-96969500D01*
X151815971Y-96989185D01*
X151861726Y-97041989D01*
X151871670Y-97111147D01*
X151868709Y-97125579D01*
X151849500Y-97197273D01*
X151849500Y-97302727D01*
X151876793Y-97404587D01*
X151929520Y-97495913D01*
X152004087Y-97570480D01*
X152095413Y-97623207D01*
X152197273Y-97650500D01*
X152197275Y-97650500D01*
X152302725Y-97650500D01*
X152302727Y-97650500D01*
X152404587Y-97623207D01*
X152450970Y-97596427D01*
X152518865Y-97579955D01*
X152584892Y-97602806D01*
X152621210Y-97648424D01*
X152622729Y-97647548D01*
X152626793Y-97654587D01*
X152679520Y-97745913D01*
X152754087Y-97820480D01*
X152845413Y-97873207D01*
X152947273Y-97900500D01*
X152947275Y-97900500D01*
X153052725Y-97900500D01*
X153052727Y-97900500D01*
X153154587Y-97873207D01*
X153245913Y-97820480D01*
X153320480Y-97745913D01*
X153373207Y-97654587D01*
X153400500Y-97552727D01*
X153400500Y-97447273D01*
X153373207Y-97345413D01*
X153320480Y-97254087D01*
X153247574Y-97181181D01*
X153214089Y-97119858D01*
X153219073Y-97050166D01*
X153260945Y-96994233D01*
X153326409Y-96969816D01*
X153335255Y-96969500D01*
X156923002Y-96969500D01*
X156923004Y-96969500D01*
X156981242Y-96945376D01*
X157022424Y-96928319D01*
X157615637Y-96335104D01*
X157676960Y-96301620D01*
X157746651Y-96306604D01*
X157802585Y-96348475D01*
X157814846Y-96370008D01*
X157834812Y-96404589D01*
X157870500Y-96466403D01*
X157945067Y-96540970D01*
X158036393Y-96593697D01*
X158138253Y-96620990D01*
X158138255Y-96620990D01*
X158243705Y-96620990D01*
X158243707Y-96620990D01*
X158250256Y-96619235D01*
X158278094Y-96619897D01*
X158305815Y-96617249D01*
X158312540Y-96620716D01*
X158320105Y-96620896D01*
X158343167Y-96636504D01*
X158367918Y-96649264D01*
X158374631Y-96657799D01*
X158377968Y-96660058D01*
X158389734Y-96677002D01*
X158403570Y-96700967D01*
X158420044Y-96768864D01*
X158397193Y-96834891D01*
X158351575Y-96871211D01*
X158352452Y-96872729D01*
X158254085Y-96929521D01*
X158179521Y-97004085D01*
X158126794Y-97095410D01*
X158126793Y-97095413D01*
X158099500Y-97197273D01*
X158099500Y-97302727D01*
X158126793Y-97404587D01*
X158164799Y-97470416D01*
X158179521Y-97495914D01*
X158220926Y-97537319D01*
X158254411Y-97598642D01*
X158249427Y-97668334D01*
X158220926Y-97712681D01*
X158179521Y-97754085D01*
X158126794Y-97845410D01*
X158126793Y-97845413D01*
X158099500Y-97947273D01*
X158099500Y-98052727D01*
X158126793Y-98154587D01*
X158179520Y-98245913D01*
X158254087Y-98320480D01*
X158345413Y-98373207D01*
X158447273Y-98400500D01*
X158447275Y-98400500D01*
X158552725Y-98400500D01*
X158552727Y-98400500D01*
X158654587Y-98373207D01*
X158745913Y-98320480D01*
X158820480Y-98245913D01*
X158873207Y-98154587D01*
X158900500Y-98052727D01*
X158900500Y-97947273D01*
X158873207Y-97845413D01*
X158820480Y-97754087D01*
X158779074Y-97712681D01*
X158745589Y-97651358D01*
X158750573Y-97581666D01*
X158779074Y-97537319D01*
X158820480Y-97495913D01*
X158873207Y-97404587D01*
X158900500Y-97302727D01*
X158900500Y-97197273D01*
X158873207Y-97095413D01*
X158846428Y-97049031D01*
X158844172Y-97039731D01*
X158838317Y-97032157D01*
X158836067Y-97006328D01*
X158829955Y-96981133D01*
X158833086Y-96972085D01*
X158832256Y-96962551D01*
X158840294Y-96947273D01*
X162599500Y-96947273D01*
X162599500Y-97052727D01*
X162626793Y-97154587D01*
X162679520Y-97245913D01*
X162679521Y-97245914D01*
X162682169Y-97250500D01*
X162698642Y-97318400D01*
X162682170Y-97374499D01*
X162626793Y-97470415D01*
X162626793Y-97470416D01*
X162599500Y-97572276D01*
X162599500Y-97677730D01*
X162626793Y-97779590D01*
X162679520Y-97870916D01*
X162754087Y-97945483D01*
X162845413Y-97998210D01*
X162947273Y-98025503D01*
X162947275Y-98025503D01*
X163052725Y-98025503D01*
X163052727Y-98025503D01*
X163154587Y-97998210D01*
X163245913Y-97945483D01*
X163320480Y-97870916D01*
X163373207Y-97779590D01*
X163400500Y-97677730D01*
X163400500Y-97572276D01*
X163373207Y-97470416D01*
X163320480Y-97379090D01*
X163320478Y-97379088D01*
X163317830Y-97374501D01*
X163301357Y-97306601D01*
X163317830Y-97250500D01*
X163320475Y-97245917D01*
X163320480Y-97245913D01*
X163373207Y-97154587D01*
X163400500Y-97052727D01*
X163400500Y-96947273D01*
X163373207Y-96845413D01*
X163320480Y-96754087D01*
X163245913Y-96679520D01*
X163154587Y-96626793D01*
X163052727Y-96599500D01*
X162947273Y-96599500D01*
X162845413Y-96626793D01*
X162845410Y-96626794D01*
X162754085Y-96679521D01*
X162679521Y-96754085D01*
X162626794Y-96845410D01*
X162626793Y-96845413D01*
X162599500Y-96947273D01*
X158840294Y-96947273D01*
X158844327Y-96939607D01*
X158852807Y-96915106D01*
X158861196Y-96907542D01*
X158864788Y-96900717D01*
X158880940Y-96889744D01*
X158892712Y-96879132D01*
X158901906Y-96873925D01*
X158904587Y-96873207D01*
X158995913Y-96820480D01*
X159070480Y-96745913D01*
X159123207Y-96654587D01*
X159150500Y-96552727D01*
X159150500Y-96447273D01*
X159123207Y-96345413D01*
X159107803Y-96318733D01*
X159085153Y-96279502D01*
X159070480Y-96254087D01*
X159013666Y-96197273D01*
X159349500Y-96197273D01*
X159349500Y-96302727D01*
X159376793Y-96404587D01*
X159429520Y-96495913D01*
X159504087Y-96570480D01*
X159595413Y-96623207D01*
X159697273Y-96650500D01*
X159697275Y-96650500D01*
X159802725Y-96650500D01*
X159802727Y-96650500D01*
X159904587Y-96623207D01*
X159995913Y-96570480D01*
X160070480Y-96495913D01*
X160123207Y-96404587D01*
X160130225Y-96378393D01*
X160166589Y-96318733D01*
X160229436Y-96288203D01*
X160298812Y-96296497D01*
X160352690Y-96340982D01*
X160369775Y-96378394D01*
X160376792Y-96404585D01*
X160376793Y-96404587D01*
X160429520Y-96495913D01*
X160504087Y-96570480D01*
X160595413Y-96623207D01*
X160697273Y-96650500D01*
X160697275Y-96650500D01*
X160802725Y-96650500D01*
X160802727Y-96650500D01*
X160904587Y-96623207D01*
X160995913Y-96570480D01*
X161070480Y-96495913D01*
X161123207Y-96404587D01*
X161150500Y-96302727D01*
X161150500Y-96197273D01*
X161123207Y-96095413D01*
X161070480Y-96004087D01*
X160995913Y-95929520D01*
X160923761Y-95887863D01*
X160904589Y-95876794D01*
X160904588Y-95876793D01*
X160904587Y-95876793D01*
X160802727Y-95849500D01*
X160697273Y-95849500D01*
X160595413Y-95876793D01*
X160595410Y-95876794D01*
X160504085Y-95929521D01*
X160429521Y-96004085D01*
X160376794Y-96095410D01*
X160376793Y-96095413D01*
X160369775Y-96121606D01*
X160333410Y-96181267D01*
X160270563Y-96211796D01*
X160201188Y-96203501D01*
X160147310Y-96159016D01*
X160130225Y-96121606D01*
X160126773Y-96108723D01*
X160123207Y-96095413D01*
X160070480Y-96004087D01*
X159995913Y-95929520D01*
X159923761Y-95887863D01*
X159904589Y-95876794D01*
X159904588Y-95876793D01*
X159904587Y-95876793D01*
X159802727Y-95849500D01*
X159697273Y-95849500D01*
X159595413Y-95876793D01*
X159595410Y-95876794D01*
X159504085Y-95929521D01*
X159429521Y-96004085D01*
X159376794Y-96095410D01*
X159376793Y-96095413D01*
X159349500Y-96197273D01*
X159013666Y-96197273D01*
X158995913Y-96179520D01*
X158929059Y-96140922D01*
X158904589Y-96126794D01*
X158904588Y-96126793D01*
X158904587Y-96126793D01*
X158802727Y-96099500D01*
X158697273Y-96099500D01*
X158697270Y-96099500D01*
X158690714Y-96101257D01*
X158620864Y-96099590D01*
X158563004Y-96060423D01*
X158551241Y-96043480D01*
X158535699Y-96016561D01*
X158511460Y-95974577D01*
X158436893Y-95900010D01*
X158345567Y-95847283D01*
X158338528Y-95843219D01*
X158339201Y-95842052D01*
X158291421Y-95803551D01*
X158269354Y-95737258D01*
X158286631Y-95669558D01*
X158305590Y-95645151D01*
X160803469Y-93147273D01*
X164399500Y-93147273D01*
X164399500Y-93252727D01*
X164426793Y-93354587D01*
X164479520Y-93445913D01*
X164554087Y-93520480D01*
X164642781Y-93571687D01*
X164690997Y-93622254D01*
X164704220Y-93690861D01*
X164682386Y-93746357D01*
X164683584Y-93747049D01*
X164679521Y-93754085D01*
X164679520Y-93754087D01*
X164657638Y-93791987D01*
X164626794Y-93845410D01*
X164626793Y-93845413D01*
X164599500Y-93947273D01*
X164599500Y-94052727D01*
X164626793Y-94154587D01*
X164679520Y-94245913D01*
X164754087Y-94320480D01*
X164845413Y-94373207D01*
X164947273Y-94400500D01*
X164947275Y-94400500D01*
X165052725Y-94400500D01*
X165052727Y-94400500D01*
X165154587Y-94373207D01*
X165245913Y-94320480D01*
X165320480Y-94245913D01*
X165373207Y-94154587D01*
X165400500Y-94052727D01*
X165400500Y-94024500D01*
X165420185Y-93957461D01*
X165431943Y-93947273D01*
X171099500Y-93947273D01*
X171099500Y-94052727D01*
X171126793Y-94154587D01*
X171179520Y-94245913D01*
X171254087Y-94320480D01*
X171345413Y-94373207D01*
X171447273Y-94400500D01*
X171447275Y-94400500D01*
X171552725Y-94400500D01*
X171552727Y-94400500D01*
X171654587Y-94373207D01*
X171745913Y-94320480D01*
X171820480Y-94245913D01*
X171873207Y-94154587D01*
X171900500Y-94052727D01*
X171900500Y-93947273D01*
X171873207Y-93845413D01*
X171820480Y-93754087D01*
X171745913Y-93679520D01*
X171654587Y-93626793D01*
X171552727Y-93599500D01*
X171447273Y-93599500D01*
X171345413Y-93626793D01*
X171345410Y-93626794D01*
X171254085Y-93679521D01*
X171179521Y-93754085D01*
X171126794Y-93845410D01*
X171126793Y-93845413D01*
X171099500Y-93947273D01*
X165431943Y-93947273D01*
X165472989Y-93911706D01*
X165524500Y-93900500D01*
X165552725Y-93900500D01*
X165552727Y-93900500D01*
X165654587Y-93873207D01*
X165745913Y-93820480D01*
X165820480Y-93745913D01*
X165873207Y-93654587D01*
X165900500Y-93552727D01*
X165900500Y-93447273D01*
X165873207Y-93345413D01*
X165820480Y-93254087D01*
X165745913Y-93179520D01*
X165670922Y-93136224D01*
X165654589Y-93126794D01*
X165654588Y-93126793D01*
X165654587Y-93126793D01*
X165552727Y-93099500D01*
X165447273Y-93099500D01*
X165345413Y-93126793D01*
X165345412Y-93126793D01*
X165345410Y-93126794D01*
X165340658Y-93128762D01*
X165271188Y-93136224D01*
X165208712Y-93104943D01*
X165177207Y-93052550D01*
X165176316Y-93052920D01*
X165173850Y-93046967D01*
X165173441Y-93046286D01*
X165173207Y-93045413D01*
X165120480Y-92954087D01*
X165045913Y-92879520D01*
X164954587Y-92826793D01*
X164852727Y-92799500D01*
X164747273Y-92799500D01*
X164645413Y-92826793D01*
X164645410Y-92826794D01*
X164554085Y-92879521D01*
X164479521Y-92954085D01*
X164426794Y-93045410D01*
X164426794Y-93045411D01*
X164426793Y-93045413D01*
X164399500Y-93147273D01*
X160803469Y-93147273D01*
X161704320Y-92246423D01*
X161716854Y-92216161D01*
X161729236Y-92186270D01*
X161729249Y-92186236D01*
X161729267Y-92186194D01*
X161745501Y-92147003D01*
X161745501Y-91950043D01*
X161765186Y-91883004D01*
X161807497Y-91842658D01*
X161845913Y-91820480D01*
X161920480Y-91745913D01*
X161973207Y-91654587D01*
X162000500Y-91552727D01*
X162000500Y-91447273D01*
X161973207Y-91345413D01*
X161920480Y-91254087D01*
X161845913Y-91179520D01*
X161754587Y-91126793D01*
X161652727Y-91099500D01*
X161547273Y-91099500D01*
X161445413Y-91126793D01*
X161445410Y-91126794D01*
X161354085Y-91179521D01*
X161337681Y-91195926D01*
X161276358Y-91229411D01*
X161206666Y-91224427D01*
X161162319Y-91195926D01*
X161145914Y-91179521D01*
X161145913Y-91179520D01*
X161054587Y-91126793D01*
X160995217Y-91110885D01*
X160935558Y-91074521D01*
X160905029Y-91011674D01*
X160913324Y-90942299D01*
X160957809Y-90888421D01*
X160979853Y-90876552D01*
X161019704Y-90860046D01*
X161178658Y-90753837D01*
X161313837Y-90618658D01*
X161420046Y-90459704D01*
X161493204Y-90283084D01*
X161515339Y-90171804D01*
X161530500Y-90095588D01*
X162129499Y-90095588D01*
X162166794Y-90283078D01*
X162166797Y-90283088D01*
X162239951Y-90459700D01*
X162346164Y-90618660D01*
X162481339Y-90753835D01*
X162640299Y-90860048D01*
X162816911Y-90933202D01*
X162816916Y-90933204D01*
X162816920Y-90933204D01*
X162816921Y-90933205D01*
X163004411Y-90970500D01*
X163004414Y-90970500D01*
X163195588Y-90970500D01*
X163337361Y-90942299D01*
X163383084Y-90933204D01*
X163471394Y-90896625D01*
X163559700Y-90860048D01*
X163559701Y-90860047D01*
X163559704Y-90860046D01*
X163718658Y-90753837D01*
X163853837Y-90618658D01*
X163960046Y-90459704D01*
X164033204Y-90283084D01*
X164055339Y-90171804D01*
X164070500Y-90095588D01*
X164070500Y-89904411D01*
X164033205Y-89716921D01*
X164033204Y-89716920D01*
X164033204Y-89716916D01*
X164004015Y-89646446D01*
X163960048Y-89540299D01*
X163853835Y-89381339D01*
X163718660Y-89246164D01*
X163559700Y-89139951D01*
X163383088Y-89066797D01*
X163383078Y-89066794D01*
X163195588Y-89029500D01*
X163195586Y-89029500D01*
X163004414Y-89029500D01*
X163004412Y-89029500D01*
X162816921Y-89066794D01*
X162816911Y-89066797D01*
X162640299Y-89139951D01*
X162481339Y-89246164D01*
X162346164Y-89381339D01*
X162239951Y-89540299D01*
X162166797Y-89716911D01*
X162166794Y-89716921D01*
X162129500Y-89904411D01*
X162129500Y-89904414D01*
X162129500Y-90095586D01*
X162129500Y-90095588D01*
X162129499Y-90095588D01*
X161530500Y-90095588D01*
X161530500Y-89904411D01*
X161493205Y-89716921D01*
X161493204Y-89716920D01*
X161493204Y-89716916D01*
X161464015Y-89646446D01*
X161420048Y-89540299D01*
X161313835Y-89381339D01*
X161178660Y-89246164D01*
X161019700Y-89139951D01*
X160843088Y-89066797D01*
X160843078Y-89066794D01*
X160655588Y-89029500D01*
X160655586Y-89029500D01*
X160464414Y-89029500D01*
X160464412Y-89029500D01*
X160276921Y-89066794D01*
X160276911Y-89066797D01*
X160100299Y-89139951D01*
X159941339Y-89246164D01*
X159806164Y-89381339D01*
X159699951Y-89540299D01*
X159626797Y-89716911D01*
X159626794Y-89716921D01*
X159589500Y-89904411D01*
X159589500Y-89904414D01*
X159589500Y-90095586D01*
X159589500Y-90095588D01*
X159589499Y-90095588D01*
X159626794Y-90283078D01*
X159626797Y-90283088D01*
X159699951Y-90459700D01*
X159806164Y-90618660D01*
X159941339Y-90753835D01*
X159941342Y-90753837D01*
X160079429Y-90846103D01*
X160124234Y-90899714D01*
X160132941Y-90969039D01*
X160102787Y-91032067D01*
X160072540Y-91056591D01*
X160037587Y-91076771D01*
X159963023Y-91151335D01*
X159910296Y-91242660D01*
X159910295Y-91242663D01*
X159883002Y-91344523D01*
X159883002Y-91449977D01*
X159910295Y-91551837D01*
X159963022Y-91643163D01*
X160037589Y-91717730D01*
X160128915Y-91770457D01*
X160230775Y-91797750D01*
X160230777Y-91797750D01*
X160336227Y-91797750D01*
X160336229Y-91797750D01*
X160438089Y-91770457D01*
X160438096Y-91770452D01*
X160443777Y-91768100D01*
X160513247Y-91760630D01*
X160575727Y-91791903D01*
X160611380Y-91851991D01*
X160608888Y-91921816D01*
X160578914Y-91970341D01*
X156581076Y-95968181D01*
X156554148Y-95982884D01*
X156528330Y-95999477D01*
X156522129Y-96000368D01*
X156519753Y-96001666D01*
X156493395Y-96004500D01*
X156361255Y-96004500D01*
X156294216Y-95984815D01*
X156248461Y-95932011D01*
X156238517Y-95862853D01*
X156267542Y-95799297D01*
X156273574Y-95792819D01*
X156310480Y-95755913D01*
X156363207Y-95664587D01*
X156390500Y-95562727D01*
X156390500Y-95543407D01*
X156410185Y-95476368D01*
X156426819Y-95455726D01*
X157033045Y-94849500D01*
X157739319Y-94143226D01*
X157775692Y-94055413D01*
X157780500Y-94043806D01*
X157780500Y-92587255D01*
X157800185Y-92520216D01*
X157816819Y-92499574D01*
X157830480Y-92485913D01*
X157883207Y-92394587D01*
X157910500Y-92292727D01*
X157910500Y-92187273D01*
X157883207Y-92085413D01*
X157830480Y-91994087D01*
X157755913Y-91919520D01*
X157679912Y-91875641D01*
X157664589Y-91866794D01*
X157664588Y-91866793D01*
X157664587Y-91866793D01*
X157562727Y-91839500D01*
X157457273Y-91839500D01*
X157355413Y-91866793D01*
X157355410Y-91866794D01*
X157264085Y-91919521D01*
X157189521Y-91994085D01*
X157136794Y-92085410D01*
X157136793Y-92085413D01*
X157109500Y-92187273D01*
X157109500Y-92292727D01*
X157136793Y-92394587D01*
X157182184Y-92473207D01*
X157189521Y-92485914D01*
X157203181Y-92499574D01*
X157236666Y-92560897D01*
X157239500Y-92587255D01*
X157239500Y-93826593D01*
X157219815Y-93893632D01*
X157203181Y-93914274D01*
X156044274Y-95073181D01*
X155982951Y-95106666D01*
X155956593Y-95109500D01*
X155937273Y-95109500D01*
X155835413Y-95136793D01*
X155835410Y-95136794D01*
X155744085Y-95189521D01*
X155669521Y-95264085D01*
X155616794Y-95355410D01*
X155616793Y-95355413D01*
X155589500Y-95457273D01*
X155589500Y-95562727D01*
X155616793Y-95664587D01*
X155668321Y-95753837D01*
X155669521Y-95755914D01*
X155706426Y-95792819D01*
X155739911Y-95854142D01*
X155734927Y-95923834D01*
X155693055Y-95979767D01*
X155627591Y-96004184D01*
X155618745Y-96004500D01*
X155210608Y-96004500D01*
X147352996Y-96004500D01*
X147344468Y-96008032D01*
X147323876Y-96016560D01*
X147323876Y-96016561D01*
X147300442Y-96026267D01*
X147253574Y-96045681D01*
X147253574Y-96045682D01*
X144682614Y-98616643D01*
X144621291Y-98650128D01*
X144594933Y-98652962D01*
X136586869Y-98652962D01*
X136557428Y-98644317D01*
X136527442Y-98637794D01*
X136522426Y-98634039D01*
X136519830Y-98633277D01*
X136499188Y-98616643D01*
X136436819Y-98554274D01*
X136403334Y-98492951D01*
X136400500Y-98466593D01*
X136400500Y-98447275D01*
X136400500Y-98447273D01*
X136373207Y-98345413D01*
X136320480Y-98254087D01*
X136245913Y-98179520D01*
X136154587Y-98126793D01*
X136147548Y-98122729D01*
X136148455Y-98121157D01*
X136101956Y-98083682D01*
X136079894Y-98017387D01*
X136096427Y-97950970D01*
X136123207Y-97904587D01*
X136150500Y-97802727D01*
X136150500Y-97697273D01*
X136123207Y-97595413D01*
X136070480Y-97504087D01*
X135995913Y-97429520D01*
X135904587Y-97376793D01*
X135802727Y-97349500D01*
X135802726Y-97349500D01*
X135783407Y-97349500D01*
X135716368Y-97329815D01*
X135695726Y-97313181D01*
X134703228Y-96320683D01*
X134703226Y-96320681D01*
X134703223Y-96320679D01*
X134703222Y-96320679D01*
X134659880Y-96302726D01*
X134659878Y-96302726D01*
X134603806Y-96279500D01*
X131892255Y-96279500D01*
X131825216Y-96259815D01*
X131804574Y-96243181D01*
X131790914Y-96229521D01*
X131790913Y-96229520D01*
X131704312Y-96179521D01*
X131699589Y-96176794D01*
X131699588Y-96176793D01*
X131699587Y-96176793D01*
X131597727Y-96149500D01*
X131492273Y-96149500D01*
X131390413Y-96176793D01*
X131390410Y-96176794D01*
X131299085Y-96229521D01*
X131224521Y-96304085D01*
X131171794Y-96395410D01*
X131171793Y-96395413D01*
X131144500Y-96497273D01*
X130526607Y-96497273D01*
X130560515Y-96463365D01*
X130636281Y-96332135D01*
X130675500Y-96185766D01*
X130675500Y-96034234D01*
X130636281Y-95887865D01*
X130560515Y-95756635D01*
X130453365Y-95649485D01*
X130441998Y-95642922D01*
X130393783Y-95592354D01*
X130380000Y-95535536D01*
X130380000Y-94980000D01*
X130880000Y-94980000D01*
X130880000Y-95680000D01*
X131278492Y-95680000D01*
X131278495Y-95679999D01*
X131471681Y-95641572D01*
X131471693Y-95641569D01*
X131653671Y-95566192D01*
X131653684Y-95566185D01*
X131817462Y-95456751D01*
X131817466Y-95456748D01*
X131956748Y-95317466D01*
X131956751Y-95317462D01*
X132066185Y-95153684D01*
X132066192Y-95153671D01*
X132141569Y-94971692D01*
X132141569Y-94971690D01*
X132149862Y-94930000D01*
X131346988Y-94930000D01*
X131364205Y-94920060D01*
X131420060Y-94864205D01*
X131459556Y-94795796D01*
X131480000Y-94719496D01*
X131480000Y-94640504D01*
X131459556Y-94564204D01*
X131420060Y-94495795D01*
X131364205Y-94439940D01*
X131346988Y-94430000D01*
X132149862Y-94430000D01*
X132141569Y-94388309D01*
X132141569Y-94388307D01*
X132066192Y-94206328D01*
X132066184Y-94206313D01*
X132062587Y-94200930D01*
X132062586Y-94200929D01*
X132020621Y-94138125D01*
X137449500Y-94138125D01*
X137449500Y-95861874D01*
X137456489Y-95897014D01*
X137456490Y-95897015D01*
X137456490Y-95897016D01*
X137456491Y-95897017D01*
X137483124Y-95936876D01*
X137522983Y-95963509D01*
X137522984Y-95963509D01*
X137522985Y-95963510D01*
X137558125Y-95970499D01*
X137558129Y-95970500D01*
X137558130Y-95970500D01*
X139281871Y-95970500D01*
X139281872Y-95970499D01*
X139293692Y-95968148D01*
X139317014Y-95963510D01*
X139317014Y-95963509D01*
X139317017Y-95963509D01*
X139356876Y-95936876D01*
X139383509Y-95897017D01*
X139385330Y-95887865D01*
X139390499Y-95861874D01*
X139390500Y-95861871D01*
X139390500Y-95095588D01*
X139989499Y-95095588D01*
X140026794Y-95283078D01*
X140026797Y-95283088D01*
X140099951Y-95459700D01*
X140206164Y-95618660D01*
X140341339Y-95753835D01*
X140500299Y-95860048D01*
X140668022Y-95929520D01*
X140676916Y-95933204D01*
X140676920Y-95933204D01*
X140676921Y-95933205D01*
X140864411Y-95970500D01*
X140864414Y-95970500D01*
X141055588Y-95970500D01*
X141181729Y-95945408D01*
X141243084Y-95933204D01*
X141352543Y-95887865D01*
X141419700Y-95860048D01*
X141419701Y-95860047D01*
X141419704Y-95860046D01*
X141578658Y-95753837D01*
X141713837Y-95618658D01*
X141820046Y-95459704D01*
X141821271Y-95456748D01*
X141856625Y-95371394D01*
X141893204Y-95283084D01*
X141911815Y-95189520D01*
X141930500Y-95095588D01*
X142529499Y-95095588D01*
X142566794Y-95283078D01*
X142566797Y-95283088D01*
X142639951Y-95459700D01*
X142746164Y-95618660D01*
X142881339Y-95753835D01*
X143040299Y-95860048D01*
X143208022Y-95929520D01*
X143216916Y-95933204D01*
X143216920Y-95933204D01*
X143216921Y-95933205D01*
X143404411Y-95970500D01*
X143404414Y-95970500D01*
X143595588Y-95970500D01*
X143721729Y-95945408D01*
X143783084Y-95933204D01*
X143892543Y-95887865D01*
X143959700Y-95860048D01*
X143959701Y-95860047D01*
X143959704Y-95860046D01*
X144118658Y-95753837D01*
X144253837Y-95618658D01*
X144360046Y-95459704D01*
X144361271Y-95456748D01*
X144396625Y-95371394D01*
X144433204Y-95283084D01*
X144451815Y-95189520D01*
X144470500Y-95095588D01*
X145069499Y-95095588D01*
X145106794Y-95283078D01*
X145106797Y-95283088D01*
X145179951Y-95459700D01*
X145286164Y-95618660D01*
X145421339Y-95753835D01*
X145580299Y-95860048D01*
X145748022Y-95929520D01*
X145756916Y-95933204D01*
X145756920Y-95933204D01*
X145756921Y-95933205D01*
X145944411Y-95970500D01*
X145944414Y-95970500D01*
X146135588Y-95970500D01*
X146261729Y-95945408D01*
X146323084Y-95933204D01*
X146432543Y-95887865D01*
X146499700Y-95860048D01*
X146499701Y-95860047D01*
X146499704Y-95860046D01*
X146658658Y-95753837D01*
X146793837Y-95618658D01*
X146900046Y-95459704D01*
X146901271Y-95456748D01*
X146936625Y-95371394D01*
X146973204Y-95283084D01*
X146991815Y-95189520D01*
X147010500Y-95095588D01*
X147010500Y-94904411D01*
X146973205Y-94716921D01*
X146973204Y-94716920D01*
X146973204Y-94716916D01*
X146944169Y-94646819D01*
X146900048Y-94540299D01*
X146793835Y-94381339D01*
X146658660Y-94246164D01*
X146499700Y-94139951D01*
X146323088Y-94066797D01*
X146323076Y-94066794D01*
X146292757Y-94060763D01*
X146292756Y-94060763D01*
X146135588Y-94029500D01*
X146135586Y-94029500D01*
X145944414Y-94029500D01*
X145944412Y-94029500D01*
X145756921Y-94066794D01*
X145756911Y-94066797D01*
X145580299Y-94139951D01*
X145421339Y-94246164D01*
X145286164Y-94381339D01*
X145179951Y-94540299D01*
X145106797Y-94716911D01*
X145106794Y-94716921D01*
X145069500Y-94904411D01*
X145069500Y-94904414D01*
X145069500Y-95095586D01*
X145069500Y-95095588D01*
X145069499Y-95095588D01*
X144470500Y-95095588D01*
X144470500Y-94904411D01*
X144433205Y-94716921D01*
X144433204Y-94716920D01*
X144433204Y-94716916D01*
X144404169Y-94646819D01*
X144360048Y-94540299D01*
X144253835Y-94381339D01*
X144118660Y-94246164D01*
X143959700Y-94139951D01*
X143783088Y-94066797D01*
X143783078Y-94066794D01*
X143595588Y-94029500D01*
X143595586Y-94029500D01*
X143404414Y-94029500D01*
X143404412Y-94029500D01*
X143216921Y-94066794D01*
X143216911Y-94066797D01*
X143040299Y-94139951D01*
X142881339Y-94246164D01*
X142746164Y-94381339D01*
X142639951Y-94540299D01*
X142566797Y-94716911D01*
X142566794Y-94716921D01*
X142529500Y-94904411D01*
X142529500Y-94904414D01*
X142529500Y-95095586D01*
X142529500Y-95095588D01*
X142529499Y-95095588D01*
X141930500Y-95095588D01*
X141930500Y-94904411D01*
X141893205Y-94716921D01*
X141893204Y-94716920D01*
X141893204Y-94716916D01*
X141864169Y-94646819D01*
X141820048Y-94540299D01*
X141713835Y-94381339D01*
X141578660Y-94246164D01*
X141419700Y-94139951D01*
X141243088Y-94066797D01*
X141243078Y-94066794D01*
X141055588Y-94029500D01*
X141055586Y-94029500D01*
X140864414Y-94029500D01*
X140864412Y-94029500D01*
X140676921Y-94066794D01*
X140676911Y-94066797D01*
X140500299Y-94139951D01*
X140341339Y-94246164D01*
X140206164Y-94381339D01*
X140099951Y-94540299D01*
X140026797Y-94716911D01*
X140026794Y-94716921D01*
X139989500Y-94904411D01*
X139989500Y-94904414D01*
X139989500Y-95095586D01*
X139989500Y-95095588D01*
X139989499Y-95095588D01*
X139390500Y-95095588D01*
X139390500Y-94138129D01*
X139390499Y-94138125D01*
X139383510Y-94102985D01*
X139383509Y-94102984D01*
X139383509Y-94102983D01*
X139356876Y-94063124D01*
X139317017Y-94036491D01*
X139317016Y-94036490D01*
X139317015Y-94036490D01*
X139317014Y-94036489D01*
X139281874Y-94029500D01*
X139281870Y-94029500D01*
X137558130Y-94029500D01*
X137558125Y-94029500D01*
X137522985Y-94036489D01*
X137522984Y-94036490D01*
X137483124Y-94063124D01*
X137456490Y-94102984D01*
X137456489Y-94102985D01*
X137449500Y-94138125D01*
X132020621Y-94138125D01*
X131956751Y-94042537D01*
X131956748Y-94042533D01*
X131861488Y-93947273D01*
X154349500Y-93947273D01*
X154349500Y-94052727D01*
X154376793Y-94154587D01*
X154429520Y-94245913D01*
X154504087Y-94320480D01*
X154595413Y-94373207D01*
X154697273Y-94400500D01*
X154697275Y-94400500D01*
X154802725Y-94400500D01*
X154802727Y-94400500D01*
X154904587Y-94373207D01*
X154995913Y-94320480D01*
X155070480Y-94245913D01*
X155123207Y-94154587D01*
X155150500Y-94052727D01*
X155150500Y-93947273D01*
X155123207Y-93845413D01*
X155070480Y-93754087D01*
X154995913Y-93679520D01*
X154904587Y-93626793D01*
X154802727Y-93599500D01*
X154697273Y-93599500D01*
X154595413Y-93626793D01*
X154595410Y-93626794D01*
X154504085Y-93679521D01*
X154429521Y-93754085D01*
X154376794Y-93845410D01*
X154376793Y-93845413D01*
X154349500Y-93947273D01*
X131861488Y-93947273D01*
X131817466Y-93903251D01*
X131817462Y-93903248D01*
X131653684Y-93793814D01*
X131653671Y-93793807D01*
X131471693Y-93718430D01*
X131471681Y-93718427D01*
X131278495Y-93680000D01*
X130880000Y-93680000D01*
X130880000Y-94380000D01*
X130380000Y-94380000D01*
X130380000Y-93680000D01*
X129981504Y-93680000D01*
X129788318Y-93718427D01*
X129788306Y-93718430D01*
X129606328Y-93793807D01*
X129606315Y-93793814D01*
X129442537Y-93903248D01*
X129442533Y-93903251D01*
X129303251Y-94042533D01*
X129303248Y-94042537D01*
X129193814Y-94206315D01*
X129193807Y-94206328D01*
X129118430Y-94388307D01*
X129118430Y-94388309D01*
X129110138Y-94430000D01*
X127719862Y-94430000D01*
X127711569Y-94388309D01*
X127711569Y-94388307D01*
X127636192Y-94206328D01*
X127636185Y-94206315D01*
X127526751Y-94042537D01*
X127526748Y-94042533D01*
X127387466Y-93903251D01*
X127387462Y-93903248D01*
X127223684Y-93793814D01*
X127223671Y-93793807D01*
X127041693Y-93718430D01*
X127041681Y-93718427D01*
X126848495Y-93680000D01*
X126700000Y-93680000D01*
X126700000Y-94380000D01*
X126200000Y-94380000D01*
X126200000Y-93680000D01*
X126051504Y-93680000D01*
X125858318Y-93718427D01*
X125858306Y-93718430D01*
X125676328Y-93793807D01*
X125676315Y-93793814D01*
X125512537Y-93903248D01*
X125512533Y-93903251D01*
X125373251Y-94042533D01*
X125373248Y-94042537D01*
X125263814Y-94206315D01*
X125263807Y-94206328D01*
X125188430Y-94388307D01*
X125188430Y-94388309D01*
X125180138Y-94430000D01*
X123700500Y-94430000D01*
X123700500Y-92047273D01*
X135787000Y-92047273D01*
X135787000Y-92152727D01*
X135814293Y-92254587D01*
X135867020Y-92345913D01*
X135941587Y-92420480D01*
X136032913Y-92473207D01*
X136134773Y-92500500D01*
X136134775Y-92500500D01*
X136240225Y-92500500D01*
X136240227Y-92500500D01*
X136342087Y-92473207D01*
X136433413Y-92420480D01*
X136507980Y-92345913D01*
X136560707Y-92254587D01*
X136588000Y-92152727D01*
X136588000Y-92047273D01*
X136560707Y-91945413D01*
X136507980Y-91854087D01*
X136433413Y-91779520D01*
X136342087Y-91726793D01*
X136240227Y-91699500D01*
X136134773Y-91699500D01*
X136032913Y-91726793D01*
X136032910Y-91726794D01*
X135941585Y-91779521D01*
X135867021Y-91854085D01*
X135814294Y-91945410D01*
X135814293Y-91945413D01*
X135787000Y-92047273D01*
X123700500Y-92047273D01*
X123700500Y-89138125D01*
X124029500Y-89138125D01*
X124029500Y-90861874D01*
X124036489Y-90897014D01*
X124036490Y-90897015D01*
X124036490Y-90897016D01*
X124036491Y-90897017D01*
X124063124Y-90936876D01*
X124102983Y-90963509D01*
X124102984Y-90963509D01*
X124102985Y-90963510D01*
X124138125Y-90970499D01*
X124138129Y-90970500D01*
X124138130Y-90970500D01*
X125861871Y-90970500D01*
X125861872Y-90970499D01*
X125873692Y-90968148D01*
X125897014Y-90963510D01*
X125897014Y-90963509D01*
X125897017Y-90963509D01*
X125936876Y-90936876D01*
X125963509Y-90897017D01*
X125970500Y-90861870D01*
X125970500Y-89138130D01*
X125970436Y-89137809D01*
X125963510Y-89102985D01*
X125963509Y-89102984D01*
X125963509Y-89102983D01*
X125936876Y-89063124D01*
X125897017Y-89036491D01*
X125897016Y-89036490D01*
X125897015Y-89036490D01*
X125897014Y-89036489D01*
X125861874Y-89029500D01*
X125861870Y-89029500D01*
X124138130Y-89029500D01*
X124138125Y-89029500D01*
X124102985Y-89036489D01*
X124102984Y-89036490D01*
X124063124Y-89063124D01*
X124036490Y-89102984D01*
X124036489Y-89102985D01*
X124029500Y-89138125D01*
X123700500Y-89138125D01*
X123700500Y-88824500D01*
X123720185Y-88757461D01*
X123772989Y-88711706D01*
X123824500Y-88700500D01*
X129198639Y-88700500D01*
X129265678Y-88720185D01*
G37*
%TD.AperFunction*%
%TD*%
M02*
