%TF.GenerationSoftware,KiCad,Pcbnew,9.0.6-9.0.6~ubuntu22.04.1*%
%TF.CreationDate,2026-03-21T15:17:46-07:00*%
%TF.ProjectId,pico-2v,7069636f-2d32-4762-9e6b-696361645f70,rev?*%
%TF.SameCoordinates,Original*%
%TF.FileFunction,Soldermask,Top*%
%TF.FilePolarity,Negative*%
%FSLAX46Y46*%
G04 Gerber Fmt 4.6, Leading zero omitted, Abs format (unit mm)*
G04 Created by KiCad (PCBNEW 9.0.6-9.0.6~ubuntu22.04.1) date 2026-03-21 15:17:46*
%MOMM*%
%LPD*%
G01*
G04 APERTURE LIST*
G04 Aperture macros list*
%AMRoundRect*
0 Rectangle with rounded corners*
0 $1 Rounding radius*
0 $2 $3 $4 $5 $6 $7 $8 $9 X,Y pos of 4 corners*
0 Add a 4 corners polygon primitive as box body*
4,1,4,$2,$3,$4,$5,$6,$7,$8,$9,$2,$3,0*
0 Add four circle primitives for the rounded corners*
1,1,$1+$1,$2,$3*
1,1,$1+$1,$4,$5*
1,1,$1+$1,$6,$7*
1,1,$1+$1,$8,$9*
0 Add four rect primitives between the rounded corners*
20,1,$1+$1,$2,$3,$4,$5,0*
20,1,$1+$1,$4,$5,$6,$7,0*
20,1,$1+$1,$6,$7,$8,$9,0*
20,1,$1+$1,$8,$9,$2,$3,0*%
%AMFreePoly0*
4,1,18,-0.100000,0.387500,-0.096194,0.406634,-0.085355,0.422855,-0.069134,0.433694,-0.050000,0.437500,0.050000,0.437500,0.069134,0.433694,0.085355,0.422855,0.096194,0.406634,0.100000,0.387500,0.100000,-0.387500,0.096194,-0.406634,0.085355,-0.422855,0.069134,-0.433694,0.050000,-0.437500,-0.050000,-0.437500,-0.100000,-0.387500,-0.100000,0.387500,-0.100000,0.387500,$1*%
%AMFreePoly1*
4,1,18,-0.100000,0.387500,-0.096194,0.406634,-0.085355,0.422855,-0.069134,0.433694,-0.050000,0.437500,0.050000,0.437500,0.069134,0.433694,0.085355,0.422855,0.096194,0.406634,0.100000,0.387500,0.100000,-0.387500,0.050000,-0.437500,-0.050000,-0.437500,-0.069134,-0.433694,-0.085355,-0.422855,-0.096194,-0.406634,-0.100000,-0.387500,-0.100000,0.387500,-0.100000,0.387500,$1*%
%AMFreePoly2*
4,1,18,-0.437500,0.050000,-0.387500,0.100000,0.387500,0.100000,0.406634,0.096194,0.422855,0.085355,0.433694,0.069134,0.437500,0.050000,0.437500,-0.050000,0.433694,-0.069134,0.422855,-0.085355,0.406634,-0.096194,0.387500,-0.100000,-0.387500,-0.100000,-0.406634,-0.096194,-0.422855,-0.085355,-0.433694,-0.069134,-0.437500,-0.050000,-0.437500,0.050000,-0.437500,0.050000,$1*%
%AMFreePoly3*
4,1,18,-0.437500,0.050000,-0.433694,0.069134,-0.422855,0.085355,-0.406634,0.096194,-0.387500,0.100000,0.387500,0.100000,0.406634,0.096194,0.422855,0.085355,0.433694,0.069134,0.437500,0.050000,0.437500,-0.050000,0.433694,-0.069134,0.422855,-0.085355,0.406634,-0.096194,0.387500,-0.100000,-0.387500,-0.100000,-0.437500,-0.050000,-0.437500,0.050000,-0.437500,0.050000,$1*%
%AMFreePoly4*
4,1,18,-0.100000,0.387500,-0.096194,0.406634,-0.085355,0.422855,-0.069134,0.433694,-0.050000,0.437500,0.050000,0.437500,0.100000,0.387500,0.100000,-0.387500,0.096194,-0.406634,0.085355,-0.422855,0.069134,-0.433694,0.050000,-0.437500,-0.050000,-0.437500,-0.069134,-0.433694,-0.085355,-0.422855,-0.096194,-0.406634,-0.100000,-0.387500,-0.100000,0.387500,-0.100000,0.387500,$1*%
%AMFreePoly5*
4,1,18,-0.100000,0.387500,-0.050000,0.437500,0.050000,0.437500,0.069134,0.433694,0.085355,0.422855,0.096194,0.406634,0.100000,0.387500,0.100000,-0.387500,0.096194,-0.406634,0.085355,-0.422855,0.069134,-0.433694,0.050000,-0.437500,-0.050000,-0.437500,-0.069134,-0.433694,-0.085355,-0.422855,-0.096194,-0.406634,-0.100000,-0.387500,-0.100000,0.387500,-0.100000,0.387500,$1*%
%AMFreePoly6*
4,1,18,-0.437500,0.050000,-0.433694,0.069134,-0.422855,0.085355,-0.406634,0.096194,-0.387500,0.100000,0.387500,0.100000,0.406634,0.096194,0.422855,0.085355,0.433694,0.069134,0.437500,0.050000,0.437500,-0.050000,0.387500,-0.100000,-0.387500,-0.100000,-0.406634,-0.096194,-0.422855,-0.085355,-0.433694,-0.069134,-0.437500,-0.050000,-0.437500,0.050000,-0.437500,0.050000,$1*%
%AMFreePoly7*
4,1,18,-0.437500,0.050000,-0.433694,0.069134,-0.422855,0.085355,-0.406634,0.096194,-0.387500,0.100000,0.387500,0.100000,0.437500,0.050000,0.437500,-0.050000,0.433694,-0.069134,0.422855,-0.085355,0.406634,-0.096194,0.387500,-0.100000,-0.387500,-0.100000,-0.406634,-0.096194,-0.422855,-0.085355,-0.433694,-0.069134,-0.437500,-0.050000,-0.437500,0.050000,-0.437500,0.050000,$1*%
G04 Aperture macros list end*
%ADD10RoundRect,0.135000X-0.135000X-0.185000X0.135000X-0.185000X0.135000X0.185000X-0.135000X0.185000X0*%
%ADD11RoundRect,0.218750X-0.218750X-0.256250X0.218750X-0.256250X0.218750X0.256250X-0.218750X0.256250X0*%
%ADD12RoundRect,0.095250X-0.381000X-0.222250X0.381000X-0.222250X0.381000X0.222250X-0.381000X0.222250X0*%
%ADD13C,0.650000*%
%ADD14R,1.450000X0.600000*%
%ADD15R,1.450000X0.300000*%
%ADD16O,2.100000X1.000000*%
%ADD17O,1.600000X1.000000*%
%ADD18R,0.900000X1.000000*%
%ADD19RoundRect,0.153000X1.547000X-1.547000X1.547000X1.547000X-1.547000X1.547000X-1.547000X-1.547000X0*%
%ADD20FreePoly0,0.000000*%
%ADD21RoundRect,0.050000X-0.050000X-0.387500X0.050000X-0.387500X0.050000X0.387500X-0.050000X0.387500X0*%
%ADD22FreePoly1,0.000000*%
%ADD23FreePoly2,0.000000*%
%ADD24RoundRect,0.050000X-0.387500X-0.050000X0.387500X-0.050000X0.387500X0.050000X-0.387500X0.050000X0*%
%ADD25FreePoly3,0.000000*%
%ADD26FreePoly4,0.000000*%
%ADD27FreePoly5,0.000000*%
%ADD28FreePoly6,0.000000*%
%ADD29FreePoly7,0.000000*%
%ADD30RoundRect,0.140000X0.140000X0.170000X-0.140000X0.170000X-0.140000X-0.170000X0.140000X-0.170000X0*%
%ADD31RoundRect,0.135000X0.185000X-0.135000X0.185000X0.135000X-0.185000X0.135000X-0.185000X-0.135000X0*%
%ADD32RoundRect,0.140000X0.170000X-0.140000X0.170000X0.140000X-0.170000X0.140000X-0.170000X-0.140000X0*%
%ADD33RoundRect,0.150000X0.150000X-0.587500X0.150000X0.587500X-0.150000X0.587500X-0.150000X-0.587500X0*%
%ADD34RoundRect,0.135000X0.135000X0.185000X-0.135000X0.185000X-0.135000X-0.185000X0.135000X-0.185000X0*%
%ADD35RoundRect,0.218750X0.218750X0.256250X-0.218750X0.256250X-0.218750X-0.256250X0.218750X-0.256250X0*%
%ADD36RoundRect,0.140000X-0.170000X0.140000X-0.170000X-0.140000X0.170000X-0.140000X0.170000X0.140000X0*%
%ADD37RoundRect,0.135000X-0.185000X0.135000X-0.185000X-0.135000X0.185000X-0.135000X0.185000X0.135000X0*%
%ADD38RoundRect,0.140000X-0.140000X-0.170000X0.140000X-0.170000X0.140000X0.170000X-0.140000X0.170000X0*%
%ADD39RoundRect,0.150000X-0.150000X0.512500X-0.150000X-0.512500X0.150000X-0.512500X0.150000X0.512500X0*%
%ADD40RoundRect,0.250000X0.250000X0.250000X-0.250000X0.250000X-0.250000X-0.250000X0.250000X-0.250000X0*%
%ADD41R,1.700000X1.700000*%
%ADD42C,1.700000*%
%ADD43R,2.400000X0.740000*%
%ADD44RoundRect,0.100000X0.225000X0.100000X-0.225000X0.100000X-0.225000X-0.100000X0.225000X-0.100000X0*%
G04 APERTURE END LIST*
D10*
%TO.C,R12*%
X132390000Y-92100000D03*
X133410000Y-92100000D03*
%TD*%
D11*
%TO.C,D2*%
X134612500Y-92100000D03*
X136187500Y-92100000D03*
%TD*%
D12*
%TO.C,Y1*%
X157500000Y-106067500D03*
X159500000Y-106067500D03*
X159500000Y-104432500D03*
X157500000Y-104432500D03*
%TD*%
D13*
%TO.C,J1*%
X130100000Y-96110000D03*
X130100000Y-101890000D03*
D14*
X131545000Y-95750000D03*
X131545000Y-96550000D03*
D15*
X131545000Y-97750000D03*
X131545000Y-98750000D03*
X131545000Y-99250000D03*
X131545000Y-100250000D03*
D14*
X131545000Y-101450000D03*
X131545000Y-102250000D03*
X131545000Y-102250000D03*
X131545000Y-101450000D03*
D15*
X131545000Y-100750000D03*
X131545000Y-99750000D03*
X131545000Y-98250000D03*
X131545000Y-97250000D03*
D14*
X131545000Y-96550000D03*
X131545000Y-95750000D03*
D16*
X130630000Y-94680000D03*
D17*
X126450000Y-94680000D03*
D16*
X130630000Y-103320000D03*
D17*
X126450000Y-103320000D03*
%TD*%
D18*
%TO.C,SW2*%
X152800000Y-104850000D03*
X148700000Y-104850000D03*
X152800000Y-103250000D03*
X148700000Y-103250000D03*
%TD*%
D19*
%TO.C,U1*%
X160700000Y-98500000D03*
D20*
X157900000Y-95062500D03*
D21*
X158300000Y-95062500D03*
X158700000Y-95062500D03*
X159100000Y-95062500D03*
X159500000Y-95062500D03*
X159900000Y-95062500D03*
X160300000Y-95062500D03*
X160700000Y-95062500D03*
X161100000Y-95062500D03*
X161500000Y-95062500D03*
X161900000Y-95062500D03*
X162300000Y-95062500D03*
X162700000Y-95062500D03*
X163100000Y-95062500D03*
D22*
X163500000Y-95062500D03*
D23*
X164137500Y-95700000D03*
D24*
X164137500Y-96100000D03*
X164137500Y-96500000D03*
X164137500Y-96900000D03*
X164137500Y-97300000D03*
X164137500Y-97700000D03*
X164137500Y-98100000D03*
X164137500Y-98500000D03*
X164137500Y-98900000D03*
X164137500Y-99300000D03*
X164137500Y-99700000D03*
X164137500Y-100100000D03*
X164137500Y-100500000D03*
X164137500Y-100900000D03*
D25*
X164137500Y-101300000D03*
D26*
X163500000Y-101937500D03*
D21*
X163100000Y-101937500D03*
X162700000Y-101937500D03*
X162300000Y-101937500D03*
X161900000Y-101937500D03*
X161500000Y-101937500D03*
X161100000Y-101937500D03*
X160700000Y-101937500D03*
X160300000Y-101937500D03*
X159900000Y-101937500D03*
X159500000Y-101937500D03*
X159100000Y-101937500D03*
X158700000Y-101937500D03*
X158300000Y-101937500D03*
D27*
X157900000Y-101937500D03*
D28*
X157262500Y-101300000D03*
D24*
X157262500Y-100900000D03*
X157262500Y-100500000D03*
X157262500Y-100100000D03*
X157262500Y-99700000D03*
X157262500Y-99300000D03*
X157262500Y-98900000D03*
X157262500Y-98500000D03*
X157262500Y-98100000D03*
X157262500Y-97700000D03*
X157262500Y-97300000D03*
X157262500Y-96900000D03*
X157262500Y-96500000D03*
X157262500Y-96100000D03*
D29*
X157262500Y-95700000D03*
%TD*%
D30*
%TO.C,C17*%
X147480000Y-97250000D03*
X146520000Y-97250000D03*
%TD*%
D31*
%TO.C,R6*%
X156750000Y-92760000D03*
X156750000Y-91740000D03*
%TD*%
D32*
%TO.C,C11*%
X158500000Y-93230000D03*
X158500000Y-92270000D03*
%TD*%
D30*
%TO.C,C5*%
X155980000Y-95500000D03*
X155020000Y-95500000D03*
%TD*%
D33*
%TO.C,U2*%
X139300000Y-99687500D03*
X141200000Y-99687500D03*
X140250000Y-97812500D03*
%TD*%
%TO.C,U3*%
X143800000Y-99687500D03*
X145700000Y-99687500D03*
X144750000Y-97812500D03*
%TD*%
D34*
%TO.C,R2*%
X146760000Y-105500000D03*
X145740000Y-105500000D03*
%TD*%
D35*
%TO.C,D3*%
X166787500Y-92250000D03*
X165212500Y-92250000D03*
%TD*%
D36*
%TO.C,C20*%
X156000000Y-104770000D03*
X156000000Y-105730000D03*
%TD*%
D18*
%TO.C,SW1*%
X148750000Y-93000000D03*
X152850000Y-93000000D03*
X148750000Y-94600000D03*
X152850000Y-94600000D03*
%TD*%
D36*
%TO.C,C16*%
X147000000Y-99270000D03*
X147000000Y-100230000D03*
%TD*%
%TO.C,C14*%
X142500000Y-99290000D03*
X142500000Y-100250000D03*
%TD*%
D34*
%TO.C,R10*%
X173010000Y-101000000D03*
X171990000Y-101000000D03*
%TD*%
%TO.C,R1*%
X144760000Y-105500000D03*
X143740000Y-105500000D03*
%TD*%
D31*
%TO.C,R8*%
X133250000Y-102010000D03*
X133250000Y-100990000D03*
%TD*%
D30*
%TO.C,C7*%
X157230000Y-103250000D03*
X156270000Y-103250000D03*
%TD*%
D37*
%TO.C,R4*%
X161750000Y-92490000D03*
X161750000Y-93510000D03*
%TD*%
D38*
%TO.C,C4*%
X165770000Y-98000000D03*
X166730000Y-98000000D03*
%TD*%
D34*
%TO.C,R5*%
X169010000Y-92250000D03*
X167990000Y-92250000D03*
%TD*%
D39*
%TO.C,U4*%
X150450000Y-97750000D03*
X149500000Y-97750000D03*
X148550000Y-97750000D03*
X148550000Y-100025000D03*
X150450000Y-100025000D03*
%TD*%
D32*
%TO.C,C12*%
X159500000Y-93230000D03*
X159500000Y-92270000D03*
%TD*%
D30*
%TO.C,C21*%
X167480000Y-102750000D03*
X166520000Y-102750000D03*
%TD*%
%TO.C,C6*%
X155230000Y-99750000D03*
X154270000Y-99750000D03*
%TD*%
%TO.C,C2*%
X155230000Y-97500000D03*
X154270000Y-97500000D03*
%TD*%
%TO.C,C13*%
X139250000Y-97250000D03*
X138290000Y-97250000D03*
%TD*%
D36*
%TO.C,C3*%
X161000000Y-103520000D03*
X161000000Y-104480000D03*
%TD*%
D40*
%TO.C,D1*%
X137000000Y-97750000D03*
X134500000Y-97750000D03*
%TD*%
D41*
%TO.C,J6*%
X138420000Y-95000000D03*
D42*
X140960000Y-95000000D03*
X143500000Y-95000000D03*
X146040000Y-95000000D03*
%TD*%
D31*
%TO.C,R7*%
X133250000Y-96760000D03*
X133250000Y-95740000D03*
%TD*%
D43*
%TO.C,J7*%
X169550000Y-94210000D03*
X173450000Y-94210000D03*
X169550000Y-95480000D03*
X173450000Y-95480000D03*
X169550000Y-96750000D03*
X173450000Y-96750000D03*
X169550000Y-98020000D03*
X173450000Y-98020000D03*
X169550000Y-99290000D03*
X173450000Y-99290000D03*
%TD*%
D38*
%TO.C,C10*%
X165020000Y-94750000D03*
X165980000Y-94750000D03*
%TD*%
D44*
%TO.C,U5*%
X170700000Y-102650000D03*
X170700000Y-102000000D03*
X170700000Y-101350000D03*
X168800000Y-101350000D03*
X168800000Y-102650000D03*
%TD*%
D10*
%TO.C,R9*%
X171990000Y-102000000D03*
X173010000Y-102000000D03*
%TD*%
D38*
%TO.C,C9*%
X165770000Y-99000000D03*
X166730000Y-99000000D03*
%TD*%
D36*
%TO.C,C18*%
X151750000Y-99500000D03*
X151750000Y-100460000D03*
%TD*%
D32*
%TO.C,C1*%
X162750000Y-93480000D03*
X162750000Y-92520000D03*
%TD*%
D30*
%TO.C,C19*%
X155710000Y-91500000D03*
X154750000Y-91500000D03*
%TD*%
D31*
%TO.C,R3*%
X160750000Y-93510000D03*
X160750000Y-92490000D03*
%TD*%
D10*
%TO.C,R11*%
X166490000Y-101000000D03*
X167510000Y-101000000D03*
%TD*%
D41*
%TO.C,J5*%
X138420000Y-102620000D03*
D42*
X140960000Y-102620000D03*
X143500000Y-102620000D03*
X146040000Y-102620000D03*
%TD*%
D30*
%TO.C,C15*%
X143710000Y-97250000D03*
X142750000Y-97250000D03*
%TD*%
D41*
%TO.C,J2*%
X165210000Y-105250000D03*
D42*
X167750000Y-105250000D03*
X170290000Y-105250000D03*
%TD*%
D38*
%TO.C,C8*%
X164520000Y-102750000D03*
X165480000Y-102750000D03*
%TD*%
D41*
%TO.C,J4*%
X125000000Y-90000000D03*
D42*
X127540000Y-90000000D03*
X130080000Y-90000000D03*
X132620000Y-90000000D03*
X135160000Y-90000000D03*
X137700000Y-90000000D03*
X140240000Y-90000000D03*
X142780000Y-90000000D03*
X145320000Y-90000000D03*
X147860000Y-90000000D03*
X150400000Y-90000000D03*
X152940000Y-90000000D03*
X155480000Y-90000000D03*
X158020000Y-90000000D03*
X160560000Y-90000000D03*
X163100000Y-90000000D03*
X165640000Y-90000000D03*
X168180000Y-90000000D03*
X170720000Y-90000000D03*
X173260000Y-90000000D03*
%TD*%
D41*
%TO.C,J3*%
X125000000Y-107780000D03*
D42*
X127540000Y-107780000D03*
X130080000Y-107780000D03*
X132620000Y-107780000D03*
X135160000Y-107780000D03*
X137700000Y-107780000D03*
X140240000Y-107780000D03*
X142780000Y-107780000D03*
X145320000Y-107780000D03*
X147860000Y-107780000D03*
X150400000Y-107780000D03*
X152940000Y-107780000D03*
X155480000Y-107780000D03*
X158020000Y-107780000D03*
X160560000Y-107780000D03*
X163100000Y-107780000D03*
X165640000Y-107780000D03*
X168180000Y-107780000D03*
X170720000Y-107780000D03*
X173260000Y-107780000D03*
%TD*%
M02*
