%TF.GenerationSoftware,KiCad,Pcbnew,9.0.6-9.0.6~ubuntu22.04.1*%
%TF.CreationDate,2026-03-21T15:17:45-07:00*%
%TF.ProjectId,pico-2v,7069636f-2d32-4762-9e6b-696361645f70,rev?*%
%TF.SameCoordinates,Original*%
%TF.FileFunction,Legend,Top*%
%TF.FilePolarity,Positive*%
%FSLAX46Y46*%
G04 Gerber Fmt 4.6, Leading zero omitted, Abs format (unit mm)*
G04 Created by KiCad (PCBNEW 9.0.6-9.0.6~ubuntu22.04.1) date 2026-03-21 15:17:45*
%MOMM*%
%LPD*%
G01*
G04 APERTURE LIST*
%ADD10C,0.150000*%
%ADD11C,0.175000*%
%ADD12C,0.120000*%
%ADD13C,0.100000*%
G04 APERTURE END LIST*
D10*
X145867771Y-93058458D02*
X145824914Y-93144173D01*
X145824914Y-93144173D02*
X145782057Y-93187030D01*
X145782057Y-93187030D02*
X145696342Y-93229887D01*
X145696342Y-93229887D02*
X145653485Y-93229887D01*
X145653485Y-93229887D02*
X145567771Y-93187030D01*
X145567771Y-93187030D02*
X145524914Y-93144173D01*
X145524914Y-93144173D02*
X145482057Y-93058458D01*
X145482057Y-93058458D02*
X145482057Y-92887030D01*
X145482057Y-92887030D02*
X145524914Y-92801316D01*
X145524914Y-92801316D02*
X145567771Y-92758458D01*
X145567771Y-92758458D02*
X145653485Y-92715601D01*
X145653485Y-92715601D02*
X145696342Y-92715601D01*
X145696342Y-92715601D02*
X145782057Y-92758458D01*
X145782057Y-92758458D02*
X145824914Y-92801316D01*
X145824914Y-92801316D02*
X145867771Y-92887030D01*
X145867771Y-92887030D02*
X145867771Y-93058458D01*
X145867771Y-93058458D02*
X145910628Y-93144173D01*
X145910628Y-93144173D02*
X145953485Y-93187030D01*
X145953485Y-93187030D02*
X146039200Y-93229887D01*
X146039200Y-93229887D02*
X146210628Y-93229887D01*
X146210628Y-93229887D02*
X146296342Y-93187030D01*
X146296342Y-93187030D02*
X146339200Y-93144173D01*
X146339200Y-93144173D02*
X146382057Y-93058458D01*
X146382057Y-93058458D02*
X146382057Y-92887030D01*
X146382057Y-92887030D02*
X146339200Y-92801316D01*
X146339200Y-92801316D02*
X146296342Y-92758458D01*
X146296342Y-92758458D02*
X146210628Y-92715601D01*
X146210628Y-92715601D02*
X146039200Y-92715601D01*
X146039200Y-92715601D02*
X145953485Y-92758458D01*
X145953485Y-92758458D02*
X145910628Y-92801316D01*
X145910628Y-92801316D02*
X145867771Y-92887030D01*
X135658458Y-93117942D02*
X136087030Y-93117942D01*
X136087030Y-93117942D02*
X136087030Y-94017942D01*
X135358459Y-93589371D02*
X135058459Y-93589371D01*
X134929887Y-93117942D02*
X135358459Y-93117942D01*
X135358459Y-93117942D02*
X135358459Y-94017942D01*
X135358459Y-94017942D02*
X134929887Y-94017942D01*
X134544173Y-93117942D02*
X134544173Y-94017942D01*
X134544173Y-94017942D02*
X134329887Y-94017942D01*
X134329887Y-94017942D02*
X134201316Y-93975085D01*
X134201316Y-93975085D02*
X134115601Y-93889371D01*
X134115601Y-93889371D02*
X134072744Y-93803657D01*
X134072744Y-93803657D02*
X134029887Y-93632228D01*
X134029887Y-93632228D02*
X134029887Y-93503657D01*
X134029887Y-93503657D02*
X134072744Y-93332228D01*
X134072744Y-93332228D02*
X134115601Y-93246514D01*
X134115601Y-93246514D02*
X134201316Y-93160800D01*
X134201316Y-93160800D02*
X134329887Y-93117942D01*
X134329887Y-93117942D02*
X134544173Y-93117942D01*
D11*
X163544766Y-104216667D02*
X163544766Y-104650000D01*
X163544766Y-104650000D02*
X163278100Y-104416667D01*
X163278100Y-104416667D02*
X163278100Y-104516667D01*
X163278100Y-104516667D02*
X163244766Y-104583333D01*
X163244766Y-104583333D02*
X163211433Y-104616667D01*
X163211433Y-104616667D02*
X163144766Y-104650000D01*
X163144766Y-104650000D02*
X162978100Y-104650000D01*
X162978100Y-104650000D02*
X162911433Y-104616667D01*
X162911433Y-104616667D02*
X162878100Y-104583333D01*
X162878100Y-104583333D02*
X162844766Y-104516667D01*
X162844766Y-104516667D02*
X162844766Y-104316667D01*
X162844766Y-104316667D02*
X162878100Y-104250000D01*
X162878100Y-104250000D02*
X162911433Y-104216667D01*
X162911433Y-104950000D02*
X162878100Y-104983334D01*
X162878100Y-104983334D02*
X162844766Y-104950000D01*
X162844766Y-104950000D02*
X162878100Y-104916667D01*
X162878100Y-104916667D02*
X162911433Y-104950000D01*
X162911433Y-104950000D02*
X162844766Y-104950000D01*
X163544766Y-105216667D02*
X163544766Y-105650000D01*
X163544766Y-105650000D02*
X163278100Y-105416667D01*
X163278100Y-105416667D02*
X163278100Y-105516667D01*
X163278100Y-105516667D02*
X163244766Y-105583333D01*
X163244766Y-105583333D02*
X163211433Y-105616667D01*
X163211433Y-105616667D02*
X163144766Y-105650000D01*
X163144766Y-105650000D02*
X162978100Y-105650000D01*
X162978100Y-105650000D02*
X162911433Y-105616667D01*
X162911433Y-105616667D02*
X162878100Y-105583333D01*
X162878100Y-105583333D02*
X162844766Y-105516667D01*
X162844766Y-105516667D02*
X162844766Y-105316667D01*
X162844766Y-105316667D02*
X162878100Y-105250000D01*
X162878100Y-105250000D02*
X162911433Y-105216667D01*
X163544766Y-105850000D02*
X162844766Y-106083334D01*
X162844766Y-106083334D02*
X163544766Y-106316667D01*
X172655233Y-105849999D02*
X172655233Y-106249999D01*
X172655233Y-106049999D02*
X171955233Y-106049999D01*
X171955233Y-106049999D02*
X172055233Y-106116666D01*
X172055233Y-106116666D02*
X172121900Y-106183333D01*
X172121900Y-106183333D02*
X172155233Y-106249999D01*
X172588566Y-105549999D02*
X172621900Y-105516666D01*
X172621900Y-105516666D02*
X172655233Y-105549999D01*
X172655233Y-105549999D02*
X172621900Y-105583332D01*
X172621900Y-105583332D02*
X172588566Y-105549999D01*
X172588566Y-105549999D02*
X172655233Y-105549999D01*
X172255233Y-105116666D02*
X172221900Y-105183333D01*
X172221900Y-105183333D02*
X172188566Y-105216666D01*
X172188566Y-105216666D02*
X172121900Y-105249999D01*
X172121900Y-105249999D02*
X172088566Y-105249999D01*
X172088566Y-105249999D02*
X172021900Y-105216666D01*
X172021900Y-105216666D02*
X171988566Y-105183333D01*
X171988566Y-105183333D02*
X171955233Y-105116666D01*
X171955233Y-105116666D02*
X171955233Y-104983333D01*
X171955233Y-104983333D02*
X171988566Y-104916666D01*
X171988566Y-104916666D02*
X172021900Y-104883333D01*
X172021900Y-104883333D02*
X172088566Y-104849999D01*
X172088566Y-104849999D02*
X172121900Y-104849999D01*
X172121900Y-104849999D02*
X172188566Y-104883333D01*
X172188566Y-104883333D02*
X172221900Y-104916666D01*
X172221900Y-104916666D02*
X172255233Y-104983333D01*
X172255233Y-104983333D02*
X172255233Y-105116666D01*
X172255233Y-105116666D02*
X172288566Y-105183333D01*
X172288566Y-105183333D02*
X172321900Y-105216666D01*
X172321900Y-105216666D02*
X172388566Y-105249999D01*
X172388566Y-105249999D02*
X172521900Y-105249999D01*
X172521900Y-105249999D02*
X172588566Y-105216666D01*
X172588566Y-105216666D02*
X172621900Y-105183333D01*
X172621900Y-105183333D02*
X172655233Y-105116666D01*
X172655233Y-105116666D02*
X172655233Y-104983333D01*
X172655233Y-104983333D02*
X172621900Y-104916666D01*
X172621900Y-104916666D02*
X172588566Y-104883333D01*
X172588566Y-104883333D02*
X172521900Y-104849999D01*
X172521900Y-104849999D02*
X172388566Y-104849999D01*
X172388566Y-104849999D02*
X172321900Y-104883333D01*
X172321900Y-104883333D02*
X172288566Y-104916666D01*
X172288566Y-104916666D02*
X172255233Y-104983333D01*
X171955233Y-104649999D02*
X172655233Y-104416666D01*
X172655233Y-104416666D02*
X171955233Y-104183332D01*
X151818202Y-91344766D02*
X152051535Y-91678100D01*
X152218202Y-91344766D02*
X152218202Y-92044766D01*
X152218202Y-92044766D02*
X151951535Y-92044766D01*
X151951535Y-92044766D02*
X151884869Y-92011433D01*
X151884869Y-92011433D02*
X151851535Y-91978100D01*
X151851535Y-91978100D02*
X151818202Y-91911433D01*
X151818202Y-91911433D02*
X151818202Y-91811433D01*
X151818202Y-91811433D02*
X151851535Y-91744766D01*
X151851535Y-91744766D02*
X151884869Y-91711433D01*
X151884869Y-91711433D02*
X151951535Y-91678100D01*
X151951535Y-91678100D02*
X152218202Y-91678100D01*
X151518202Y-91711433D02*
X151284869Y-91711433D01*
X151184869Y-91344766D02*
X151518202Y-91344766D01*
X151518202Y-91344766D02*
X151518202Y-92044766D01*
X151518202Y-92044766D02*
X151184869Y-92044766D01*
X150918202Y-91378100D02*
X150818202Y-91344766D01*
X150818202Y-91344766D02*
X150651536Y-91344766D01*
X150651536Y-91344766D02*
X150584869Y-91378100D01*
X150584869Y-91378100D02*
X150551536Y-91411433D01*
X150551536Y-91411433D02*
X150518202Y-91478100D01*
X150518202Y-91478100D02*
X150518202Y-91544766D01*
X150518202Y-91544766D02*
X150551536Y-91611433D01*
X150551536Y-91611433D02*
X150584869Y-91644766D01*
X150584869Y-91644766D02*
X150651536Y-91678100D01*
X150651536Y-91678100D02*
X150784869Y-91711433D01*
X150784869Y-91711433D02*
X150851536Y-91744766D01*
X150851536Y-91744766D02*
X150884869Y-91778100D01*
X150884869Y-91778100D02*
X150918202Y-91844766D01*
X150918202Y-91844766D02*
X150918202Y-91911433D01*
X150918202Y-91911433D02*
X150884869Y-91978100D01*
X150884869Y-91978100D02*
X150851536Y-92011433D01*
X150851536Y-92011433D02*
X150784869Y-92044766D01*
X150784869Y-92044766D02*
X150618202Y-92044766D01*
X150618202Y-92044766D02*
X150518202Y-92011433D01*
X150218202Y-91711433D02*
X149984869Y-91711433D01*
X149884869Y-91344766D02*
X150218202Y-91344766D01*
X150218202Y-91344766D02*
X150218202Y-92044766D01*
X150218202Y-92044766D02*
X149884869Y-92044766D01*
X149684869Y-92044766D02*
X149284869Y-92044766D01*
X149484869Y-91344766D02*
X149484869Y-92044766D01*
X149015131Y-106188566D02*
X149115131Y-106221900D01*
X149115131Y-106221900D02*
X149148464Y-106255233D01*
X149148464Y-106255233D02*
X149181797Y-106321900D01*
X149181797Y-106321900D02*
X149181797Y-106421900D01*
X149181797Y-106421900D02*
X149148464Y-106488566D01*
X149148464Y-106488566D02*
X149115131Y-106521900D01*
X149115131Y-106521900D02*
X149048464Y-106555233D01*
X149048464Y-106555233D02*
X148781797Y-106555233D01*
X148781797Y-106555233D02*
X148781797Y-105855233D01*
X148781797Y-105855233D02*
X149015131Y-105855233D01*
X149015131Y-105855233D02*
X149081797Y-105888566D01*
X149081797Y-105888566D02*
X149115131Y-105921900D01*
X149115131Y-105921900D02*
X149148464Y-105988566D01*
X149148464Y-105988566D02*
X149148464Y-106055233D01*
X149148464Y-106055233D02*
X149115131Y-106121900D01*
X149115131Y-106121900D02*
X149081797Y-106155233D01*
X149081797Y-106155233D02*
X149015131Y-106188566D01*
X149015131Y-106188566D02*
X148781797Y-106188566D01*
X149615131Y-105855233D02*
X149748464Y-105855233D01*
X149748464Y-105855233D02*
X149815131Y-105888566D01*
X149815131Y-105888566D02*
X149881797Y-105955233D01*
X149881797Y-105955233D02*
X149915131Y-106088566D01*
X149915131Y-106088566D02*
X149915131Y-106321900D01*
X149915131Y-106321900D02*
X149881797Y-106455233D01*
X149881797Y-106455233D02*
X149815131Y-106521900D01*
X149815131Y-106521900D02*
X149748464Y-106555233D01*
X149748464Y-106555233D02*
X149615131Y-106555233D01*
X149615131Y-106555233D02*
X149548464Y-106521900D01*
X149548464Y-106521900D02*
X149481797Y-106455233D01*
X149481797Y-106455233D02*
X149448464Y-106321900D01*
X149448464Y-106321900D02*
X149448464Y-106088566D01*
X149448464Y-106088566D02*
X149481797Y-105955233D01*
X149481797Y-105955233D02*
X149548464Y-105888566D01*
X149548464Y-105888566D02*
X149615131Y-105855233D01*
X150348464Y-105855233D02*
X150481797Y-105855233D01*
X150481797Y-105855233D02*
X150548464Y-105888566D01*
X150548464Y-105888566D02*
X150615130Y-105955233D01*
X150615130Y-105955233D02*
X150648464Y-106088566D01*
X150648464Y-106088566D02*
X150648464Y-106321900D01*
X150648464Y-106321900D02*
X150615130Y-106455233D01*
X150615130Y-106455233D02*
X150548464Y-106521900D01*
X150548464Y-106521900D02*
X150481797Y-106555233D01*
X150481797Y-106555233D02*
X150348464Y-106555233D01*
X150348464Y-106555233D02*
X150281797Y-106521900D01*
X150281797Y-106521900D02*
X150215130Y-106455233D01*
X150215130Y-106455233D02*
X150181797Y-106321900D01*
X150181797Y-106321900D02*
X150181797Y-106088566D01*
X150181797Y-106088566D02*
X150215130Y-105955233D01*
X150215130Y-105955233D02*
X150281797Y-105888566D01*
X150281797Y-105888566D02*
X150348464Y-105855233D01*
X150848463Y-105855233D02*
X151248463Y-105855233D01*
X151048463Y-106555233D02*
X151048463Y-105855233D01*
X151448463Y-106521900D02*
X151548463Y-106555233D01*
X151548463Y-106555233D02*
X151715130Y-106555233D01*
X151715130Y-106555233D02*
X151781796Y-106521900D01*
X151781796Y-106521900D02*
X151815130Y-106488566D01*
X151815130Y-106488566D02*
X151848463Y-106421900D01*
X151848463Y-106421900D02*
X151848463Y-106355233D01*
X151848463Y-106355233D02*
X151815130Y-106288566D01*
X151815130Y-106288566D02*
X151781796Y-106255233D01*
X151781796Y-106255233D02*
X151715130Y-106221900D01*
X151715130Y-106221900D02*
X151581796Y-106188566D01*
X151581796Y-106188566D02*
X151515130Y-106155233D01*
X151515130Y-106155233D02*
X151481796Y-106121900D01*
X151481796Y-106121900D02*
X151448463Y-106055233D01*
X151448463Y-106055233D02*
X151448463Y-105988566D01*
X151448463Y-105988566D02*
X151481796Y-105921900D01*
X151481796Y-105921900D02*
X151515130Y-105888566D01*
X151515130Y-105888566D02*
X151581796Y-105855233D01*
X151581796Y-105855233D02*
X151748463Y-105855233D01*
X151748463Y-105855233D02*
X151848463Y-105888566D01*
X152148463Y-106188566D02*
X152381797Y-106188566D01*
X152481797Y-106555233D02*
X152148463Y-106555233D01*
X152148463Y-106555233D02*
X152148463Y-105855233D01*
X152148463Y-105855233D02*
X152481797Y-105855233D01*
X153115130Y-106555233D02*
X152781796Y-106555233D01*
X152781796Y-106555233D02*
X152781796Y-105855233D01*
D10*
X137982057Y-92758458D02*
X137982057Y-93187030D01*
X137982057Y-93187030D02*
X138410628Y-93229887D01*
X138410628Y-93229887D02*
X138367771Y-93187030D01*
X138367771Y-93187030D02*
X138324914Y-93101316D01*
X138324914Y-93101316D02*
X138324914Y-92887030D01*
X138324914Y-92887030D02*
X138367771Y-92801316D01*
X138367771Y-92801316D02*
X138410628Y-92758458D01*
X138410628Y-92758458D02*
X138496342Y-92715601D01*
X138496342Y-92715601D02*
X138710628Y-92715601D01*
X138710628Y-92715601D02*
X138796342Y-92758458D01*
X138796342Y-92758458D02*
X138839200Y-92801316D01*
X138839200Y-92801316D02*
X138882057Y-92887030D01*
X138882057Y-92887030D02*
X138882057Y-93101316D01*
X138882057Y-93101316D02*
X138839200Y-93187030D01*
X138839200Y-93187030D02*
X138796342Y-93229887D01*
X145782057Y-104301316D02*
X146382057Y-104301316D01*
X145439200Y-104515601D02*
X146082057Y-104729887D01*
X146082057Y-104729887D02*
X146082057Y-104172744D01*
D11*
X172251535Y-92378100D02*
X172151535Y-92344766D01*
X172151535Y-92344766D02*
X171984869Y-92344766D01*
X171984869Y-92344766D02*
X171918202Y-92378100D01*
X171918202Y-92378100D02*
X171884869Y-92411433D01*
X171884869Y-92411433D02*
X171851535Y-92478100D01*
X171851535Y-92478100D02*
X171851535Y-92544766D01*
X171851535Y-92544766D02*
X171884869Y-92611433D01*
X171884869Y-92611433D02*
X171918202Y-92644766D01*
X171918202Y-92644766D02*
X171984869Y-92678100D01*
X171984869Y-92678100D02*
X172118202Y-92711433D01*
X172118202Y-92711433D02*
X172184869Y-92744766D01*
X172184869Y-92744766D02*
X172218202Y-92778100D01*
X172218202Y-92778100D02*
X172251535Y-92844766D01*
X172251535Y-92844766D02*
X172251535Y-92911433D01*
X172251535Y-92911433D02*
X172218202Y-92978100D01*
X172218202Y-92978100D02*
X172184869Y-93011433D01*
X172184869Y-93011433D02*
X172118202Y-93044766D01*
X172118202Y-93044766D02*
X171951535Y-93044766D01*
X171951535Y-93044766D02*
X171851535Y-93011433D01*
X171618202Y-93044766D02*
X171451535Y-92344766D01*
X171451535Y-92344766D02*
X171318202Y-92844766D01*
X171318202Y-92844766D02*
X171184868Y-92344766D01*
X171184868Y-92344766D02*
X171018202Y-93044766D01*
X170751535Y-92344766D02*
X170751535Y-93044766D01*
X170751535Y-93044766D02*
X170584868Y-93044766D01*
X170584868Y-93044766D02*
X170484868Y-93011433D01*
X170484868Y-93011433D02*
X170418202Y-92944766D01*
X170418202Y-92944766D02*
X170384868Y-92878100D01*
X170384868Y-92878100D02*
X170351535Y-92744766D01*
X170351535Y-92744766D02*
X170351535Y-92644766D01*
X170351535Y-92644766D02*
X170384868Y-92511433D01*
X170384868Y-92511433D02*
X170418202Y-92444766D01*
X170418202Y-92444766D02*
X170484868Y-92378100D01*
X170484868Y-92378100D02*
X170584868Y-92344766D01*
X170584868Y-92344766D02*
X170751535Y-92344766D01*
D10*
X136717771Y-103337030D02*
X136674914Y-103422744D01*
X136674914Y-103422744D02*
X136589200Y-103508458D01*
X136589200Y-103508458D02*
X136460628Y-103637030D01*
X136460628Y-103637030D02*
X136417771Y-103722744D01*
X136417771Y-103722744D02*
X136417771Y-103808458D01*
X136632057Y-103765601D02*
X136589200Y-103851316D01*
X136589200Y-103851316D02*
X136503485Y-103937030D01*
X136503485Y-103937030D02*
X136332057Y-103979887D01*
X136332057Y-103979887D02*
X136032057Y-103979887D01*
X136032057Y-103979887D02*
X135860628Y-103937030D01*
X135860628Y-103937030D02*
X135774914Y-103851316D01*
X135774914Y-103851316D02*
X135732057Y-103765601D01*
X135732057Y-103765601D02*
X135732057Y-103594173D01*
X135732057Y-103594173D02*
X135774914Y-103508458D01*
X135774914Y-103508458D02*
X135860628Y-103422744D01*
X135860628Y-103422744D02*
X136032057Y-103379887D01*
X136032057Y-103379887D02*
X136332057Y-103379887D01*
X136332057Y-103379887D02*
X136503485Y-103422744D01*
X136503485Y-103422744D02*
X136589200Y-103508458D01*
X136589200Y-103508458D02*
X136632057Y-103594173D01*
X136632057Y-103594173D02*
X136632057Y-103765601D01*
X136589200Y-103037030D02*
X136632057Y-102908459D01*
X136632057Y-102908459D02*
X136632057Y-102694173D01*
X136632057Y-102694173D02*
X136589200Y-102608459D01*
X136589200Y-102608459D02*
X136546342Y-102565601D01*
X136546342Y-102565601D02*
X136460628Y-102522744D01*
X136460628Y-102522744D02*
X136374914Y-102522744D01*
X136374914Y-102522744D02*
X136289200Y-102565601D01*
X136289200Y-102565601D02*
X136246342Y-102608459D01*
X136246342Y-102608459D02*
X136203485Y-102694173D01*
X136203485Y-102694173D02*
X136160628Y-102865601D01*
X136160628Y-102865601D02*
X136117771Y-102951316D01*
X136117771Y-102951316D02*
X136074914Y-102994173D01*
X136074914Y-102994173D02*
X135989200Y-103037030D01*
X135989200Y-103037030D02*
X135903485Y-103037030D01*
X135903485Y-103037030D02*
X135817771Y-102994173D01*
X135817771Y-102994173D02*
X135774914Y-102951316D01*
X135774914Y-102951316D02*
X135732057Y-102865601D01*
X135732057Y-102865601D02*
X135732057Y-102651316D01*
X135732057Y-102651316D02*
X135774914Y-102522744D01*
X136632057Y-102137030D02*
X135732057Y-102137030D01*
X135732057Y-102137030D02*
X135732057Y-101794173D01*
X135732057Y-101794173D02*
X135774914Y-101708458D01*
X135774914Y-101708458D02*
X135817771Y-101665601D01*
X135817771Y-101665601D02*
X135903485Y-101622744D01*
X135903485Y-101622744D02*
X136032057Y-101622744D01*
X136032057Y-101622744D02*
X136117771Y-101665601D01*
X136117771Y-101665601D02*
X136160628Y-101708458D01*
X136160628Y-101708458D02*
X136203485Y-101794173D01*
X136203485Y-101794173D02*
X136203485Y-102137030D01*
X136632057Y-101237030D02*
X135732057Y-101237030D01*
D12*
%TO.C,R12*%
X132746359Y-91720000D02*
X133053641Y-91720000D01*
X132746359Y-92480000D02*
X133053641Y-92480000D01*
%TO.C,D2*%
X133915000Y-91365000D02*
X133915000Y-92835000D01*
X133915000Y-92835000D02*
X136200000Y-92835000D01*
X136200000Y-91365000D02*
X133915000Y-91365000D01*
%TO.C,J1*%
X129400000Y-94300000D02*
X127400000Y-94300000D01*
X125500000Y-94300000D02*
X123600000Y-94300000D01*
X123600000Y-94300000D02*
X123600000Y-103700000D01*
X129400000Y-103700000D02*
X127400000Y-103700000D01*
X125500000Y-103700000D02*
X123600000Y-103700000D01*
%TO.C,SW2*%
X152950000Y-104100000D02*
X152950000Y-104000000D01*
X152950000Y-102500000D02*
X148550000Y-102500000D01*
X148550000Y-105600000D02*
X152950000Y-105600000D01*
X148550000Y-104100000D02*
X148550000Y-104000000D01*
%TO.C,U1*%
X164310000Y-102110000D02*
X164310000Y-101660000D01*
X164310000Y-94890000D02*
X164310000Y-95340000D01*
X163860000Y-102110000D02*
X164310000Y-102110000D01*
X163860000Y-94890000D02*
X164310000Y-94890000D01*
X157540000Y-102110000D02*
X157090000Y-102110000D01*
X157540000Y-94890000D02*
X157090000Y-94890000D01*
X157090000Y-102110000D02*
X157090000Y-101660000D01*
%TO.C,C17*%
X147107836Y-96890000D02*
X146892164Y-96890000D01*
X147107836Y-97610000D02*
X146892164Y-97610000D01*
%TO.C,R6*%
X156370000Y-92403641D02*
X156370000Y-92096359D01*
X157130000Y-92403641D02*
X157130000Y-92096359D01*
%TO.C,C11*%
X158140000Y-92857836D02*
X158140000Y-92642164D01*
X158860000Y-92857836D02*
X158860000Y-92642164D01*
%TO.C,C5*%
X155607836Y-95140000D02*
X155392164Y-95140000D01*
X155607836Y-95860000D02*
X155392164Y-95860000D01*
%TO.C,U2*%
X138690000Y-97990000D02*
X139690000Y-97990000D01*
X138690000Y-99510000D02*
X138690000Y-97990000D01*
X138740000Y-99510000D02*
X138690000Y-99510000D01*
X140640000Y-99510000D02*
X139860000Y-99510000D01*
X140810000Y-97990000D02*
X141810000Y-97990000D01*
X141810000Y-97990000D02*
X141810000Y-99510000D01*
X141810000Y-99510000D02*
X141760000Y-99510000D01*
X140200000Y-100290000D02*
X139870000Y-100050000D01*
X140200000Y-99810000D01*
X140200000Y-100290000D01*
G36*
X140200000Y-100290000D02*
G01*
X139870000Y-100050000D01*
X140200000Y-99810000D01*
X140200000Y-100290000D01*
G37*
%TO.C,U3*%
X143190000Y-97990000D02*
X144190000Y-97990000D01*
X143190000Y-99510000D02*
X143190000Y-97990000D01*
X143240000Y-99510000D02*
X143190000Y-99510000D01*
X145140000Y-99510000D02*
X144360000Y-99510000D01*
X145310000Y-97990000D02*
X146310000Y-97990000D01*
X146310000Y-97990000D02*
X146310000Y-99510000D01*
X146310000Y-99510000D02*
X146260000Y-99510000D01*
X144700000Y-100290000D02*
X144370000Y-100050000D01*
X144700000Y-99810000D01*
X144700000Y-100290000D01*
G36*
X144700000Y-100290000D02*
G01*
X144370000Y-100050000D01*
X144700000Y-99810000D01*
X144700000Y-100290000D01*
G37*
%TO.C,R2*%
X146403641Y-105120000D02*
X146096359Y-105120000D01*
X146403641Y-105880000D02*
X146096359Y-105880000D01*
%TO.C,D3*%
X165200000Y-92985000D02*
X167485000Y-92985000D01*
X167485000Y-91515000D02*
X165200000Y-91515000D01*
X167485000Y-92985000D02*
X167485000Y-91515000D01*
%TO.C,C20*%
X155640000Y-105142164D02*
X155640000Y-105357836D01*
X156360000Y-105142164D02*
X156360000Y-105357836D01*
%TO.C,SW1*%
X148600000Y-93850000D02*
X148600000Y-93750000D01*
X148600000Y-95350000D02*
X153000000Y-95350000D01*
X153000000Y-92250000D02*
X148600000Y-92250000D01*
X153000000Y-93850000D02*
X153000000Y-93750000D01*
%TO.C,C16*%
X146640000Y-99642164D02*
X146640000Y-99857836D01*
X147360000Y-99642164D02*
X147360000Y-99857836D01*
%TO.C,C14*%
X142140000Y-99662164D02*
X142140000Y-99877836D01*
X142860000Y-99662164D02*
X142860000Y-99877836D01*
%TO.C,R10*%
X172653641Y-100620000D02*
X172346359Y-100620000D01*
X172653641Y-101380000D02*
X172346359Y-101380000D01*
%TO.C,R1*%
X144403641Y-105120000D02*
X144096359Y-105120000D01*
X144403641Y-105880000D02*
X144096359Y-105880000D01*
%TO.C,R8*%
X132870000Y-101653641D02*
X132870000Y-101346359D01*
X133630000Y-101653641D02*
X133630000Y-101346359D01*
%TO.C,C7*%
X156857836Y-102890000D02*
X156642164Y-102890000D01*
X156857836Y-103610000D02*
X156642164Y-103610000D01*
%TO.C,R4*%
X161370000Y-92846359D02*
X161370000Y-93153641D01*
X162130000Y-92846359D02*
X162130000Y-93153641D01*
%TO.C,C4*%
X166142164Y-97640000D02*
X166357836Y-97640000D01*
X166142164Y-98360000D02*
X166357836Y-98360000D01*
%TO.C,R5*%
X168653641Y-91870000D02*
X168346359Y-91870000D01*
X168653641Y-92630000D02*
X168346359Y-92630000D01*
%TO.C,U4*%
X147940000Y-97977500D02*
X147990000Y-97977500D01*
X147940000Y-99797500D02*
X147940000Y-97977500D01*
X147990000Y-99797500D02*
X147940000Y-99797500D01*
X149890000Y-99797500D02*
X149110000Y-99797500D01*
X151010000Y-97977500D02*
X151060000Y-97977500D01*
X151060000Y-97977500D02*
X151060000Y-99797500D01*
X151060000Y-99797500D02*
X151010000Y-99797500D01*
X151340000Y-97677500D02*
X151010000Y-97437500D01*
X151340000Y-97197500D01*
X151340000Y-97677500D01*
G36*
X151340000Y-97677500D02*
G01*
X151010000Y-97437500D01*
X151340000Y-97197500D01*
X151340000Y-97677500D01*
G37*
%TO.C,C12*%
X159140000Y-92857836D02*
X159140000Y-92642164D01*
X159860000Y-92857836D02*
X159860000Y-92642164D01*
%TO.C,C21*%
X167107836Y-102390000D02*
X166892164Y-102390000D01*
X167107836Y-103110000D02*
X166892164Y-103110000D01*
%TO.C,C6*%
X154857836Y-99390000D02*
X154642164Y-99390000D01*
X154857836Y-100110000D02*
X154642164Y-100110000D01*
%TO.C,C2*%
X154857836Y-97140000D02*
X154642164Y-97140000D01*
X154857836Y-97860000D02*
X154642164Y-97860000D01*
%TO.C,C13*%
X138877836Y-96890000D02*
X138662164Y-96890000D01*
X138877836Y-97610000D02*
X138662164Y-97610000D01*
%TO.C,C3*%
X160640000Y-103892164D02*
X160640000Y-104107836D01*
X161360000Y-103892164D02*
X161360000Y-104107836D01*
%TO.C,D1*%
X137760000Y-96900000D02*
X134500000Y-96900000D01*
X137760000Y-98600000D02*
X134500000Y-98600000D01*
X137760000Y-98600000D02*
X137760000Y-96900000D01*
%TO.C,J6*%
X137040000Y-96380000D02*
X137040000Y-95000000D01*
X138420000Y-96380000D02*
X137040000Y-96380000D01*
X139690000Y-93620000D02*
X147420000Y-93620000D01*
X139690000Y-96380000D02*
X139690000Y-93620000D01*
X139690000Y-96380000D02*
X147420000Y-96380000D01*
X147420000Y-96380000D02*
X147420000Y-93620000D01*
%TO.C,R7*%
X132870000Y-96403641D02*
X132870000Y-96096359D01*
X133630000Y-96403641D02*
X133630000Y-96096359D01*
%TO.C,J7*%
X168410000Y-93530000D02*
X169685000Y-93530000D01*
X169685000Y-93465000D02*
X169685000Y-93530000D01*
X169685000Y-93465000D02*
X173315000Y-93465000D01*
X169685000Y-99970000D02*
X169685000Y-100035000D01*
X169685000Y-100035000D02*
X173315000Y-100035000D01*
X173315000Y-93465000D02*
X173315000Y-93530000D01*
X173315000Y-99970000D02*
X173315000Y-100035000D01*
D13*
%TO.C,REF\u002A\u002A*%
X138950000Y-105650000D02*
X137550000Y-105650000D01*
X138250000Y-104350000D01*
X138950000Y-105650000D01*
G36*
X138950000Y-105650000D02*
G01*
X137550000Y-105650000D01*
X138250000Y-104350000D01*
X138950000Y-105650000D01*
G37*
D12*
%TO.C,C10*%
X165392164Y-94390000D02*
X165607836Y-94390000D01*
X165392164Y-95110000D02*
X165607836Y-95110000D01*
%TO.C,U5*%
X170450000Y-100840000D02*
X169050000Y-100840000D01*
X170460000Y-103160000D02*
X169050000Y-103160000D01*
X171070000Y-103440000D02*
X170590000Y-103440000D01*
X170830000Y-103110000D01*
X171070000Y-103440000D01*
G36*
X171070000Y-103440000D02*
G01*
X170590000Y-103440000D01*
X170830000Y-103110000D01*
X171070000Y-103440000D01*
G37*
%TO.C,R9*%
X172346359Y-101620000D02*
X172653641Y-101620000D01*
X172346359Y-102380000D02*
X172653641Y-102380000D01*
%TO.C,C9*%
X166142164Y-98640000D02*
X166357836Y-98640000D01*
X166142164Y-99360000D02*
X166357836Y-99360000D01*
%TO.C,C18*%
X151390000Y-99872164D02*
X151390000Y-100087836D01*
X152110000Y-99872164D02*
X152110000Y-100087836D01*
%TO.C,C1*%
X162390000Y-93107836D02*
X162390000Y-92892164D01*
X163110000Y-93107836D02*
X163110000Y-92892164D01*
%TO.C,C19*%
X155337836Y-91140000D02*
X155122164Y-91140000D01*
X155337836Y-91860000D02*
X155122164Y-91860000D01*
%TO.C,R3*%
X160370000Y-93153641D02*
X160370000Y-92846359D01*
X161130000Y-93153641D02*
X161130000Y-92846359D01*
%TO.C,R11*%
X166846359Y-100620000D02*
X167153641Y-100620000D01*
X166846359Y-101380000D02*
X167153641Y-101380000D01*
%TO.C,J5*%
X137040000Y-104000000D02*
X137040000Y-102620000D01*
X138420000Y-104000000D02*
X137040000Y-104000000D01*
X139690000Y-101240000D02*
X147420000Y-101240000D01*
X139690000Y-104000000D02*
X139690000Y-101240000D01*
X139690000Y-104000000D02*
X147420000Y-104000000D01*
X147420000Y-104000000D02*
X147420000Y-101240000D01*
%TO.C,C15*%
X143337836Y-96890000D02*
X143122164Y-96890000D01*
X143337836Y-97610000D02*
X143122164Y-97610000D01*
%TO.C,J2*%
X163830000Y-106630000D02*
X163830000Y-105250000D01*
X165210000Y-106630000D02*
X163830000Y-106630000D01*
X166480000Y-103870000D02*
X171670000Y-103870000D01*
X166480000Y-106630000D02*
X166480000Y-103870000D01*
X166480000Y-106630000D02*
X171670000Y-106630000D01*
X171670000Y-106630000D02*
X171670000Y-103870000D01*
%TO.C,C8*%
X164892164Y-102390000D02*
X165107836Y-102390000D01*
X164892164Y-103110000D02*
X165107836Y-103110000D01*
%TD*%
M02*
